<?xml version="1.0" encoding="utf-8" ?><svg xmlns="http://www.w3.org/2000/svg" xmlns:xlink="http://www.w3.org/1999/xlink" width="4096" height="2160" viewBox="0 0 4096 2160"><path fill="#21211f" d="M0 0L4096 0L4096 229.78L4096 239.239L4096 1888.44L4096 1898.76L4096 2160L0 2160L0 1888.95L0 1879.03L0 459.596L0 445.664L0 0Z"/><path fill="#21211f" d="M2135.71 1917.03C2195.86 1907.09 2301.38 1876.43 2355.21 1858.57C2445.77 1828.24 2536.39 1794.57 2623.18 1761.55C2832.41 1681.98 3068.54 1603.37 3338.96 1634.93C3630.06 1668.9 3890.22 1791.45 4096 1898.76L4096 2160L0 2160L0 1888.95L0 1879.03C186.133 1814.49 453.929 1758.77 675.757 1745.85C684.865 1749.1 704.121 1753.08 714.89 1752.96C723.371 1753.08 741.564 1752.09 750.742 1751.72C892.875 1748.09 1026.79 1758.23 1158.53 1787.76C1387.76 1839.14 1570.34 1947.21 1832.93 1949.44C1861.6 1949.68 1894.94 1950.03 1922.9 1947.06C1967.69 1948.62 2092.55 1928.19 2135.71 1917.03Z"/><path fill="#2d2d2a" d="M0 1879.03C186.133 1814.49 453.929 1758.77 675.757 1745.85C684.865 1749.1 704.121 1753.08 714.89 1752.96C462.08 1771.19 213.199 1813.3 0 1888.95L0 1879.03Z"/><path fill="#21211f" d="M0 0L4096 0L4096 229.78L4096 239.239C4054.62 244.597 4012.96 251.017 3971.99 257.242C3897.2 268.605 3820.1 278.207 3747.21 292.458C3725.13 296.777 3701.14 305.789 3682.48 313.211C3670.09 319.222 3655.11 326.129 3643.72 332.502C3642.12 328.015 3642.4 328.171 3637.78 324.375C3607.33 340 3571.72 366.116 3545.85 384.53L3450.15 452.31C3409.7 481.56 3377.74 505.91 3331.26 532.497C3267.28 569.095 3192.82 587.24 3120.07 618.285C3091.61 630.432 3021.68 665.662 2989.62 667.168C2986.95 666.586 2985 666.689 2984.09 665.084C2968.45 637.426 3191.66 321.92 3202.32 250.943C3210.42 197.107 3145.96 216.153 3142.11 177.205C3140.1 156.922 3162.8 100.48 3148.15 86.3432C3111.68 75.6866 2958.55 195.905 2915.36 203.069C2857.88 212.604 2807.96 181.171 2756.77 208.5C2733.16 221.799 2716.27 234.8 2696.06 248.744L2588.42 323.02C2557.4 344.871 2514.53 376.905 2476.72 395.071C2510.25 338.956 2558.54 285.062 2597.69 229.932C2615.04 205.488 2634.36 179.312 2642.18 153.438C2644.52 145.676 2645.59 136.338 2639.09 129.072C2636.22 125.869 2631.62 123.524 2625.03 122.594C2575.03 115.543 2388.86 169.498 2335.59 183.902C2313.88 189.771 2264.9 205.706 2241.23 205.36C2233.32 205.244 2229.1 203.155 2224.94 199.837C2205.42 184.288 2204.14 163.815 2183.26 148.321C2158.18 129.702 2123.94 137.256 2104.65 107.255C2094 90.6922 2085.08 29.6619 2076.22 23.5926C2060.06 22.064 1980.31 52.4839 1961.97 58.0102C1864.59 87.3518 1765.05 138.379 1658.72 156.221C1587.02 168.251 1490.97 160.35 1420.14 179.681C1364.04 195.133 1313 246.687 1255.03 265.731C1220.29 277.143 1184.74 277.107 1147 282.813C1058.55 296.185 1032.51 334.483 1012.54 377.572C1004.26 395.939 996.89 414.417 990.43 432.986C985.944 446.152 967.687 520.042 952.225 525.481C951.753 525.647 951.198 525.737 950.684 525.865C912.249 518.224 840.026 357.306 759.599 349.763C741.942 346.391 722.239 346.569 704.104 348.782C684.126 351.219 664.06 355.731 645.269 359.946C630.859 363.178 618.675 365.585 602.983 366.072C543.819 368.016 531.048 321.207 483.514 312.599C441.497 306.302 387.957 320.257 351.974 329.916C260.384 354.504 175.094 384.83 80.2958 405.866C62.129 409.898 38.8518 414.941 26.9516 423.628C17.9165 429.245 7.48027 439.102 0 445.664L0 0Z"/><path fill="#2d2d2a" d="M4096 229.78L4096 239.239C4054.62 244.597 4012.96 251.017 3971.99 257.242C3897.2 268.605 3820.1 278.207 3747.21 292.458C3725.13 296.777 3701.14 305.789 3682.48 313.211C3684.19 306.411 3681.49 306.924 3687.78 299.855C3703.28 293.047 3726.53 286.088 3745.4 282.297C3807.94 269.738 3875.86 260.93 3940.36 251.577C3992.39 244.032 4043.33 235.899 4096 229.78Z"/><defs><linearGradient id="gradient_0" gradientUnits="userSpaceOnUse" x1="3644.1614" y1="317.34369" x2="3679.759" y2="317.59155"><stop offset="0" stop-color="#1a1a18"/><stop offset="1" stop-color="#252523"/></linearGradient></defs><path fill="url(#gradient_0)" d="M3687.78 299.855C3681.49 306.924 3684.19 306.411 3682.48 313.211C3670.09 319.222 3655.11 326.129 3643.72 332.502C3642.12 328.015 3642.4 328.171 3637.78 324.375C3654.23 315.258 3669.13 307.685 3687.78 299.855Z"/><path fill="#2d2d2a" d="M26.9516 423.628C38.8518 414.941 62.129 409.898 80.2958 405.866C175.094 384.83 260.384 354.504 351.974 329.916C387.957 320.257 441.497 306.302 483.514 312.599C531.048 321.207 543.819 368.016 602.983 366.072C618.675 365.585 630.859 363.178 645.269 359.946C664.06 355.731 684.126 351.219 704.104 348.782C722.239 346.569 741.942 346.391 759.599 349.763C840.026 357.306 912.249 518.224 950.684 525.865C951.198 525.737 951.753 525.647 952.225 525.481C967.687 520.042 985.944 446.152 990.43 432.986C996.89 414.417 1004.26 395.939 1012.54 377.572C1032.51 334.483 1058.55 296.185 1147 282.813C1184.74 277.107 1220.29 277.143 1255.03 265.731C1313 246.687 1364.04 195.133 1420.14 179.681C1490.97 160.35 1587.02 168.251 1658.72 156.221C1765.05 138.379 1864.59 87.3518 1961.97 58.0102C1980.31 52.4839 2060.06 22.064 2076.22 23.5926C2085.08 29.6619 2094 90.6922 2104.65 107.255C2123.94 137.256 2158.18 129.702 2183.26 148.321C2204.14 163.815 2205.42 184.288 2224.94 199.837C2229.1 203.155 2233.32 205.244 2241.23 205.36C2264.9 205.706 2313.88 189.771 2335.59 183.902C2388.86 169.498 2575.03 115.543 2625.03 122.594C2631.62 123.524 2636.22 125.869 2639.09 129.072C2645.59 136.338 2644.52 145.676 2642.18 153.438C2634.36 179.312 2615.04 205.488 2597.69 229.932C2558.54 285.062 2510.25 338.956 2476.72 395.071C2514.53 376.905 2557.4 344.871 2588.42 323.02L2696.06 248.744C2716.27 234.8 2733.16 221.799 2756.77 208.5C2807.96 181.171 2857.88 212.604 2915.36 203.069C2958.55 195.905 3111.68 75.6866 3148.15 86.3432C3162.8 100.48 3140.1 156.922 3142.11 177.205C3145.96 216.153 3210.42 197.107 3202.32 250.943C3191.66 321.92 2968.45 637.426 2984.09 665.084C2985 666.689 2986.95 666.586 2989.62 667.168C3021.68 665.662 3091.61 630.432 3120.07 618.285C3192.82 587.24 3267.28 569.095 3331.26 532.497C3377.74 505.91 3409.7 481.56 3450.15 452.31L3545.85 384.53C3571.72 366.116 3607.33 340 3637.78 324.375C3642.4 328.171 3642.12 328.015 3643.72 332.502C3525.24 400.562 3440.13 485.211 3317.62 551.329C3259.32 582.791 3177.73 603.308 3115.06 631.475C3048.24 661.508 2934.01 721.029 2985.39 624.308C2996.08 604.186 3006.48 583.899 3018.13 563.815L3120.67 390.446C3136.99 363.104 3154.05 335.009 3168.74 307.451C3181.02 284.418 3204.41 243.96 3184.12 221.989C3158.27 212.563 3141.38 210.053 3135.6 190.154C3126.79 159.796 3143.21 124.498 3142.49 94.1812C3141.73 94.4261 3140.96 94.6667 3140.21 94.916C3072.69 117.187 2967.24 202.293 2916.99 213.705C2901.62 217.195 2885.29 215.82 2869.51 213.984C2842.3 210.817 2805.02 202.498 2779.02 210.807C2746.7 221.133 2716.83 246.599 2693.82 262.583C2659.64 285.939 2625.77 309.426 2592.23 333.042C2574.48 345.625 2498.7 402.788 2473.79 405.116C2458.23 400.92 2470.5 383.573 2475.01 376.795C2491.29 352.345 2510.77 328.279 2529.33 304.267C2552.07 274.529 2574.05 244.632 2595.27 214.585C2606.25 199.111 2648.38 145.692 2626.95 133.139C2612.39 129.149 2593.93 132.73 2579.23 135.156C2504.7 147.448 2430.67 168.264 2361.4 187.135C2329.47 195.837 2296.08 206.522 2262.08 212.712C2252.76 214.41 2240.67 216.536 2231.37 213.747C2203.32 205.339 2196.76 171.807 2178.66 157.159C2150.82 134.63 2110.59 149.57 2089.56 100.129C2080.04 77.7507 2079.18 54.6895 2071.34 32.2457C1948.72 68.7233 1838.35 117.509 1716.18 154.16C1629.4 180.195 1524.8 168.251 1433.79 187.026C1358.8 206.253 1329.99 250.525 1259.4 275.091C1210.29 292.179 1121.35 288.492 1083.56 311.508C1011.32 355.503 1005.94 438.612 981.466 493.646C975.863 506.245 972.738 527.233 955.46 535.697C951.911 536.027 946.304 536.095 944.037 534.515C873.656 485.483 861.938 411.385 779.676 366.149C762.327 357.845 740.744 357.025 720.705 357.469C675.611 358.467 602.552 391.142 562.653 368.724C496.395 331.496 498.274 304.308 385.11 332.019C312.143 349.886 233.125 376.19 161.141 396.465C134.916 403.972 55.8946 420.952 38.9182 428.324C37.5811 425.044 38.3555 425.068 34.9354 422.574L26.9516 423.628Z"/><path fill="#2d2d2a" d="M2121.58 1910.48C2154.3 1902.27 2190.06 1895.3 2223.72 1886.94C2545.92 1806.86 2844.26 1616.3 3222.91 1617.4C3540.33 1618.32 3885.2 1774.99 4096 1888.44L4096 1898.76C3890.22 1791.45 3630.06 1668.9 3338.96 1634.93C3068.54 1603.37 2832.41 1681.98 2623.18 1761.55C2536.39 1794.57 2445.77 1828.24 2355.21 1858.57C2301.38 1876.43 2195.86 1907.09 2135.71 1917.03L2133.15 1915.97C2136.51 1914.06 2139.49 1912.69 2143.14 1910.98L2140.65 1910.37L2143.06 1911C2138.11 1909.82 2129.13 1911.1 2121.58 1910.48Z"/><path fill="#2d2d2a" d="M779.691 1741.22C823.063 1738.22 876.432 1741.22 919.923 1743.55C1067.19 1751.46 1208.86 1786.15 1334.02 1826.67C1518.73 1886.47 1656.07 1946.79 1888.23 1938.75L1886.17 1941.54C1893.48 1944.57 1895.9 1942.55 1902.21 1944.72L1893.68 1943.73C1905.57 1947.44 1909.56 1946.63 1922.9 1947.06C1894.94 1950.03 1861.6 1949.68 1832.93 1949.44C1570.34 1947.21 1387.76 1839.14 1158.53 1787.76C1026.79 1758.23 892.875 1748.09 750.742 1751.72C741.564 1752.09 723.371 1753.08 714.89 1752.96C704.121 1753.08 684.865 1749.1 675.757 1745.85C701.465 1743.6 753.932 1741.34 779.691 1741.22Z"/><path fill="#282825" d="M675.757 1745.85C701.465 1743.6 753.932 1741.34 779.691 1741.22C817.279 1743.12 843.822 1739.98 881.494 1745.88C840.921 1750.15 783.846 1745.37 750.742 1751.72C741.564 1752.09 723.371 1753.08 714.89 1752.96C704.121 1753.08 684.865 1749.1 675.757 1745.85Z"/><defs><linearGradient id="gradient_1" gradientUnits="userSpaceOnUse" x1="2007.691" y1="1920.8243" x2="2016.9863" y2="1936.4497"><stop offset="0" stop-color="#1e1e1c"/><stop offset="1" stop-color="#2a2a27"/></linearGradient></defs><path fill="url(#gradient_1)" d="M1888.23 1938.75C1933.59 1936.87 1982.69 1933.76 2026.51 1927.12C2057.47 1922.43 2090.63 1915.79 2121.58 1910.48C2129.13 1911.1 2138.11 1909.82 2143.06 1911L2140.65 1910.37L2143.14 1910.98C2139.49 1912.69 2136.51 1914.06 2133.15 1915.97L2135.71 1917.03C2092.55 1928.19 1967.69 1948.62 1922.9 1947.06C1909.56 1946.63 1905.57 1947.44 1893.68 1943.73L1902.21 1944.72C1895.9 1942.55 1893.48 1944.57 1886.17 1941.54L1888.23 1938.75Z"/><defs><linearGradient id="gradient_2" gradientUnits="userSpaceOnUse" x1="22.903864" y1="438.52625" x2="13.161347" y2="434.27414"><stop offset="0" stop-color="#1c1c1a"/><stop offset="1" stop-color="#282825"/></linearGradient></defs><path fill="url(#gradient_2)" d="M26.9516 423.628L34.9354 422.574C38.3555 425.068 37.5811 425.044 38.9182 428.324C23.6363 439.325 13.792 448.311 0 459.596L0 445.664C7.48027 439.102 17.9165 429.245 26.9516 423.628Z"/><path fill="#2a2a27" d="M3821.15 582.961C3834.44 584.398 3852.91 595.307 3862.16 600.417C3852.99 600.242 3827.81 586.985 3821.15 582.961Z"/></svg>