<svg xmlns="http://www.w3.org/2000/svg" width="512" height="512" viewBox="0 0 512 512"><rect width="512" height="512" fill="#000000"/><svg x="56" y="100" width="400" height="312" viewBox="0 0 2048 1502" fill="none"><path fill="#FFFFFF" d="M774.088 611.857C780.017 611.978 784.283 612.942 789.143 616.548C806.126 629.151 823.032 641.85 840.103 654.333L952.92 736.349L1196 912.096L1437.28 1086.64C1467.84 1108.8 1499.07 1130.28 1529.22 1152.9C1551.11 1169.33 1536.88 1183.88 1518.16 1191.92C1503.97 1198.02 1488.97 1205.49 1474.89 1212.01C1449.9 1223.37 1425.28 1235.91 1400.23 1247.12C1383.68 1254.54 1365.21 1267.12 1346.8 1266.29C1330.16 1257.68 1308.38 1240.15 1292.68 1228.58L1210.08 1168.19L880.921 928.353C865.537 917.256 780.03 858.112 775.688 849.553C772.848 843.955 771.945 836.617 771.374 830.458C770.183 817.601 770.311 804.588 769.761 791.689C768.371 763.543 767.358 735.38 766.722 707.207C766.025 683.083 763.994 659.06 763.595 634.952C763.434 625.24 764.487 616.211 774.088 611.857Z"/><path fill="#FFFFFF" d="M685.181 236.147C702.022 233.566 710.363 242.825 723.043 252.077L757.65 277.25L864.683 354.522L1162.3 569.452C1174.9 578.507 1271.48 646.103 1273.6 654.302C1279.76 678.231 1278.51 704.832 1279.58 729.49C1281.56 774.806 1282.62 820.222 1286.25 865.443C1282.28 873.936 1275.75 882.664 1265.36 876.237C1255.27 869.998 1245.7 862.207 1236.07 855.175L1171.09 807.855C1120.42 770.049 1067.54 732.663 1016.32 695.289L728.622 485.598L579.932 377.176C555.615 359.352 531.212 341.679 507.077 323.591C494.822 314.407 494.412 296.878 509.589 291.142C526.717 284.668 544.956 279.82 562.493 274.314L685.181 236.147Z"/><path fill="#FFFFFF" d="M497.034 413.982C498.897 413.99 500.757 414.135 502.6 414.417C505.885 414.931 508.763 416.406 511.395 418.408C567.131 460.806 622.341 504.042 677.368 547.363C679.491 548.847 689.537 559.22 689.651 561.436C691.242 592.207 690.776 628.118 690.837 658.654L690.861 980.368C690.834 1016.05 691.949 1063.58 689.587 1098.32C688.98 1107.26 618.392 1160.31 605.146 1170.79L540.685 1222.11C532.918 1228.29 515.3 1243.3 507.656 1247.43C504.946 1248.9 501.842 1249.48 498.782 1249.09C493.644 1248.47 491.53 1246.4 488.465 1242.57C486.386 1229.61 486.924 1212.11 486.893 1198.5L486.805 1135.67L486.844 913.134L486.864 570.102L486.966 478.13C487 464.621 486.198 429.569 489.163 418.817C490.902 416.481 494.294 415.287 497.034 413.982Z"/><path fill="#FFFFFF" d="M1542.95 252.177C1548.66 251.959 1557.03 252.538 1559.44 258.956C1560.97 263.007 1561.2 270.485 1561.2 274.899C1561.17 317.242 1560.98 359.579 1561.06 401.923L1561.05 764.255C1561.05 797.682 1562.97 1047.95 1559.85 1055.74C1558.08 1060.15 1554.48 1062.18 1550.27 1063.83C1538.6 1063.52 1515.13 1044.25 1504.97 1037.09L1444.99 995.179C1431.37 985.805 1364.78 942.026 1359.89 931.732C1357.17 926.003 1356.74 916.27 1356.48 909.924C1355.37 882.997 1356.16 855.673 1356.11 828.701L1355.94 677.855L1356.08 509.939C1356.11 479.879 1356.02 449.746 1356.37 419.686C1356.45 412.443 1357.63 404.641 1359.57 397.674C1360.35 394.872 1364.42 392.355 1366.37 390.368C1380.87 378.549 1395.72 366.963 1410.4 355.358L1491.6 291.459C1500.56 284.479 1536 255.829 1542.95 252.177Z"/></svg></svg>