<svg width="250" height="250" viewBox="0 0 250 250" fill="none" xmlns="http://www.w3.org/2000/svg">
<rect width="250" height="250" fill="#F2F4F8"/>
<path d="M163.571 96.6327V120.714H184.796C190.51 120.714 195 116.224 195 110.51V65.2041C195 59.4898 190.51 55 184.796 55H139.49C133.776 55 129.286 59.4898 129.286 65.2041V86.4286H153.367C159.082 86.4286 163.571 91.3265 163.571 96.6327ZM86.4286 96.6327V120.714H65.2041C59.4898 120.714 55 116.224 55 110.51V65.2041C55 59.4898 59.4898 55 65.2041 55H110.51C116.224 55 120.714 59.4898 120.714 65.2041V86.4286H96.6327C91.3265 86.4286 86.4286 91.3265 86.4286 96.6327Z" fill="#0078BF"/>
<path d="M86.4286 153.367V129.286H65.2041C59.4898 129.286 55 133.775 55 139.49V184.796C55 190.51 59.4898 195 65.2041 195H110.51C116.224 195 120.714 190.51 120.714 184.796V163.571H96.6327C91.3265 163.571 86.4286 159.082 86.4286 153.367ZM163.571 153.367V129.286H184.796C190.51 129.286 195 133.775 195 139.49V184.796C195 190.51 190.51 195 184.796 195H139.49C133.776 195 129.286 190.51 129.286 184.796V163.571H153.367C159.082 163.571 163.571 159.082 163.571 153.367Z" fill="#00843D"/>
</svg>
