<svg width="250" height="250" viewBox="0 0 250 250" fill="none" xmlns="http://www.w3.org/2000/svg">
<rect width="250" height="250" fill="#E57200"/>
<path d="M189.59 88.1261H61.0186C73.5418 65.3061 97.7533 50 125.304 50C152.855 50 177.067 65.3061 189.59 88.1261ZM51.5566 92.3005V114.842H81.8906L118.625 92.3005H51.5566ZM160.647 114.842H89.961L126.139 92.5788L160.647 114.842ZM133.653 92.3005H198.774V114.842H168.44L133.653 92.3005ZM51.5566 129.592V125.974L52.3915 126.531L51.8349 128.479L51.5566 129.592ZM76.603 179.685H71.0371L73.82 177.737L76.603 179.685ZM80.4991 179.685H76.603L75.4898 176.345L78.2727 174.119H74.6549L73.5418 170.779L72.4286 174.119H68.8108L71.5937 176.345L70.4805 179.685H51.2783V143.228V130.148L54.0612 128.2L56.8442 130.427L55.731 127.087L58.5139 124.861H54.8961L53.7829 121.521L53.2264 123.191L52.3915 125.139H51V119.573H79.9425V179.685H80.4991ZM51.5566 143.228L54.3395 145.455L53.2264 148.794L56.0093 146.568L58.7922 148.794L57.679 145.455L60.462 143.228H56.8442L55.731 139.889L54.6178 143.228H51.5566ZM61.5751 162.43L60.462 165.77L63.2449 163.544L66.0278 165.77L64.9147 162.43L67.6976 160.204H64.0798L62.9666 156.865L61.8534 160.204H58.2356L61.5751 162.43ZM84.9518 179.685H97.1967V119.295H84.9518V179.685ZM101.371 179.685H114.451V119.295H101.371V179.685ZM118.625 179.685H131.705V119.295H118.625V179.685ZM136.158 179.685H149.237V119.295H136.158V179.685ZM153.412 179.685H166.213V119.295H153.412V179.685ZM198.774 126.252V129.035L197.939 126.809L198.774 126.252ZM198.774 179.685H179.571H173.727H170.109V119.295H198.774V124.861H197.382L196.269 121.521L195.156 124.861H191.538L194.321 127.087L193.208 130.427L195.991 128.2L198.495 130.148V143.506H195.156L194.043 140.167L192.929 143.506H189.312L192.095 145.733L190.981 149.072L193.764 146.846L196.547 149.072L195.434 145.733L198.217 143.785V179.685H198.774ZM179.85 179.685L178.737 176.345L181.519 174.119H177.902L176.788 170.779L175.675 174.119H172.058L174.84 176.345L173.727 179.685L176.51 177.737L179.85 179.685ZM189.312 162.43L192.095 160.204H188.477L187.364 156.865L186.25 160.204H182.633L185.416 162.43L184.302 165.77L187.085 163.544L189.868 165.77L189.312 162.43ZM51.5566 200H80.4991V183.859H51.5566V200ZM126.974 200H123.635L125.304 198.887L126.974 200ZM104.989 195.269L103.876 198.609L106.659 196.382L109.442 198.609L108.328 195.269L111.111 193.043H107.494L106.38 189.703L105.267 193.043H101.649L104.989 195.269ZM123.635 197.495L122.8 200H84.9518V183.859H89.6827L88.8479 186.364H85.2301L88.013 188.59L86.8998 191.929L89.6827 189.703L92.4657 191.929L91.3525 188.59L94.1354 186.364H90.5176L89.6827 183.859H160.091L159.256 186.364H156.195L158.978 188.59L157.865 191.929L160.647 189.703L163.43 191.929L162.317 188.59L165.1 186.364H161.482L160.647 183.859H165.657V200H127.531L126.696 197.495L129.479 195.269H125.861L124.748 191.929L123.635 195.269H120.017L123.635 197.495ZM145.063 195.269L147.846 193.043H144.228L143.115 189.703L142.002 193.043H138.384L141.167 195.269L140.054 198.609L142.837 196.382L145.62 198.609L145.063 195.269ZM170.388 200H199.052V183.859H170.388V200Z" fill="white"/>
</svg>
