<svg width="250" height="250" viewBox="0 0 250 250" fill="none" xmlns="http://www.w3.org/2000/svg">
<rect width="250" height="250" fill="white"/>
<path d="M125.306 186.618C91.0441 186.618 63.3824 158.956 63.3824 124.5C63.3824 90.2382 91.0441 62.3824 125.306 62.3824C159.568 62.3824 187.229 90.0441 187.229 124.5C187.229 158.762 159.568 186.618 125.306 186.618ZM125.306 42C79.8824 42 43 78.8823 43 124.5C43 170.118 79.8824 207 125.306 207C170.729 207 207.612 170.118 207.612 124.5C207.612 78.8823 170.729 42 125.306 42Z" fill="#0B0204"/>
<path d="M82.3087 186.132C81.8234 186.423 81.5322 186.618 81.5322 186.909C81.241 187.2 81.241 187.394 81.241 187.394C81.241 187.685 81.7263 188.171 82.0175 188.365C82.3087 188.656 82.3087 188.85 82.0175 188.85C81.7263 189.141 81.7263 188.85 81.5322 188.85C81.0469 188.559 80.5616 188.073 80.0763 187.879L78.6205 187.103C78.3293 187.103 78.3293 186.812 78.3293 186.618C78.6205 186.326 78.8146 186.618 79.2999 186.326C79.7852 186.326 80.2705 185.841 81.0469 185.356L88.6175 180.503C89.394 180.018 89.5881 180.018 89.8793 180.212C90.1705 180.503 90.1705 180.503 90.1705 181.182L88.7146 191.373C88.4234 192.15 89.0057 192.635 89.0057 192.829C89.2969 193.121 89.2969 193.121 89.2969 193.315C89.0058 193.606 89.0058 193.606 88.8116 193.315C88.0352 192.829 87.5499 192.344 87.0646 192.053C86.2881 191.568 85.8028 191.276 85.1234 191.082C85.1234 191.082 84.8322 190.791 84.8322 190.597C85.1234 190.306 85.3175 190.306 85.6087 190.597C86.094 190.888 86.3852 190.597 86.5793 190.112C86.8705 189.821 86.8705 189.335 86.8705 189.141L87.6469 183.512V182.735C87.6469 182.735 87.3558 182.735 87.1616 183.026C86.9675 183.221 82.3087 186.132 82.3087 186.132ZM80.3675 175.941C81.144 175.165 80.6587 174.194 80.3675 174C80.0763 173.709 80.0763 173.709 80.3675 173.515C80.6587 173.223 80.8528 173.515 81.3381 174C81.8234 174.291 82.1146 174.971 82.5999 175.262C83.0852 175.747 83.8616 176.038 84.3469 176.523C84.6381 176.815 84.8322 176.815 84.6381 177.009C84.3469 177.3 84.1528 177.009 84.1528 177.009C83.3763 176.718 82.891 177.3 82.6969 177.494L77.844 183.123C77.0675 183.9 77.3587 184.579 77.844 185.065C78.1352 185.356 78.1352 185.356 77.844 185.55C77.5528 185.841 77.3587 185.55 76.8734 185.065L75.4175 183.609C74.9322 183.123 74.1558 182.832 73.6705 182.347C73.3793 182.056 73.1852 182.056 73.3793 181.862C73.6705 181.571 73.8646 181.862 74.1558 181.862C74.9322 182.153 75.1263 181.571 75.6116 181.085C75.5146 181.085 80.3675 175.941 80.3675 175.941ZM72.1175 174.485C72.4087 174.194 72.6028 174 71.8263 173.223C70.8558 171.962 69.8852 171.962 68.6234 173.223C67.6528 174 67.3616 175.456 68.3322 176.426C68.8175 177.203 69.3028 176.912 69.594 176.718C69.691 176.718 72.1175 174.485 72.1175 174.485ZM71.6322 178.173C70.8558 178.95 71.1469 179.435 71.341 180.115C71.341 180.406 71.6322 180.406 71.341 180.6C71.341 180.6 71.0499 180.891 70.8558 180.309C70.5646 180.018 70.3705 179.532 69.594 178.562C69.1087 177.785 68.1381 177.106 67.6528 176.621C66.1969 174.873 64.9352 172.932 66.8763 171.282C67.6528 170.506 68.6234 170.506 69.3028 170.797C69.594 171.088 70.0793 171.282 70.2734 171.088C70.5646 170.797 71.7293 167.4 71.7293 166.235V165.75C71.7293 165.459 71.4381 165.459 71.244 165.459C70.9528 165.168 71.244 165.168 71.244 164.973C71.7293 164.488 73.1852 165.944 73.4763 166.235C73.7675 166.526 73.9616 167.206 73.7675 167.982L72.3116 171.865C72.0205 172.35 72.0205 172.835 72.3116 173.321C72.6028 173.612 72.7969 173.612 72.7969 173.612L75.0293 171.671C75.9999 170.7 75.9999 170.215 75.5146 169.438C75.2234 169.147 75.2234 169.147 75.5146 168.953C75.8058 168.759 75.8058 168.953 76.291 169.438C76.7763 169.923 77.0675 170.409 77.5528 170.894L79.0087 172.35C79.2999 172.641 79.2999 172.641 79.2999 172.835C79.0087 173.126 78.8146 172.835 78.8146 172.835C78.3293 172.544 77.5528 172.835 77.0675 173.126L71.6322 178.173ZM64.3528 158.956C63.3822 159.441 63.5763 160.218 63.8675 160.897C63.8675 161.188 63.8675 161.188 63.5763 161.382C63.2852 161.382 63.2852 161.382 62.7999 160.606C62.5087 160.121 62.3146 159.344 61.8293 158.859C61.5381 158.373 61.0528 157.888 60.5675 157.112C60.2763 156.821 60.2763 156.626 60.5675 156.626C60.8587 156.335 61.0528 156.626 61.0528 156.918C61.5381 157.403 62.3146 157.209 62.7999 156.918L64.741 155.656C65.0322 155.365 67.4587 157.403 68.6234 159.344C70.3705 162.256 69.8852 165.459 66.8763 167.109C63.9646 169.05 60.0822 168.079 58.3352 165.362C57.3646 163.615 57.3646 161.965 57.0734 161.673C56.7822 161.382 56.5881 161.673 56.2969 161.188V160.897L58.2381 159.441C58.5293 159.15 58.7234 158.956 59.0146 158.956C59.3058 158.665 59.4999 158.665 59.4999 158.956C59.4999 159.247 59.2087 159.441 59.2087 159.732C57.7528 162.45 58.2381 163.421 58.9175 164.585C60.3734 167.012 62.6058 166.526 65.0322 165.362C66.9734 164.1 69.3999 161.965 67.944 159.538C67.1675 158.276 66.1969 157.791 65.0322 158.762H64.3528V158.956ZM62.2175 150.512C63.1881 150.026 63.1881 149.056 62.994 148.765C62.994 148.473 62.994 148.279 63.2852 148.279C63.5763 148.279 63.7705 148.571 64.0616 149.056C64.3528 149.541 64.3528 150.318 64.5469 150.803C64.8381 151.579 65.3234 152.065 65.5175 152.55C65.8087 152.841 65.8087 153.035 65.5175 153.326C65.2263 153.326 65.0322 153.035 65.0322 153.035C64.5469 152.55 64.0616 152.55 63.5763 152.744L56.491 155.656C55.5205 156.141 55.5205 156.626 55.7146 157.403C55.7146 157.694 55.7146 157.888 55.4234 157.888C55.1322 157.888 54.9381 157.597 54.6469 157.112C54.3558 156.626 54.1616 155.85 53.8705 155.171C53.5793 154.394 53.094 153.909 52.8999 153.423C52.8999 153.132 52.6087 152.938 52.8999 152.938C53.191 152.938 53.3852 153.229 53.6763 153.423C54.1616 153.909 54.6469 153.715 55.1322 153.423L62.2175 150.512ZM54.1616 145.853C53.8705 146.338 53.6763 146.629 53.6763 146.823H54.1616L59.9852 145.368C60.7616 145.076 61.2469 144.591 61.441 143.912C61.441 143.426 61.1499 142.941 61.7322 142.941C62.0234 142.941 62.2175 143.232 62.2175 143.426C62.5087 143.912 62.5087 144.688 62.5087 145.173C62.7999 145.659 62.994 146.144 62.994 146.921C62.994 147.212 62.994 147.212 62.7028 147.406C62.4116 147.406 62.2175 147.406 62.2175 147.115C61.441 146.338 60.9558 146.144 59.9852 146.338L53.8705 147.794C53.094 148.085 52.4146 148.571 52.4146 149.056C52.1234 149.541 52.4146 149.832 51.9293 150.026C51.6381 150.026 51.6381 150.026 51.6381 149.735C51.3469 149.25 51.3469 148.765 51.3469 148.279C51.3469 147.794 51.0558 147.309 50.8616 146.823V146.047L55.7146 138.282C56.0058 137.991 56.0057 137.797 56.0057 137.506C56.0057 137.215 55.7146 137.506 55.5205 137.506L51.8322 138.476C50.8616 138.768 49.891 138.962 49.891 140.223C49.891 140.709 49.891 141.194 49.5999 141.194C49.3087 141.194 49.3087 140.903 49.1146 140.709C48.8234 140.223 48.8234 139.447 48.8234 138.962C48.5322 138.476 48.3381 137.991 48.3381 137.215C48.3381 136.923 48.3381 136.923 48.6293 136.729C48.9205 136.729 49.1146 136.729 49.1146 137.021C49.891 137.797 50.3763 137.797 51.0558 137.797L58.8205 135.856C59.5969 135.565 59.791 135.565 59.791 135.856C59.791 136.147 59.4999 136.632 59.3058 137.118L54.1616 145.853ZM57.3646 130.129C58.3352 130.129 58.6263 129.159 58.6263 128.673C58.6263 128.382 58.6263 128.382 59.1116 128.188C59.4028 128.188 59.4028 128.673 59.4028 129.159V131.1C59.4028 131.876 59.694 132.362 59.694 133.041C59.694 133.332 59.694 133.526 59.4028 133.526C59.1116 133.526 58.9175 133.235 58.9175 133.041C58.6263 132.265 57.9469 132.265 57.4616 132.265L50.1822 133.041C49.2116 133.041 48.9205 133.818 48.9205 134.497C48.9205 134.788 48.9205 134.788 48.6293 134.982C48.3381 134.982 48.3381 134.497 48.3381 134.012V132.071C48.3381 131.294 48.0469 130.809 48.0469 130.129C48.0469 129.838 48.0469 129.644 48.3381 129.644C48.6293 129.644 48.8234 130.129 48.8234 130.129C49.1146 130.906 49.794 130.615 50.2793 130.615L57.3646 130.129ZM53.6763 123.529C53.9675 123.821 54.1616 123.821 54.1616 123.821C54.4528 123.821 54.4528 123.529 54.4528 123.044V121.297V120.521C54.4528 120.521 53.9675 120.521 53.6763 120.812L51.2499 121.782C50.9587 121.782 50.9587 122.073 50.9587 122.073C50.9587 122.073 51.2499 122.365 51.444 122.365C51.541 122.268 53.6763 123.529 53.6763 123.529ZM48.144 121.588C47.6587 121.297 47.6587 121.297 47.6587 121.103L47.9499 120.812L57.1705 116.929C57.9469 116.638 58.6263 116.444 58.9175 115.959C59.2087 115.473 59.2087 115.182 59.4028 115.182C59.694 115.182 59.694 115.473 59.694 115.668C59.694 116.444 59.4028 117.123 59.4028 117.9V120.326C59.4028 120.618 59.1116 120.618 59.1116 120.618C58.8205 120.618 58.8205 120.326 58.8205 120.132C58.8205 119.647 58.3352 119.356 57.8499 119.356C57.3646 119.356 55.9087 119.841 55.6175 120.132C55.3263 120.423 55.3263 120.618 55.3263 121.394V123.821C55.3263 124.597 57.0734 125.276 57.7528 125.276C58.044 125.276 58.2381 124.791 58.5293 124.5C58.8205 124.015 58.8205 123.529 59.0146 123.529C59.3058 123.529 59.3058 123.821 59.3058 124.015C59.3058 124.5 59.0146 125.276 59.0146 125.762V127.509C59.0146 127.8 59.0146 127.994 58.7234 127.994C58.4322 127.994 58.4322 127.509 58.2381 127.218C57.9469 126.926 57.9469 126.732 57.4616 126.732L48.144 121.588ZM55.4234 96.8382C55.7146 96.8382 56.1999 96.8382 56.394 97.1293C56.6852 97.1293 56.6852 97.4205 56.6852 97.4205C56.6852 97.7117 56.1999 97.7117 55.9087 97.7117C53.9675 98.197 52.5116 99.1676 52.0263 100.623C51.2499 102.565 52.0263 104.506 55.4234 105.476C57.8499 106.253 60.5675 105.476 61.2469 103.244C61.7322 101.982 61.5381 100.526 60.7616 99.3617C60.4705 99.0705 60.2763 98.8764 60.4705 98.5852C60.4705 98.2941 60.7616 98.2941 60.7616 98.5852C61.2469 98.8764 63.1881 101.303 62.2175 104.7C61.441 107.418 58.5293 109.553 55.1322 108.582C50.7646 107.126 49.9881 103.729 50.9587 101.012C51.444 99.2646 52.7058 98.0999 52.8999 97.8088C53.191 97.3235 52.4146 97.3235 52.6087 97.0323C52.6087 96.7411 52.8999 96.7411 52.8999 96.7411L55.4234 96.8382ZM66.7793 92.1793C67.7499 90.4323 66.4881 88.297 64.3528 87.0352C62.4116 86.0646 58.5293 85.2882 57.2675 87.8117C56.2969 89.5588 57.5587 91.694 59.694 92.9558C61.7322 93.9264 65.6146 94.6058 66.7793 92.1793ZM57.0734 86.8411C58.8205 83.9293 61.9263 82.4735 64.8381 84.1235C68.041 85.8705 68.5263 89.947 67.0705 93.1499C65.3234 96.0617 62.2175 97.3235 59.3058 95.5764C56.394 94.1205 55.4234 90.044 57.0734 86.8411ZM64.644 79.8529C64.1587 79.3676 63.3822 78.8823 62.7028 79.3676C62.2175 79.6588 61.9263 79.8529 61.7322 79.6588C61.441 79.3676 61.441 79.3676 61.7322 79.3676C62.0234 78.8823 62.5087 78.5911 62.7028 78.397C62.994 77.9117 63.1881 77.6205 63.6734 77.1352C63.9646 76.844 63.9646 76.844 64.1587 76.844L71.4381 78.7852C72.2146 79.0764 72.4087 79.0764 72.4087 79.0764C72.4087 79.0764 72.4087 78.5911 72.1175 78.2999L69.2058 71.0205V70.244C69.4969 69.7587 69.9822 69.4676 70.1763 69.2734C70.4675 68.7882 70.6616 68.497 71.1469 68.0117H71.4381C71.7293 68.3029 71.4381 68.497 71.4381 68.9823C71.1469 69.4676 71.1469 69.9529 71.9234 70.4382L76.291 74.3205C77.2616 75.2911 78.0381 75.7764 79.2028 75.097C79.494 74.8058 79.6881 74.8058 79.9793 75.097C80.2705 75.3882 79.9793 75.5823 79.6881 75.8735L78.2322 77.3293C77.7469 77.8146 77.4558 78.2999 76.9705 79.0764C76.6793 79.3676 76.4852 79.5617 76.194 79.3676C75.9028 79.1735 75.9028 79.0764 76.194 78.5911C76.4852 78.1058 76.194 77.8146 75.4175 77.3293L71.5352 73.6411C71.244 73.6411 71.244 73.3499 71.0499 73.3499C71.0499 73.3499 71.0499 73.6411 71.341 74.1264L74.2528 80.9205C74.2528 81.2117 74.544 81.4058 74.2528 81.697C73.9616 81.9882 73.9616 81.697 73.7675 81.697L66.4881 79.4646C66.1969 79.4646 66.0028 79.1735 66.0028 79.4646C66.0028 79.4646 66.0028 79.7558 66.294 79.7558L69.691 82.6676C70.4675 83.444 71.4381 83.6382 72.4087 83.1529C72.6999 82.8617 72.894 82.8617 73.1852 83.1529C73.4763 83.444 73.1852 83.6382 73.1852 83.6382C72.6999 84.1235 72.2146 84.4146 71.9234 84.8999C71.4381 85.3852 71.1469 85.8705 70.9528 86.3558C70.9528 86.647 70.6616 86.647 70.4675 86.3558C70.1763 86.0646 70.1763 85.8705 70.4675 85.5793C70.7587 84.6087 70.4675 84.1235 69.691 83.6382C69.691 83.7352 64.644 79.8529 64.644 79.8529ZM76.7763 66.7499C76.4852 66.2646 75.8058 65.7793 75.0293 65.7793C74.544 65.7793 74.2528 66.0705 74.0587 65.7793C73.7675 65.4882 74.0587 65.4882 74.0587 65.4882C74.544 65.197 74.8352 65.0029 75.3205 64.7117C75.8058 64.4205 76.0969 63.9352 76.5822 63.7411C76.8734 63.4499 77.0675 63.4499 77.3587 63.7411L83.9587 67.4293C84.7352 67.7205 84.9293 67.9146 84.9293 67.9146V67.1382L83.9587 59.3735V58.8882C84.444 58.597 84.7352 58.4029 85.2205 58.1117C85.7058 57.8205 85.9969 57.3352 86.4822 57.1411C86.4822 57.1411 86.7734 57.1411 86.7734 57.4323C87.0646 57.7234 86.7734 57.9176 86.4822 58.4029C85.9969 58.8882 85.9969 59.1793 86.4822 60.1499L89.8793 65.0029C90.6558 66.2646 91.3352 66.7499 92.5969 66.4587H93.3734C93.6646 66.7499 93.3734 66.944 92.8881 66.944C92.4028 67.2352 91.6263 67.7205 91.141 67.9146C90.6558 68.3999 90.1705 68.6911 89.6852 69.1764C89.394 69.4676 89.1999 69.6617 88.9087 69.4676C88.6175 69.1764 88.9087 68.9823 88.9087 68.6911C89.1999 68.2058 88.9087 67.9146 88.4234 67.2352L85.2205 62.8676C85.2205 62.5764 84.9293 62.5764 84.9293 62.5764V63.3529L86.1911 70.9235V71.6999H85.7058L79.1058 67.3323C78.8146 67.0411 78.6205 67.0411 78.6205 67.0411V67.5264L81.0469 71.2146C81.5322 71.9911 82.3087 72.6705 83.4734 72.1852C83.7646 72.1852 83.9587 72.1852 84.2499 72.4764C84.541 72.7676 84.2499 72.9617 83.9587 72.9617C83.4734 73.2529 82.9881 73.447 82.5028 73.9323C82.0175 74.2235 81.5322 74.7087 81.241 75.194C80.9499 75.194 80.9499 75.4852 80.7557 75.194C80.5616 74.9029 80.7557 74.7087 80.7557 74.4176C81.241 73.447 81.0469 72.9617 80.4646 72.1852C80.3675 72.0882 76.7763 66.7499 76.7763 66.7499ZM99.7793 62.5764C101.526 61.7999 102.012 59.3735 101.041 57.2382C100.07 55.0058 97.3528 52.3852 94.9263 53.3558C93.1793 54.1323 92.694 56.5587 93.6646 58.694C94.7322 60.9264 97.1587 63.547 99.7793 62.5764ZM95.4116 52.3852C98.3234 51.1235 101.72 52.094 103.176 55.297C104.632 58.694 102.4 62.3823 99.294 63.547C96.1881 64.7117 92.9852 63.8382 91.7234 60.6352C90.3646 57.5293 92.3058 53.8411 95.4116 52.3852ZM107.35 52.1911C106.865 51.8999 106.573 51.7058 106.379 51.7058V52.1911L107.641 58.0146C107.932 58.7911 108.126 59.4705 109.097 59.4705C109.582 59.4705 110.068 59.4705 110.068 59.7617C110.068 60.0529 109.776 60.247 109.291 60.247C108.806 60.247 108.029 60.247 107.544 60.5382C107.059 60.5382 106.282 60.8293 105.797 61.0234C105.506 61.0234 105.506 61.0235 105.312 60.7323C105.312 60.4411 105.603 60.247 105.603 60.247C106.379 59.4705 106.573 58.9852 106.379 58.3058L105.118 52.1911C104.826 51.4146 104.632 50.7352 103.856 50.444C103.37 50.1529 103.079 50.1529 102.885 49.9587C102.885 49.6676 102.885 49.6676 103.176 49.6676C103.662 49.6676 104.147 49.3764 104.632 49.3764C105.118 49.3764 105.603 49.0852 106.088 48.8911H106.865L114.435 54.2293C114.726 54.5205 114.92 54.5205 115.212 54.5205C115.503 54.5205 115.212 54.2293 115.212 54.0352L114.435 50.347C114.144 49.3764 113.95 48.4058 112.979 48.1146C112.494 48.1146 112.009 48.1146 112.009 47.8235C112.009 47.5323 112.3 47.5323 112.494 47.3382C112.979 47.3382 113.756 47.3382 114.241 47.047C114.726 47.047 115.503 46.7558 115.988 46.5617C116.279 46.5617 116.279 46.5617 116.473 46.8529C116.473 47.144 116.182 47.3382 116.182 47.3382C115.406 48.1146 115.212 48.5999 115.406 49.5705L117.153 57.3352C117.444 58.1117 117.153 58.3058 117.153 58.3058C116.862 58.3058 116.376 58.0146 115.891 57.8205L107.35 52.1911ZM118.997 48.0176C118.706 47.5323 118.512 47.2411 118.22 47.047C117.929 47.047 117.735 46.7558 117.735 46.5617C118.026 46.2705 118.22 46.2705 118.512 46.2705C119.288 46.2705 119.773 46.5617 120.453 46.5617H122.394C122.685 46.5617 122.879 46.5617 122.879 46.8529C122.879 47.144 122.588 47.144 122.394 47.3382C121.909 47.6293 121.909 47.8235 121.909 48.1146C121.909 48.4058 122.2 48.5999 122.2 49.0852L123.947 54.4235C123.947 54.7146 123.947 54.7146 124.238 54.7146L124.529 54.4235L126.276 50.7352L125.306 48.0176C125.015 47.5323 124.82 47.2411 124.529 47.047C124.238 47.047 124.044 46.7558 124.044 46.5617C124.044 46.2705 124.335 46.2705 124.529 46.2705C125.306 46.2705 125.791 46.5617 126.47 46.5617H128.412C128.703 46.5617 128.897 46.5617 128.897 46.8529C128.897 47.144 128.606 47.144 128.412 47.3382C127.926 47.6293 127.926 47.8235 127.926 48.1146C127.926 48.4058 128.218 48.8911 128.218 49.3764L129.965 54.5205C129.965 54.8117 129.965 54.8117 130.256 54.8117C130.256 54.8117 130.547 54.5205 130.547 54.3264L132.294 49.9587C132.585 49.4735 132.585 48.9882 132.585 48.697C132.585 47.9205 131.615 47.9205 131.323 47.7264C131.032 47.4352 130.838 47.4352 130.838 47.2411C130.838 47.047 131.129 46.9499 131.323 46.9499C131.809 46.9499 132.585 47.2411 133.07 47.2411H134.818C135.109 47.2411 135.303 47.2411 135.303 47.5323C135.303 47.8235 135.012 47.8235 134.526 48.0176C134.041 48.5029 134.041 48.794 133.556 49.7646L130.353 57.8205C130.062 58.7911 129.868 58.7911 129.576 58.7911C129.285 58.7911 129.285 58.7911 129.091 58.0146L127.344 52.6764C127.344 52.3852 127.053 52.1911 127.053 52.1911C127.053 52.1911 126.762 52.4823 126.762 52.6764L124.335 57.5293C123.85 58.3058 123.85 58.4999 123.559 58.4999C123.268 58.4999 123.268 58.4999 123.073 57.7235L118.997 48.0176ZM137.438 50.444C137.729 49.6676 137.729 48.5029 137.147 48.2117C136.662 47.9205 136.37 47.7264 136.37 47.4352C136.37 47.144 136.662 47.144 137.147 47.144C138.409 47.6293 139.573 47.9205 140.835 48.1146C142.097 48.4058 143.262 48.4058 144.523 48.5999C145.009 48.5999 145.3 48.8911 145.3 49.0852C145.3 49.2793 145.009 49.8617 145.009 50.0558C145.009 50.2499 145.009 50.8323 144.718 51.0264C144.718 51.3176 144.718 51.3176 144.426 51.3176C144.135 51.3176 144.135 51.0264 144.135 50.8323C144.135 49.8617 143.844 49.3764 141.903 48.8911L140.932 48.5999C140.447 48.5999 140.447 48.5999 140.156 49.3764L139.379 52.5793C139.379 52.8705 139.67 53.0646 140.156 53.0646C141.126 53.3558 141.903 53.0646 142.388 52.5793C142.679 52.094 142.679 52.094 142.873 52.094C143.068 52.094 143.165 52.3852 143.165 52.5793C143.165 53.0646 142.873 53.5499 142.679 54.0352C142.679 54.5205 142.388 55.0058 142.388 55.4911C142.388 55.7823 142.388 55.9764 141.903 55.9764C141.612 55.9764 141.612 55.4911 141.612 55.0058C141.32 54.2293 140.835 54.0352 139.865 53.744C139.088 53.4529 138.894 53.744 138.894 54.2293L138.409 56.947C138.118 58.2087 138.409 58.4029 139.185 58.694C140.932 58.9852 141.903 58.694 142.582 58.2087C143.359 57.7235 143.553 57.2382 143.844 57.2382C144.135 57.2382 144.135 57.5293 144.135 57.5293C144.135 57.8205 143.844 58.4999 143.65 58.7911C143.359 59.2764 142.388 60.0529 141.709 59.7617C140.738 59.4705 139.476 59.2764 138.506 58.9852C137.535 58.694 136.273 58.694 135.303 58.4999C134.526 58.4999 134.332 58.4999 134.332 58.2087C134.332 57.9176 134.818 57.9176 135.109 57.7235C135.594 57.4323 135.885 57.2382 136.079 56.2676C136.176 56.2676 137.438 50.444 137.438 50.444ZM149.765 57.044L149.473 57.3352C149.473 57.6264 149.765 57.6264 149.959 57.8205L151.706 58.597C152.191 58.597 152.191 58.8882 152.482 58.597V57.8205L152.191 55.394C152.191 55.1029 152.191 54.9088 151.9 54.9088C151.9 54.9088 151.609 55.1999 151.415 55.1999C151.512 55.1029 149.765 57.044 149.765 57.044ZM153.647 52.3852C153.938 51.8999 154.132 51.8999 154.132 51.8999V52.3852L154.618 62.3823C154.618 63.1588 154.618 63.8382 155.103 64.3235C155.394 64.6146 155.588 64.8088 155.588 65.0999C155.588 65.3911 155.297 65.3911 155.103 65.0999C154.326 64.8088 153.647 64.3235 152.87 64.1293L150.638 63.3529C150.347 63.3529 150.347 63.0617 150.347 63.0617C150.347 62.7705 150.638 62.7705 150.832 62.7705C151.318 62.7705 151.609 62.4793 151.803 62.2852C152.094 61.7999 152.094 60.344 151.803 60.0529C151.512 59.7617 151.318 59.5676 150.541 59.2764L148.115 58.3058C147.338 58.0146 146.173 59.2764 145.882 60.0529C145.882 60.344 146.173 60.8293 146.368 61.0234C146.853 61.3146 147.338 61.7999 147.144 61.994C147.144 62.2852 146.853 62.2852 146.659 61.994L145.203 61.2176C145.494 60.7323 144.718 60.7323 144.232 60.4411C143.941 60.4411 143.747 60.1499 143.941 59.9558C143.941 59.6646 144.426 59.6646 144.718 59.6646C145.009 59.6646 145.203 59.3735 145.494 59.1793C145.688 59.4705 153.647 52.3852 153.647 52.3852ZM162.188 58.2087C162.673 57.2382 162.479 56.7529 161.897 56.2676C161.606 56.2676 161.606 55.9764 161.897 55.7823C161.897 55.4911 162.188 55.4911 162.382 55.7823C163.159 56.2676 163.644 56.7529 164.323 57.2382C165.003 57.7235 165.779 58.0146 166.265 58.2087C166.265 58.2087 166.556 58.4999 166.556 58.694C166.265 58.9852 166.07 58.9852 166.07 58.694C165.294 58.4029 164.809 58.9852 164.615 59.4705L160.926 65.5852C160.15 66.5558 160.441 66.847 161.218 67.3323C162.673 68.3029 163.935 68.3029 164.615 68.1087C165.391 67.8176 165.876 67.6234 166.07 67.8176C166.362 67.8176 166.362 68.3029 166.07 68.594C165.294 69.8558 163.644 70.0499 162.673 69.3705C161.703 68.8852 159.762 67.4293 158.985 66.944C158.5 66.6529 157.723 66.4587 157.238 65.9735C156.947 65.6823 156.753 65.6823 156.753 65.4882C157.044 65.197 157.238 65.4882 157.529 65.4882C158.306 65.4882 158.5 65.0029 158.791 64.5176C158.791 64.3235 162.188 58.2087 162.188 58.2087ZM172.865 64.8088C173.35 64.3235 173.156 64.0323 172.379 63.547C171.118 62.5764 170.438 62.0911 169.176 63.2558H168.982C168.691 62.9646 168.691 62.9646 168.982 62.9646L169.468 62.4793L170.729 61.2176C171.02 60.9264 171.02 60.9264 171.506 61.2176C172.768 62.1882 173.932 63.4499 175.388 64.6146C176.65 65.5852 178.106 66.5558 179.27 67.8176C179.562 68.1087 179.562 68.1087 179.27 68.594L178.3 70.0499L178.009 70.3411H177.718L177.426 70.0499C178.203 68.594 177.718 67.8176 176.456 66.847C175.679 66.3617 175.485 66.0705 175 66.5558L170.147 72.3793C169.37 73.3499 170.147 74.1264 170.438 74.6117C170.438 74.9029 170.729 74.9029 170.438 75.097C170.147 75.3882 170.147 75.097 169.953 75.097C169.176 74.3205 168.497 73.6411 167.72 73.1558C166.944 72.3793 165.973 71.894 165.294 71.4088C165.003 71.1176 165.003 71.1176 165.003 70.9235C165.294 70.6323 165.488 70.9235 165.779 70.9235C166.265 71.2146 167.235 71.894 168.012 70.6323C168.012 70.8264 172.865 64.8088 172.865 64.8088ZM182.57 79.0764C183.056 79.5617 183.347 79.5617 183.541 79.3676L185.288 77.9117C186.065 77.1352 186.065 76.6499 185.579 75.9705C185.288 75.6793 185.579 75.6793 185.579 75.4852C185.87 75.194 186.065 75.7764 186.356 75.9705C186.841 76.4558 187.132 77.2323 187.618 77.7176L189.073 79.1735C189.365 79.4646 189.365 79.6588 189.073 79.6588C188.782 79.9499 188.588 79.6588 188.588 79.6588C188.103 79.3676 187.326 79.3676 186.841 79.9499L181.018 84.8029C180.241 85.5793 180.241 86.0646 180.726 86.744C181.018 87.0352 180.726 87.0352 180.726 87.2293C180.435 87.5205 180.241 86.9382 179.95 86.744C179.465 86.2587 179.173 85.4823 178.688 84.997L177.232 83.5411C176.941 83.2499 176.941 83.0558 177.232 83.0558C177.523 82.7646 177.718 83.0558 177.718 83.0558C178.203 83.5411 178.979 83.0558 179.465 82.7646L181.891 80.8235C182.376 80.5323 182.182 80.3382 181.891 80.047L179.173 76.844C178.882 76.5529 178.688 76.844 178.397 76.844L175.97 78.7852C175.194 79.5617 175.194 80.047 175.679 80.7264C175.97 81.0176 175.97 81.0176 175.679 81.2117C175.388 81.5029 175.194 80.9205 174.903 80.7264C174.418 80.2411 174.126 79.4646 173.641 78.9793L172.379 77.6205C172.088 77.3293 172.088 77.1352 172.379 77.1352C172.67 76.844 172.865 77.1352 172.865 77.1352C173.35 77.6205 174.126 77.4264 174.612 76.844L180.241 71.9911C181.018 71.2146 181.018 70.7293 180.532 70.0499C180.241 69.7587 180.241 69.7587 180.532 69.5646C180.823 69.2735 181.018 69.8558 181.309 70.0499C181.794 70.5352 182.085 71.3117 182.57 71.797L184.026 73.2529C184.318 73.544 184.318 73.7382 184.026 73.7382C183.735 74.0293 183.541 73.7382 183.541 73.7382C183.056 73.2529 182.279 73.7382 181.794 74.0293L180.338 75.4852C180.047 75.7764 180.047 75.9705 180.338 76.2617C180.144 76.1646 182.57 79.0764 182.57 79.0764ZM192.568 89.2676C193.538 88.7823 193.538 88.297 193.344 87.5205C193.344 87.2293 193.344 87.0352 193.635 87.0352C193.926 87.0352 193.926 87.0352 194.412 87.8117C194.703 88.297 194.897 89.0735 195.188 89.7529C195.479 90.2382 195.965 91.0146 196.159 91.4999C196.45 91.7911 196.159 91.9852 196.159 91.9852C195.868 91.9852 195.868 91.9852 195.673 91.694C195.188 91.2088 194.703 91.2087 194.218 91.4029L189.559 93.6352C187.812 94.4117 187.132 96.0617 187.812 98.0029C189.073 100.721 191.5 100.429 193.15 99.7499L197.032 98.0029C197.809 97.7117 198.003 97.0323 197.809 96.2558C197.809 95.9646 197.809 95.7705 198.1 95.4793C198.391 95.4793 198.391 95.4793 198.585 95.9646C198.876 96.4499 198.876 96.9352 199.07 97.4205L199.847 98.8764C200.138 99.1676 199.847 99.3617 199.847 99.3617C199.556 99.3617 199.362 99.0705 199.362 98.8764C198.876 98.5852 198.585 98.5852 197.42 99.1676L193.247 100.429C189.85 101.885 187.423 100.915 185.968 97.5176C184.706 94.7999 185.191 92.6646 188.2 91.4029L192.568 89.2676ZM197.42 105.282C197.712 104.797 197.906 104.506 197.906 104.312H197.42L191.597 105.573C190.82 105.865 190.335 106.059 190.141 107.029C190.141 107.515 190.141 108 189.85 108C189.559 108 189.365 107.709 189.365 107.223C189.073 106.738 189.365 105.962 189.073 105.476C188.782 104.991 188.588 104.215 188.588 103.729C188.588 103.438 188.588 103.438 188.879 103.244C189.17 103.244 189.365 103.244 189.365 103.535C190.141 104.312 190.626 104.506 191.306 104.312L197.42 103.05C198.197 102.759 198.876 102.565 199.168 101.788C199.459 101.303 199.459 101.012 199.653 100.818C199.944 100.818 199.944 100.818 199.944 101.109C199.944 101.594 200.235 102.079 200.235 102.565C200.235 103.05 200.526 103.535 200.72 104.021V104.797L195.576 112.562C195.285 112.853 195.285 113.047 195.285 113.338C195.285 113.629 195.576 113.338 195.77 113.338L199.459 112.562C200.429 112.271 201.4 112.076 201.4 111.106C201.4 110.621 201.4 110.135 201.691 110.135C201.982 110.135 201.982 110.426 202.176 110.621C202.468 111.106 202.176 111.882 202.468 112.368C202.759 112.853 202.953 113.629 202.953 114.115C202.953 114.406 202.953 114.406 202.662 114.6C202.37 114.6 202.176 114.309 202.176 114.309C201.4 113.532 200.915 113.338 200.235 113.532L192.47 115.279C191.694 115.571 191.5 115.571 191.5 115.279C191.5 114.988 191.791 114.503 191.985 114.018C191.791 114.018 197.42 105.282 197.42 105.282ZM193.538 121.103C192.568 121.103 192.276 122.073 192.276 122.559C192.276 122.85 192.276 122.85 191.791 123.044C191.5 123.044 191.5 122.559 191.5 122.073V120.132C191.5 119.356 191.209 118.871 191.209 118.191C191.209 117.9 191.209 117.706 191.5 117.706C191.791 117.706 191.985 117.997 191.985 118.191C192.276 118.968 192.956 118.968 193.441 118.968L200.72 118.482C201.691 118.482 201.982 117.706 201.982 117.026C201.982 116.735 201.982 116.735 202.468 116.541C202.759 116.541 202.759 117.026 202.759 117.512V119.453C202.759 120.229 203.05 120.715 203.05 121.394C203.05 121.685 203.05 121.879 202.759 121.879C202.468 121.879 202.273 121.394 202.273 121.394C201.982 120.618 201.303 120.618 200.818 120.909C200.818 120.812 193.538 121.103 193.538 121.103ZM199.847 133.235C200.332 133.526 200.623 133.721 200.818 133.721C201.109 133.721 201.303 133.721 201.594 133.429C201.885 133.138 201.885 132.653 202.079 132.168C202.37 131.876 202.37 131.876 202.565 131.876C202.856 131.876 202.856 132.168 202.856 132.362C202.856 132.847 202.565 133.623 202.565 134.109V135.856C202.565 136.147 202.565 136.341 202.273 136.147C201.982 136.147 201.982 135.662 201.788 135.371C201.497 134.885 201.012 134.594 200.041 134.109L192.276 129.935C191.5 129.45 191.306 129.159 191.5 129.159C191.5 128.868 191.791 128.868 192.276 128.673L201.788 125.276C202.565 124.985 202.759 124.5 203.05 124.306C203.341 124.015 203.341 123.821 203.535 123.821C203.729 123.821 203.826 124.112 203.826 124.306C203.826 125.082 203.535 125.762 203.535 126.538V128.771C203.535 128.771 203.535 129.256 203.244 129.256C202.953 129.256 202.953 128.965 202.953 128.771C202.953 128.285 202.468 128.285 202.176 128.285C201.885 128.285 201.4 128.576 201.206 128.576L195.382 130.032C194.897 130.323 194.606 130.323 194.606 130.323C194.606 130.323 194.606 130.615 195.091 130.615C195.188 130.615 199.847 133.235 199.847 133.235ZM198.876 139.059C199.653 139.35 200.818 139.544 201.109 138.768C201.4 138.282 201.594 137.991 201.885 137.991C202.176 137.991 202.176 138.282 201.885 138.768C201.4 140.029 201.109 141.194 200.915 142.456L200.138 146.144C200.138 146.629 199.847 146.921 199.653 146.921C199.459 146.921 198.876 146.629 198.682 146.629C198.391 146.629 197.906 146.629 197.712 146.338C197.42 146.338 197.42 146.047 197.42 146.047C197.42 145.756 197.712 145.756 197.906 145.756C198.876 146.047 199.362 145.465 199.847 143.523L200.138 142.553C200.138 142.068 200.138 142.068 199.362 141.776L196.644 140.806C196.353 140.806 196.159 141.097 196.159 141.582C195.868 142.553 195.868 143.329 196.644 143.815C197.129 144.106 197.129 144.3 197.129 144.3C197.129 144.591 196.838 144.591 196.644 144.591C196.159 144.591 195.673 144.3 195.188 144.106C194.703 144.106 194.218 143.815 193.732 143.815C193.441 143.815 193.247 143.815 193.247 143.329C193.247 143.038 193.732 143.038 194.218 143.038C194.994 142.747 195.188 142.262 195.479 141.291C195.77 140.515 195.479 140.321 194.994 140.321L192.276 139.544C191.015 139.253 190.82 139.544 190.529 140.321C190.044 142.068 190.238 143.038 190.82 143.718C191.306 144.494 191.791 144.688 191.597 144.979C191.597 145.271 191.306 145.271 191.112 145.271C190.82 145.271 190.141 144.979 189.85 144.785C189.365 144.494 188.588 143.523 188.879 142.844C189.17 141.873 189.656 140.612 189.85 139.641C190.141 138.671 190.335 137.409 190.626 136.438C190.626 135.953 190.918 135.662 191.112 135.662C191.403 135.662 191.403 136.147 191.403 136.438C191.694 136.923 191.888 137.215 192.859 137.409C192.762 137.603 198.876 139.059 198.876 139.059ZM193.053 152.162C192.762 152.162 192.568 151.871 192.082 152.938C191.597 154.394 191.791 155.171 193.344 155.85C194.315 156.335 195.77 156.141 196.256 154.879C196.547 154.103 196.547 153.909 195.77 153.618L193.053 152.162ZM196.45 150.997C197.42 151.482 197.906 150.997 198.197 150.512C198.197 150.221 198.488 150.221 198.682 150.221C198.973 150.221 198.973 150.512 198.682 150.706C198.391 150.997 198.197 151.482 197.712 152.453C197.42 153.229 196.935 154.394 196.741 155.171C195.77 157.112 194.509 159.053 192.082 158.082C191.112 157.597 190.626 156.821 190.626 156.141V155.171C190.335 155.171 186.744 155.462 185.482 155.947C185.191 155.947 184.997 156.238 184.997 156.238C184.997 156.529 184.997 156.529 184.706 156.723C184.706 157.015 184.415 157.015 184.22 157.015C183.444 156.723 184.22 154.782 184.512 154.297C184.803 153.812 185.288 153.521 185.968 153.326L189.85 153.035C190.335 153.035 190.82 152.744 191.112 152.259C191.403 151.773 191.403 151.773 191.112 151.482L188.394 150.221C187.132 149.735 186.647 149.929 186.453 150.706C186.453 150.997 186.162 150.997 185.968 150.997C185.773 150.997 185.676 150.706 186.259 150.026C186.55 149.541 187.035 148.765 187.229 148.279C187.52 147.794 187.715 147.018 188.006 146.338C188.006 146.047 188.297 145.853 188.491 146.047C188.782 146.047 188.782 146.532 188.782 146.532C188.782 147.309 189.268 147.794 189.753 147.794C189.656 147.794 196.45 150.997 196.45 150.997ZM185.773 158.762C186.065 158.762 186.259 158.762 186.259 159.053C186.259 159.053 186.55 159.344 186.259 159.538C185.968 159.829 185.773 159.538 185.288 159.538C183.832 159.247 182.085 159.829 181.406 160.994C180.629 161.965 180.92 163.226 181.891 163.906C184.123 165.362 186.259 159.538 190.141 161.965C191.597 162.935 192.082 164.876 191.112 166.623C190.335 167.885 189.365 168.079 189.17 168.565C189.17 168.856 189.17 169.05 188.879 169.341C188.879 169.632 188.588 169.632 188.394 169.341C187.618 168.856 186.162 168.079 185.968 168.079C185.773 168.079 185.676 167.788 185.676 167.594C185.968 167.303 186.162 167.303 186.453 167.594C187.715 167.885 189.365 167.303 190.141 166.332C190.626 165.362 190.626 164.391 189.85 163.906C187.423 162.45 185.482 168.273 181.6 165.847C180.144 164.876 179.173 162.935 180.629 160.703C181.115 159.732 182.085 159.247 182.862 158.471C182.862 158.471 183.153 158.179 183.347 158.179L185.773 158.762ZM177.523 168.953C176.747 168.176 175.776 168.662 175.582 168.953C175.291 169.244 175.291 169.244 175.097 168.953C174.806 168.662 175.097 168.468 175.582 167.982C175.873 167.497 176.359 167.206 176.844 166.526C177.329 166.041 177.62 165.265 178.106 164.779C178.397 164.488 178.397 164.294 178.591 164.488C178.882 164.779 178.591 164.973 178.591 164.973C178.3 165.75 178.882 166.235 179.076 166.429L184.9 171.088C185.676 171.865 186.356 171.573 186.841 171.088C187.132 170.797 187.132 170.797 187.326 171.088C187.618 171.379 187.326 171.573 186.841 172.059L185.385 173.515C184.9 174 184.609 174.776 184.123 175.262C183.832 175.553 183.832 175.747 183.638 175.553C183.347 175.262 183.638 175.068 183.638 174.776C183.929 174 183.347 173.806 182.862 173.321L177.523 168.953ZM178.203 179.629C178.688 180.115 178.979 179.921 179.659 179.338C180.92 178.368 181.406 177.591 180.435 176.135V175.844C180.726 175.553 180.726 175.553 180.726 175.844C180.726 175.844 181.018 176.135 181.018 176.329L181.988 177.785C182.279 178.076 182.279 178.076 181.988 178.562C180.726 179.823 179.562 180.794 178.106 181.959L174.418 185.647C174.126 185.938 173.932 185.938 173.641 185.647L172.379 184.385L172.088 184.094V183.803C172.379 183.512 172.379 183.512 172.379 183.803C173.835 184.773 174.32 184.288 175.582 183.318C176.359 182.541 176.359 182.347 176.068 181.862L171.215 175.553C170.244 174.582 169.468 175.262 168.982 175.553C168.691 175.553 168.691 175.844 168.206 175.553C167.915 175.262 168.206 175.262 168.206 175.068C168.982 174.291 169.662 173.806 170.438 173.126L172.67 170.894C172.962 170.603 172.962 170.603 173.156 170.894C173.447 171.185 173.156 171.379 173.156 171.379C172.865 171.865 172.185 172.641 172.865 173.612L178.203 179.629ZM163.935 189.529C163.935 190.015 163.935 190.306 164.226 190.306C164.518 190.791 165.003 190.597 165.682 190.306C165.973 190.306 165.973 190.306 166.168 190.597C166.362 190.888 166.168 190.888 165.876 191.082L164.42 191.859C163.935 192.15 163.45 192.635 162.965 192.829C162.673 192.829 162.673 193.121 162.479 192.829C162.285 192.538 162.479 192.538 162.77 192.344C163.062 191.859 163.062 191.568 163.062 190.403V186.229C163.062 185.744 163.062 185.453 162.77 185.259L161.509 183.026C161.023 182.25 160.538 182.056 159.762 182.25C159.47 182.541 158.985 182.541 158.985 182.25C158.694 181.959 159.276 181.765 159.47 181.473C160.247 180.988 160.732 180.697 161.412 180.212C161.897 179.921 162.382 179.435 163.159 178.95C163.644 178.659 163.935 178.465 164.129 178.659C164.42 178.95 164.129 179.144 163.644 179.435C162.868 179.921 163.159 180.697 163.644 181.376L164.906 183.123C164.906 183.415 165.197 183.415 165.197 183.415L169.856 185.841C170.826 186.326 171.312 186.326 171.797 186.326C172.088 186.035 172.573 186.035 172.573 186.326C172.865 186.618 172.573 186.812 172.282 186.812C171.506 187.297 171.02 187.588 170.341 188.073C169.565 188.559 169.079 189.044 168.594 189.335C168.303 189.626 168.109 189.626 167.818 189.335C167.526 189.044 168.109 188.85 168.303 188.559C168.303 188.268 168.594 188.073 168.303 188.073C168.012 187.782 167.818 187.588 167.526 187.588L164.809 186.132C164.323 185.841 164.032 185.841 164.032 185.841V186.618L163.935 189.529ZM101.526 193.218H100.556C100.265 193.218 100.07 193.218 99.7793 193.509C99.4881 193.509 99.4881 193.8 99.294 193.8L98.5175 194.576H98.2263V193.606C98.2263 193.315 98.2263 193.121 97.9352 192.829C97.9352 192.538 97.644 192.538 97.644 192.344L96.8675 191.568H97.8381C98.1293 191.568 98.3234 191.568 98.6146 191.276C98.9058 191.276 98.9058 190.985 99.0999 190.985L99.8763 190.209V191.179C99.8763 191.471 99.8763 191.665 100.168 191.956C100.168 192.247 100.459 192.247 100.459 192.441C101.235 192.441 101.235 192.732 101.526 193.218ZM111.426 191.471C111.426 191.179 111.135 190.985 110.941 190.985H110.165C109.873 190.985 109.679 190.985 109.873 190.5C109.873 190.209 110.359 190.209 110.65 190.209C111.62 190.209 112.591 190.209 113.368 189.723C113.368 189.723 113.659 189.432 113.853 189.432C114.144 189.432 114.144 189.432 114.144 189.918L112.397 198.944C112.106 199.721 112.688 200.206 113.173 200.4C113.465 200.691 113.95 200.691 113.95 200.885C113.95 201.176 113.659 201.176 113.173 201.176C112.397 200.885 111.718 200.691 111.232 200.691C110.456 200.4 109.776 200.4 109 200.4C108.515 200.4 108.515 200.109 108.515 200.109C108.515 199.818 109 199.818 109.291 199.818C109.776 199.818 110.262 199.526 110.262 199.041C110.262 199.235 111.426 191.471 111.426 191.471ZM118.22 192.441C118.22 194.188 120.453 194.868 120.938 194.868C121.909 194.868 122.394 194.091 122.394 193.412C122.394 191.956 121.423 191.179 120.162 191.179C119.482 190.791 118.512 191.276 118.22 192.441ZM118.997 196.615C118.706 196.615 118.706 196.323 118.512 196.323C118.22 196.323 117.735 197.1 117.541 198.071C117.541 199.818 118.318 200.982 119.968 200.982C120.744 200.982 122.2 200.691 122.394 199.235C122.394 198.265 122.103 197.779 121.423 197.488C121.423 197.585 118.997 196.615 118.997 196.615ZM123.85 192.926C123.85 194.188 123.073 194.673 122.103 194.868C121.812 194.868 121.618 194.868 121.618 195.159L121.909 195.45C123.17 196.226 123.85 197.391 123.85 198.847C123.559 201.565 121.423 202.244 119.191 202.05C117.25 201.759 115.503 200.788 115.794 198.653C115.794 197.391 116.57 196.712 117.541 196.421H117.832L117.541 196.129C116.765 195.353 116.279 194.673 116.57 193.412C116.862 191.471 118.512 190.209 120.453 190.5C122.103 190.5 124.044 191.276 123.85 192.926ZM128.703 191.471C127.732 191.471 127.441 192.441 126.956 192.441C126.956 192.441 126.665 192.441 126.665 192.15C126.665 191.665 128.12 190.209 129.868 190.209C131.129 190.209 132.294 190.694 132.294 192.15C132.294 193.121 131.518 194.091 130.838 194.576V194.868H131.129C132.585 194.868 133.556 195.838 133.556 197.294C133.847 199.721 131.809 201.662 129.382 201.953C127.926 201.953 126.47 201.176 126.47 200.691C126.47 200.4 126.47 200.4 126.762 200.4C127.247 200.4 127.538 201.176 128.994 201.176C130.741 201.176 131.42 199.721 131.226 198.265C131.226 197.294 130.45 196.323 129.479 196.323C129.188 196.323 128.994 196.323 128.703 196.615C128.412 196.615 128.412 196.615 128.412 196.323C128.412 196.032 128.897 195.838 128.897 195.838C129.673 195.353 130.353 194.382 130.159 193.412C130.159 192.247 129.382 191.471 128.703 191.471ZM138.118 195.838H137.632C137.341 195.838 136.856 196.615 137.147 197.779C137.438 199.526 138.603 200.497 140.35 200.012C141.126 199.721 142.582 199.041 142.291 197.779C142 196.809 141.806 196.518 140.835 196.323L138.118 195.838ZM136.468 191.956C136.759 193.703 139.379 193.703 139.67 193.412C140.641 193.121 140.932 192.441 140.641 191.471C140.35 190.209 139.185 189.529 137.923 189.723C137.147 190.015 136.176 190.791 136.468 191.956ZM142 190.985C142.291 192.247 141.709 192.732 140.738 193.412C140.447 193.412 140.447 193.703 140.447 193.703C140.447 193.703 140.738 193.703 140.738 193.994C142.194 194.479 143.165 195.256 143.456 196.712C143.941 199.429 142 200.594 139.768 200.885C137.826 201.371 135.885 200.594 135.4 198.459C135.109 197.197 135.691 196.518 136.37 195.741L136.662 195.45C136.662 195.45 136.37 195.45 136.37 195.159C135.4 194.673 134.915 193.897 134.623 192.926C134.138 190.985 135.885 189.529 137.535 189.044C139.573 189.044 141.806 189.335 142 190.985ZM154.715 190.985L153.938 191.762C153.647 192.053 153.647 192.247 153.647 192.247C153.647 192.538 153.647 192.538 153.356 193.023V193.994L152.579 193.218C152.288 192.926 152.094 192.926 152.094 192.926C151.803 192.926 151.609 192.926 151.318 192.635H150.347V192.344L151.123 191.568C151.415 191.276 151.415 191.082 151.415 191.082C151.415 190.791 151.415 190.791 151.706 190.306V189.335L152.482 190.112C152.773 190.403 152.968 190.403 152.968 190.403C153.259 190.403 153.259 190.403 153.744 190.694C153.938 190.791 154.423 190.791 154.715 190.985Z" fill="white"/>
<path d="M187.229 124.5C187.229 158.762 159.568 186.618 125.306 186.618C91.0441 186.618 63.3823 158.956 63.3823 124.5C63.3823 90.2382 91.0441 62.3823 125.306 62.3823C159.568 62.3823 187.229 90.2382 187.229 124.5Z" fill="#FDBD10"/>
<mask id="mask0_192_21508" style="mask-type:luminance" maskUnits="userSpaceOnUse" x="63" y="62" width="125" height="125">
<path d="M63.6733 124.5C63.6733 158.762 91.3351 186.618 125.597 186.618C159.859 186.618 187.52 158.956 187.52 124.5C187.52 90.2382 159.859 62.3823 125.597 62.3823C91.3351 62.3823 63.6733 90.2382 63.6733 124.5Z" fill="white"/>
</mask>
<g mask="url(#mask0_192_21508)">
<path d="M112.397 119.841L111.911 158.47C111.911 158.47 111.911 158.762 112.203 158.956C112.494 159.247 113.464 159.441 116.376 159.441C119.288 159.441 120.258 158.956 120.55 158.956C120.841 158.665 120.841 158.47 120.841 158.47L120.355 119.841C119.87 119.55 118.9 119.065 116.473 119.065C114.047 119.065 112.882 119.647 112.397 119.841ZM116.279 107.709C111.62 107.709 110.455 109.165 110.455 109.165V109.65C110.455 109.65 111.426 109.65 111.911 110.62C112.397 111.882 112.688 116.735 112.688 116.735V117.026C113.464 116.735 114.435 116.25 116.57 116.25C118.705 116.25 119.773 116.541 120.453 117.026V116.444C120.453 116.444 120.453 112.27 121.229 110.329C121.714 109.359 122.491 109.067 122.491 109.067V108.679C122.103 108.97 120.938 107.709 116.279 107.709ZM130.353 119.841L129.867 158.179C129.867 158.179 129.867 158.47 130.158 158.665C130.45 158.956 131.42 159.15 134.332 159.15C137.244 159.15 138.214 158.859 138.505 158.665C138.797 158.373 138.797 158.179 138.797 158.179L138.311 119.55C137.826 119.259 136.855 118.773 134.429 118.773C131.808 119.162 130.838 119.356 130.353 119.841ZM140.058 109.165C140.058 109.165 138.797 107.709 134.235 107.709C129.673 107.709 128.411 109.165 128.411 109.165V109.65C128.411 109.65 129.188 109.941 129.673 110.912C130.644 112.853 130.45 117.026 130.45 117.026V117.512C131.226 117.22 132.197 116.735 134.332 116.735C136.564 116.735 137.535 117.026 138.214 117.512V117.22C138.214 117.22 138.505 112.367 138.991 111.106C139.476 110.135 140.447 110.135 140.447 110.135L140.058 109.165ZM166.555 157.985H157.529C157.238 157.985 157.238 157.694 157.238 157.694L155.782 113.047C155.782 113.047 155.782 112.756 156.073 112.756H162.188C162.479 112.756 162.479 113.047 162.479 113.047L166.555 157.985C166.847 157.985 166.847 157.5 166.555 157.985ZM163.935 111.397C163.935 111.397 163.935 111.106 163.644 111.106H154.908C154.617 111.106 154.617 111.397 154.617 111.397L155.879 159.732C155.879 159.732 155.879 160.023 156.17 160.023H168.497C168.982 160.023 168.982 159.732 168.982 159.732L163.935 111.397ZM93.4702 157.5C93.4702 157.5 93.4702 157.791 93.179 157.791H84.1525C83.6673 157.791 83.8614 157.306 83.8614 157.306L88.229 112.659C88.229 112.659 88.229 112.367 88.5202 112.367H94.6349C94.9261 112.367 94.9261 112.659 94.9261 112.659L93.4702 157.5ZM94.9261 159.441L96.1878 111.106C96.1878 111.106 96.1878 110.815 95.8967 110.815H87.1614C86.8702 110.815 86.8702 111.106 86.8702 111.106L81.7261 159.441C81.7261 159.441 81.7261 159.732 82.0173 159.732H94.4408C94.9261 159.926 94.9261 159.441 94.9261 159.441Z" fill="#0B0204"/>
</g>
<mask id="mask1_192_21508" style="mask-type:luminance" maskUnits="userSpaceOnUse" x="63" y="62" width="125" height="125">
<path d="M63.6733 124.5C63.6733 158.762 91.3351 186.618 125.597 186.618C159.859 186.618 187.52 158.956 187.52 124.5C187.52 90.2382 159.859 62.3823 125.597 62.3823C91.3351 62.3823 63.6733 90.2382 63.6733 124.5Z" fill="white"/>
</mask>
<g mask="url(#mask1_192_21508)">
<path d="M168.982 104.117C168.982 104.117 167.72 104.894 167.235 105.573C166.75 106.35 166.75 107.32 166.75 107.32H150.929C150.929 107.32 150.929 106.35 150.638 105.573C150.153 104.603 149.182 104.117 149.182 104.117V103.632C149.182 103.632 149.182 103.341 149.473 103.341H153.162C154.132 104.797 156.073 106.059 158.985 106.059C161.897 106.059 163.838 105.088 164.809 103.341H168.691C168.982 103.341 168.982 103.632 168.982 103.632V104.117ZM144.232 100.914H106.573V98.6821H144.232V100.914ZM114.823 91.985C114.823 91.985 116.765 92.7615 118.706 92.7615C121.132 92.7615 121.909 91.985 122.588 92.4703C123.073 92.7615 122.588 93.4409 122.588 94.2174C122.588 94.7027 123.073 95.188 123.559 95.188C124.044 95.188 124.335 94.8968 124.335 94.7027C124.044 94.4115 123.85 93.9262 123.85 93.7321C123.85 92.9556 124.626 92.2762 125.306 92.2762C126.082 92.2762 126.762 93.0527 126.762 93.7321C126.762 94.2174 126.47 94.5086 126.276 94.7027C126.276 94.9938 126.567 95.188 127.053 95.188C127.829 95.188 128.023 94.7027 128.023 94.2174C128.023 93.7321 127.538 92.9556 128.023 92.4703C128.8 91.985 129.479 92.4703 131.906 92.7615C133.847 92.7615 135.788 91.985 135.788 91.985C135.788 91.985 135.012 94.7027 131.129 95.6733C128.217 96.4497 125.306 96.4497 125.306 96.4497C125.306 96.4497 122.588 96.4497 119.482 95.6733C115.6 94.6056 114.823 91.985 114.823 91.985ZM101.235 104.117C101.235 104.117 100.265 104.894 99.7792 105.573C99.2939 106.35 99.488 107.32 99.488 107.32H83.6674C83.6674 107.32 83.6674 106.35 83.1821 105.573C82.6969 104.797 81.4351 104.117 81.4351 104.117V103.632C81.4351 103.632 81.4351 103.341 81.7263 103.341H85.1233C86.0939 104.797 88.0351 106.059 90.9469 106.059C93.8586 106.059 95.7998 105.088 96.7704 103.341H100.459C100.75 103.341 100.75 103.632 100.75 103.632V104.117H101.235ZM171.7 98.7791H144.232L144.523 96.838H170.923V95.3821C170.923 93.9262 171.894 92.6644 171.894 92.6644L175.291 88.2968V87.035C175.291 86.7438 175.291 86.7438 175 86.7438H143.165C142.873 86.7438 142.873 86.7438 142.873 87.035V89.4615H107.641V87.035C107.641 87.035 107.641 86.7438 107.35 86.7438H75.5145C75.2233 86.7438 75.2233 86.7438 75.2233 87.035V88.2968L78.6204 92.6644C78.6204 92.6644 79.591 93.9262 79.591 95.3821V96.838H106.088L106.379 98.7791H78.9116L70.1763 164.294H77.7469L84.0557 108.679H99.5851L98.8086 164.294H104.923L106.67 161.576V104.991H144.329V161.576L146.076 164.294H152.191L151.415 108.679H166.944L173.253 164.294H180.823L171.7 98.7791Z" fill="#0B0204"/>
</g>
</svg>
