<?xml version="1.0" encoding="utf-8"?>
<svg xmlns="http://www.w3.org/2000/svg" viewBox="0 0 11000 4096" fill="white">
  <!-- Golgi Icon (no background, no star) -->
  <!-- Central wavy structure -->
  <path d="M2057.5 4040.15C2159.52 4031.51 2249.57 3987.73 2314.7 3908.57C2393.42 3812.86 2407.15 3714.26 2394.49 3595.17C2382.18 3479.25 2362.28 3369.41 2341.75 3255.17C2319.47 3131.29 2298.98 3007.09 2280.3 2882.61C2207.41 2372.72 2210.32 1854.86 2288.92 1345.83C2304.57 1243.69 2321.24 1141.71 2338.95 1039.91C2353.69 960.951 2367.16 881.757 2379.34 802.361C2390.81 725.731 2403.72 637.923 2393.51 560.41C2381.49 469.119 2336.2 384.394 2264.55 325.501C2196.19 268.517 2108.71 239.658 2019.87 244.775C1912.21 254.884 1831.34 289.604 1760.96 374.586C1677.65 475.197 1667.25 583.178 1682.02 708.005C1695.33 820.399 1715.05 929.871 1734.62 1041.41C1755.99 1161.51 1775.49 1281.93 1793.11 1402.63C1843.86 1753.33 1858.03 2108.35 1835.38 2461.98C1820.76 2676.54 1794.94 2890.19 1758.03 3102.06C1737.24 3223.47 1713.77 3345.3 1695.76 3467.06C1686.08 3532.51 1673.04 3618.17 1675.32 3684.29C1678.76 3792.49 1729.33 3893.77 1813.75 3961.53C1885.19 4019.57 1966.49 4042.28 2057.5 4040.15Z"/>
  <!-- Right structure -->
  <path d="M3357.94 3488.62C3424.76 3412.48 3461.76 3324.89 3454.85 3221.93C3451.91 3172.37 3438.51 3124 3415.53 3080C3375.16 3002.29 3291.23 2917.82 3229.84 2855.08C3067.71 2689.38 2920.56 2553.87 2863.2 2321.87C2842.99 2240.03 2837.12 2155.31 2845.83 2071.47C2864.2 1889.68 2937.05 1743.26 3057.71 1607.32C3161.35 1490.56 3282.07 1391.86 3376.15 1267.04C3430.76 1194.59 3462.81 1107.5 3456.05 1015.92C3448.22 918.494 3402.05 828.155 3327.68 764.732C3250.89 698.894 3156.8 671.502 3056.71 680.923C2953.07 698.226 2867.97 740.603 2807.81 828.864C2750.97 912.263 2703.74 1028.5 2665.65 1121.44C2474.55 1587.85 2413.64 2085.32 2498.95 2583.4C2541.82 2833.72 2618.15 3077.15 2725.87 3307.13C2745.89 3349.66 2776.94 3415.74 2802.81 3452.12C2826.56 3484.92 2855.47 3513.65 2888.42 3537.2C3038.95 3643.06 3231.77 3621.19 3357.94 3488.62Z"/>
  <!-- Left structure -->
  <path d="M753.087 3524.74C829.338 3583.56 921.323 3614.4 1018.01 3601.88C1116.62 3589.1 1205.95 3537.24 1265.96 3457.95C1308.29 3402.42 1377.99 3243.08 1405.54 3174.54C1581.55 2736.54 1652.76 2259.77 1587.4 1790.43C1573.37 1688.39 1553.58 1587.23 1528.15 1487.43C1486.18 1324.68 1430.43 1165.8 1361.48 1012.52C1337.17 957.66 1302.13 881.56 1268.1 832.232C1247.01 801.148 1221.06 773.661 1191.25 750.825C1118.48 695.555 1028.7 673.742 938.356 680.869C834.237 696.745 750.063 743.652 686.158 829.148C631.22 902.65 605.774 1003.03 620.431 1094.02C637.565 1200.39 696.973 1274.59 767.656 1351.5C845.019 1435.69 929.619 1512.83 1006.58 1597.66C1154.84 1761.07 1234.45 1936.26 1229.24 2159.66C1225.44 2322.61 1182.31 2452.23 1086.88 2586.18C1035.69 2658.03 980.796 2715.84 919.854 2778.53C839.416 2861.28 708.645 2980.03 656.207 3081.61C621.751 3146.84 609.422 3221.49 621.075 3294.34C635.784 3382.7 681.552 3469.51 753.087 3524.74Z"/>
  <!-- Left circle (vesicle) -->
  <path d="M618.88 2501.36C816.826 2485.75 964.508 2312.42 948.494 2114.5C932.479 1916.59 758.85 1769.26 560.969 1785.68C363.659 1802.05 216.85 1975.07 232.818 2172.42C248.787 2369.76 421.505 2516.92 618.88 2501.36Z"/>
  <!-- Right circle (vesicle) -->
  <path d="M3512.89 2501.44C3710.94 2487.21 3859.82 2314.91 3845.14 2116.89C3830.47 1918.88 3657.83 1770.4 3459.85 1785.52C3262.5 1800.59 3114.6 1972.56 3129.22 2169.94C3143.85 2367.32 3315.48 2515.61 3512.89 2501.44Z"/>
  <!-- "histia" text in Montserrat -->
  <text x="4400" y="2700" font-family="'Montserrat', 'Inter', sans-serif" font-size="2200" font-weight="600" letter-spacing="-40" fill="white">histia</text>
</svg>