<?xml version="1.0" encoding="UTF-8"?>
<svg data-bbox="6 10.561 458.03 96.237" viewBox="0 0 468 109" height="145.333" width="624" xmlns="http://www.w3.org/2000/svg" data-type="shape">
    <g fill="#FFFFFF">
        <path d="M298.8 11.4c-14.3 3.9-21.8 16.1-21.8 35 0 9.3 1.5 16.7 4.3 22.2 2.6 5 11.1 12 16.1 13.3 19.3 4.8 33.1-5.5 36.7-27.6 2.1-12.8-2.2-29.1-9.4-36.1-6.5-6.3-17.5-9.2-25.9-6.8m14.5 9.8c3.5 1.3 7 6.7 9.1 13.8 2.6 8.6 3.8 8-16.4 8h-18v-4.3c.1-8 6.2-16.8 12.8-18.3 1.5-.3 3.2-.7 3.7-.9 1.3-.4 5.3.4 8.8 1.7m10.7 31c-.1 3.7-2.4 10.8-4.6 14.1-3.4 5.2-7.8 7.7-13.7 7.7-10.1 0-16-6.2-18.2-19.3l-.6-3.7h18.6c14.1 0 18.5.3 18.5 1.2"/>
        <path d="M6.7 12.7C6.3 13 6 28.8 6 47.6v34.3l5-.1 5-.1V56.5h11.3c14.2-.1 19.6-1.6 24.1-6.6 4-4.4 5.6-9.2 5.6-16.9-.1-10.8-5.9-18.1-16-20-5.9-1.1-33.3-1.4-34.3-.3m36.4 11.1c6 5.4 4.9 19-1.7 22.1-1.4.6-7.6 1.1-13.9 1.1H16V21h12c11.7 0 12 .1 15.1 2.8"/>
        <path d="M346 35.4c0 27.3 1.2 33.4 7.6 39.9 5.9 5.9 9.6 7.2 20.4 7.2 10.5 0 13.8-1.2 19.8-6.9 7.3-6.8 7.6-8.1 8-37.4l.4-26.2H392l-.1 19.2c0 31.7-1 35.7-9.5 40.5-8.6 5-20.1 1.6-24.3-7-2-4-2.1-6-2.1-28.5V12h-10z"/>
        <path d="M78.8 29c-5 1.5-9.3 4.8-11.6 8.9-2.2 3.9-2.2 4-.3 5 3.7 2 7 1.2 10.7-2.4 3-3.1 4.1-3.5 8.5-3.5 2.7 0 6.3.7 7.8 1.5 2.9 1.5 5.8 7.2 4.4 8.6-.5.5-6.4 2-13.3 3.4-14.5 3.1-18.2 5-20.4 10.5-2.1 5.3-2 8.5.4 13.5 2.5 5.1 6.6 7.6 13.9 8.2 7.3.7 12.2-.9 17.2-5.4l3.9-3.5V81h9.2l-.4-19.3c-.5-21.5-1.2-24.7-6.9-28.9-1.9-1.4-4.9-3-6.8-3.7-3.9-1.3-12.3-1.3-16.3-.1M98 60.7c0 9.2-5.7 14.4-15.6 14.5-7.1.1-9.4-1.9-9.4-7.7 0-5.3 2-6.8 12.7-9.4 12.2-3 12.3-2.9 12.3 2.6"/>
        <path d="M142.3 29c-1.7.4-4.8 1.7-6.9 2.9-2.9 1.8-3.9 1.9-4.5.9-.5-.7-.9-1.6-.9-2.1 0-.4-1.8-.7-4-.7h-4v52h10V65.2c.1-23.2 2.1-27.4 13.1-27.4q7.95 0 11.1 5.4c.9 1.5 1.5 8.3 1.8 20.3l.5 18h10V63c0-18.2 0-18.6-2.8-24.2-2.3-4.8-3.6-6.1-7.9-8.2-5.2-2.6-9.5-3.1-15.5-1.6"/>
        <path d="M194.6 29.5c-5.2 1.8-10 6.7-12.8 12.9-3.2 7.2-3.2 19 .1 26.3 2.4 5.5 8.4 11.7 12.7 13.3 3.7 1.4 12.3 1.1 16.9-.5 5.5-2 5.5-2 5.5 3 0 9.5-4.5 13.1-16.2 12.6-1.5-.1-4.2-1.4-6-3l-3.2-2.9-4.3 2.1-4.2 2 2 2.9c1.1 1.5 4.1 4 6.7 5.5 4.1 2.4 5.7 2.8 12.7 2.7 11.5 0 17.5-3.4 21-11.7 1.2-3 1.5-9 1.5-34.2V30h-4c-2.9 0-4 .4-4 1.5 0 1.9.1 1.9-6.2-1-6-2.8-12.2-3.2-18.2-1m17.4 9.2c4 2.3 5.2 5.6 5.8 15.4.8 14.7-2.5 19.9-12.5 19.9-7.1 0-10.6-1.9-13.3-7.4-4.4-9.2-1.8-24.5 4.8-28.1 3.7-2 11.8-1.9 15.2.2"/>
        <path d="M432.6 29.6c-2.1.8-4.5 1.9-5.3 2.6-1.1.9-1.7.7-2.9-1.1-1.2-1.6-2.4-2.1-5-1.9l-3.4.2V105h10V92c0-7.2.2-13 .4-13s2.3.9 4.7 2c5.4 2.4 13.8 2.6 18.5.4 12.4-5.9 18.2-24.7 11.8-38.4-6-12.9-16.6-17.9-28.8-13.4m15.5 10c3.4 3 4.9 7.7 4.9 15.1 0 9-1.4 13.6-5.1 16.7-2.6 2.2-4 2.6-9.2 2.6-8.9-.1-12-3.3-13.8-13.8-1.5-9.9 1.8-19.8 7.5-22.3 3.6-1.5 13.3-.5 15.7 1.7"/>
        <path d="M260.5 30.2c-1.6.6-4.3 2.2-5.8 3.7-2.4 2.2-2.9 2.3-3.7 1.1-.5-.8-1-2.3-1-3.3 0-1.3-.9-1.7-4-1.7h-4v51h4.4c3.1 0 4.6-.5 5-1.6.3-.9.6-7.9.6-15.7 0-19.8 1.8-23.3 13.3-25.3 3.7-.6 3.8-.7 3.5-4.8-.3-3.6-.6-4.1-2.8-4.3-1.4-.1-3.8.3-5.5.9"/>
        <path d="M356.5 97.1c-6.2 2-19.9 2.8-24.3 1.5-2.2-.7-2.3-.5-2 3 .3 3.6.6 3.9 4.3 4.7 7.9 1.7 25.3-1.2 29-4.9 1.8-1.8 2-6.4.3-6.3-.7 0-4 1-7.3 2"/>
    </g>
</svg>
