<?xml version="1.0" encoding="UTF-8"?>
<svg id="Layer_1" xmlns="http://www.w3.org/2000/svg" version="1.1" viewBox="0 0 859.5 202.7">
  <!-- Generator: Adobe Illustrator 29.3.1, SVG Export Plug-In . SVG Version: 2.1.0 Build 151)  -->
  <defs>
    <style>
      .st0 {
        fill: #3c5a88;
      }

      .st1 {
        fill: #91d2c7;
      }
    </style>
  </defs>
  <g>
    <path class="st1" d="M51.8,19.4v159.3c0,9.2,7.5,16.6,16.6,16.6h36.8V19.4h-53.4Z"/>
    <path class="st0" d="M183.1,65c0,35.5-28.9,64.4-64.4,64.4h-59.9c-3.9,0-7.1,3.2-7.1,7.1s0,.5,0,.7v30c-19-2.6-37.7-17.2-37.7-39.1s15-49.9,52.5-49.9h52.1c7.3,0,13.2-5.9,13.2-13.2,0-10-9.5-17-21.7-12.8-5.4,1.8-7.7,7.2-15.1,9.6-3.9,1.3-8.8.8-12.8.8-7.5,0-14.9-.2-22.4-.5-6.5-.2-13.8,0-19.6-3.4-5.7-3.3-9.2-9.8-10.5-16-2.8-13.1,6.9-20.6,15.8-25.7,5.2-3,11-5.2,16.4-7.9,6.6-3.2,13.3-6.4,20.4-8.1,8.1-2,12.8.8,17.8.5,5.7-.3,18.4-.9,18.4-.9,35.5,0,64.4,28.9,64.4,64.5Z"/>
    <path class="st0" d="M105.2,144.7c3.4,0,10.7.7,17.9,7.4,5.4,5.1,8,14.5,7.6,21.8-.4,7-2.4,13.7-6.9,19.1-4.1,5-9.9,8.2-16.2,9.2-17.9,2.8-33.1-13.6-35-30.5-.3-2.4,0-5,1.4-7.1,2.5-3.9,7.1-4.4,11.2-3.7,4.4.8,8.4,3,12.2,5.2,1.4.8,3.1,1.8,4.8,2,1.2.1,3-.6,3-2.1,0,0,0-21.4,0-21.4Z"/>
  </g>
  <g>
    <path class="st0" d="M237.2,71c0-6.4,5.2-11.7,11.7-11.7h21.4c22.1,0,35.9,12.4,35.9,32.7s-13.9,31.9-35.9,31.9h-8.1c-1.3,0-2.4,1.1-2.4,2.4v21.6c0,6.4-5.2,11.7-11.7,11.7h-8.5c-1.3,0-2.4-1.1-2.4-2.4v-86.1ZM270.4,103.5c8.2,0,12.9-4.4,12.9-11.4s-4.8-11.4-12.9-11.4h-8.2c-1.3,0-2.4,1.1-2.4,2.4v18.1c0,1.3,1.1,2.4,2.4,2.4h8.2Z"/>
    <path class="st0" d="M337.4,87.4h7.1c1.2,0,2.1.9,2.1,2.1v15.1c0,1.2-.9,2.1-2.1,2.1h-5.1c-3.5,0-6.3,2.8-6.3,6.3v34.9c0,6.4-5.2,11.7-11.7,11.7h-7.7c-1.2,0-2.1-.9-2.1-2.1v-43.9c0-18.1,9.7-26.1,25.7-26.1Z"/>
    <path class="st0" d="M349.7,123.7c0-22.7,16.3-38.1,37.3-38.1s31.9,9.5,34.7,30.3c.9,7.1-4.6,13.4-11.7,13.4h-37.1c-1.5,0-2.5,1.5-2,2.9,2.8,6.8,9.2,10.8,17.6,10.8s9.1-1.3,13-3.9c4.4-3,10.3-2.9,14.4.6l4.4,3.6c.9.8,1,2.1.3,3-7.9,9.6-18.9,14.9-32.4,14.9-23,0-38.4-15.5-38.4-37.6ZM399.1,114.5c1.5,0,2.5-1.5,2-2.9-2.3-5.5-7.3-8.5-14.2-8.5s-12.3,3.2-15.2,8.3.3,3.1,1.9,3.1h25.6Z"/>
    <path class="st0" d="M446.6,59.4h1.4c4.7,0,9,2.5,11.4,6.5l23.6,39.7c.8,1.4,2.8,1.4,3.6,0l23.2-39.6c2.4-4.1,6.7-6.6,11.5-6.6h.9c7.3,0,13.3,5.9,13.3,13.3v75.2c0,6.4-5.2,11.7-11.7,11.7h-7.4c-1.2,0-2.1-.9-2.1-2.1v-51.6c0-2.2-2.9-2.9-3.9-1.1l-18.3,31.4c-.4.6-1.1,1-1.8,1h-11.2c-.8,0-1.4-.4-1.8-1l-18.6-31.7c-1.1-1.9-3.9-1.1-3.9,1.1v42.3c0,6.4-5.2,11.7-11.7,11.7h-7.4c-1.2,0-2.1-.9-2.1-2.1v-84.8c0-7.3,5.9-13.3,13.3-13.3Z"/>
    <path class="st0" d="M545.8,123.7c0-22.7,16.3-38.1,37.3-38.1s31.9,9.5,34.7,30.3c.9,7.1-4.6,13.4-11.7,13.4h-37.1c-1.5,0-2.5,1.5-2,2.9,2.8,6.8,9.2,10.8,17.6,10.8s9.1-1.3,13-3.9c4.4-3,10.3-2.9,14.4.6l4.4,3.6c.9.8,1,2.1.3,3-7.9,9.6-18.9,14.9-32.4,14.9-23,0-38.4-15.5-38.4-37.6ZM595.2,114.5c1.5,0,2.5-1.5,2-2.9-2.3-5.5-7.3-8.5-14.2-8.5s-12.3,3.2-15.2,8.3.3,3.1,1.9,3.1h25.6Z"/>
    <path class="st0" d="M624.8,123.5c0-22.2,16.5-37.4,35.9-37.4s13.9,2,18.9,6.1c-.3-5.6-.4-11.3-.4-17.3v-9.6c0-6,4.9-10.9,10.9-10.9h8.5c1.2,0,2.1.9,2.1,2.1v91.4c0,6.4-5.2,11.7-11.7,11.7h-5.3c-1.2,0-2.1-.9-2.1-2.1h0c0-1.7-1.9-2.7-3.3-1.7-4.8,3.4-11.2,5.1-17.6,5.1-19.5,0-35.9-15.2-35.9-37.4ZM663.6,141.3c9.8,0,17-6.9,17-17.8s-7.2-17.8-17-17.8-17.3,6.9-17.3,17.8,7.4,17.8,17.3,17.8Z"/>
    <path class="st0" d="M709.9,123.7c0-22.7,16.3-38.1,37.3-38.1s31.9,9.5,34.7,30.3c.9,7.1-4.6,13.4-11.7,13.4h-37.1c-1.5,0-2.5,1.5-2,2.9,2.8,6.8,9.2,10.8,17.6,10.8s9.1-1.3,13-3.9,10.3-2.9,14.4.6l4.2,3.5c1,.8,1.1,2.3.3,3.3-7.9,9.5-18.8,14.8-32.3,14.8-23,0-38.4-15.5-38.4-37.6ZM759.3,114.5c1.5,0,2.5-1.5,2-2.9-2.3-5.5-7.3-8.5-14.2-8.5s-12.3,3.2-15.2,8.3.3,3.1,1.9,3.1h25.6Z"/>
    <path class="st0" d="M817.2,87.4h16.2c1.3,0,2.4,1.1,2.4,2.4v6.2c0,5.9-4.8,10.7-10.7,10.7h-5.9c-3.5,0-6.3,2.8-6.3,6.3v34.9c0,6.4-5.2,11.7-11.7,11.7h-7.4c-1.3,0-2.4-1.1-2.4-2.4v-43.6c0-18.1,9.7-26.1,25.7-26.1Z"/>
    <path class="st1" d="M856.2,64c1.4,0,2.4,1.1,2.4,2.4v6.2c0,6.4-5.2,11.7-11.7,11.7h-6c-1.4,0-2.4-1.1-2.4-2.4v-6.2c0-6.4,5.2-11.7,11.7-11.7h6Z"/>
  </g>
  <path class="st1" d="M24,53c1.8,0,3.2,1.4,3.2,3.2v8.1c0,8.4-6.8,15.2-15.2,15.2h-7.9c-1.8,0-3.2-1.4-3.2-3.2v-8.1c0-8.4,6.8-15.2,15.2-15.2h7.9Z"/>
</svg>