<svg xmlns="http://www.w3.org/2000/svg" width="733" height="300" viewBox="0 0 733 300">
  <g transform="translate(30, 40) scale(0.21825396825396826)">
    <g transform="translate(-1430, 0)">
      <path fill="white" transform="translate(0 0.000244141)" d="M2060.56 418.671C2072.24 416.99 2097.17 417.722 2109.82 417.955C2109.82 432.921 2108.92 480.374 2111.43 492.191C2118.35 535.717 2133.81 579.647 2145.17 621.952C2163.09 688.692 2179.65 756.211 2201.83 821.656C2209.11 843.129 2213.39 867.65 2219.91 889.484C2203.92 898.053 2185.33 906.17 2168.76 914.038C2153.02 921.507 2131.81 933.057 2115.76 937.983C2113.91 929.87 2112.92 924.837 2112.02 916.597C2111.79 906.974 2108.71 896.177 2107.92 884.913C2104.14 831.493 2096.01 778.131 2089.48 724.94C2081.08 656.555 2075.49 585.434 2066.01 517.321C2060.95 504.881 2062.46 435.258 2060.56 418.671Z"/><path fill="white" transform="translate(0 0.000244141)" d="M2060.56 418.671C2072.24 416.99 2097.17 417.722 2109.82 417.955C2109.82 432.921 2108.92 480.374 2111.43 492.191C2108.72 490.675 2107.3 489.996 2106.41 486.952C2103.1 475.636 2108.16 430.614 2102.49 422.848C2094.19 421.687 2076.35 422.215 2067.66 422.53C2063.35 444.641 2069.19 494.345 2066.01 517.321C2060.95 504.881 2062.46 435.258 2060.56 418.671Z"/><path fill="white" transform="translate(0 0.000244141)" d="M1988.84 418.134C1996.29 417.608 2031.04 416.516 2036.84 419.136C2032.93 425.091 2035.94 501.467 2036.47 513.783C2037.92 547.025 2041.32 580.267 2043.69 613.451C2045.74 642.308 2046.63 671.126 2048.3 699.987C2049.24 716.276 2050.96 732.508 2051.95 748.798C2053.63 776.475 2054.59 804.28 2056.54 831.92C2057.92 851.518 2060.13 871.117 2061.83 890.696C2063.37 908.566 2065.35 926.085 2067.79 943.85C2068.44 948.612 2068.29 953.521 2069.25 958.218C2069.28 958.399 2069.32 958.578 2069.36 958.758C2060.87 958.591 1997.52 992.885 1989.03 990.01C1987.91 984.75 1988.8 975.098 1988.97 969.279C1990.56 914.576 1992.14 859.443 1991.34 804.706C1990.89 773.938 1988.73 743.768 1988.55 712.812L1988.84 418.134Z"/><path fill="white" transform="translate(0 0.000244141)" d="M1918.14 417.895C1932.04 417.179 1948.72 417.634 1962.84 417.691C1963.27 443.766 1962.99 469.848 1962 495.907C1961.62 506.537 1959.59 540.31 1960.88 548.139C1960.79 551.226 1960.47 556.746 1960.87 559.577C1959.94 567.747 1960 575.791 1959 583.954C1953.72 626.845 1951.88 670.348 1951.22 713.535C1951.06 724.073 1948.55 735.323 1948.39 745.993C1947.75 758.362 1947.89 771.037 1947.16 783.254L1939.1 909.284C1938.53 918.805 1934.94 955.913 1937.31 963.634L1934.37 965.557C1933.27 965.372 1861.75 926.128 1856.62 922.903C1856.11 913.923 1858.52 903.555 1859.79 894.125C1862.82 870.946 1866.14 847.808 1869.76 824.715C1871.17 815.983 1875.91 791.77 1875.99 784.275C1880.09 764.147 1882.95 743.69 1883.96 723.145C1884.45 713.165 1884.75 707.241 1888.11 697.722C1887.82 697.077 1887.3 694.864 1887.09 694.052C1889.25 677.507 1891.78 659.053 1894.28 642.602C1895.93 640.347 1906.58 571.542 1907.8 563.089C1909.11 543.289 1915.29 518.601 1916.37 499.897C1917.88 473.559 1917.13 444.788 1918.14 417.895Z"/><path fill="white" transform="translate(0 0.000244141)" d="M1844.02 418.698C1853.26 417.168 1882.2 417.224 1892.22 418.047C1892.21 443.016 1894.27 488.087 1886.01 510.233C1885.05 512.033 1883.07 522.401 1882.3 525.306C1875.71 549.917 1872.88 575.365 1867.87 600.135C1853.78 669.81 1835.09 738.389 1821.33 808.169C1819.22 818.906 1807.03 888.366 1801.77 894.278C1795.6 893.396 1724.43 854.927 1714.25 848.468L1802.11 606.7C1814.47 572.031 1824.54 536.736 1838.89 503.104C1840.33 499.748 1842.23 493.86 1843.47 490.211C1843.78 466.375 1843.96 442.537 1844.02 418.698Z"/><path fill="white" transform="translate(0 0.000244141)" d="M1844.02 418.698C1853.26 417.168 1882.2 417.224 1892.22 418.047C1892.21 443.016 1894.27 488.087 1886.01 510.233C1885.07 503.981 1885.6 489.72 1885.59 482.877C1885.57 462.739 1886.74 442.256 1885.29 422.151C1872.46 421.468 1863.08 420.865 1850.39 422.644C1850.18 433.686 1852.18 480.708 1848.89 486.593C1845.95 487.449 1845.26 487.701 1843.47 490.211C1843.78 466.375 1843.96 442.537 1844.02 418.698Z"/><path fill="white" transform="translate(0 0.000244141)" d="M2139.03 417.483C2152.93 417.327 2166.83 417.324 2180.74 417.476C2181.95 437.998 2180.85 459.152 2180.84 479.731C2179.91 486.005 2182.98 490.852 2185.73 496.577C2190.55 506.596 2195.45 516.743 2200.22 526.857C2213.06 554.616 2226.29 582.191 2239.92 609.572C2247.26 624.168 2256.58 639.423 2263.15 654.085C2280.27 692.333 2298.08 730.743 2317.57 767.881C2327.91 787.479 2339.12 806.612 2351.15 825.224C2346.99 829.437 2325.02 839.11 2318.7 842.045C2304.91 846.799 2273.76 868.631 2263.15 866.482C2260.54 864.87 2259.56 861.12 2258.72 858.241C2252.12 835.473 2244.63 813.165 2237.11 790.687L2172.48 597.672L2143.38 511.632C2142.06 507.686 2136.46 497.528 2135.95 493.587C2133 470.95 2134.29 442.076 2136.45 419.267C2136.52 418.49 2138.1 417.965 2139.03 417.483Z"/><path fill="white" transform="translate(0 0.000244141)" d="M2211.15 417.468C2224.1 416.922 2239.67 417.337 2252.81 417.364C2253.54 439.579 2252.35 463.489 2252.84 486.279C2270.79 512.695 2286.6 548.424 2300.87 577.453C2317.58 611.453 2321.45 613.489 2348.83 639.121C2377.03 665.517 2404.89 693.835 2433.15 720.331C2448.36 734.603 2464.55 748.932 2478.7 764.236C2472.25 768.959 2461.85 773.946 2454.5 777.741C2443.85 783.14 2421.85 795.953 2410.36 797.486C2409.47 797.604 2407.12 795.132 2406.46 794.371L2335.01 711.111C2325.86 700.296 2306.1 679.411 2299.4 667.42C2277.09 627.488 2257.15 584.735 2236.69 543.754C2228.86 528.067 2212.1 504.898 2208.31 488.725C2204.58 472.848 2210.1 441.531 2208.65 423.916C2208.52 420.818 2209.09 419.285 2211.15 417.468Z"/><path fill="white" transform="translate(0 0.000244141)" d="M1699.45 417.31C1714.36 417.204 1729.27 417.247 1744.18 417.439C1744.46 436.714 1745.76 469.914 1743.07 488.05C1741.63 497.821 1726.79 525.284 1721.99 537.292L1698.19 596.294C1693.19 608.923 1684.37 633.206 1677.73 644.642C1661.3 672.934 1637.6 702.212 1618.18 728.819C1605.58 746.093 1593.23 765.27 1580.52 781.645C1572.97 777.547 1565.03 773.593 1557.37 769.656C1550.18 766.372 1516.16 748.53 1511.26 744.05C1514.86 739.124 1523.24 731.369 1527.59 726.349C1539.46 712.679 1551.65 699.493 1564.07 686.344L1616.77 630.466C1627.64 618.736 1634.95 608.948 1647.47 598.209C1656.99 590.046 1666.78 558.85 1671.82 546.181C1679.58 526.634 1696.05 500.819 1699.49 480.941C1701.93 466.867 1696.49 440.517 1697.54 425.378C1697.72 421.013 1696.79 420.033 1699.45 417.31Z"/><path fill="white" transform="translate(0 0.000244141)" d="M1771.2 418.07C1781.15 416.81 1806.46 417.573 1817 417.689C1817.12 439.697 1817.91 463.374 1816.82 485.263C1816.44 492.808 1809.82 509.079 1807.29 516.678C1796.23 549.787 1779.59 579.752 1766.89 611.93L1705.93 765.742C1698.14 785.175 1688.37 813.736 1679.41 832.276C1675.2 829.857 1671.03 827.852 1666.68 825.719C1662.78 823.051 1628.62 806.645 1630.27 802.824C1637.27 786.607 1647.08 771.472 1654.11 755.028L1736.27 567.344C1746.25 544.621 1765.31 506.854 1770.91 484.156C1772.58 477.357 1771.31 429.124 1771.2 418.07Z"/><path fill="white" transform="translate(0 0.000244141)" d="M2279.59 418.243C2287.8 416.878 2319.5 417.481 2328.41 417.964C2328.13 434.363 2327.15 463.274 2328.22 478.35C2328.88 487.724 2350.69 532.23 2357.63 538.487C2372.58 551.968 2403.62 570.54 2421.41 581.34L2491.7 624.878C2506.87 634.18 2525.04 644.408 2539.38 654.313C2539.45 655.27 2517.53 699.577 2515.26 705.614C2513.14 710.725 2506.41 725.435 2501.02 726.424C2495.9 722.948 2492.77 717.734 2488.37 713.512C2483.5 708.832 2477.64 705.037 2472.56 700.551C2465.66 694.458 2459.52 687.527 2452.53 681.452C2424.97 657.471 2396.52 634.433 2368.96 610.423C2359.92 602.543 2350.02 595.088 2341.6 586.558C2332.68 577.505 2282.67 495.141 2280.29 484.371C2277.12 470.015 2279.47 434.555 2279.59 418.243Z"/><path fill="white" transform="translate(0 0.000244141)" d="M1627.48 417.247C1642.69 417.064 1657.89 417.158 1673.09 417.528C1673.79 433.794 1673.02 450.564 1673.54 466.457C1676.51 492.109 1659.99 507.792 1651.95 528.067C1638.29 562.511 1624.17 572.552 1599.91 598.5C1567.52 633.018 1534.44 666.879 1500.69 700.063C1497.73 703.028 1492.94 708.16 1488.94 708.987C1487.38 708.197 1486.95 707.995 1486.06 706.472C1483.62 702.244 1467.75 649.222 1465.85 641.822C1465.52 640.537 1464.76 637.623 1465.47 636.369C1468.86 630.363 1484.55 621.602 1490.77 617.058C1503.2 607.986 1515.04 598.069 1527.38 588.85C1544.04 576.404 1595.16 543.242 1604.28 528.455C1608.29 521.943 1611.61 514.846 1615.06 508.021C1629.01 480.447 1627.03 468.943 1626.89 439.295C1626.86 432.822 1625.52 423.909 1627.31 417.793C1627.36 417.609 1627.42 417.429 1627.48 417.247Z"/><path fill="white" transform="translate(0 0.000244141)" d="M2359.39 417.489C2373.06 417.433 2386.59 417.303 2400.25 417.768C2400.44 437.961 2400.42 458.155 2400.2 478.348C2413.67 488.184 2454.78 504.894 2471.29 512.374C2508.99 529.458 2549.46 545.135 2587.13 561.9C2586.32 566.623 2567.89 601.781 2564.56 605.659C2563.59 608.897 2561.12 612.852 2559.37 615.857C2555.89 617.886 2557.46 617.392 2553.23 617.511C2525.16 601.728 2497.07 584.934 2468.79 569.733L2409.27 538.083C2402.19 534.324 2377.94 522.321 2374.43 517.228C2367.07 506.543 2360.08 493.008 2351.62 481.724C2351.16 470.419 2350.54 428.469 2352.12 419.34C2354.22 417.493 2356.11 417.884 2359.39 417.489Z"/><path fill="white" transform="translate(0 0.000244141)" d="M1562.2 417.108C1574.61 418.304 1588.28 416.712 1600.37 418.02C1600.77 435.796 1603.14 471.392 1599.84 488.387C1596.52 505.511 1571.39 522.572 1557.35 532.597L1511.2 565.428C1500.71 572.899 1461.56 603.374 1452.73 605.122L1450.91 604.538C1447.6 596.504 1445.09 584.287 1442.64 575.592C1440.17 566.838 1436.12 555.471 1434.62 546.808L1507.17 507.751C1518.72 501.407 1534.57 493.19 1545.15 485.656C1545.7 485.311 1550.02 482.398 1550.1 482.207C1555.66 469.602 1549.42 429.843 1552.73 419.254C1554.73 417.558 1559.36 417.437 1562.2 417.108Z"/><path fill="white" fill-opacity="0.011764706" transform="translate(0 0.000244141)" d="M2036.84 419.136C2038.45 421.911 2042.54 433.625 2042.72 436.409C2045.01 471.951 2039.45 506.505 2045.3 542.459C2046.84 551.948 2044.24 568.498 2045.37 578.555C2051.65 599.943 2048.52 617.51 2049.02 638.928C2049.17 645.41 2052.94 660.864 2053.56 669.521L2061.12 789.172C2062.79 812.431 2058.09 832.557 2065.13 855.112C2065.69 856.895 2066.65 875.729 2066.71 878.381C2067.01 891.847 2076.34 948.742 2073.8 957.861C2071.71 958.686 2071.6 958.693 2069.36 958.758C2069.32 958.578 2069.28 958.399 2069.25 958.218C2068.29 953.521 2068.44 948.612 2067.79 943.85C2065.35 926.085 2063.37 908.566 2061.83 890.696C2060.13 871.117 2057.92 851.518 2056.54 831.92C2054.59 804.28 2053.63 776.475 2051.95 748.798C2050.96 732.508 2049.24 716.276 2048.3 699.987C2046.63 671.126 2045.74 642.308 2043.69 613.451C2041.32 580.267 2037.92 547.025 2036.47 513.783C2035.94 501.467 2032.93 425.091 2036.84 419.136Z"/><path fill="white" fill-opacity="0.011764706" transform="translate(0 0.000244141)" d="M2112.02 916.597C2109.28 913.218 2105.01 908.954 2103.91 905.897C2100.68 898.133 2104.68 880.763 2102.86 874.262C2096.25 850.652 2095.78 825.74 2094.32 801.36C2093.77 798.337 2092.16 795.395 2091.68 792.345C2088.73 774.144 2087.28 755.687 2086.39 737.273C2086.25 734.322 2083.69 727.023 2083.11 722.464C2081.62 710.715 2081.41 693.738 2078.43 682.458C2077.59 683.548 2077.14 684.107 2076.47 685.319L2076.01 686.159C2075.63 672.276 2081.48 668.959 2075.68 654.294C2073.6 649.019 2076.61 634.592 2071.44 627.055C2071.44 627.049 2068.74 611.319 2068.44 609.738L2065.04 608.222C2063.48 602.6 2066.26 590.659 2065.45 583.95C2063.58 568.539 2062.81 552.968 2062.1 537.478C2061.84 531.805 2058.38 517.146 2058.76 512.901C2060.41 494.234 2054.53 432.747 2060.56 418.671C2062.46 435.258 2060.95 504.881 2066.01 517.321C2075.49 585.434 2081.08 656.555 2089.48 724.94C2096.01 778.131 2104.14 831.493 2107.92 884.913C2108.71 896.177 2111.79 906.974 2112.02 916.597Z"/><path fill="white" fill-opacity="0.011764706" transform="translate(0 0.000244141)" d="M1937.31 963.634C1934.94 955.913 1938.53 918.805 1939.1 909.284L1947.16 783.254C1947.89 771.037 1947.75 758.362 1948.39 745.993C1948.55 735.323 1951.06 724.073 1951.22 713.535C1951.88 670.348 1953.72 626.845 1959 583.954C1960 575.791 1959.94 567.747 1960.87 559.577C1965.88 600.221 1955.63 651.553 1957.86 693.447C1958.35 702.565 1955.24 715.516 1954.67 725.272L1945.71 877.791C1944.96 890.609 1946.14 903.583 1945 916.371C1944.76 919.081 1937.37 963.531 1937.31 963.634Z"/><path fill="white" fill-opacity="0.011764706" transform="translate(0 0.000244141)" d="M1962.84 417.691C1966.88 417.645 1966.18 417.02 1968.79 419.082C1971.51 431.329 1971.28 495.117 1968.41 510.435C1966.94 518.35 1965.52 525.589 1962.43 532.775C1961.63 534.636 1963.89 542.971 1960.88 548.139C1959.59 540.31 1961.62 506.537 1962 495.907C1962.99 469.848 1963.27 443.766 1962.84 417.691Z"/><path fill="white" fill-opacity="0.011764706" transform="translate(0 0.000244141)" d="M1875.99 784.275C1871.44 774.155 1876.55 743.056 1878.04 731.783C1879.16 723.404 1877.94 707.53 1880.85 700.417C1882.93 698.151 1885.09 698.16 1888.11 697.722C1884.75 707.241 1884.45 713.165 1883.96 723.145C1882.95 743.69 1880.09 764.147 1875.99 784.275Z"/><path fill="white" fill-opacity="0.011764706" transform="translate(0 0.000244141)" d="M1894.28 642.602C1891.12 634.146 1897.47 573.805 1900.58 566.109C1904.04 562.937 1902.73 563.84 1907.8 563.089C1906.58 571.542 1895.93 640.347 1894.28 642.602Z"/><path fill="white" fill-opacity="0.011764706" transform="translate(0 0.000244141)" d="M1547.07 416.554C1553.09 416.424 1556.14 416.481 1562.2 417.108C1559.36 417.437 1554.73 417.558 1552.73 419.254C1549.42 429.843 1555.66 469.602 1550.1 482.207C1550.02 482.398 1545.7 485.311 1545.15 485.656C1547.44 474.911 1547.08 429.772 1547.07 416.554Z"/><path fill="white" fill-opacity="0.011764706" transform="translate(0 0.000244141)" d="M1887.09 694.052C1885.89 686.652 1885.21 653.542 1888.93 645.899C1890.16 643.363 1891.77 643.391 1894.28 642.602C1891.78 659.053 1889.25 677.507 1887.09 694.052Z"/><path fill="white" transform="translate(0 0.000244141)" d="M1552.36 0L1601.64 0L1602.42 390.757C1591.92 390.951 1560.25 390.196 1551.84 391.182C1552.67 385.602 1552.17 360.583 1552.13 353.781L1551.91 277.526L1552.36 0Z"/><path fill="white" transform="translate(0 0.000244141)" d="M1988.1 0L2038.35 0C2036.86 57.6229 2036.64 115.408 2037.23 173.055C2037.97 245.555 2037.33 317.872 2036.51 390.369C2026.75 390.628 1995.85 392.133 1989.11 389.151C1989.56 356.329 1987.93 318.759 1987.88 285.1L1988.1 0Z"/><path fill="white" transform="translate(0 0.000244141)" d="M1915.85 0L1965.11 0C1963.9 129.755 1966.83 260.75 1964.18 390.321C1954.4 391.442 1925.83 391.23 1916 390.413C1914.45 319.412 1915.73 244.985 1916.16 173.966L1915.85 0Z"/><path fill="white" transform="translate(0 0.000244141)" d="M1698.6 0L1746.58 0C1747.2 25.3582 1746.47 53.2956 1746.72 79.0919C1747.23 155.88 1747.23 232.67 1746.71 309.458C1746.27 336.696 1744.61 363.658 1744.31 390.808C1729.05 391.079 1713.78 391.073 1698.52 390.791C1696.93 290.083 1697.6 191.101 1697.89 90.4845C1697.98 60.4767 1699.73 29.6561 1698.6 0Z"/><path fill="white" transform="translate(0 0.000244141)" d="M1843.63 0L1891.82 0C1892.56 129.988 1892.48 259.98 1891.57 389.967C1878.36 391.032 1857.9 390.649 1844.48 390.15C1842.4 334.78 1843.25 278.884 1843.51 223.497L1843.63 0Z"/><path fill="white" transform="translate(0 0.000244141)" d="M2280.04 0L2328.53 0L2328.22 390.534C2314.74 391.291 2293.39 391.271 2279.96 390.479C2278.89 260.147 2282.11 130.343 2280.04 0Z"/><path fill="white" transform="translate(0 0.000244141)" d="M2352.51 0L2399.67 0C2398.89 48.3814 2399.75 98.9829 2399.79 147.594L2399.53 390.572C2385.8 391.557 2365.29 390.869 2351.39 390.666L2353.54 44.038C2353.49 29.2936 2352.63 14.7859 2352.51 0Z"/><path fill="white" transform="translate(0 0.000244141)" d="M2061.59 0L2111.23 0L2108.93 390.758C2096.03 391.319 2073.6 391.155 2060.99 390.504C2060.19 326.658 2062.54 262.669 2063.62 198.847C2064.74 132.51 2062.31 66.2048 2061.59 0Z"/><path fill="white" transform="translate(0 0.000244141)" d="M2135.62 0L2182.45 0C2184.07 33.5681 2181.17 81.1019 2181.12 116.032L2180.86 390.465C2168.36 391.339 2146.87 390.877 2134 390.492L2135.62 0Z"/><path fill="white" transform="translate(0 0.000244141)" d="M1771.56 0L1819.9 0L1819.6 390.328C1806.68 391.464 1785.28 391.003 1772.01 390.554C1770.89 368.788 1772.86 346.519 1772.58 324.685C1771.21 216.808 1774.98 107.748 1771.56 0Z"/><path fill="white" transform="translate(0 0.000244141)" d="M2208.26 0L2255.26 0L2255.64 219.634C2255.56 258.895 2256.04 301.407 2254.09 340.495L2253.98 340.001C2252.9 355.342 2253.36 374.926 2253.34 390.603C2240.71 391.337 2220.66 391.098 2207.96 390.528C2207.52 374.9 2208.35 356.171 2208.5 340.231L2208.96 246.763L2208.26 0Z"/><path fill="white" transform="translate(0 0.000244141)" d="M1627.32 0L1672.43 0C1673.53 12.394 1672.83 35.0641 1672.77 48.2656L1672.28 135.497C1671.45 220.453 1671.55 305.416 1672.57 390.37C1659.32 391.113 1638.48 391.153 1625.28 390.412C1624.94 379.029 1626.13 366.522 1626.52 354.998C1626.98 337.153 1627.24 319.304 1627.3 301.453L1627.03 200.413C1627.81 133.612 1627.91 66.8036 1627.32 -1.42109e-14L1627.32 0Z"/><path fill="white" fill-opacity="0.015686275" transform="translate(0 0.000244141)" d="M1546.55 0L1552.36 0L1551.91 277.526L1552.13 353.781C1552.17 360.583 1552.67 385.602 1551.84 391.182C1549.08 390.985 1550.01 391.389 1547.78 389.949C1546.46 376.733 1546.6 357.632 1546.54 343.983L1546.56 271.278L1546.52 92.3616C1546.53 61.6674 1547.21 30.6073 1546.55 0Z"/><path fill="white" fill-opacity="0.011764706" transform="translate(0 0.000244141)" d="M1983.12 0L1988.1 0L1987.88 285.1C1987.93 318.759 1989.56 356.329 1989.11 389.151L1987.3 387.941C1980.09 372.738 1983.01 184.507 1983.08 156.066L1983.12 0Z"/>
    </g>
  </g>
  <g transform="translate(311.53968253968253, 184)" fill="white">
    <path d="M54.56-28C54.56-22.08 49.60-20.48 42.88-20.48C35.52-20.48 24.80-23.36 15.52-28.48C11.68-30.56 10.08-29.44 8.48-26.24L3.84-16.64C1.92-12.80 2.88-11.36 6.40-8.80C15.84-1.92 30.08 1.92 41.92 1.92C64.32 1.92 77.76-10.24 77.76-30.40C77.76-60.64 30.24-64.96 30.24-80C30.24-84.80 34.88-86.72 40.96-86.72C46.56-86.72 53.60-84.32 59.68-81.60C63.52-80 65.28-80.80 66.72-83.84L71.20-93.60C72.80-97.28 72.16-99.04 68.64-101.44C61.60-106.08 50.08-109.12 40.96-109.12C19.52-109.12 7.04-96.64 7.04-78.40C7.04-46.72 54.56-44.16 54.56-28ZM110.56-6.40L110.56-37.44C110.56-52.16 117.44-58.72 128-58.72C135.68-58.72 140.32-53.12 140.32-41.44L140.32-3.20C140.32 1.12 142.40 3.20 146.72 3.20L156.32 3.20C160.64 3.20 162.72 1.12 162.72-3.20L162.72-48.64C162.72-71.84 151.20-81.92 135.68-81.92C126.72-81.92 116.64-77.44 110.56-68L110.56-105.60C110.56-109.92 108.48-112 104.16-112L94.56-112C90.24-112 88.16-109.92 88.16-105.60L88.16-6.40C88.16-2.08 90.24 0 94.56 0L104.16 0C108.48 0 110.56-2.08 110.56-6.40ZM198.40-6.40L198.40-37.44C198.40-50.40 205.12-57.12 213.92-57.12C216.64-57.12 219.68-56.80 224.16-55.84C226.88-55.20 228.32-56 228.48-58.40L230.08-76.80C230.24-77.92 229.92-79.04 228.64-79.84C226.56-81.12 222.88-81.92 219.36-81.92C211.84-81.92 203.68-76.96 198.40-68.32L198.40-81.60C198.40-85.92 196.32-88 192-88L182.40-88C178.08-88 176-85.92 176-81.60L176-6.40C176-2.08 178.08 0 182.40 0L192 0C196.32 0 198.40-2.08 198.40-6.40ZM276.96 1.92C287.20 1.92 299.04-1.44 306.88-7.68C309.44-9.76 308.64-11.36 307.52-14.40L304.32-22.72C303.20-25.76 300.80-27.04 298.40-25.60C292.96-22.56 286.08-18.88 280-18.88C269.12-18.88 262.08-23.84 258.88-30.88L303.52-36C309.12-36.64 309.76-39.36 309.76-45.76C309.76-68 295.84-81.92 275.20-81.92C248.64-81.92 235.04-62.88 235.04-40C235.04-15.20 251.52 1.92 276.96 1.92ZM273.60-61.12C280.48-61.12 285.28-57.28 286.72-51.52L257.92-48.16C259.84-57.44 265.28-61.12 273.60-61.12ZM387.84 3.20C392.16 3.20 394.24 1.12 394.24-3.20L394.24-108.80C394.24-113.12 392.16-115.20 387.84-115.20L378.24-115.20C373.92-115.20 371.84-113.12 371.84-108.80L371.84-80C366.56-81.28 361.28-81.92 355.84-81.92C333.28-81.92 315.68-66.08 315.68-40.96C315.68-16.16 330.88 0 349.44 0C358.24 0 366.24-3.20 371.84-9.12L371.84-3.20C371.84 1.12 373.92 3.20 378.24 3.20ZM354.08-23.20C344.32-23.20 338.08-30.56 338.08-40.96C338.08-52.96 345.60-58.88 355.84-58.88C361.92-58.88 367.04-58.08 371.84-56.48L371.84-44.48C371.84-30.88 365.28-23.20 354.08-23.20Z"/>
  </g>
</svg>