<?xml version="1.0" encoding="utf-8"?>
<svg version="1.1" id="Layer_1" xmlns="http://www.w3.org/2000/svg" xmlns:xlink="http://www.w3.org/1999/xlink" x="0px" y="0px"
	 viewBox="0 0 1600 1200" style="enable-background:new 0 0 1600 1200;" xml:space="preserve">
<style type="text/css">
	.st0{fill:#F43D2A;}
	.st1{fill:#FFFFFF;}
</style>
<g>
	<path class="st0" d="M386.62,707.01c-2.09,2.85-4.16,5.1-5.92,6.78c-5.5-72.85-37.39-98.06-37.39-98.06
		c1.16-0.26,2.29-0.53,3.4-0.82c5.78-1.49,9.68-6.99,8.98-12.92c-1.68-14.11-9.45-19.57-14.2-27.66
		c-5.76-9.79-2.88-16.41,4.13-18.33c7.01-1.92,16.89,3.65,21.11,20.83c2.78,11.29,1.54,21.26,0.36,26.76
		c-0.39,1.81,1.5,3.25,3.15,2.4c0.16-0.08,0.32-0.17,0.48-0.25c10.35-5.42,16.35-15.99,16.34-26.97l0.01,0.02
		c0,0,1.43-13.09-10.26-31.74c4.84-12.77,18.06-52.28,5.66-52.61c-14.45-0.38-45.71,13.5-45.71,13.5c-1.48-1.08-3.01-2.06-4.56-2.96
		l3.81-23.24l19.61-8.32c1.64-0.7,1.64-3.02,0-3.71l-59.42-25.22c-1.34-0.57-2.85-0.57-4.19,0l-59.42,25.22
		c-1.64,0.7-1.64,3.02,0,3.71l19.61,8.32l2.22,13.54c5.74-1.27,17.74-3.36,30.71-2.36c1.04,0.08,1.84,0.95,1.87,1.99
		c0.03,1.07-0.76,1.98-1.82,2.09c-8.59,0.92-20.9,2.83-33.73,10.95h0h0c0,0,0,0,0,0c0,0-31.26-13.88-45.71-13.5
		c-12.4,0.33,0.83,39.86,5.67,52.62c-11.68,18.64-10.25,31.73-10.25,31.73l0,0c0,10.97,6,21.53,16.34,26.95
		c0.16,0.08,0.32,0.17,0.48,0.25c1.64,0.85,3.53-0.59,3.15-2.4c-1.18-5.51-2.41-15.47,0.36-26.76
		c4.22-17.18,14.11-22.75,21.11-20.83s9.89,8.54,4.13,18.33c-4.76,8.09-12.52,13.55-14.2,27.66c-0.71,5.93,3.2,11.43,8.98,12.92
		c1.11,0.29,2.25,0.56,3.4,0.82c0,0-41.08,32.45-38.04,130.17c0.19,6.01,5.1,10.79,11.12,10.79h76.11l73.83,0
		c11.53,0,22.89-2.88,32.96-8.49c3.47-1.93,7.17-4.26,10.88-7.01C407.71,722.08,393.17,711.09,386.62,707.01z M367.85,534.94
		c-5.03-5.87-11.37-12.07-19.36-18.42c6.24-3.57,20.87-11.52,27.43-11.52C382.45,505,372.64,525.6,367.85,534.94z M212.32,505
		c6.56,0,21.2,7.96,27.43,11.53c-7.99,6.35-14.32,12.55-19.36,18.42C215.61,525.61,205.79,505,212.32,505z M348.07,653.58
		c-6.84,5.28-21.95,16.05-39.96,23.16c-6.06,2.39-5.07,11.31,1.35,12.47c9.96,1.8,23.13,2.38,38.62-1.16v39.26
		c0,2-1.63,3.61-3.63,3.6c-8.78-0.06-31.48,0.83-45.43,10.78c-2.94,2.1-6.84,2.1-9.77,0c-13.95-9.95-36.65-10.84-45.43-10.78
		c-2,0.01-3.63-1.6-3.63-3.6v-14.83c15.92,3.79,29.46,3.24,39.63,1.4c6.42-1.16,7.41-10.07,1.35-12.47
		c-18.96-7.49-34.72-19.03-40.98-23.95v-34.96c0-2.77,2.49-4.89,5.22-4.44c20.63,3.4,35.96,12.21,43.5,17.37
		c3.15,2.16,7.3,2.16,10.45,0c7.54-5.16,22.87-13.97,43.5-17.37c2.73-0.45,5.22,1.67,5.22,4.44V653.58z"/>
	<g>
		<path class="st1" d="M558.93,715.15c-9.54,0-19.23-1.17-29.07-3.52c-7.53-1.79-14.18-4.06-19.94-6.78
			c-2.99-1.42-4.58-4.75-3.86-7.98l5.04-22.82c0.97-4.41,5.74-6.8,9.88-4.99c5.84,2.56,11.41,4.34,16.71,5.33
			c7.64,1.44,14.72,2.16,21.23,2.16c6.05,0,10.63-0.98,13.74-2.95c3.1-1.97,4.66-4.62,4.66-7.95c0-3.03-1.74-5.41-5.22-7.15
			c-3.48-1.74-7.99-3.37-13.51-4.88c-5.53-1.51-11.39-3.29-17.6-5.34c-6.21-2.04-12.07-4.77-17.6-8.17
			c-5.53-3.41-10.03-7.95-13.51-13.62c-3.48-5.68-5.22-12.83-5.22-21.46c0-10.9,2.65-20.32,7.95-28.27
			c5.3-7.95,12.87-14.08,22.71-18.39c9.84-4.31,21.42-6.47,34.74-6.47c8.93,0,17.67,1.17,26.23,3.52c6.24,1.71,11.57,3.85,15.99,6.4
			c2.75,1.58,4.16,4.75,3.44,7.84l-4.75,20.53c-0.96,4.17-5.36,6.57-9.39,5.12c-4.77-1.72-9.18-3.05-13.25-4.01
			c-6.13-1.44-11.92-2.16-17.37-2.16c-6.36,0-11.2,0.91-14.53,2.72c-3.33,1.82-5,4.24-5,7.27c0,2.88,1.74,5.22,5.22,7.04
			c3.48,1.82,7.95,3.56,13.4,5.22c5.45,1.67,11.28,3.56,17.48,5.68c6.21,2.12,12.04,4.92,17.48,8.4c5.45,3.48,9.91,8.03,13.4,13.62
			c3.48,5.6,5.22,12.64,5.22,21.12c0,17.56-5.72,31.11-17.14,40.65C595.07,710.38,579.21,715.15,558.93,715.15z"/>
		<path class="st1" d="M689.4,713.34c-10.75,0-19.49-1.82-26.23-5.45c-6.74-3.63-11.62-8.55-14.65-14.76
			c-3.03-6.21-4.54-13.17-4.54-20.89v-46.32h-8.93c-3.1,0-5.61-2.51-5.61-5.61v-16.94c0-3.1,2.51-5.61,5.61-5.61h12.33l17.72-30.1
			c2.11-3.58,5.95-5.78,10.11-5.78h10.84c3.23,0,5.84,2.62,5.84,5.84v30.04h20.73c3.1,0,5.61,2.51,5.61,5.61v16.94
			c0,3.1-2.51,5.61-5.61,5.61H691.9v39.74c0,3.48,1.14,6.17,3.41,8.06c2.27,1.89,5.22,2.84,8.86,2.84c2.19,0,4.38-0.33,6.57-0.99
			c2.27-0.68,4.61,0.84,4.86,3.2l2.51,23.23c0.23,2.17-0.85,4.3-2.77,5.34c-3.05,1.65-6.62,2.97-10.72,3.96
			C699.01,712.65,693.94,713.34,689.4,713.34z"/>
		<path class="st1" d="M793.28,713.34c-19.23,0-34.25-4.88-45.07-14.65c-10.82-9.76-16.24-23.28-16.24-40.53v-54.79
			c0-3.1,2.51-5.61,5.61-5.61h35.56c3.1,0,5.61,2.51,5.61,5.61v56.84c0,6.06,1.32,10.52,3.97,13.4c2.65,2.88,6.25,4.31,10.79,4.31
			c4.39,0,7.83-1.44,10.33-4.31c2.5-2.87,3.75-7.34,3.75-13.4v-56.84c0-3.1,2.51-5.61,5.61-5.61h34.66c3.1,0,5.61,2.51,5.61,5.61
			v54.79c0,17.41-5.26,30.96-15.78,40.65C827.15,708.49,812.36,713.34,793.28,713.34z"/>
		<path class="st1" d="M922.17,713.34c-10.45,0-19.91-2.53-28.38-7.61c-8.48-5.07-15.18-12.07-20.1-21
			c-4.92-8.93-7.38-19.15-7.38-30.66c0-11.5,2.46-21.57,7.38-30.2c4.92-8.63,11.62-15.4,20.1-20.32c8.48-4.92,17.94-7.38,28.38-7.38
			c7.42,0,14.57,2.01,21.46,6.02c6.89,4.01,12,10.48,15.33,19.42v-61.15c0-3.1,2.51-5.61,5.61-5.61h36.7c3.1,0,5.61,2.51,5.61,5.61
			v145.47c0,3.1-2.51,5.61-5.61,5.61h-36.24c-3.1,0-5.61-2.51-5.61-5.61V690.4c-3.63,7.42-8.48,13.09-14.53,17.03
			C938.82,711.37,931.25,713.34,922.17,713.34z M936.93,677.46c6.21,0,11.5-2.23,15.89-6.7c4.39-4.46,6.58-9.95,6.58-16.46
			c0-6.51-2.2-11.84-6.58-16.01c-4.39-4.16-9.69-6.24-15.89-6.24c-6.51,0-11.96,2.2-16.35,6.58c-4.39,4.39-6.58,9.76-6.58,16.12
			c0,6.36,2.19,11.73,6.58,16.12C924.97,675.27,930.42,677.46,936.93,677.46z"/>
		<path class="st1" d="M1087.34,755.8c-5.75,0-11.13-0.38-16.12-1.13c-2.62-0.4-4.95-0.84-6.99-1.32c-2.77-0.65-4.62-3.25-4.3-6.08
			l2.46-22.27c0.35-3.16,3.24-5.4,6.38-4.93c1.02,0.15,2.06,0.29,3.13,0.42c3.18,0.38,6.28,0.57,9.31,0.57
			c10.14,0,17.45-2.12,21.91-6.36c4.46-4.24,6.7-10.75,6.7-19.53v-12.94c-3.63,9.24-8.78,15.93-15.44,20.1
			c-6.66,4.17-14.53,6.24-23.62,6.24c-14.08,0-24.98-5.11-32.7-15.33c-7.72-10.22-11.58-24.64-11.58-43.26v-46.62
			c0-3.1,2.51-5.61,5.61-5.61h36.7c3.1,0,5.61,2.51,5.61,5.61v49.12c0,13.47,4.77,20.21,14.31,20.21c5.9,0,10.63-2.42,14.19-7.27
			c3.55-4.84,5.34-11.2,5.34-19.07v-42.99c0-3.1,2.51-5.61,5.61-5.61h36.7c3.1,0,5.61,2.51,5.61,5.61v81.59
			c0,24.22-5.98,42.08-17.94,53.59C1126.24,750.04,1109.28,755.8,1087.34,755.8z"/>
		<path class="st1" d="M1237.25,713.34c-19.23,0-34.25-4.88-45.07-14.65c-10.83-9.76-16.24-23.28-16.24-40.53v-54.79
			c0-3.1,2.51-5.61,5.61-5.61h35.56c3.1,0,5.61,2.51,5.61,5.61v56.84c0,6.06,1.32,10.52,3.97,13.4c2.65,2.88,6.24,4.31,10.79,4.31
			c4.39,0,7.83-1.44,10.33-4.31c2.5-2.87,3.75-7.34,3.75-13.4v-56.84c0-3.1,2.51-5.61,5.61-5.61h34.66c3.1,0,5.61,2.51,5.61,5.61
			v54.79c0,17.41-5.26,30.96-15.78,40.65C1271.11,708.49,1256.32,713.34,1237.25,713.34z"/>
		<path class="st1" d="M1317.22,705.91V603.36c0-3.1,2.51-5.61,5.61-5.61h36.02c3.1,0,5.61,2.51,5.61,5.61v22.78
			c3.03-10.29,7.76-17.86,14.19-22.71c5.15-3.87,14.72-6.2,22.92-6.97c3.12-0.29,5.8,2.2,5.8,5.34v28.7c0,3.09-2.61,5.52-5.7,5.34
			c-1.68-0.1-3.33-0.15-4.98-0.15c-21.04,0-31.56,8.63-31.56,25.89v44.35c0,3.1-2.51,5.61-5.61,5.61h-36.7
			C1319.73,711.52,1317.22,709.01,1317.22,705.91z"/>
	</g>
	<g>
		<path class="st0" d="M392.34,644.06c12.89-20.96,30.23-27.48,38.61-29.46c-7.16-7.33-18.48-9.66-28.23-4.88l-0.35,0.18
			c-11.84,5.92-16.61,20.42-10.87,32.35C391.78,642.84,392.07,643.45,392.34,644.06z"/>
		<g>
			<path class="st0" d="M398.2,671.77c21.09-11.16,38.89-8.54,47.49-6.05c-0.27-11.06-2.04-20.88-4.5-29.34
				c-24.65-2.76-42.21,13.7-45.38,16.92c1.59,5.32,2.57,11.02,2.44,16.89C398.24,670.72,398.22,671.25,398.2,671.77z"/>
			<path class="st0" d="M397.19,681.39c-1.25,7.27-3.46,13.31-6.01,18.25c21.28,5.59,32.19,18.15,37.06,25.78
				c7.22-9.12,13.11-20.65,15.61-35.12c0.03-0.18,0.06-0.36,0.09-0.54C425.05,675.88,403.06,679.95,397.19,681.39z"/>
		</g>
		<path class="st1" d="M312.65,564.79c-7.85-5.42-5.49-14.13-18.53-14.13s-10.68,8.71-18.53,14.13
			c-10.04,6.92-16.38,15.43-15.23,25.34c2.09,18.21,33.77,17.84,33.77,17.84s31.67,0.37,33.77-17.84
			C329.03,580.22,322.69,571.71,312.65,564.79z"/>
		<path d="M294.12,570.34c-7.18,0-15.33,3.5-13.62,10.3c1.7,6.8,13.62,9.4,13.62,9.4s11.92-2.6,13.62-9.4
			C309.45,573.84,301.3,570.34,294.12,570.34z"/>
		<ellipse cx="262.91" cy="548.92" rx="7.15" ry="9.01"/>
		<ellipse cx="325.33" cy="548.92" rx="7.15" ry="9.01"/>
	</g>
</g>
</svg>
