<?xml version="1.0" encoding="utf-8"?>
<svg xmlns="http://www.w3.org/2000/svg" viewBox="0 0 2050 592" fill="white">
  <!-- Logo Icon -->
  <path d="M325.556 109.106L331.947 109.193C331.847 130.261 332.978 151.318 335.334 172.254C349.085 294.737 404.064 408.907 491.25 496.027C505.817 510.469 521.146 524.121 537.172 536.925C540.244 539.418 558.063 551.554 554.823 555.101C546.282 556.95 532.395 556.538 523.356 556.533L484.048 556.518L331.857 556.562L182.169 556.618L138.695 556.581C133.285 556.586 105.537 557.248 101.799 555.18C99.9434 550.731 116.201 539.562 119.658 536.696C130.114 528.108 140.322 519.223 150.27 510.051C237.484 429.104 295.958 321.953 316.845 204.812C321.103 179.553 323.846 154.062 325.059 128.475C325.371 122.25 325.327 115.454 325.556 109.106Z"/>
  <path d="M72.2269 50.3478C103.186 49.9752 134.975 50.3968 166.009 50.3792L368.83 50.3404L504.998 50.3458C530.963 50.3541 558.87 49.9755 584.705 50.7092L585.224 351.867C583.113 351.995 580.879 352.04 578.756 352.119C578.378 348.016 578.402 343.792 577.983 339.678C576.375 323.88 574.956 307.676 571.195 292.218C562.582 256.809 546.051 223.544 523.208 195.167C518.24 188.996 512.963 183.3 507.608 177.469C465.378 133.568 408.545 106.633 347.826 101.742C281.841 96.6152 216.501 117.748 166.017 160.545C121.378 198.893 91.534 251.627 81.6394 309.638C78.9432 326.346 79.71 336.197 78.493 351.903C76.2902 352.292 74.4573 352.953 72.5364 351.77C71.323 350.351 71.4595 347.96 71.4153 346.142C71.0392 330.682 71.919 315.177 71.9812 299.739L72.0645 171.716L71.5323 97.2844C71.4719 81.47 71.1636 66.1343 72.2269 50.3478Z"/>
  <!-- "Trovex" Text -->
  <text x="720" y="400" font-family="'Inter', 'Segoe UI', 'Helvetica Neue', Arial, sans-serif" font-size="340" font-weight="600" letter-spacing="-8" fill="white">Trovex</text>
</svg>