<?xml version="1.0" encoding="UTF-8"?>
<svg xmlns="http://www.w3.org/2000/svg" viewBox="0 0 1114.1 340.5" fill="none">
<g fill="#FFFFFF">
	<path d="M524.4,81.3c-23.5-23.2-53.5-34.7-89.9-34.7c-36.5,0-66.4,11.6-89.9,34.7c-21.4,21.1-33,47.7-34.8,79.3 c0,0.8,0,1.6-0.1,2.3c-0.2,10.9,8.5,19.9,19.4,19.9l13.5,0c6.5,0,11,6.5,8.7,12.6l-11.9,31.1c-4.6,12.2-1.6,26,7.9,34.9 c4,3.8,8.3,7.4,12.6,10.5c20.8,14.6,45.6,21.9,74.6,21.9c36.4,0,66.4-11.6,89.9-34.7c23.5-23.5,35.1-53.1,35.1-89.2 C559.5,134.1,547.9,104.5,524.4,81.3z M480.8,220c-11.2,12.6-26.9,19.1-46.3,19.1c-19.4,0-35.1-6.5-46.7-19.1 c-11.2-13-17-29.7-17-50.1c0-20.1,5.8-36.8,17-49.4c11.6-12.6,27.2-19.1,46.7-19.1c19.4,0,35.1,6.5,46.3,19.1 c11.6,12.6,17.4,29.3,17.4,49.4C498.2,190.3,492.4,207,480.8,220z"/>
	<path d="M796.3,81.3c-23.5-23.2-53.5-34.7-89.9-34.7c-36.5,0-66.4,11.6-89.9,34.7c-21.4,21.1-33,47.7-34.8,79.3 c0,0.8,0,1.6-0.1,2.3c-0.2,10.9,8.5,19.9,19.4,19.9l13.5,0c6.5,0,11,6.5,8.7,12.6l-11.9,31.1c-4.6,12.2-1.6,26,7.9,34.9 c4,3.8,8.3,7.4,12.6,10.5c20.8,14.6,45.6,21.9,74.6,21.9c36.4,0,66.4-11.6,89.9-34.7c23.5-23.5,35.1-53.1,35.1-89.2 C831.4,134.1,819.8,104.5,796.3,81.3z M752.7,220c-11.2,12.6-26.9,19.1-46.3,19.1c-19.4,0-35.1-6.5-46.7-19.1 c-11.2-13-17-29.7-17-50.1c0-20.1,5.8-36.8,17-49.4c11.6-12.6,27.2-19.1,46.7-19.1c19.4,0,35.1,6.5,46.3,19.1 c11.6,12.6,17.4,29.3,17.4,49.4C770.1,190.3,764.3,207,752.7,220z"/>
	<path d="M244.8,239.3l-16.4,43.1c-1.3,3.4,1.2,7.1,4.9,7.1h22.1c21.2,0,40.2-13.1,47.8-32.9l16.4-43.1c1.3-3.4-1.2-7.1-4.9-7.1 h-22.1C271.4,206.4,252.4,219.5,244.8,239.3z"/>
	<path d="M214.7,84.8l-75.4,197.6c-1.3,3.4,1.2,7.1,4.9,7.1h21.2c21.7,0,41.2-13.4,49-33.7l75.4-197.6c1.3-3.4-1.2-7.1-4.9-7.1 h-21.2C241.9,51,222.4,64.5,214.7,84.8z"/>
	<path d="M1018.7,84.8l-75.4,197.6c-1.3,3.4,1.2,7.1,4.9,7.1h21.2c21.7,0,41.2-13.4,49-33.7l75.4-197.6c1.3-3.4-1.2-7.1-4.9-7.1 h-21.2C1045.9,51,1026.4,64.5,1018.7,84.8z"/>
	<path d="M904.2,84.8C896.5,64.5,877,51,855.3,51H834c-3.7,0-6.2,3.7-4.9,7.1l75.4,197.6c2.4,6.3,5.9,11.9,10.3,16.7 c2.6,2.9,7.3,1.9,8.7-1.7l18.6-48.8c4.6-12.2,4.6-25.6,0-37.8L904.2,84.8z"/>
	<path d="M125.6,84.8L50.2,282.4c-1.3,3.4,1.2,7.1,4.9,7.1h21.2c21.7,0,41.2-13.4,49-33.7l75.4-197.6c1.3-3.4-1.2-7.1-4.9-7.1h-21.2 C152.8,51,133.3,64.5,125.6,84.8z"/>
	<path d="M36.8,84L20.4,127c-1.3,3.4,1.2,7.1,4.9,7.1h22.1c21.2,0,40.2-13.1,47.8-32.9l16.4-43.1c1.3-3.4-1.2-7.1-4.9-7.1H84.6 C63.4,51,44.4,64.2,36.8,84z"/>
</g>
</svg>
