<svg width="250" height="250" viewBox="0 0 250 250" fill="none" xmlns="http://www.w3.org/2000/svg">
<rect width="250" height="250" fill="#D2E5F6"/>
<path d="M84.1009 100.436H115.619L114.118 96.5334H81.8496C81.9997 96.5334 83.0503 99.0849 84.1009 100.436Z" fill="#00357F"/>
<path d="M84.1009 100.436H115.619L114.118 96.5334H81.8496C81.9997 96.5334 83.0503 99.0849 84.1009 100.436Z" stroke="#00357F" stroke-width="0.4319"/>
<path d="M90.8545 109.441H123.273L127.175 113.343H96.1075C95.9574 113.343 92.5054 111.242 90.8545 109.441Z" fill="#00357F"/>
<path d="M90.8545 109.441H123.273L127.175 113.343H96.1075C95.9574 113.343 92.5054 111.242 90.8545 109.441Z" stroke="#00357F" stroke-width="0.3968"/>
<path d="M87.1025 75.5214C88.0031 73.8705 88.9036 72.6698 89.8041 71.6192H116.82L115.169 75.5214H87.1025Z" fill="#00357F"/>
<path d="M87.1025 75.5214C88.0031 73.8705 88.9036 72.6698 89.8041 71.6192H116.82L115.169 75.5214H87.1025Z" stroke="#00357F" stroke-width="0.4319"/>
<path d="M120.572 63.0644L122.222 59.1621H104.062C102.111 60.5129 100.46 61.7136 98.8091 63.0644H120.572Z" fill="#00357F"/>
<path d="M120.572 63.0644L122.222 59.1621H104.062C102.111 60.5129 100.46 61.7136 98.8091 63.0644H120.572Z" stroke="#00357F" stroke-width="0.4319"/>
<path d="M78.0972 195.29H111.266L110.666 191.388H76.4463C76.4463 191.388 77.3468 193.939 78.0972 195.29Z" fill="#00357F"/>
<path d="M78.0972 195.29H111.266L110.666 191.388H76.4463C76.4463 191.388 77.3468 193.939 78.0972 195.29Z" stroke="#00357F" stroke-width="0.4202"/>
<path d="M82.6001 202.644H114.718L117.87 206.546H87.4028C87.4028 206.396 84.251 204.445 82.6001 202.644Z" fill="#00357F"/>
<path d="M82.6001 202.644H114.718L117.87 206.546H87.4028C87.4028 206.396 84.251 204.445 82.6001 202.644Z" stroke="#00357F" stroke-width="0.4202"/>
<path d="M81.249 182.533H111.867L113.067 178.63H86.0518C86.0518 178.781 83.0501 180.882 81.249 182.533Z" fill="#00357F"/>
<path d="M81.249 182.533H111.867L113.067 178.63H86.0518C86.0518 178.781 83.0501 180.882 81.249 182.533Z" stroke="#00357F" stroke-width="0.3968"/>
<path d="M98.3589 170.826H116.669L118.771 166.924H105.413C105.413 166.924 100.61 169.325 98.3589 170.826Z" fill="#00357F"/>
<path d="M98.3589 170.826H116.669L118.771 166.924H105.413C105.413 166.924 100.61 169.325 98.3589 170.826Z" stroke="#00357F" stroke-width="0.3968"/>
<path d="M176.554 213H120.121C120.121 213 91.6051 195.74 121.322 159.87L138.732 153.566C138.732 153.566 89.3538 191.238 176.554 213Z" fill="#00357F"/>
<path d="M112.767 87.9786H81.249C81.5492 86.928 81.8494 85.4271 82.4497 84.0764H113.067L112.767 87.9786Z" fill="#00357F"/>
<path d="M112.767 87.9786H81.249C81.5492 86.928 81.8494 85.4271 82.4497 84.0764H113.067L112.767 87.9786Z" stroke="#00357F" stroke-width="0.4319"/>
<path d="M143.685 124.149C77.7969 104.938 128.826 47.6055 128.826 47.6055C132.878 45.9546 151.489 41.1519 151.489 41.1519C82.5996 97.8843 172.201 112.293 172.201 112.293L143.685 124.149Z" fill="#00357F"/>
<path d="M149.988 38C81.2491 53.6089 78.2474 86.9279 78.2474 86.9279C73.8949 55.4099 92.3555 42.2024 100.46 38H149.988ZM172.201 112.142C59.1865 141.109 73.5948 184.634 73.5948 184.634C73.5948 184.634 93.7063 158.819 172.201 140.809V112.142Z" fill="white"/>
</svg>
