<svg width="250" height="250" viewBox="0 0 250 250" fill="none" xmlns="http://www.w3.org/2000/svg">
<rect width="250" height="250" fill="white"/>
<path fill-rule="evenodd" clip-rule="evenodd" d="M110.33 66.2055C110.539 66.4846 110.749 66.8335 111.028 67.3917C111.865 68.7874 113.191 74.0907 114.866 75.8353C115.773 75.2072 117.308 74.4396 118.215 74.0907C118.006 73.7418 117.029 72.1369 115.982 70.7412C113.959 68.0198 112.493 66.6242 112.354 66.345C111.865 66.4148 110.888 66.4148 110.33 66.2055ZM125.542 73.2534C125.961 70.4621 125.054 65.9263 124.496 64.7401C123.798 64.6005 123.1 64.3214 122.542 64.0423C122.472 64.3912 121.914 66.2753 121.774 68.9967C121.704 70.4621 121.704 72.6951 121.983 73.1836C122.891 73.1138 124.356 73.1138 125.542 73.2534ZM132.939 84.6975C132.171 84.0694 131.125 83.7903 130.706 84.0694V84.209C130.776 85.1859 130.078 86.0233 129.171 86.0931C128.194 86.1629 127.357 85.465 127.287 84.5579V84.4881C126.659 84.2788 125.682 84.6277 125.542 84.5579C125.472 84.4881 125.054 82.7436 125.612 82.5342C127.077 81.9062 131.892 81.6271 133.288 84.3485C133.427 84.6277 133.358 85.0464 132.939 84.6975ZM125.612 89.5821C125.333 90.4893 122.193 90.7684 121.634 89.5821C121.425 89.0937 121.076 87.9772 121.495 88.1865C122.193 88.6052 124.705 88.3261 125.193 88.1865C125.612 88.0469 125.333 87.4887 125.612 87.5585C125.891 87.698 125.891 88.7448 125.612 89.5821ZM120.658 84.4183C120.588 85.3953 119.82 86.0931 118.843 86.0233C117.866 85.9535 117.168 85.1859 117.238 84.209V83.9996C117.099 83.7903 116.331 83.5112 115.145 84.209C114.587 84.5579 113.889 84.3486 114.936 83.4414C115.982 82.5343 117.029 81.976 117.936 81.8364C119.471 81.6969 121.425 82.0458 122.332 82.3947C122.681 82.5343 122.332 84.4183 122.263 84.4183C121.983 84.3486 121.286 84.0694 120.727 84.209L120.658 84.4183ZM138.731 89.5123C138.731 81.2084 132.241 74.7188 123.937 74.7188C115.773 74.7188 109.144 81.348 109.144 89.5123C109.144 89.931 109.213 90.6986 109.353 91.4662C113.61 90.4893 119.262 90.6288 121.774 92.6525C125.821 90.3497 131.683 90.2102 136.009 92.6525C136.847 92.2338 137.754 91.8849 138.661 91.6756C138.661 90.9778 138.731 90.2102 138.731 89.5123ZM133.846 66.0659C132.102 67.5313 129.45 71.0902 129.101 73.9512C129.938 74.3001 132.102 75.3468 132.381 75.5561C134.544 73.4627 134.056 71.0901 134.893 69.3456C135.172 68.7874 135.451 68.1593 135.8 67.6011C135.102 67.1824 134.404 66.6939 133.846 66.0659ZM144.244 71.7182C143.825 71.9275 142.987 72.4858 142.639 72.6951C140.615 74.2303 136.149 76.3237 135.102 77.4402C135.94 78.138 137.126 79.4639 137.684 80.5804C138.173 80.5804 139.638 79.4639 142.499 76.0446C143.406 74.9979 144.383 74.4396 146.128 73.3929C145.43 72.9742 144.802 72.3462 144.244 71.7182ZM108.306 84.0694C107.329 83.0925 105.445 82.3249 102.933 82.5342C97.8391 82.9529 94.4896 82.604 92.5358 82.3249C89.2561 81.8364 87.1626 82.3249 85.5577 82.3249C80.5334 82.3249 85.6972 82.7436 86.2555 83.0227C88.628 83.9299 93.3731 85.1161 97.1413 84.837C98.9556 84.6975 102.026 85.8139 102.584 86.0233C103.91 86.5118 106.352 87.2794 107.678 87.2794C107.748 86.6513 108.027 84.837 108.306 84.0694ZM112.423 77.8589C109.841 75.7655 107.469 75.3468 103.701 73.6023C102.863 73.1836 101.398 72.2066 101.328 72.2066C101.189 72.0671 100.979 71.9973 100.84 71.8577C100.63 72.5556 100.142 73.5325 99.793 74.0209C100.351 74.7885 104.608 79.6034 109.981 81.0688C110.539 80.0221 111.446 78.8358 112.423 77.8589ZM166.294 81.5573C166.015 81.4875 165.108 81.4177 164.48 81.4177C163.643 81.4177 158.339 81.4178 156.874 81.6969C153.873 82.1853 148.151 81.9062 145.011 81.7666C142.639 81.6969 139.917 82.604 139.08 83.0227C139.08 83.0227 139.987 85.3255 140.057 86.8607C141.034 87.07 142.011 85.7442 144.872 85.814C147.872 85.8837 155.199 85.465 158.898 83.9996C161.689 82.9529 163.992 82.3947 165.876 81.976C166.573 81.8364 167.62 81.7667 166.294 81.5573ZM98.188 61.1812C98.6765 58.6691 101.119 54.9707 106.771 56.4361C107.469 56.6455 107.05 58.39 106.283 58.0411C102.166 56.4361 100.072 59.5763 99.4441 62.0186C99.3743 62.3675 97.9787 62.228 98.188 61.1812ZM96.2342 64.2516C93.9314 64.5307 93.2336 65.6472 92.8149 66.9731C92.6753 67.4615 91.3495 67.1126 91.5588 66.1357C92.1869 63.2747 95.2572 62.5769 96.3737 62.7862C96.7226 62.856 96.6529 64.1818 96.2342 64.2516ZM89.7445 69.3456C88.1396 69.3456 86.8835 69.3456 85.767 70.6017C84.5807 71.9275 84.8599 72.6253 84.6505 72.8347C84.3016 73.1836 83.534 72.5555 83.534 71.9275C83.6038 68.8571 87.3022 67.6709 89.4654 67.95C90.3028 68.0896 90.5121 69.3456 89.7445 69.3456ZM112.144 54.2031C113.54 52.0399 118.215 48.6904 122.332 52.3888C122.821 52.8075 122.263 54.2729 121.704 53.924C117.936 51.3421 114.936 53.4355 113.331 55.3196C112.633 56.2268 111.795 54.7614 112.144 54.2031ZM124.635 53.8542C126.1 51.4119 133.916 49.1789 137.893 56.0174C138.312 56.785 137.754 57.2037 137.335 57.4828C136.986 57.6922 136.847 57.2037 136.637 56.8548C133.288 51.4817 127.147 52.9471 125.472 55.3894C125.124 55.9477 124.216 54.552 124.635 53.8542ZM141.452 57.6922C143.546 56.9944 147.035 56.6455 147.942 60.0647C148.221 61.0417 147.035 61.4604 146.756 60.8323C145.779 58.3202 144.034 58.4598 141.871 59.1576C140.894 59.5065 141.173 57.8317 141.452 57.6922ZM151.012 62.3675C153.245 61.1115 157.781 61.3208 159.177 65.3681C159.386 66.0659 158.479 67.2522 157.921 66.2055C156.246 63.0653 153.455 63.0653 151.152 63.9725C150.663 64.1818 150.175 62.856 151.012 62.3675ZM160.782 66.9731C163.084 66.4148 165.806 68.0896 165.038 71.1599C164.899 71.7182 163.643 71.7182 163.643 71.1599C163.852 68.578 162.596 68.3687 160.851 68.3687C160.223 68.4385 160.293 67.0428 160.782 66.9731ZM99.8628 66.6939C100.072 66.4846 100.421 66.4846 100.7 66.6242C103.212 67.4615 106.841 66.9033 108.516 64.2516C108.725 63.9027 109.213 63.7631 109.632 63.9027C111.377 64.6005 114.936 64.9494 119.262 60.5532C119.611 60.2043 120.099 60.2741 120.448 60.5532C124.286 63.6236 128.264 63.8329 132.241 61.1115C132.52 60.9719 132.799 60.7625 133.079 60.8323C133.358 60.9719 133.567 61.1812 133.637 61.4604C134.893 67.3917 141.103 66.9033 142.987 66.5544C143.476 66.4846 143.964 66.8335 144.034 67.322C144.244 68.7176 145.779 71.439 148.43 72.7649C150.733 73.9512 153.176 73.8814 155.827 72.4858C156.106 72.3462 156.385 72.3462 156.665 72.4858C160.014 74.3001 163.084 74.3699 164.969 72.7649C166.294 71.6484 166.853 69.7643 166.364 68.1593C165.736 66.345 163.992 65.2285 161.41 65.089C160.991 65.089 160.642 64.7401 160.572 64.3214C160.363 62.856 159.526 61.6697 158.27 60.9021C156.316 59.7158 153.385 59.5763 150.454 60.5532C149.896 60.7625 149.338 60.4136 149.268 59.7856C149.128 58.6691 148.64 57.1339 147.244 56.2966C145.779 55.3894 143.546 55.3894 140.824 56.3663C140.406 56.5059 139.917 56.2966 139.708 55.9477C137.963 52.5982 135.451 50.3652 132.59 49.5976C130.008 48.8998 127.077 49.3882 124.635 50.9932C124.286 51.2025 123.937 51.2025 123.588 50.9234C121.146 49.1091 118.145 48.4811 115.494 49.3185C112.912 50.086 110.888 52.1795 109.911 55.0405C109.841 55.2498 109.632 55.4592 109.423 55.5988C109.213 55.7383 108.934 55.7383 108.725 55.5988C104.747 53.9938 101.468 54.0636 99.3045 55.7383C97.4205 57.2037 96.8622 59.4367 96.932 60.1345C97.0018 60.623 96.7226 61.0417 96.2342 61.1115L95.2572 61.3208C93.0242 61.8093 90.7215 62.3675 90.0934 65.8566C90.0237 66.2753 89.6748 66.5544 89.2561 66.5544C85.4181 66.9033 82.906 68.3687 82.3477 70.4621C81.9988 71.9275 82.6966 73.6023 84.0225 74.5094C85.4181 75.4166 87.0231 75.3468 88.5583 74.2303C88.8374 74.021 89.1165 74.021 89.3956 74.0907C91.6286 74.9281 95.327 74.7885 97.56 72.9742C99.165 71.6484 99.793 69.7643 99.4441 67.322C99.5139 67.1824 99.5837 66.9033 99.8628 66.6939ZM86.7439 92.164C84.0225 92.0943 81.7197 92.8619 80.9521 94.2575C79.4867 96.8394 81.2312 99.0724 82.278 99.7004C84.6505 101.096 86.8835 100.189 87.0929 99.3515C86.4648 98.6537 85.3483 96.9789 84.7203 96.9789C83.8131 96.9789 83.8829 95.7926 84.5807 95.5833C86.1857 95.0948 87.7209 98.0954 89.9539 99.7004C91.9775 101.166 94.8385 100.119 94.8385 99.4911C93.5127 98.3048 92.0473 92.3036 86.7439 92.164ZM141.034 99.2817C142.918 101.166 145.5 100.398 145.639 99.7702C145.43 99.4213 144.244 97.607 143.546 97.258C142.987 96.9091 142.639 96.4207 142.918 96.002C143.406 95.3042 144.453 95.7926 145.151 96.5602C145.779 97.3976 147.663 99.7004 148.291 100.119C149.966 101.026 153.594 100.677 153.315 99.6306C152.338 98.0256 151.64 94.8157 148.57 93.4201C145.43 91.9547 141.452 92.3036 137.754 93.6294C138.312 94.8855 140.057 98.3048 141.034 99.2817ZM119.122 93.2108C115.982 91.7454 111.586 92.2338 107.888 93.5597C108.934 94.9553 110.609 98.0954 111.516 99.2119C113.191 101.305 116.122 100.259 116.261 99.6306C116.052 99.2817 114.517 97.1883 113.889 96.9091C113.331 96.5602 113.051 96.0718 113.331 95.6531C113.819 94.9553 115.075 95.6531 115.703 96.4207C116.331 97.1883 118.215 99.5608 118.843 99.9795C120.658 101.236 124.147 100.538 123.867 99.4911C122.681 97.8861 122.123 94.6762 119.122 93.2108ZM95.7457 117.146C93.5127 117.215 91.3495 118.053 90.0934 117.843V132.707C90.0934 132.707 90.9308 133.335 93.094 132.707C95.955 131.869 97.2809 132.777 97.2809 132.777V117.774C97.2809 117.774 96.932 117.076 95.7457 117.146ZM103.701 179.251C105.934 179.879 106.701 179.251 106.701 179.251V164.387C105.445 164.597 103.282 163.759 101.049 163.69C99.8628 163.62 99.5139 164.318 99.5139 164.318V179.321C99.5139 179.321 100.77 178.413 103.701 179.251ZM152.059 117.146C150.873 117.146 150.524 117.774 150.524 117.774V132.777C150.524 132.777 151.78 131.869 154.711 132.707C156.944 133.335 157.711 132.707 157.711 132.707V117.843C156.455 118.053 154.292 117.215 152.059 117.146ZM101.049 117.146C99.8628 117.146 99.5139 117.774 99.5139 117.774V132.777C99.5139 132.777 100.77 131.869 103.701 132.707C105.934 133.335 106.701 132.707 106.701 132.707V117.843C105.445 118.053 103.282 117.215 101.049 117.146ZM97.2809 179.321V164.318C97.2809 164.318 96.932 163.62 95.7457 163.69C93.5127 163.759 91.3495 164.667 90.0934 164.387V179.251C90.0934 179.251 90.861 179.879 93.094 179.251C95.955 178.413 97.2809 179.321 97.2809 179.321ZM150.803 164.387V179.39C150.803 179.39 152.059 178.483 154.99 179.321C157.223 179.949 157.99 179.321 157.99 179.321V164.457C156.734 164.667 154.571 163.829 152.338 163.759C151.152 163.69 150.803 164.387 150.803 164.387ZM146.756 117.146C144.523 117.215 142.359 118.053 141.103 117.843V132.707C141.103 132.707 141.941 133.335 144.104 132.707C146.965 131.869 148.291 132.777 148.291 132.777V117.774C148.291 117.774 147.942 117.076 146.756 117.146ZM141.383 164.457V179.321C141.383 179.321 142.15 179.949 144.383 179.321C147.244 178.483 148.57 179.39 148.57 179.39V164.387C148.57 164.387 148.221 163.69 147.035 163.759C144.802 163.759 142.639 164.667 141.383 164.457ZM162.038 136.266H151.85V137.522H147.593V136.266H137.405V119.03H139.568V115.89C141.801 116.448 145.43 115.192 147.035 115.192C148.849 115.192 149.756 115.959 149.756 115.959C149.756 115.959 150.663 115.192 152.478 115.192C154.083 115.192 157.711 116.378 159.944 115.89V119.03H162.107V136.266H162.038ZM131.683 142.825H167.341V110.516H131.683V142.825ZM110.679 136.266H100.491V137.522H96.2342V136.266H86.0461V119.03H88.2093V115.89C90.4423 116.448 94.071 115.192 95.6759 115.192C97.4902 115.192 98.3974 115.959 98.3974 115.959C98.3974 115.959 99.3045 115.192 101.119 115.192C102.724 115.192 106.352 116.378 108.585 115.89V119.03H110.749V136.266H110.679ZM80.4636 142.825H116.122V110.516H80.4636V142.825ZM131.683 200.604C140.685 198.022 149.547 194.533 155.618 189.02C157.781 187.066 159.526 185.043 160.991 182.81H151.78V184.066H147.523V182.81H137.335V165.574H139.498V162.434C141.731 162.992 145.29 161.736 146.965 161.736C148.779 161.736 149.686 162.503 149.686 162.503C149.686 162.503 150.594 161.736 152.408 161.736C154.013 161.736 157.642 162.922 159.875 162.434V165.574H162.038V181.205C165.317 175.552 166.853 168.574 167.411 158.805L167.341 157.34H131.683V200.604ZM86.0461 180.995C82.5571 174.924 80.8823 167.597 80.5334 158.665L80.4636 157.27H116.122V200.534C106.98 197.882 98.0485 194.254 92.3264 188.881C90.3028 186.996 88.5583 184.973 87.1626 182.74H96.2342V183.996H100.491V182.74H110.679V165.504H108.516V162.364C106.283 162.922 102.724 161.666 101.049 161.666C99.2348 161.666 98.3276 162.434 98.3276 162.434C98.3276 162.434 97.4204 161.666 95.6061 161.666C94.0012 161.666 90.3726 162.852 88.1396 162.364V165.504H85.9764V180.995" fill="#FFFFFE"/>
<path fill-rule="evenodd" clip-rule="evenodd" d="M165.945 81.976C164.061 82.3249 161.758 82.8831 158.967 83.9996C155.269 85.465 147.942 85.8139 144.941 85.8139C142.08 85.7442 141.103 87.0002 140.126 86.8607C140.056 85.3255 139.149 83.0227 139.149 83.0227C139.987 82.604 142.708 81.6271 145.081 81.7666C148.221 81.9062 154.013 82.1156 156.943 81.6969C158.409 81.4875 163.712 81.4177 164.55 81.4177C165.178 81.4177 166.085 81.5573 166.364 81.5573C167.62 81.7666 166.573 81.8364 165.945 81.976ZM148.5 93.3503C151.501 94.7459 152.198 97.9558 153.245 99.5608C153.524 100.608 149.896 100.956 148.221 100.049C147.593 99.7004 145.779 97.3278 145.081 96.4904C144.453 95.7229 143.406 95.1646 142.848 95.9322C142.569 96.3509 142.917 96.9091 143.476 97.1883C144.174 97.5372 145.36 99.3515 145.569 99.7004C145.43 100.328 142.848 101.166 140.964 99.2119C139.987 98.235 138.242 94.8855 137.614 93.5597C141.382 92.2338 145.36 91.8849 148.5 93.3503ZM159.525 92.3036C166.015 92.8618 167.55 97.1185 166.922 98.5141C166.364 99.7004 162.386 101.305 156.315 99.6306C154.292 98.7234 152.757 94.1877 152.129 93.5597C151.989 93.3503 155.757 92.0245 159.525 92.3036ZM127.007 99.8399C125.054 98.9328 123.449 94.397 122.821 93.769C122.611 93.5596 126.379 92.164 130.148 92.5129C136.637 93.0712 136.707 97.1185 138.242 99.1421C138.94 99.9097 133.078 101.584 127.007 99.8399ZM118.843 99.9795C118.215 99.5608 116.401 97.258 115.703 96.4207C115.075 95.6531 113.819 94.8855 113.33 95.6531C113.051 96.0718 113.33 96.5602 113.889 96.9091C114.447 97.258 116.052 99.2817 116.261 99.6306C116.122 100.259 113.191 101.305 111.516 99.2119C110.609 98.1652 108.934 94.9553 107.887 93.5597C111.586 92.2338 115.982 91.7453 119.122 93.2107C122.123 94.6064 122.611 97.8861 123.867 99.4213C124.146 100.538 120.657 101.166 118.843 99.9795ZM97.5598 99.5608C95.5361 98.6537 94.001 94.1179 93.3729 93.4899C93.1636 93.2805 96.862 91.8849 100.7 92.2338C107.19 92.792 107.19 96.8393 108.795 98.863C109.423 99.5608 103.561 101.236 97.5598 99.5608ZM89.8839 99.6306C87.5811 98.0256 86.0459 95.025 84.5107 95.5135C83.8827 95.7229 83.7431 96.9091 84.6503 96.9091C85.2783 96.9091 86.3948 98.5839 87.0229 99.2817C86.8833 100.189 84.5805 101.096 82.208 99.6306C81.1612 99.0026 79.4167 96.7696 80.8821 94.1877C81.7195 92.7921 83.9525 92.0245 86.6739 92.0942C91.9773 92.2338 93.4427 98.235 94.6988 99.3515C94.7686 99.9795 91.9075 101.096 89.8839 99.6306ZM102.584 86.0233C102.026 85.8139 99.0252 84.6975 97.1411 84.837C93.3729 85.1161 88.6278 83.9299 86.2553 83.0227C85.697 82.8134 80.5332 82.3249 85.5575 82.3249C87.2322 82.3249 89.2558 81.8364 92.5356 82.3249C94.4894 82.604 97.8389 82.9529 102.933 82.5342C105.445 82.3249 107.329 83.1623 108.306 84.0694C108.027 84.837 107.748 86.5815 107.678 87.2096C106.352 87.2794 103.91 86.5117 102.584 86.0233ZM99.723 74.0209C100.142 73.4627 100.56 72.5555 100.77 71.8577C100.979 71.9973 101.188 72.1369 101.258 72.2066C101.328 72.2764 102.793 73.1836 103.631 73.6023C107.399 75.3468 109.771 75.8352 112.353 77.8589C111.446 78.9056 110.469 80.0919 109.841 81.0688C104.538 79.6034 100.351 74.7885 99.723 74.0209ZM97.6296 73.1836C95.3966 74.9979 91.768 75.1374 89.4652 74.3001C89.1861 74.1605 88.8372 74.2303 88.6278 74.4396C87.0926 75.5561 85.4877 75.6259 84.092 74.7188C82.7662 73.8116 82.0684 72.1368 82.4173 70.6714C82.9756 68.578 85.4877 67.1126 89.3256 66.7637C89.7443 66.6939 90.0234 66.4148 90.163 66.0659C90.8608 62.5768 93.1636 62.0186 95.3268 61.5301L96.3037 61.3208C96.7224 61.1812 97.0015 60.7625 97.0015 60.3439C96.9318 59.7158 97.49 57.413 99.3741 55.9476C101.537 54.2729 104.817 54.2031 108.795 55.8081C109.004 55.8779 109.283 55.8779 109.492 55.8081C109.702 55.7383 109.911 55.529 109.981 55.2498C110.958 52.319 112.981 50.2954 115.563 49.5278C118.215 48.6904 121.216 49.3184 123.658 51.1327C123.937 51.3421 124.356 51.3421 124.705 51.2025C127.147 49.5976 130.078 49.1091 132.66 49.8069C135.59 50.5745 138.033 52.7377 139.777 56.157C139.987 56.5757 140.475 56.7152 140.894 56.5757C143.615 55.6685 145.848 55.5987 147.314 56.5059C148.709 57.3433 149.198 58.8785 149.337 59.9949C149.407 60.5532 149.965 60.9021 150.524 60.7625C153.454 59.7856 156.315 59.9252 158.339 61.1114C159.665 61.879 160.433 63.0653 160.642 64.5307C160.712 64.9494 161.061 65.2983 161.479 65.2983C163.991 65.4379 165.806 66.5544 166.434 68.3687C166.992 69.9736 166.434 71.8577 165.038 72.9742C163.154 74.5792 160.084 74.5094 156.734 72.6951C156.455 72.5555 156.176 72.5555 155.897 72.6951C153.245 74.0209 150.803 74.1605 148.5 72.9742C145.848 71.5786 144.313 68.9269 144.104 67.5313C144.034 67.0428 143.546 66.6939 143.057 66.7637C141.173 67.0428 134.962 67.6011 133.706 61.6697C133.637 61.3906 133.427 61.1114 133.148 61.0417C132.869 60.9021 132.52 61.1114 132.311 61.3208C128.263 63.9725 124.286 63.8329 120.518 60.7625C120.169 60.4834 119.611 60.4136 119.331 60.7625C115.005 65.1587 111.446 64.8098 109.702 64.112C109.283 63.9725 108.864 64.112 108.585 64.4609C106.91 67.1126 103.282 67.6709 100.77 66.8335C100.491 66.7637 100.142 66.6939 99.9324 66.9033C99.723 67.1126 99.5834 67.3917 99.6532 67.7406C99.9324 69.9736 99.3043 71.8577 97.6296 73.1836ZM128.054 70.8808C127.635 71.9275 127.496 72.4858 127.356 73.044C127.705 70.811 127.077 67.6011 126.449 64.7401C128.403 64.8098 130.357 64.2516 132.311 63.1351C132.45 63.5538 132.66 63.9725 132.869 64.3214C131.683 65.4379 129.101 68.2989 128.054 70.8808ZM137.195 68.7176C137.265 68.578 137.335 68.4385 137.405 68.2989C139.01 68.8571 140.754 68.9967 142.499 68.7874C142.708 69.3456 142.917 69.9736 143.266 70.5319C142.429 70.9506 139.847 72.6951 136.079 74.7885C135.102 75.3468 134.474 75.8353 134.125 76.1842C134.544 75.6259 135.032 74.8583 135.381 74.0907C136.009 72.416 135.87 71.0901 137.195 68.7176ZM134.893 69.3456C134.055 71.1599 134.474 73.4627 132.381 75.5561C132.101 75.3468 129.938 74.3001 129.101 73.9512C129.45 71.0901 132.101 67.5313 133.846 66.0659C134.404 66.6939 135.172 67.2522 135.87 67.6011C135.451 68.1593 135.172 68.7176 134.893 69.3456ZM121.774 68.9967C121.913 66.2752 122.472 64.3911 122.541 64.0422C123.1 64.3214 123.867 64.6005 124.495 64.7401C125.054 65.8566 125.961 70.4621 125.542 73.2534C124.286 73.1138 122.821 73.1836 121.983 73.2534C121.704 72.7649 121.704 70.4621 121.774 68.9967ZM123.867 74.649C132.171 74.649 138.661 81.1386 138.661 89.4426C138.661 90.1404 138.591 90.908 138.521 91.6058C137.614 91.8849 136.707 92.164 135.87 92.5827C131.613 90.0706 125.751 90.2101 121.634 92.5827C119.122 90.559 113.47 90.4195 109.213 91.3964C109.074 90.6288 109.004 89.7915 109.004 89.4426C109.074 81.2782 115.703 74.649 123.867 74.649ZM116.052 70.7412C117.098 72.1369 118.075 73.7418 118.285 74.0907C117.378 74.4396 115.842 75.2072 114.935 75.8353C113.261 74.0907 111.935 68.7874 111.097 67.3917C110.748 66.8335 110.539 66.4846 110.4 66.2055C110.958 66.4148 111.935 66.345 112.493 66.4148C112.563 66.6241 114.028 68.0896 116.052 70.7412ZM119.82 73.2534L119.89 73.3929C119.89 73.3929 118.564 71.439 118.424 71.1599C117.936 70.4621 117.378 69.7643 116.75 68.9269C115.912 67.8802 115.005 66.9033 114.098 65.9263C115.842 65.5077 117.796 64.5307 119.96 62.5071C120.169 62.6466 120.448 62.7862 120.657 62.9258C120.518 63.6236 120.448 64.2516 120.378 64.6703C119.89 67.322 119.82 69.4154 119.82 70.3225C119.68 71.1599 119.82 72.4858 119.82 73.2534ZM101.328 68.7874C103.701 69.1363 106.492 68.578 108.515 66.7637C111.028 70.7412 111.097 74.3698 113.47 76.8122C110.4 73.8814 107.748 73.9512 103.421 71.5786C102.654 71.1599 101.537 70.4621 101.258 70.2528C101.328 69.9039 101.328 69.4852 101.328 69.0665C101.328 69.0665 101.328 68.9269 101.328 68.7874ZM142.429 76.0446C139.568 79.3941 138.172 80.5804 137.614 80.5804C137.056 79.4639 135.87 78.2078 135.032 77.4402C136.079 76.3237 140.545 74.2303 142.569 72.6951C142.848 72.4858 143.755 71.9275 144.174 71.7182C144.732 72.416 145.36 72.9742 146.058 73.4627C144.313 74.4396 143.336 74.9979 142.429 76.0446ZM171.249 80.6502C170.69 80.2315 165.038 79.5336 164.131 79.5336C163.294 79.5336 158.339 79.6034 156.455 79.8826C153.524 80.3012 148.5 80.3012 144.662 79.8826C143.266 79.743 141.731 80.0919 140.475 80.4408C140.754 80.2315 140.964 80.0221 141.313 79.6732C142.429 78.4869 143.685 76.3237 145.918 75.2072C146.476 74.9281 146.965 74.649 147.523 74.3698C149.407 75.277 152.338 75.9748 156.036 74.2303C161.549 76.9517 164.829 75.1374 165.945 74.1605C167.341 72.9742 168.178 71.2297 168.178 69.4154C168.178 68.7874 168.108 68.1593 167.899 67.6011C167.132 65.2285 164.899 63.6933 161.968 63.3444C161.828 62.7164 161.549 62.0884 161.2 61.5301C161.479 61.1812 161.758 60.7625 162.107 60.4136C162.386 60.0647 163.294 58.5993 160.851 59.8554C160.642 59.9949 160.433 60.0647 160.223 60.2043C159.874 59.8554 159.525 59.5763 159.107 59.2971C156.874 57.9015 153.803 57.762 150.663 58.5993C150.245 56.9246 149.407 55.529 148.081 54.6916C146.686 53.8542 144.941 53.5751 142.917 53.924C143.057 53.6449 143.197 53.3657 143.266 53.1564C144.174 51.2723 143.685 50.7838 142.708 51.6212C141.592 52.5982 140.964 53.296 140.405 53.7844C138.452 50.6443 135.939 48.5509 132.869 47.7833C130.217 47.0855 127.426 47.4343 124.844 48.6904C124.705 47.4343 124.495 46.3876 124.356 45.7596C123.867 44.2244 123.309 45.4107 123.239 45.8992L122.821 48.4811C120.239 47.0855 117.447 46.7365 114.796 47.5739C111.865 48.4811 109.702 50.6443 108.376 53.6449C107.399 53.296 106.422 53.0866 105.445 52.8773C104.887 52.1795 104.119 51.2723 103.003 50.2954C102.235 49.6673 101.677 49.9465 102.096 51.2723C102.235 51.7608 102.444 52.2493 102.584 52.6679C100.491 52.8075 99.0252 53.4355 97.9785 54.2729C95.9548 55.8081 95.1175 58.0411 94.9779 59.5065C94.9081 59.5065 94.7686 59.5763 94.6988 59.5763C93.024 59.9949 90.7212 60.623 89.3256 62.856C89.0465 62.7164 88.9069 62.5768 88.8372 62.5071C84.5805 59.646 86.5344 63.3444 88.2091 64.9494C82.5569 65.7868 80.9519 68.4385 80.5332 70.1132C80.4634 70.5319 80.3937 70.9506 80.3937 71.3693C80.3937 73.1836 81.3706 75.0677 82.9756 76.1144C84.8596 77.3704 87.1624 77.3007 89.1861 76.0446C91.8377 76.882 95.6059 76.7424 98.3274 74.7885C99.8626 76.4633 101.119 77.6496 101.816 78.3474C103.491 80.0221 106.003 81.3479 107.259 81.8364C106.003 81.3479 103.91 80.7897 101.816 81.1386C97.2807 81.7666 94.2801 80.9293 92.3262 80.7897C89.1163 80.4408 85.8366 80.9991 84.2316 80.9991C82.4871 80.9991 80.0447 81.8364 78.8585 81.976C77.6024 82.1853 77.6722 83.0227 79.4167 83.5112C81.1612 83.9996 84.5107 84.2788 85.4179 84.6974C88.2789 85.9535 93.1636 87.0002 96.5829 86.7211C99.0252 86.5117 101.468 87.698 102.096 87.9074C103.282 88.2563 106.282 89.0936 107.469 89.0936C107.469 89.0239 107.469 90.8382 107.608 91.6756C107.12 91.8151 106.701 92.0245 106.282 92.164C104.957 91.3267 98.9554 88.9541 91.768 91.9547C90.2328 91.3964 87.0229 89.6519 82.5569 91.1173C77.1139 92.9316 77.9513 97.9558 79.7656 100.259C82.208 103.399 86.7437 102.771 88.0696 101.166C91.0004 103.12 94.001 102.492 96.1642 101.096C97.6296 101.933 104.608 103.329 109.981 101.166C110.679 101.724 113.679 103.259 117.447 101.375C119.611 102.701 123.239 102.771 125.054 101.166C125.751 101.724 127.705 102.561 132.032 102.492C137.195 102.422 138.382 101.654 139.08 101.026C140.196 101.515 143.057 103.05 146.616 101.515C148.57 102.701 152.408 102.631 154.501 101.305C158.269 103.05 165.247 102.212 166.922 101.026C169.993 98.863 168.527 94.4668 165.108 92.3734C158.409 88.9541 152.129 91.6058 150.454 92.4431C148.5 91.1173 144.313 90.2799 140.056 91.0475C140.126 90.5591 140.056 89.931 140.056 89.303C140.056 89.2332 140.056 89.1634 140.056 89.0936C140.894 88.8145 142.15 87.9074 144.592 87.7678C147.942 87.5585 155.897 87.6282 159.805 85.6046C162.038 84.4183 169.923 82.8831 170.969 82.3249C172.086 81.4875 171.807 80.9991 171.249 80.6502ZM89.7443 69.3456C88.1394 69.3456 86.8833 69.3456 85.7668 70.6017C84.5805 71.9275 84.8596 72.6253 84.6503 72.8347C84.3014 73.1836 83.5338 72.5555 83.5338 71.9275C83.6036 68.8571 87.302 67.6709 89.4652 67.95C90.3026 68.0896 90.5119 69.3456 89.7443 69.3456ZM96.234 64.2516C93.9312 64.5307 93.2334 65.6472 92.8147 66.9731C92.6751 67.4615 91.3493 67.1126 91.5586 66.1357C92.1867 63.2747 95.257 62.5768 96.3735 62.7862C96.7224 62.856 96.6526 64.1818 96.234 64.2516ZM106.282 58.0411C102.165 56.4361 100.072 59.5763 99.4439 62.0186C99.3741 62.3675 97.9785 62.2279 98.1878 61.1812C98.6763 58.6691 101.119 54.9707 106.771 56.4361C107.469 56.5757 107.05 58.3202 106.282 58.0411ZM121.704 53.9938C117.936 51.4119 114.935 53.5053 113.33 55.3894C112.563 56.2965 111.795 54.8311 112.074 54.2729C113.47 52.1097 118.145 48.7602 122.262 52.4586C122.821 52.8075 122.262 54.3427 121.704 53.9938ZM137.265 57.4828C136.916 57.6922 136.777 57.2037 136.567 56.8548C133.218 51.4817 127.077 52.9471 125.402 55.3894C125.054 55.8779 124.146 54.552 124.635 53.8542C126.1 51.4119 133.916 49.1789 137.893 56.0174C138.312 56.785 137.754 57.2037 137.265 57.4828ZM146.825 60.8323C145.848 58.3202 144.104 58.4598 141.941 59.1576C140.964 59.5065 141.173 57.8317 141.522 57.7619C143.615 57.0641 147.104 56.7152 148.012 60.1345C148.221 61.1114 147.035 61.5301 146.825 60.8323ZM157.92 66.2055C156.246 63.0653 153.454 63.0653 151.152 63.9725C150.663 64.1818 150.175 62.856 151.012 62.3675C153.245 61.1114 157.781 61.3208 159.176 65.3681C159.456 66.0659 158.548 67.2522 157.92 66.2055ZM165.038 71.1599C164.899 71.7182 163.642 71.7182 163.642 71.1599C163.852 68.578 162.596 68.3687 160.851 68.3687C160.223 68.3687 160.293 66.9731 160.712 66.9033C163.084 66.4148 165.806 68.0896 165.038 71.1599ZM120.657 84.4183C120.588 85.3953 119.82 86.0931 118.843 86.0233C117.866 85.9535 117.168 85.1859 117.238 84.209V83.9996C117.098 83.7903 116.331 83.5112 115.145 84.209C114.586 84.5579 113.889 84.3485 114.935 83.4414C115.982 82.5342 117.029 81.976 117.936 81.8364C119.471 81.6969 121.425 82.0458 122.332 82.3947C122.681 82.5342 122.332 84.4183 122.262 84.4183C121.983 84.3485 121.285 84.0694 120.727 84.209L120.657 84.4183ZM125.612 89.5821C125.333 90.4893 122.193 90.7684 121.634 89.5821C121.425 89.0937 121.076 87.9772 121.495 88.1865C122.193 88.6052 124.705 88.3261 125.193 88.1865C125.612 88.0469 125.333 87.4887 125.612 87.5585C125.891 87.698 125.891 88.7447 125.612 89.5821ZM132.939 84.6974C132.171 84.0694 131.124 83.7903 130.706 84.0694V84.209C130.776 85.1859 130.078 86.0233 129.171 86.0931C128.194 86.1628 127.356 85.465 127.287 84.5579V84.4881C126.659 84.2788 125.682 84.6277 125.542 84.5579C125.472 84.4881 125.054 82.7436 125.612 82.5342C127.077 81.9062 131.892 81.6271 133.288 84.3485C133.427 84.6277 133.357 85.0463 132.939 84.6974ZM78.3002 108.353V156.153C78.3002 171.924 82.2777 182.879 90.7212 190.625C99.095 198.231 111.656 202.139 123.937 205C136.567 201.999 148.709 198.301 157.153 190.625C165.596 182.949 169.504 171.994 169.504 156.153V108.353H78.3002ZM148.57 164.387V179.39C148.57 179.39 147.314 178.483 144.383 179.321C142.15 179.949 141.382 179.321 141.382 179.321V164.457C142.638 164.667 144.802 163.829 147.035 163.759C148.221 163.69 148.57 164.387 148.57 164.387ZM157.99 164.457V179.321C157.99 179.321 157.223 179.949 154.99 179.321C152.129 178.483 150.803 179.39 150.803 179.39V164.387C150.803 164.387 151.152 163.69 152.338 163.759C154.571 163.759 156.734 164.667 157.99 164.457ZM162.038 181.205V165.574H159.874V162.434C157.641 162.992 154.082 161.736 152.408 161.736C150.593 161.736 149.686 162.503 149.686 162.503C149.686 162.503 148.779 161.736 146.965 161.736C145.36 161.736 141.731 162.922 139.498 162.434V165.574H137.335V182.81H147.523V184.066H151.78V182.81H160.991C159.525 185.043 157.711 187.066 155.618 189.02C149.616 194.533 140.685 198.022 131.683 200.604V157.34H167.341L167.411 158.805C166.852 168.574 165.317 175.483 162.038 181.205ZM129.799 201.162L123.867 202.697L117.936 201.162V155.316H80.4634V144.779H118.006V110.447H129.799V144.779H167.271V155.316H129.799V201.162ZM99.5137 179.321V164.318C99.5137 164.318 99.8626 163.62 101.049 163.69C103.282 163.759 105.445 164.667 106.701 164.387V179.251C106.701 179.251 105.864 179.879 103.701 179.251C100.77 178.413 99.5137 179.321 99.5137 179.321ZM90.0932 179.321V164.457C91.3493 164.667 93.5125 163.829 95.7455 163.759C96.9318 163.69 97.2807 164.387 97.2807 164.387V179.39C97.2807 179.39 96.0246 178.483 93.0938 179.321C90.8608 179.879 90.0932 179.321 90.0932 179.321ZM116.122 200.604C106.98 197.952 98.0483 194.324 92.3262 188.95C90.3026 187.066 88.558 185.043 87.1624 182.81H96.234V184.066H100.491V182.81H110.679V165.574H108.515V162.434C106.282 162.992 102.724 161.736 101.049 161.736C99.2345 161.736 98.3274 162.503 98.3274 162.503C98.3274 162.503 97.4202 161.736 95.6059 161.736C94.001 161.736 90.3723 162.922 88.1394 162.434V165.574H85.9761V180.995C82.4871 174.924 80.8123 167.597 80.4634 158.665L80.3937 157.27H116.052V200.604H116.122ZM80.4634 142.825H116.122V110.516H80.4634V142.825ZM131.683 142.825H167.341V110.516H131.683V142.825ZM106.701 132.707C106.701 132.707 105.864 133.335 103.701 132.707C100.84 131.869 99.5137 132.777 99.5137 132.777V117.774C99.5137 117.774 99.8626 117.076 101.049 117.146C103.282 117.215 105.445 118.053 106.701 117.843V132.707ZM97.2807 132.777C97.2807 132.777 96.0246 131.869 93.0938 132.707C90.8608 133.335 90.0932 132.707 90.0932 132.707V117.843C91.3493 118.053 93.5125 117.215 95.7455 117.146C96.9318 117.146 97.2807 117.774 97.2807 117.774V132.777ZM108.515 119.03V115.89C106.282 116.448 102.724 115.192 101.049 115.192C99.2345 115.192 98.3274 115.959 98.3274 115.959C98.3274 115.959 97.4202 115.192 95.6059 115.192C94.001 115.192 90.3723 116.378 88.1394 115.89V119.03H85.9761V136.266H96.234V137.522H100.491V136.266H110.679V119.03H108.515ZM157.711 132.707C157.711 132.707 156.874 133.335 154.71 132.707C151.849 131.869 150.524 132.777 150.524 132.777V117.774C150.524 117.774 150.873 117.076 152.059 117.146C154.292 117.215 156.455 118.053 157.711 117.843V132.707ZM148.291 132.777C148.291 132.777 147.035 131.869 144.104 132.707C141.871 133.335 141.103 132.707 141.103 132.707V117.843C142.359 118.053 144.522 117.215 146.755 117.146C147.942 117.146 148.291 117.774 148.291 117.774V132.777ZM159.805 119.03V115.89C157.572 116.448 153.943 115.192 152.338 115.192C150.524 115.192 149.616 115.959 149.616 115.959C149.616 115.959 148.709 115.192 146.895 115.192C145.29 115.192 141.661 116.378 139.428 115.89V119.03H137.265V136.266H147.453V137.522H151.71V136.266H161.898V119.03H159.805Z" fill="#1A1919"/>
<path fill-rule="evenodd" clip-rule="evenodd" d="M118.006 201.162L123.937 202.697L129.868 201.162V155.316H167.341V144.779H129.799V110.447H118.006V144.779H80.4634V155.316H118.006V201.162ZM100.7 92.2338C96.8619 91.8849 93.0938 93.2805 93.3729 93.4899C93.9311 94.0481 95.5361 98.6536 97.5597 99.5608C103.631 101.236 109.492 99.5608 108.864 98.863C107.259 96.7696 107.259 92.792 100.7 92.2338ZM130.217 92.5129C126.379 92.164 122.611 93.5596 122.89 93.769C123.449 94.3272 125.053 98.9328 127.077 99.8399C133.148 101.515 139.01 99.8399 138.382 99.1421C136.707 97.1185 136.707 93.0712 130.217 92.5129ZM156.385 99.6306C162.456 101.305 166.434 99.7701 166.992 98.5141C167.62 97.1185 166.085 92.8618 159.595 92.3036C155.757 91.9547 151.989 93.3503 152.268 93.5596C152.757 94.1877 154.362 98.7932 156.385 99.6306Z" fill="#D8232A"/>
</svg>
