<svg width="250" height="250" viewBox="0 0 250 250" fill="none" xmlns="http://www.w3.org/2000/svg">
<rect width="250" height="250" fill="#005288"/>
<path d="M72.7856 193.929L71.9522 144.168C100.999 154.882 115.88 177.024 123.261 194.405L72.7856 193.929ZM183.735 108.097C182.664 108.097 182.664 109.407 182.664 109.407L180.402 194.762L127.665 194.286C125.999 188.929 122.546 181.072 120.88 177.381L166.474 189.048C166.593 189.048 166.593 189.048 166.712 189.048C167.307 189.048 167.783 188.572 167.783 187.976C167.783 187.5 167.545 187.143 167.069 186.905C166.712 186.786 134.927 175.239 122.07 170.715L170.521 168.453C171.117 168.453 171.474 167.977 171.474 167.382C171.474 166.786 170.998 166.31 170.521 166.31L120.165 164.048L170.045 145.239C170.402 145.12 170.641 144.644 170.641 144.287C170.641 143.692 170.164 143.216 169.569 143.216C169.45 143.216 169.45 143.216 169.331 143.216L116.832 158.096L170.76 113.097C170.998 112.859 171.117 112.621 171.117 112.264C171.117 111.669 170.641 111.192 170.045 111.192C169.807 111.192 169.569 111.311 169.331 111.55L113.499 152.263L165.284 75.4789C165.403 75.3599 165.522 75.1218 165.522 74.8837C165.522 74.2885 165.045 73.8123 164.45 73.8123C164.093 73.8123 163.855 73.9313 163.498 74.4075L107.785 148.096L128.022 78.8122C128.022 78.6931 128.022 78.5741 128.022 78.4551C128.022 77.8598 127.546 77.3837 126.951 77.3837C126.475 77.3837 126.118 77.7408 125.88 78.0979L101.356 144.882L100.642 83.574C100.642 82.9788 100.166 82.5026 99.5707 82.5026C98.9755 82.5026 98.4993 82.9788 98.4993 83.574C98.3802 85.7168 95.4041 129.287 94.3327 143.811L79.9283 99.7641C79.6902 99.0498 79.333 98.4546 78.4997 98.6927C77.4283 98.9308 77.7855 100.24 77.7855 100.24L87.7852 145.001C82.7853 142.62 77.4283 140.597 71.8332 139.287L70.4047 55.0032L130.641 52.1461C130.641 52.1461 132.07 52.2652 132.07 51.0747C132.07 49.8843 130.641 50.0033 130.641 50.0033H66L66.4762 200L184.807 199.524V109.645C184.807 109.526 184.807 108.216 183.735 108.097Z" fill="white"/>
</svg>
