<svg width="250" height="250" viewBox="0 0 250 250" fill="none" xmlns="http://www.w3.org/2000/svg">
<rect width="250" height="250" fill="#1D4F91"/>
<path fill-rule="evenodd" clip-rule="evenodd" d="M67.1267 186H182.194V176.492H67.1267V186ZM196.477 99.7841C184.185 87.6842 162.539 95.2665 138.031 103.119C136.655 103.563 135.228 103.166 133.983 102.166C132.94 101.306 131.831 100.532 130.664 99.8516C132.756 98.6145 134.415 96.7608 135.415 94.5438C136.414 92.3268 136.706 89.8547 136.249 87.4657C135.792 85.0767 134.609 82.8872 132.862 81.1968C131.115 79.5064 128.889 78.3975 126.488 78.0217L130.814 72.4124C131.023 72.116 131.135 71.7625 131.135 71.4001C131.135 71.0377 131.023 70.6841 130.814 70.3878L125.434 63.4208C125.347 63.2927 125.231 63.1874 125.095 63.1142C124.959 63.0409 124.807 63.0017 124.653 63C124.498 63.003 124.346 63.0428 124.21 63.1159C124.073 63.189 123.956 63.2935 123.868 63.4208L118.503 70.3838C118.294 70.6802 118.183 71.0337 118.183 71.3961C118.183 71.7585 118.294 72.1121 118.503 72.4084L122.825 78.0177C120.426 78.3956 118.202 79.5055 116.456 81.196C114.711 82.8865 113.529 85.0752 113.072 87.4632C112.616 89.8512 112.906 92.3221 113.904 94.5386C114.902 96.7551 116.56 98.6092 118.649 99.8476C117.483 100.529 116.374 101.303 115.331 102.162C114.086 103.162 112.662 103.559 111.286 103.115C86.7739 95.2625 65.1323 87.6802 52.8365 99.7801C38.11 114.274 55.2473 137.723 60.6477 147.37C64.4265 154.138 67.1109 162.018 67.1109 168.271H182.202C182.202 162.018 184.883 154.138 188.665 147.37C194.058 137.723 211.207 114.278 196.477 99.7841ZM107.123 160.284C102.67 160.581 98.9944 156.449 97.5907 150.796L101.239 142.221C101.422 141.815 101.473 141.361 101.385 140.924C101.298 140.487 101.076 140.088 100.751 139.784L89.1847 128.176C88.5344 127.525 87.9317 127.497 87.6185 128.176L82.1466 139.768C81.7263 140.752 82.1823 141.534 82.7691 142.197L91.4051 150.951C93.2013 157.838 88.5503 160.331 85.9333 160.331C76.7659 160.331 69.4384 147.834 61.9523 134.889C54.589 122.162 52.0078 112.857 57.551 105.83C66.8135 94.0993 91.1236 103.377 110.017 112.019C109.843 114.73 110.481 117.882 112.151 121.63C122.131 143.928 115.402 159.724 107.123 160.284ZM187.357 134.889C179.875 147.83 172.547 160.331 163.38 160.331C160.763 160.331 156.1 157.838 157.908 150.951L166.544 142.197C167.139 141.534 167.583 140.752 167.171 139.768L161.695 128.176C161.378 127.497 160.783 127.525 160.129 128.176L148.566 139.784C148.239 140.087 148.015 140.485 147.927 140.923C147.839 141.36 147.89 141.815 148.075 142.221L151.726 150.796C150.315 156.449 146.643 160.581 142.182 160.284C133.911 159.72 127.182 143.928 137.159 121.63C138.832 117.882 139.47 114.73 139.292 112.019C158.186 103.377 182.496 94.0993 191.758 105.834C197.309 112.853 194.716 122.158 187.357 134.889Z" fill="white"/>
</svg>
