<svg width="250" height="250" viewBox="0 0 250 250" fill="none" xmlns="http://www.w3.org/2000/svg">
<rect width="250" height="250" fill="#0054A6"/>
<path d="M136.584 96C136.243 96 135.214 96.8251 133.285 97.4302C132.093 97.7949 131.003 97.75 131.003 98.4665C131.003 98.7112 131.238 98.9211 131.403 98.9211C131.742 98.9211 131.972 98.8732 132.03 98.8732C133.172 98.8732 133.791 99.6941 133.791 101.173V128.319C133.791 131.088 130.837 129.858 130.837 130.98C130.837 131.496 131.122 131.496 131.804 131.496C132.611 131.496 133.791 131.289 135.386 131.289C137.332 131.289 138.572 131.496 139.093 131.496C139.717 131.496 139.935 131.449 139.935 130.98C139.935 129.858 136.978 131.138 136.978 128.319V118.945C136.978 113.115 138.691 110.033 143.01 110.033C147.047 110.033 148.467 112.695 148.467 118.03V128.319C148.467 131.088 145.458 129.858 145.458 130.98C145.458 131.496 145.74 131.496 146.422 131.496C147.226 131.496 148.417 131.289 150.01 131.289C151.942 131.289 153.195 131.496 153.704 131.496C154.335 131.496 154.557 131.449 154.557 130.98C154.557 129.858 151.606 131.138 151.606 128.319V115.515C151.606 111.064 148.645 107.984 144.437 107.984C142.379 107.984 141.085 108.606 139.482 109.835C138.006 111.013 137.436 112.184 137.144 112.184C137.031 112.184 136.978 112.034 136.978 111.621V97.1317C136.978 96.4123 136.923 96 136.584 96ZM44.7158 98.2608C35.9458 98.2608 29 105.533 29 115.311C29 125.151 35.4962 132.417 44.1956 132.417C48.6898 132.417 51.9876 130.728 52.9618 129.497C53.4089 128.885 53.4683 127.04 53.4683 123.672C53.4683 123.098 53.24 122.789 52.9008 122.789C52.3331 122.789 52.333 123.718 51.7027 125.196C50.18 128.988 48.0111 130.931 44.4271 130.931C38.3988 130.931 33.4463 124.428 33.4463 115.311C33.4463 105.486 38.2863 99.6375 44.3111 99.6375C47.3244 99.6375 49.4323 100.872 50.963 103.436C51.9326 105.016 51.881 106.249 52.6158 106.249C52.9004 106.249 53.1321 105.944 53.1321 105.585C53.1321 102.457 52.8445 100.561 52.5084 100.155C51.8234 99.4409 48.4625 98.2608 44.7158 98.2608ZM101.027 99.1845C100.006 99.1845 99.043 100.364 99.043 101.745C99.043 103.071 99.9565 104.203 101.027 104.203C102.171 104.203 103.072 103.02 103.072 101.745C103.072 100.415 102.118 99.1845 101.027 99.1845ZM162.638 103.999C162.131 103.999 161.787 105.485 160.138 107.271C158.486 109.062 157.114 109.625 157.114 110.185C157.114 110.441 157.409 110.656 157.972 110.656H158.833C159.512 110.656 159.629 110.852 159.629 111.518L159.46 123.766V126.17C159.46 130.263 161.16 132.416 164.128 132.416C167.081 132.416 169.584 129.6 169.584 128.885C169.584 128.679 169.467 128.475 169.351 128.475C168.955 128.475 167.476 130.365 165.534 130.365C163.714 130.365 162.82 129.087 162.82 126.482V111.518C162.82 110.852 162.93 110.655 163.607 110.655H167.873C168.492 110.655 168.613 110.395 168.613 109.785V109.573C168.613 109.062 168.558 108.913 167.873 108.913H163.659C162.98 108.913 162.873 108.704 162.873 108.044V104.604C162.873 104.252 162.747 103.999 162.638 103.999ZM62.6853 107.984C62.2351 107.984 61.4312 109.324 59.6689 110.395C58.7073 111.013 57.7343 111.162 57.7343 111.721C57.7343 112.644 60.0098 111.265 60.0098 113.723V127.294C60.0098 129.087 59.8389 129.857 58.8757 130.165C57.6232 130.571 57.056 130.263 57.056 130.979C57.056 131.448 57.2774 131.496 57.9078 131.496C58.8179 131.496 60.0676 131.289 61.5952 131.289C63.9379 131.289 65.6987 131.544 66.6748 131.544C67.297 131.544 67.5753 131.396 67.5753 130.979C67.5753 130.056 66.4446 130.727 64.5086 130.056C63.367 129.657 63.1997 129.038 63.1997 127.294V118.847C63.1997 113.115 65.3012 110.703 66.9526 110.703C68.7214 110.703 69.2859 112.695 70.8183 112.695C71.7848 112.695 72.7544 111.721 72.7544 110.395C72.7544 109.015 71.6209 107.984 69.738 107.984C67.9756 107.984 66.2664 108.963 64.6761 110.912L63.6514 112.242C63.489 112.446 63.3043 112.494 63.2529 112.494C63.1435 112.494 63.0312 112.345 63.0312 112.133V109.218C63.0312 108.452 63.031 107.984 62.6853 107.984ZM85.2113 107.984C79.1349 107.984 73.9505 112.695 73.9505 120.229C73.9505 127.659 78.3212 132.417 84.5826 132.417C90.1108 132.417 93.5791 128.629 93.5791 127.148C93.5791 126.883 93.4649 126.727 93.1835 126.727C92.6625 126.727 90.9566 130.005 86.2919 130.005C81.1738 130.005 77.4752 126.016 77.4752 119.207C77.4752 117.517 77.5876 117.056 78.5556 117.056H92.101C93.3535 117.056 93.8025 116.745 93.8025 115.976C93.8025 111.834 90.5578 107.984 85.2113 107.984ZM117.477 107.984C112.57 107.984 109.048 111.573 109.048 116.188C109.048 121.507 114.047 123.558 114.047 123.919C114.047 124.019 113.885 124.174 113.539 124.331L110.127 125.906C109.338 126.278 108.879 126.527 108.879 126.779C108.879 126.883 109.106 127.397 109.673 127.953L111.785 130.166C112.063 130.468 112.293 130.667 112.293 130.826C112.293 131.799 107.064 133.488 107.064 137.114C107.064 140.44 110.418 142.691 116.615 142.691C123.674 142.691 128.791 138.747 128.791 134.153C128.791 130.056 125.611 128.007 119.24 128.007C117.982 128.007 116.78 128.109 115.767 128.109C113.54 128.109 112.57 127.04 112.57 126.483C112.57 125.705 113.936 124.635 117.921 124.331C123.163 123.919 126.352 120.849 126.352 116.236C126.352 114.699 125.948 113.316 125.15 111.834L127.879 111.935H128.273C128.958 111.935 129.138 111.778 129.138 111.219C129.138 110.136 128.904 109.835 128.051 109.835C127.712 109.835 127.432 109.887 127.308 109.887L125.948 109.986C125.887 109.986 125.61 110.033 125.21 110.033C123.107 110.033 121.047 107.984 117.477 107.984ZM182.893 107.984C176.461 107.984 171.746 112.796 171.746 120.18C171.746 127.451 176.128 132.417 182.605 132.417C189.843 132.417 194.269 127.5 194.269 120.129C194.269 112.844 190.061 107.984 182.893 107.984ZM202.525 107.984C202.122 107.984 201.332 109.273 199.396 110.505C198.549 111.064 197.574 111.111 197.574 111.721C197.574 112.594 199.851 111.473 199.851 113.478V128.319C199.851 131.036 196.894 129.907 196.894 130.979C196.894 131.448 197.116 131.496 197.738 131.496C198.769 131.496 200.021 131.289 201.445 131.289C203.372 131.289 204.631 131.496 205.136 131.496C205.763 131.496 205.994 131.448 205.994 130.979C205.994 129.858 203.04 131.137 203.04 128.319V118.945C203.04 113.057 204.799 110.033 208.846 110.033C212.756 110.033 214.074 112.695 214.074 118.03V128.319C214.074 131.088 211.114 129.858 211.114 130.979C211.114 131.496 211.393 131.496 212.08 131.496C212.872 131.496 214.074 131.289 215.664 131.289C217.603 131.289 218.849 131.496 219.362 131.496C219.986 131.496 220.219 131.448 220.219 130.979C220.219 129.858 217.256 131.137 217.256 128.319V115.775C217.256 111.013 214.415 107.983 210.2 107.983C208.388 107.983 206.9 108.606 205.374 109.834C203.95 110.965 203.372 112.184 203.091 112.184C202.97 112.184 202.868 112.033 202.868 111.621V109.218C202.868 108.452 202.868 107.984 202.525 107.984ZM102.396 108.192C101.943 108.192 100.972 109.273 98.8636 110.343C97.9036 111.064 96.8118 111.162 96.8118 111.834C96.8118 112.283 97.2141 112.345 97.8444 112.345C99.0954 112.345 99.61 113.006 99.61 114.234V128.319C99.61 131.088 96.201 129.907 96.201 130.979C96.201 131.448 96.5354 131.496 97.1641 131.496C98.0131 131.496 99.3223 131.289 101.089 131.289C103.25 131.289 104.614 131.496 105.069 131.496C105.693 131.496 105.926 131.496 105.926 130.979C105.926 129.858 102.798 131.137 102.798 128.319V109.218C102.798 108.453 102.798 108.192 102.396 108.192ZM183.003 108.913C187.614 108.913 190.623 113.216 190.623 120.687C190.623 127.704 187.728 131.448 182.891 131.448C178.456 131.448 175.268 127.039 175.268 119.874C175.268 112.747 178.283 108.913 183.003 108.913ZM84.879 108.963C87.7733 108.963 90.1133 111.36 90.1133 113.572C90.1133 115.515 87.9521 115.823 83.281 115.823H78.6128C78.2687 115.823 77.9906 115.569 77.9906 115.357C77.9906 112.546 81.176 108.963 84.879 108.963ZM117.756 109.016C120.834 109.016 122.931 111.777 122.931 116.188C122.931 120.478 120.834 123.244 117.756 123.244C114.685 123.244 112.519 120.536 112.519 116.188C112.519 111.777 114.741 109.016 117.756 109.016ZM118.611 130.98C123.269 130.98 125.722 132.73 125.722 135.837C125.722 139.207 122.472 141.557 117.294 141.557C112.924 141.557 110.356 139.11 110.356 136.14C110.356 134.556 111.5 132.781 112.809 131.909C113.542 131.396 115.599 130.98 118.611 130.98ZM29.5235 136.978V138.398H104.543V136.978H29.5235ZM130.611 136.978V138.398H220.89V136.978H130.611ZM188.723 143.763C188.366 143.763 188.282 144.027 188.218 144.238L187.377 147.275L187.355 147.352C187.311 147.498 187.272 147.636 187.272 147.795C187.272 148.103 187.449 148.326 187.695 148.326C188.03 148.326 188.171 148.047 188.35 147.692C188.47 147.455 188.618 147.161 188.863 146.839C189.425 146.087 190.326 145.58 191.104 145.58H192.061C192.154 145.58 192.188 145.58 192.188 145.904V157.206C192.188 158.232 192.188 158.295 191.49 158.437C191.349 158.471 191.199 158.481 191.054 158.492C190.731 158.513 190.287 158.542 190.287 159.014C190.287 159.288 190.524 159.563 191.051 159.563C191.202 159.563 191.403 159.547 191.656 159.525C192.053 159.49 192.595 159.444 193.262 159.444C193.942 159.444 194.492 159.49 194.894 159.525C195.146 159.547 195.346 159.563 195.496 159.563C196.017 159.563 196.255 159.305 196.255 159.065C196.255 158.551 195.803 158.518 195.471 158.492C195.335 158.48 195.193 158.47 195.05 158.433C194.378 158.293 194.352 158.185 194.352 157.375V145.904C194.352 145.58 194.396 145.58 194.489 145.58H195.158C196.954 145.58 197.412 145.918 197.71 146.635C197.864 146.994 197.927 147.295 197.976 147.535C198.05 147.893 198.12 148.231 198.544 148.231C198.967 148.231 198.988 147.883 198.999 147.696L199.204 144.501V144.429C199.204 144.035 198.956 143.856 198.726 143.856C198.39 143.856 198.294 144.106 198.229 144.273C198.186 144.387 198.144 144.494 198.042 144.578C197.911 144.684 196.93 144.684 196.512 144.684C196.181 144.684 195.801 144.68 195.37 144.675C194.806 144.669 194.153 144.661 193.412 144.661H190.347C189.265 144.661 189.152 144.59 189.152 144.429V144.194C189.152 144.087 189.152 143.763 188.723 143.763ZM157.974 144.248C155.3 144.248 153.505 145.935 153.505 148.445C153.505 150.497 154.596 151.38 156.889 152.476C159.13 153.571 160.187 154.297 160.187 156.205C160.187 157.846 158.995 158.992 157.291 158.992C156.027 158.992 155.041 158.397 154.586 157.358C154.359 156.85 154.317 156.372 154.285 155.989C154.25 155.565 154.216 155.164 153.808 155.164C153.25 155.164 153.25 155.838 153.25 156.125C153.25 156.258 153.245 156.419 153.238 156.611C153.23 156.894 153.219 157.239 153.219 157.649C153.219 158.308 153.255 158.736 153.748 159.121C154.272 159.547 155.567 160 156.935 160C159.87 160 162.081 157.913 162.081 155.143C162.081 152.807 160.648 151.652 158.334 150.547C156.176 149.514 155.213 148.822 155.213 147.452C155.213 146.049 156.174 145.213 157.782 145.213C158.874 145.213 159.585 145.709 160.085 146.826C160.201 147.084 160.27 147.307 160.323 147.486C160.426 147.825 160.515 148.118 160.881 148.118C161.101 148.118 161.359 147.947 161.359 147.465C161.359 145.336 161.188 145.134 161.119 145.052C160.823 144.733 159.418 144.248 157.974 144.248ZM30.0242 144.661C29.6929 144.661 29.4774 144.861 29.4774 145.168C29.4774 145.64 29.8923 145.665 30.2252 145.686C30.3972 145.696 30.5931 145.708 30.8005 145.76C31.1623 145.854 31.2237 145.89 31.2237 146.64V154.816C31.2237 156.184 31.2734 157.306 31.9134 158.228C32.7351 159.421 34.2437 160 36.5205 160C38.5064 160 39.9484 159.369 40.6912 158.176C41.3827 157.088 41.3829 155.715 41.3829 154.262V148.86C41.3829 146.318 41.4615 145.673 42.1834 145.673C42.5098 145.673 43.0534 145.673 43.0534 145.168C43.0534 144.851 42.8075 144.661 42.3943 144.661C42.3525 144.661 42.2801 144.667 42.1756 144.676C41.9344 144.695 41.489 144.731 40.8474 144.731C40.3361 144.731 39.9373 144.7 39.672 144.68C39.5257 144.67 39.4129 144.661 39.339 144.661C38.9724 144.661 38.7552 144.851 38.7552 145.168C38.7552 145.628 39.2265 145.667 39.5385 145.693C39.7298 145.709 39.9293 145.726 40.0129 145.8C40.365 146.139 40.3922 147.377 40.3922 149.226V154.262C40.3922 155.941 40.3476 157.018 39.7366 157.806C39.1191 158.583 38.0672 158.992 36.694 158.992C33.9187 158.992 33.3929 157.509 33.3929 154.773V146.64C33.3929 145.881 33.4039 145.822 33.8574 145.734C34.0423 145.701 34.2096 145.69 34.356 145.68C34.7017 145.659 35.1328 145.631 35.1328 145.168C35.1328 144.876 34.8849 144.661 34.5456 144.661C34.4186 144.661 34.2564 144.683 34.0313 144.715C33.6341 144.768 33.0343 144.851 32.2352 144.851C31.5309 144.851 30.9922 144.776 30.5967 144.721C30.3603 144.687 30.1753 144.661 30.0242 144.661ZM53.211 144.661C52.8862 144.661 52.677 144.861 52.677 145.168C52.677 145.631 53.0742 145.655 53.3652 145.676C53.5292 145.686 53.7141 145.697 53.9135 145.758C54.2158 145.846 54.2801 145.932 54.2801 146.64V155.392C54.2801 157.778 54.2465 158.532 53.547 158.532C53.4698 158.532 53.3893 158.525 53.3106 158.521C53.2269 158.513 53.1468 158.508 53.0761 158.508C52.7336 158.508 52.5194 158.703 52.5194 159.014C52.5194 159.373 52.8138 159.589 53.3091 159.589C53.486 159.589 53.687 159.572 53.9121 159.551C54.3897 159.508 55.0264 159.492 55.5875 159.547C55.8191 159.567 56.0392 159.589 56.2595 159.589C56.8223 159.589 57.0748 159.325 57.0748 159.065C57.0748 158.746 56.8433 158.508 56.5378 158.508C56.3835 158.508 56.2548 158.518 56.16 158.525C56.1166 158.53 56.0813 158.532 56.0555 158.532C55.385 158.532 55.3127 157.897 55.3127 155.392V147.201C55.3127 147.16 55.3125 147.125 55.3139 147.095L63.4969 159.496C63.5564 159.592 63.7138 159.773 63.8762 159.773C64.0595 159.773 64.2028 159.622 64.2028 159.43V148.557C64.2028 146.257 64.2846 145.673 65.0275 145.673H65.2994C65.5181 145.673 65.9699 145.673 65.9699 145.191C65.9699 144.928 65.7238 144.661 65.1738 144.661C65.0355 144.661 64.8651 144.673 64.6625 144.688C64.3859 144.706 64.04 144.731 63.6413 144.731C63.3004 144.731 63.0046 144.709 62.7442 144.689C62.54 144.674 62.3597 144.661 62.2038 144.661C61.6603 144.661 61.4161 144.928 61.4161 145.191C61.4161 145.639 61.8789 145.662 62.1861 145.676C62.4144 145.689 62.6509 145.701 62.794 145.814C63.1606 146.102 63.1605 147.277 63.1605 149.227V155.338C63.1573 155.333 63.1561 155.329 63.1526 155.325L56.3298 145.051C56.1063 144.715 55.9119 144.662 55.5356 144.662H53.2104L53.211 144.661ZM76.123 144.661C75.7821 144.661 75.5422 144.87 75.5422 145.168C75.5422 145.64 75.9682 145.665 76.3107 145.686C76.4892 145.696 76.6905 145.708 76.8979 145.76C77.2404 145.851 77.3048 145.891 77.3048 146.64V157.206C77.3048 158.215 77.2888 158.293 76.5861 158.437C76.4414 158.471 76.2899 158.482 76.1452 158.492C75.822 158.513 75.3801 158.541 75.3801 159.014C75.3801 159.267 75.5824 159.563 76.1516 159.563C76.3011 159.563 76.504 159.547 76.758 159.525C77.1616 159.49 77.7147 159.444 78.3852 159.444C79.0686 159.444 79.6088 159.49 80.006 159.526C80.2488 159.547 80.4417 159.563 80.5848 159.563C81.1155 159.563 81.3568 159.305 81.3568 159.065C81.3568 158.551 80.9115 158.516 80.5883 158.492C80.4532 158.48 80.3134 158.47 80.1671 158.434C79.4548 158.293 79.4547 158.169 79.4547 157.206V146.64C79.4547 145.907 79.4707 145.825 79.9548 145.734C80.1364 145.7 80.3033 145.69 80.4464 145.68C80.7937 145.658 81.2248 145.631 81.2248 145.168C81.2248 144.88 80.974 144.661 80.6395 144.661C80.5077 144.661 80.3436 144.684 80.1168 144.715C79.7213 144.77 79.1249 144.851 78.3241 144.851C77.6247 144.851 77.0845 144.775 76.6906 144.72C76.4558 144.687 76.2709 144.661 76.123 144.661ZM90.3242 144.661C89.9334 144.661 89.6906 144.936 89.6906 145.191C89.6906 145.589 90.1008 145.644 90.4015 145.681C90.6186 145.71 90.8419 145.739 90.9882 145.855C91.4047 146.188 91.8277 147.326 92.3391 148.782L95.5713 157.799C95.7369 158.273 95.8589 158.67 95.957 158.985C96.1869 159.731 96.2642 159.983 96.5344 159.983C96.8077 159.983 96.9235 159.692 97.2531 158.767L100.931 148.08C101.268 147.078 101.546 146.289 101.797 145.992C102.009 145.739 102.276 145.697 102.532 145.658C102.801 145.617 103.167 145.561 103.167 145.143C103.167 144.998 103.104 144.661 102.527 144.661C102.456 144.661 102.339 144.677 102.18 144.698C101.881 144.739 101.426 144.801 100.842 144.801C100.327 144.801 99.948 144.745 99.6714 144.704C99.5026 144.679 99.3723 144.661 99.2758 144.661C98.8079 144.661 98.6409 144.91 98.6409 145.143C98.6409 145.573 99.0669 145.639 99.3788 145.689C99.821 145.758 100.072 145.82 100.072 146.272C100.072 146.471 100.003 147.004 99.7438 147.742L97.0343 155.819C97.0134 155.878 96.9941 155.928 96.9797 155.967C96.9636 155.933 96.9459 155.894 96.925 155.847L93.8041 147.065C93.6675 146.706 93.582 146.448 93.582 146.272C93.582 145.791 93.7927 145.764 94.1111 145.722C94.3523 145.69 94.7559 145.638 94.7559 145.191C94.7559 144.713 94.3974 144.661 94.2431 144.661C94.1273 144.661 93.9874 144.69 93.8105 144.725C93.5468 144.778 93.1862 144.851 92.7617 144.851C92.2134 144.851 91.7168 144.791 91.2779 144.741C90.9177 144.699 90.6072 144.661 90.3242 144.661ZM112.35 144.661C111.758 144.661 111.694 145.016 111.694 145.168C111.694 145.638 112.122 145.664 112.466 145.684C112.64 145.696 112.838 145.708 113.04 145.761C113.426 145.857 113.457 145.922 113.457 146.64V157.206C113.457 158.221 113.413 158.299 112.783 158.437C112.65 158.471 112.508 158.482 112.37 158.492C112.077 158.512 111.635 158.542 111.635 159.014C111.635 159.349 111.927 159.563 112.379 159.563C112.455 159.563 112.596 159.553 112.805 159.54C113.383 159.496 114.458 159.421 116.095 159.421C118.132 159.421 119.564 159.537 120.419 159.606C120.765 159.632 121.008 159.652 121.144 159.652C121.856 159.652 122.005 159.409 122.085 158.68L122.317 156.516C122.347 156.264 122.363 156.093 122.365 156.077C122.365 155.898 122.104 155.721 121.911 155.721C121.538 155.721 121.42 156.05 121.293 156.395C121.185 156.694 121.049 157.065 120.747 157.428C120.051 158.272 119.184 158.6 117.655 158.6C115.931 158.6 115.595 158.089 115.595 157.206V152.252C115.595 152.011 115.602 152.011 115.763 152.011H117.171C117.789 152.011 118.596 152.133 118.943 152.715C119.263 153.223 119.34 153.654 119.398 153.971C119.455 154.292 119.514 154.624 119.914 154.624C120.131 154.624 120.364 154.467 120.364 154.027C120.364 154 120.361 153.941 120.358 153.851C120.345 153.561 120.316 152.886 120.316 151.83C120.316 151.073 120.363 150.517 120.393 150.15C120.408 149.973 120.419 149.843 120.419 149.76C120.419 149.364 120.26 149.164 119.945 149.164C119.535 149.164 119.469 149.481 119.414 149.736C119.363 149.984 119.297 150.292 119.003 150.583C118.736 150.842 118.096 150.983 117.2 150.983H115.915C115.819 150.983 115.621 150.984 115.604 150.992C115.598 150.978 115.595 150.934 115.595 150.863V147.081C115.595 146.003 115.873 145.689 117.71 145.689C118.887 145.689 119.684 146.011 120.292 146.734C120.562 147.055 120.696 147.407 120.805 147.691C120.94 148.044 121.067 148.377 121.435 148.377C121.906 148.377 121.906 147.844 121.906 147.617V145.628C121.906 144.7 121.643 144.661 120.63 144.661L112.35 144.661ZM133.068 144.661C132.473 144.661 132.409 145.016 132.409 145.168C132.409 145.637 132.802 145.664 133.09 145.684C133.233 145.694 133.396 145.706 133.561 145.758C133.878 145.849 133.913 145.939 133.913 146.64V157.206C133.913 157.377 133.904 157.494 133.897 157.571C133.892 157.617 133.891 157.651 133.891 157.675C133.891 158.272 133.682 158.481 133.092 158.481C132.889 158.481 132.273 158.481 132.273 159.014C132.273 159.343 132.55 159.563 132.961 159.563C133.048 159.563 133.181 159.549 133.363 159.532C133.717 159.497 134.254 159.444 134.987 159.444C135.687 159.444 136.218 159.495 136.568 159.531C136.766 159.55 136.915 159.563 137.017 159.563C137.48 159.563 137.721 159.311 137.721 159.065C137.721 158.57 137.324 158.531 137.034 158.505C136.859 158.489 136.663 158.468 136.46 158.384C136.095 158.235 136.061 158.137 136.061 157.206V152.625C136.061 152.469 136.077 152.431 136.079 152.425C136.08 152.424 136.107 152.411 136.211 152.411H136.52C137.636 152.411 137.766 152.691 138.314 153.877L140.596 158.678C140.857 159.259 141.027 159.563 141.733 159.563C141.863 159.563 142.014 159.555 142.19 159.548C142.416 159.536 142.683 159.524 142.992 159.524C143.135 159.524 143.256 159.535 143.365 159.545C143.468 159.554 143.561 159.563 143.651 159.563C143.954 159.563 144.135 159.409 144.135 159.15C144.135 158.78 143.773 158.685 143.424 158.593C143.276 158.555 143.108 158.512 142.923 158.439C142.717 158.376 142.437 157.779 142.082 157.024L140.601 153.842C140.221 153.029 139.927 152.393 139.359 152.006C141.337 151.534 142.418 150.257 142.418 148.368C142.418 145.874 140.741 144.661 137.291 144.661C136.811 144.661 136.383 144.677 136 144.688C134.888 144.729 134.108 144.696 133.579 144.675C133.359 144.668 133.188 144.661 133.068 144.661ZM172.77 144.661C172.424 144.661 172.191 144.865 172.191 145.168C172.191 145.64 172.616 145.664 172.957 145.684C173.13 145.696 173.33 145.708 173.535 145.76C173.891 145.852 173.958 145.893 173.958 146.64V157.206C173.958 158.214 173.941 158.292 173.23 158.437C173.089 158.471 172.939 158.482 172.794 158.492C172.474 158.513 172.035 158.541 172.035 159.014C172.035 159.349 172.333 159.563 172.796 159.563C172.949 159.563 173.158 159.547 173.418 159.525C173.822 159.49 174.373 159.444 175.028 159.444C175.711 159.444 176.248 159.49 176.642 159.525C176.886 159.547 177.082 159.563 177.229 159.563C177.759 159.563 177.998 159.312 177.998 159.065C177.998 158.551 177.555 158.516 177.232 158.492C177.099 158.48 176.959 158.47 176.812 158.434C176.098 158.293 176.099 158.169 176.099 157.206V146.64C176.099 145.89 176.137 145.823 176.61 145.734C176.79 145.7 176.955 145.69 177.1 145.68C177.447 145.658 177.877 145.631 177.877 145.168C177.877 144.88 177.623 144.661 177.283 144.661C177.156 144.661 176.994 144.683 176.769 144.715C176.372 144.768 175.771 144.851 174.978 144.851C174.278 144.851 173.736 144.775 173.341 144.72C173.104 144.687 172.919 144.661 172.77 144.661ZM207.949 144.661C207.545 144.661 207.264 144.887 207.264 145.209C207.264 145.589 207.668 145.616 207.907 145.634C208.018 145.641 208.134 145.65 208.205 145.674C208.401 145.749 208.719 145.987 209.131 146.683L212.923 153.102V157.206C212.923 158.231 212.923 158.507 211.664 158.507C211.361 158.507 211.133 158.724 211.133 159.014C211.133 159.342 211.429 159.562 211.869 159.562C212.006 159.562 212.194 159.548 212.431 159.526C212.817 159.49 213.346 159.444 214 159.444C214.653 159.444 215.18 159.49 215.566 159.525C215.804 159.546 215.994 159.562 216.132 159.562C216.653 159.562 216.891 159.305 216.891 159.064C216.891 158.545 216.454 158.52 216.135 158.502C215.97 158.492 215.781 158.48 215.601 158.423C215.072 158.255 215.073 158.152 215.073 157.349V152.877L218.813 146.712L218.899 146.572C219.129 146.194 219.295 145.92 219.737 145.803C219.856 145.774 219.969 145.759 220.068 145.745C220.379 145.703 220.763 145.65 220.763 145.167C220.763 144.861 220.569 144.684 220.231 144.684C220.167 144.684 220.067 144.697 219.93 144.714C219.678 144.749 219.294 144.801 218.776 144.801C218.141 144.801 217.666 144.74 217.351 144.7C217.176 144.678 217.041 144.661 216.949 144.661C216.5 144.661 216.341 144.899 216.341 145.122C216.341 145.583 216.828 145.648 217.152 145.691C217.61 145.753 217.743 145.807 217.743 146.045C217.738 146.13 217.558 146.697 217.053 147.545L214.529 151.663C214.526 151.671 214.521 151.678 214.516 151.687C214.515 151.686 214.513 151.682 214.511 151.681L211.741 147.042C211.472 146.567 211.359 146.159 211.359 146.046C211.359 145.882 211.464 145.836 211.82 145.764C212.107 145.706 212.541 145.616 212.541 145.191C212.541 144.889 212.347 144.71 212.021 144.71C211.99 144.71 211.934 144.713 211.852 144.721C211.647 144.74 211.264 144.774 210.666 144.774C209.505 144.774 208.726 144.714 208.306 144.682C208.136 144.669 208.017 144.661 207.949 144.661ZM137.735 145.621C139.339 145.621 140.378 146.797 140.378 148.62C140.378 150.52 139.185 151.444 136.728 151.444H136.21C136.117 151.444 136.086 151.433 136.083 151.433C136.077 151.423 136.061 151.383 136.061 151.231V146.624C136.061 145.854 136.061 145.621 137.735 145.621Z" fill="white"/>
</svg>
