<svg width="250" height="250" viewBox="0 0 250 250" fill="none" xmlns="http://www.w3.org/2000/svg">
<rect width="250" height="250" fill="#231F20"/>
<path d="M159.232 87.7679V70.5714L138.714 50H67.625L47 70.5714V141.607L67.625 162.125H90.1786V179.429L110.964 200H170.964L191.804 179.429V124.411H202.357V87.7679H159.232Z" fill="#D0B97C"/>
<path d="M137.857 52.1428L157.143 71.4821V89.9643H200.268V122.321H189.66V178.518L170.107 197.857H111.821L92.3212 178.518V159.982H68.4819L49.1426 140.696V71.4821L68.4819 52.1428H137.857Z" fill="#231F20"/>
<path d="M70.6779 154.679H97.6779V176.322L114.017 192.5H167.91L184.303 176.322V116.964H194.91V95.268H162.392V170.857H119.321V154.679H135.607L151.785 138.5V116.964H130.089V133.036H119.321V95.268H86.9101V116.964H97.6779V133.036H76.0887V78.9287H130.089V95.268H151.785V73.6787L135.607 57.4465H70.6779L54.4458 73.6787V138.5L70.6779 154.679Z" fill="white"/>
<path d="M116.642 152H134.535L149.107 137.375V119.643H132.767V135.714H116.642V97.9465H89.5888V114.286H100.357V135.714H73.4102V76.3036H132.767V92.5893H149.107V74.7501L134.535 60.1251H71.8031L57.1245 74.7501V137.375L71.8031 152H100.357V175.196L115.142 189.875H166.785L181.625 175.196V114.286H192.232V97.9465H165.071V173.536H116.642V152Z" fill="#D0B97C"/>
</svg>
