<svg width="250" height="250" viewBox="0 0 250 250" fill="none" xmlns="http://www.w3.org/2000/svg">
<rect width="250" height="250" fill="white"/>
<path d="M166.416 170.513C150.729 182 127.717 188.431 125.71 188.952C127.457 188.097 146.342 178.952 154.743 170.736C158.721 166.796 161.993 161.033 164.074 156.275C163.071 157.13 162.29 158.766 152.439 164.045C143.071 169.026 127.309 174.677 125.71 175.234V175.197C127.086 174.454 138.275 168.208 145.115 160.513C149.167 155.941 152.476 151.851 154.149 147.762C146.156 154.119 127.457 160.996 125.71 161.665V161.628C126.788 160.996 133.74 156.647 139.465 150.03C143.628 145.197 144.074 142.037 144.706 139.509C135.933 146.461 126.937 147.799 125.747 147.948V147.874C126.862 147.13 134.446 141.777 134.818 131.145C127.903 137.428 121.993 135.197 119.204 132.706C116.454 130.253 116.528 124.937 116.528 124.937V52H107.271V58.803H94.855V52H85.6357V58.803H73.2937V52H64V135.717C64 135.717 64.1487 159.509 85.9703 177.502C101.249 190.104 125.747 202 125.747 202C127.755 201.033 150.877 189.621 160.952 180.625C168.201 174.23 171.584 170.03 174 164.528C171.844 166.535 169.279 168.431 166.416 170.513Z" fill="#00539B"/>
<path d="M154.372 117.874V58.9517H145.896V129.138C145.896 129.138 146.156 134.156 144.707 139.509C155.822 132.335 154.372 117.874 154.372 117.874Z" fill="#00539B"/>
<path d="M165.19 124.751V52H156.714V135.197C156.714 135.197 156.974 140.922 154.186 147.688C165.115 138.877 165.19 124.751 165.19 124.751Z" fill="#00539B"/>
<path d="M175.97 129.435V58.9517H167.495V139.955C167.495 139.955 166.788 151.071 164.149 156.164C176.119 148.506 175.97 129.435 175.97 129.435Z" fill="#00539B"/>
<path d="M186.788 135.234V52H178.275V147.204C178.275 147.204 177.829 155.792 174 164.454C187.346 151.665 186.788 135.234 186.788 135.234ZM143.591 112.669V52H135.115V123.599C135.115 123.599 135.115 128.989 134.818 131.033C144.632 122.632 143.591 112.669 143.591 112.669Z" fill="#00539B"/>
</svg>
