<svg width="250" height="250" viewBox="0 0 250 250" fill="none" xmlns="http://www.w3.org/2000/svg">
<rect width="250" height="250" fill="#05281C"/>
<path d="M124.822 205L120.175 202.544C90.0061 186.672 70.9311 157.075 64.9686 116.953C60.628 87.6625 64.7936 62.8875 64.9686 61.8375L66.1968 54.8219L67.8624 53.8562L68.1686 53.7688C83.9968 48.1125 104.3 45 125.259 45C146.131 45 166.344 48.1125 182.175 53.7688L184.103 54.4688L184.366 56.4844L185.287 61.9219C185.725 64.5531 189.409 88.3188 185.025 117.037C178.887 157.159 159.681 186.713 129.469 202.584L124.822 205Z" fill="white"/>
<path d="M72.2032 59.425L71.5907 62.9781C71.4157 63.9875 67.4251 87.7094 71.6345 115.947C77.2907 153.875 95.1376 181.762 123.331 196.625L124.866 197.416L126.4 196.625C154.638 181.759 172.616 153.875 178.447 115.991C182.744 87.8406 178.884 64.0312 178.709 63.0219L178.097 59.425C163.231 54.3813 144.553 51.6625 125.259 51.6625C105.834 51.6656 87.0688 54.4281 72.2032 59.425ZM124.822 205L120.175 202.544C90.0501 186.672 70.9313 157.075 65.0126 116.953C60.672 87.6625 64.8376 62.8875 65.0126 61.8375L66.2407 54.8219L67.9063 53.8562L68.2126 53.7688C84.0407 48.1125 104.344 45 125.303 45C146.175 45 166.344 48.1125 182.219 53.7688L184.147 54.4688L184.409 56.4844L185.331 61.9219C185.769 64.5531 189.453 88.3188 185.069 117.037C178.931 157.159 159.725 186.713 129.513 202.584L124.822 205Z" fill="#083F2C"/>
<path d="M124.821 195.484L124.253 195.178C96.6713 180.622 79.1775 153.259 73.6088 116.034C69.4432 88.0594 73.39 64.6875 73.565 63.725L73.9588 61.3562C88.4275 56.6656 106.493 54.0781 125.262 54.0781C143.853 54.0781 161.831 56.6219 176.256 61.3125L176.649 63.725C176.824 64.6906 180.64 88.1031 176.387 116.034C170.687 153.306 153.059 180.666 125.393 195.178L124.821 195.484Z" fill="#083F2C"/>
<path d="M124.821 192.591C98.4246 178.384 81.6309 151.856 76.2809 115.769C72.2027 88.275 76.0621 65.2562 76.2371 64.2906L76.3684 63.5437C90.3121 59.2469 107.587 56.8781 125.259 56.8781C142.796 56.8781 159.987 59.2469 173.887 63.5L174.018 64.2906C174.193 65.2562 177.965 88.2312 173.712 115.769C168.184 151.856 151.303 178.384 124.821 192.591Z" fill="#083F2C"/>
<path d="M77.0275 64.1625L76.9838 64.4688C76.8088 65.4344 72.9932 88.4531 77.0275 115.728C82.3338 151.375 98.865 177.641 124.821 191.803C150.868 177.684 167.528 151.375 172.965 115.728C177.043 89.0688 173.668 66.925 173.271 64.5156L173.228 64.2094C159.503 60.0438 142.49 57.7625 125.259 57.7625C107.896 57.6719 90.7932 59.9531 77.0275 64.1625ZM124.821 193.469L124.471 193.294C97.8525 178.953 80.9275 152.206 75.5338 115.903C71.4557 88.4094 75.315 65.1719 75.49 64.2063L75.7088 63.0219L76.1463 62.8906C90.09 58.55 107.54 56.1375 125.256 56.1375C142.793 56.1375 160.159 58.5063 174.103 62.8031L174.54 62.9344L174.759 64.1625C175.153 66.6188 178.574 88.9813 174.453 115.859C168.884 152.166 151.828 178.913 125.168 193.25L124.821 193.469Z" fill="white"/>
<path d="M107.282 110.816L108.772 110.334L107.675 174.569L107.282 175.053L106.888 174.569L105.791 110.334L107.282 110.816Z" fill="white"/>
<path d="M116.272 118.225C108.731 118.928 90.8406 121.513 90.8406 127.784C90.8406 133.222 124.297 131.906 125.569 140.106C127.278 151.025 98.6031 148.7 98.6031 152.997C98.6031 154.969 116.319 154.925 116.319 161.809C116.319 167.466 106.234 165.713 102.331 168.213L101.981 168.3C104.788 165.45 113.775 164.925 113.775 162.556C113.775 156.9 94.5688 159.047 94.5688 151.944C94.5688 144.447 121.841 145.147 121.841 141.641C121.841 137.169 86.0625 140.325 86.0625 126.909C86.0625 114.85 118.291 113.053 121.975 112.922C127.894 112.703 129.869 114.413 129.691 115.334C129.559 116.038 128.944 116.694 128.725 116.913C128.506 117.131 121.578 120.113 119.428 118.972C118.55 118.491 118.816 118.269 117.278 118.181L116.272 118.225Z" fill="white"/>
<path d="M122.978 115.903C122.978 116.209 123.459 116.472 123.987 116.428C124.515 116.384 124.953 116.122 124.953 115.816C124.953 115.509 124.471 115.247 123.943 115.291C123.374 115.287 122.934 115.55 122.978 115.903Z" fill="#083F2C"/>
<path d="M92.4623 124.759C92.4623 124.759 88.5592 127.478 90.9717 131.687C90.9717 131.687 90.1373 127.566 92.9873 126.687" fill="#083F2C"/>
<path d="M100.046 151.55C100.046 151.55 96.5402 153.172 99.3433 154.925C99.3433 154.925 97.6777 153.522 99.9995 152.381" fill="#083F2C"/>
<path d="M119.778 142.956C119.778 142.956 123.725 142.431 121.094 139.359C121.094 139.359 122.541 142.209 119.341 142.034" fill="#083F2C"/>
<path d="M112.981 160.847C112.981 160.847 115.481 162.906 112.587 164.488C112.587 164.488 114.694 162.953 112.5 161.594" fill="#083F2C"/>
<path d="M104.869 119.934C104.869 119.934 107.588 119.366 109.341 119.144L109.472 120.722C109.472 120.722 108.769 119.45 105.394 120.284L104.869 119.934Z" fill="#083F2C"/>
<path d="M105.178 150.322C105.178 150.322 106.756 149.972 108.553 149.753L108.99 151.288C108.99 151.288 108.771 149.797 105.35 150.675L105.178 150.322Z" fill="#083F2C"/>
<path d="M106.054 166.984C106.054 166.984 106.579 166.853 108.113 166.634L108.769 168.125C108.769 168.125 108.857 166.591 105.963 167.334L106.054 166.984Z" fill="#083F2C"/>
<path d="M108.421 132.606L108.334 138.437L108.771 138.525C108.771 138.525 108.465 134.184 109.781 132.869L108.421 132.606Z" fill="#083F2C"/>
<path d="M108.072 155.453L107.984 159.75L108.203 159.925C108.203 159.925 108.116 156.372 109.081 155.672L108.072 155.453Z" fill="#083F2C"/>
<path d="M110.087 106.956C110.087 108.534 108.815 109.806 107.281 109.806C105.703 109.806 104.475 108.534 104.475 106.956C104.475 105.378 105.746 104.15 107.281 104.15C108.815 104.15 110.087 105.422 110.087 106.956Z" fill="white"/>
<path d="M106.756 106.3C106.581 106.606 106.318 106.781 106.099 106.694C105.924 106.606 105.881 106.256 106.056 105.947C106.231 105.641 106.537 105.466 106.712 105.553C106.887 105.641 106.931 105.991 106.756 106.3Z" fill="#083F2C"/>
<path d="M175.334 97.6156H74.8779V99.1063H175.334V97.6156Z" fill="white"/>
<path d="M136.704 98.5375H135.213V185.881H136.704V98.5375Z" fill="white"/>
<path d="M133.678 100.688V187.022H133.153V101.212H74.8779V100.688H133.678Z" fill="white"/>
<path d="M138.809 101.212V183.997H138.237V100.688H175.509V101.212H138.809Z" fill="white"/>
<path d="M94.2598 91.1719C104.213 94.7688 113.335 80.5156 124.91 89.2438H125.391C136.966 80.5188 146.044 94.7688 156.041 91.1719V91.9188C146.044 95.5156 136.966 82.7094 125.391 91.4813H124.91C113.335 82.7563 104.257 95.5156 94.2598 91.9188V91.1719Z" fill="white"/>
<path d="M155.953 88.2781C145.956 91.875 136.878 79.0687 125.303 87.8406H124.822C113.247 79.1156 104.169 91.875 94.1719 88.2781L98.3375 66.1344C106.669 69.1156 115.175 58.9 124.822 66.1781H125.216C134.862 58.9 143.412 69.1594 151.7 66.1344L155.953 88.2781Z" fill="white"/>
<path d="M107.238 80.7781V80.2969C108.816 80.2969 109.122 79.9031 109.122 77.5781V74.0281C109.122 71.7031 108.554 71.4406 106.885 71.5281V71.0469L110.744 70.2563V77.6219C110.744 79.9469 111.05 80.3406 112.629 80.3406V80.8219L107.238 80.7781Z" fill="#083F2C"/>
<path d="M123.463 71.3094L118.947 80.2531C118.553 80.9562 118.334 81.4812 117.631 81.2625C117.281 81.175 116.797 80.65 117.413 79.7281L122.322 72.0125H118.025C117.016 72.0125 116.141 72.275 115.875 73.3281L115.744 73.8094H115.219L115.788 70.6969H123.503V71.3094H123.463Z" fill="#083F2C"/>
<path d="M129.731 71.1344C128.415 71.1344 127.803 72.45 127.803 73.5469C127.803 74.6438 128.55 75.9156 129.862 75.9156C130.828 75.9156 131.79 75.4344 131.965 74.8188C132.012 72.3594 130.915 71.1344 129.731 71.1344ZM129.468 81.175C127.54 81.175 126.268 79.7719 127.1 79.2031C127.8 78.7656 127.978 80.2563 129.468 80.2563C131.134 80.2563 131.837 78.1063 132.012 76.0031C131.618 76.4406 130.74 76.7938 129.953 76.7938C128.025 76.7938 126.225 75.3031 126.225 73.55C126.225 71.7531 127.846 70.2625 129.778 70.2625C131.137 70.2625 133.681 71.0969 133.681 75.0844C133.678 78.0188 132.143 81.175 129.468 81.175Z" fill="#083F2C"/>
<path d="M145.034 71.3094L140.562 80.2531C140.212 80.9562 139.95 81.4812 139.246 81.2625C138.896 81.175 138.412 80.65 139.028 79.7281L143.937 72.0125H139.64C138.631 72.0125 137.756 72.275 137.49 73.3281L137.359 73.8094H136.834L137.403 70.6969H145.118L145.034 71.3094Z" fill="#083F2C"/>
<mask id="mask0_192_21813" style="mask-type:luminance" maskUnits="userSpaceOnUse" x="138" y="100" width="38" height="84">
<path d="M138.5 100.95V183.516C157.134 168.3 169.194 145.238 173.709 115.816C174.5 110.684 175.025 105.687 175.331 100.95H138.5Z" fill="white"/>
</mask>
<g mask="url(#mask0_192_21813)">
<path d="M195.021 142.384C193.224 142.384 191.953 142.953 191.031 143.394C190.374 143.7 190.065 143.831 189.628 143.831C189.19 143.831 188.924 143.7 188.268 143.394C187.346 142.956 186.074 142.384 184.278 142.384C182.481 142.384 181.209 142.953 180.287 143.394C179.631 143.7 179.321 143.831 178.928 143.831C178.49 143.831 178.224 143.7 177.524 143.394C176.603 142.956 175.331 142.384 173.534 142.384C171.737 142.384 170.465 142.953 169.543 143.394C168.887 143.7 168.578 143.831 168.184 143.831C167.746 143.831 167.481 143.7 166.781 143.394C165.859 142.956 164.587 142.384 162.79 142.384C160.993 142.384 159.721 142.953 158.799 143.394C158.143 143.7 157.834 143.831 157.396 143.831C156.959 143.831 156.693 143.7 155.993 143.394C155.071 142.956 153.843 142.384 152.003 142.384C150.206 142.384 148.934 142.953 148.012 143.394C147.356 143.7 147.046 143.831 146.609 143.831C146.171 143.831 145.906 143.7 145.206 143.394C144.284 142.956 143.056 142.384 141.215 142.384C139.418 142.384 138.146 142.953 137.224 143.394C136.568 143.7 136.259 143.831 135.821 143.831V144.359C136.346 144.359 136.699 144.184 137.443 143.878C138.321 143.484 139.503 142.913 141.215 142.913C142.881 142.913 144.109 143.481 144.987 143.878C145.69 144.184 146.04 144.359 146.565 144.359C147.09 144.359 147.443 144.184 148.187 143.878C149.065 143.484 150.246 142.913 151.959 142.913C153.624 142.913 154.853 143.481 155.731 143.878C156.434 144.184 156.784 144.359 157.309 144.359C157.834 144.359 158.187 144.184 158.887 143.878C159.765 143.484 160.946 142.913 162.659 142.913C164.368 142.913 165.553 143.481 166.431 143.878C167.134 144.184 167.484 144.359 168.053 144.359C168.578 144.359 168.931 144.184 169.674 143.878C170.553 143.484 171.734 142.913 173.446 142.913C175.112 142.913 176.34 143.481 177.218 143.878C177.918 144.184 178.271 144.359 178.84 144.359C179.365 144.359 179.718 144.184 180.418 143.878C181.296 143.484 182.478 142.913 184.19 142.913C185.856 142.913 187.084 143.481 187.962 143.878C188.662 144.184 189.015 144.359 189.54 144.359C190.065 144.359 190.418 144.184 191.162 143.878C192.04 143.484 193.221 142.913 194.934 142.913" fill="white"/>
</g>
<mask id="mask1_192_21813" style="mask-type:luminance" maskUnits="userSpaceOnUse" x="138" y="100" width="38" height="84">
<path d="M138.5 100.95V183.516C157.134 168.3 169.194 145.238 173.709 115.816C174.5 110.684 175.025 105.687 175.331 100.95H138.5Z" fill="white"/>
</mask>
<g mask="url(#mask1_192_21813)">
<path d="M195.022 143.875C193.444 143.875 192.347 144.356 191.469 144.753C190.769 145.059 190.328 145.278 189.672 145.278C189.016 145.278 188.531 145.059 187.875 144.753C186.997 144.359 185.903 143.875 184.322 143.875C182.744 143.875 181.647 144.356 180.769 144.753C180.069 145.059 179.628 145.278 178.972 145.278C178.316 145.278 177.831 145.059 177.175 144.753C176.297 144.359 175.203 143.875 173.622 143.875C172.044 143.875 170.947 144.356 170.069 144.753C169.369 145.059 168.928 145.278 168.272 145.278C167.616 145.278 167.131 145.059 166.475 144.753C165.597 144.359 164.503 143.875 162.922 143.875C161.344 143.875 160.247 144.356 159.369 144.753C158.669 145.059 158.228 145.278 157.572 145.278C156.916 145.278 156.431 145.059 155.775 144.753C154.897 144.359 153.803 143.875 152.222 143.875C150.641 143.875 149.547 144.356 148.669 144.753C147.969 145.059 147.528 145.278 146.872 145.278C146.216 145.278 145.731 145.059 145.075 144.753C144.197 144.359 143.103 143.875 141.522 143.875C139.944 143.875 138.847 144.356 137.969 144.753C137.266 145.059 136.828 145.278 136.172 145.278V147.338C138.409 147.338 139.284 145.934 141.522 145.934C143.759 145.934 144.634 147.338 146.872 147.338C149.109 147.338 149.984 145.934 152.222 145.934C154.459 145.934 155.334 147.338 157.572 147.338C159.809 147.338 160.684 145.934 162.922 145.934C165.159 145.934 166.034 147.338 168.272 147.338C170.509 147.338 171.384 145.934 173.622 145.934C175.859 145.934 176.734 147.338 178.972 147.338C181.209 147.338 182.084 145.934 184.322 145.934C186.559 145.934 187.434 147.338 189.672 147.338C191.909 147.338 192.784 145.934 195.022 145.934" fill="white"/>
</g>
<mask id="mask2_192_21813" style="mask-type:luminance" maskUnits="userSpaceOnUse" x="138" y="100" width="38" height="84">
<path d="M138.5 100.95V183.516C157.134 168.3 169.194 145.238 173.709 115.816C174.5 110.684 175.025 105.687 175.331 100.95H138.5Z" fill="white"/>
</mask>
<g mask="url(#mask2_192_21813)">
<path d="M195.021 148.525C193.224 148.525 191.953 149.094 191.031 149.534C190.374 149.841 190.065 149.972 189.628 149.972C189.19 149.972 188.924 149.841 188.268 149.534C187.346 149.097 186.074 148.525 184.278 148.525C182.481 148.525 181.209 149.094 180.287 149.534C179.631 149.841 179.321 149.972 178.928 149.972C178.49 149.972 178.224 149.841 177.524 149.534C176.603 149.097 175.331 148.525 173.534 148.525C171.737 148.525 170.465 149.094 169.543 149.534C168.887 149.841 168.578 149.972 168.184 149.972C167.746 149.972 167.481 149.841 166.781 149.534C165.859 149.097 164.587 148.525 162.79 148.525C160.993 148.525 159.721 149.094 158.799 149.534C158.143 149.841 157.834 149.972 157.396 149.972C156.959 149.972 156.693 149.841 155.993 149.534C155.071 149.097 153.843 148.525 152.003 148.525C150.206 148.525 148.934 149.094 148.012 149.534C147.356 149.841 147.046 149.972 146.609 149.972C146.171 149.972 145.906 149.841 145.206 149.534C144.284 149.097 143.056 148.525 141.215 148.525C139.418 148.525 138.146 149.094 137.224 149.534C136.568 149.841 136.259 149.972 135.821 149.972V150.497C136.346 150.497 136.699 150.366 137.443 150.016C138.321 149.622 139.503 149.05 141.215 149.05C142.881 149.05 144.109 149.619 144.987 150.016C145.69 150.322 146.04 150.497 146.565 150.497C147.09 150.497 147.443 150.366 148.187 150.016C149.065 149.622 150.246 149.05 151.959 149.05C153.624 149.05 154.853 149.619 155.731 150.016C156.434 150.322 156.784 150.497 157.309 150.497C157.834 150.497 158.187 150.366 158.887 150.016C159.765 149.622 160.946 149.05 162.659 149.05C164.368 149.05 165.553 149.619 166.431 150.016C167.134 150.322 167.484 150.497 168.053 150.497C168.578 150.497 168.931 150.366 169.674 150.016C170.553 149.622 171.734 149.05 173.446 149.05C175.112 149.05 176.34 149.619 177.218 150.016C177.918 150.322 178.271 150.497 178.84 150.497C179.365 150.497 179.718 150.366 180.418 150.016C181.296 149.622 182.478 149.05 184.19 149.05C185.856 149.05 187.084 149.619 187.962 150.016C188.662 150.322 189.015 150.497 189.54 150.497C190.065 150.497 190.418 150.366 191.162 150.016C192.04 149.622 193.221 149.05 194.934 149.05" fill="white"/>
</g>
<mask id="mask3_192_21813" style="mask-type:luminance" maskUnits="userSpaceOnUse" x="138" y="100" width="38" height="84">
<path d="M138.5 100.95V183.516C157.134 168.3 169.194 145.238 173.709 115.816C174.5 110.684 175.025 105.687 175.331 100.95H138.5Z" fill="white"/>
</mask>
<g mask="url(#mask3_192_21813)">
<path d="M195.022 149.972C193.444 149.972 192.347 150.453 191.469 150.85C190.769 151.156 190.328 151.375 189.672 151.375C189.016 151.375 188.531 151.156 187.875 150.85C186.997 150.456 185.903 149.972 184.322 149.972C182.744 149.972 181.647 150.453 180.769 150.85C180.069 151.156 179.628 151.375 178.972 151.375C178.316 151.375 177.831 151.156 177.175 150.85C176.297 150.456 175.203 149.972 173.622 149.972C172.044 149.972 170.947 150.453 170.069 150.85C169.369 151.156 168.928 151.375 168.272 151.375C167.616 151.375 167.131 151.156 166.475 150.85C165.597 150.456 164.503 149.972 162.922 149.972C161.344 149.972 160.247 150.453 159.369 150.85C158.669 151.156 158.228 151.375 157.572 151.375C156.916 151.375 156.431 151.156 155.775 150.85C154.897 150.456 153.803 149.972 152.222 149.972C150.641 149.972 149.547 150.453 148.669 150.85C147.969 151.156 147.528 151.375 146.872 151.375C146.216 151.375 145.731 151.156 145.075 150.85C144.197 150.456 143.103 149.972 141.522 149.972C139.944 149.972 138.847 150.453 137.969 150.85C137.266 151.156 136.828 151.375 136.172 151.375V153.434C138.409 153.434 139.284 152.031 141.522 152.031C143.759 152.031 144.634 153.434 146.872 153.434C149.109 153.434 149.984 152.031 152.222 152.031C154.459 152.031 155.334 153.434 157.572 153.434C159.809 153.434 160.684 152.031 162.922 152.031C165.159 152.031 166.034 153.434 168.272 153.434C170.509 153.434 171.384 152.031 173.622 152.031C175.859 152.031 176.734 153.434 178.972 153.434C181.209 153.434 182.084 152.031 184.322 152.031C186.559 152.031 187.434 153.434 189.672 153.434C191.909 153.434 192.784 152.031 195.022 152.031" fill="white"/>
</g>
<mask id="mask4_192_21813" style="mask-type:luminance" maskUnits="userSpaceOnUse" x="138" y="100" width="38" height="84">
<path d="M138.5 100.95V183.516C157.134 168.3 169.194 145.238 173.709 115.816C174.5 110.684 175.025 105.687 175.331 100.95H138.5Z" fill="white"/>
</mask>
<g mask="url(#mask4_192_21813)">
<path d="M195.021 154.663C193.224 154.663 191.953 155.231 191.031 155.672C190.374 155.978 190.065 156.109 189.628 156.109C189.19 156.109 188.924 155.978 188.268 155.672C187.346 155.234 186.074 154.663 184.278 154.663C182.481 154.663 181.209 155.231 180.287 155.672C179.631 155.978 179.321 156.109 178.928 156.109C178.49 156.109 178.224 155.978 177.524 155.672C176.603 155.234 175.331 154.663 173.534 154.663C171.737 154.663 170.465 155.231 169.543 155.672C168.887 155.978 168.578 156.109 168.184 156.109C167.746 156.109 167.481 155.978 166.781 155.672C165.859 155.234 164.587 154.663 162.79 154.663C160.993 154.663 159.721 155.231 158.799 155.672C158.143 155.978 157.834 156.109 157.396 156.109C156.959 156.109 156.693 155.978 155.993 155.672C155.071 155.234 153.843 154.663 152.003 154.663C150.206 154.663 148.934 155.231 148.012 155.672C147.356 155.978 147.046 156.109 146.609 156.109C146.171 156.109 145.906 155.978 145.206 155.672C144.284 155.234 143.056 154.663 141.215 154.663C139.418 154.663 138.146 155.231 137.224 155.672C136.568 155.978 136.259 156.109 135.821 156.109V156.634C136.346 156.634 136.699 156.503 137.443 156.153C138.321 155.759 139.503 155.188 141.215 155.188C142.881 155.188 144.109 155.713 144.987 156.153C145.69 156.459 146.04 156.634 146.565 156.634C147.09 156.634 147.443 156.503 148.187 156.153C149.065 155.759 150.246 155.188 151.959 155.188C153.624 155.188 154.853 155.713 155.731 156.153C156.434 156.459 156.784 156.634 157.309 156.634C157.834 156.634 158.187 156.503 158.887 156.153C159.765 155.759 160.946 155.188 162.659 155.188C164.368 155.188 165.553 155.713 166.431 156.153C167.134 156.459 167.484 156.634 168.053 156.634C168.578 156.634 168.931 156.503 169.674 156.153C170.553 155.759 171.734 155.188 173.446 155.188C175.112 155.188 176.34 155.713 177.218 156.153C177.918 156.459 178.271 156.634 178.84 156.634C179.365 156.634 179.718 156.503 180.418 156.153C181.296 155.759 182.478 155.188 184.19 155.188C185.856 155.188 187.084 155.713 187.962 156.153C188.662 156.459 189.015 156.634 189.54 156.634C190.065 156.634 190.418 156.503 191.162 156.153C192.04 155.759 193.221 155.188 194.934 155.188" fill="white"/>
</g>
<mask id="mask5_192_21813" style="mask-type:luminance" maskUnits="userSpaceOnUse" x="138" y="100" width="38" height="84">
<path d="M138.5 100.95V183.516C157.134 168.3 169.194 145.238 173.709 115.816C174.5 110.684 175.025 105.687 175.331 100.95H138.5Z" fill="white"/>
</mask>
<g mask="url(#mask5_192_21813)">
<path d="M195.022 156.109C193.444 156.109 192.347 156.591 191.469 156.988C190.769 157.294 190.328 157.513 189.672 157.513C189.016 157.513 188.531 157.294 187.875 156.988C186.997 156.594 185.903 156.109 184.322 156.109C182.744 156.109 181.647 156.591 180.769 156.988C180.069 157.294 179.628 157.513 178.972 157.513C178.316 157.513 177.831 157.294 177.175 156.988C176.297 156.594 175.203 156.109 173.622 156.109C172.044 156.109 170.947 156.591 170.069 156.988C169.369 157.294 168.928 157.513 168.272 157.513C167.616 157.513 167.131 157.294 166.475 156.988C165.597 156.594 164.503 156.109 162.922 156.109C161.344 156.109 160.247 156.591 159.369 156.988C158.669 157.294 158.228 157.513 157.572 157.513C156.916 157.513 156.431 157.294 155.775 156.988C154.897 156.594 153.803 156.109 152.222 156.109C150.641 156.109 149.547 156.591 148.669 156.988C147.969 157.294 147.528 157.513 146.872 157.513C146.216 157.513 145.731 157.294 145.075 156.988C144.197 156.594 143.103 156.109 141.522 156.109C139.944 156.109 138.847 156.591 137.969 156.988C137.266 157.294 136.828 157.513 136.172 157.513V159.572C138.409 159.572 139.284 158.169 141.522 158.169C143.759 158.169 144.634 159.572 146.872 159.572C149.109 159.572 149.984 158.169 152.222 158.169C154.459 158.169 155.334 159.572 157.572 159.572C159.809 159.572 160.684 158.169 162.922 158.169C165.159 158.169 166.034 159.572 168.272 159.572C170.509 159.572 171.384 158.169 173.622 158.169C175.859 158.169 176.734 159.572 178.972 159.572C181.209 159.572 182.084 158.169 184.322 158.169C186.559 158.169 187.434 159.572 189.672 159.572C191.909 159.572 192.784 158.169 195.022 158.169" fill="white"/>
</g>
<mask id="mask6_192_21813" style="mask-type:luminance" maskUnits="userSpaceOnUse" x="138" y="100" width="38" height="84">
<path d="M138.5 100.95V183.516C157.134 168.3 169.194 145.238 173.709 115.816C174.5 110.684 175.025 105.687 175.331 100.95H138.5Z" fill="white"/>
</mask>
<g mask="url(#mask6_192_21813)">
<path d="M195.021 160.803C193.224 160.803 191.953 161.372 191.031 161.813C190.374 162.119 190.065 162.25 189.628 162.25C189.19 162.25 188.924 162.119 188.268 161.813C187.346 161.375 186.074 160.803 184.278 160.803C182.481 160.803 181.209 161.372 180.287 161.813C179.631 162.119 179.321 162.25 178.928 162.25C178.49 162.25 178.224 162.119 177.524 161.813C176.603 161.375 175.331 160.803 173.534 160.803C171.737 160.803 170.465 161.372 169.543 161.813C168.887 162.119 168.578 162.25 168.184 162.25C167.746 162.25 167.481 162.119 166.781 161.813C165.859 161.375 164.587 160.803 162.79 160.803C160.993 160.803 159.721 161.372 158.799 161.813C158.143 162.119 157.834 162.25 157.396 162.25C156.959 162.25 156.693 162.119 155.993 161.813C155.071 161.375 153.843 160.803 152.003 160.803C150.206 160.803 148.934 161.372 148.012 161.813C147.356 162.119 147.046 162.25 146.609 162.25C146.171 162.25 145.906 162.119 145.206 161.813C144.284 161.375 143.056 160.803 141.215 160.803C139.418 160.803 138.146 161.372 137.224 161.813C136.568 162.119 136.259 162.25 135.821 162.25V162.775C136.346 162.775 136.699 162.644 137.443 162.294C138.321 161.9 139.503 161.328 141.215 161.328C142.881 161.328 144.109 161.897 144.987 162.294C145.69 162.6 146.04 162.775 146.565 162.775C147.09 162.775 147.443 162.644 148.187 162.294C149.065 161.9 150.246 161.328 151.959 161.328C153.624 161.328 154.853 161.897 155.731 162.294C156.434 162.6 156.784 162.775 157.309 162.775C157.834 162.775 158.187 162.644 158.887 162.294C159.765 161.9 160.946 161.328 162.659 161.328C164.368 161.328 165.553 161.897 166.431 162.294C167.134 162.6 167.484 162.775 168.053 162.775C168.578 162.775 168.931 162.644 169.674 162.294C170.553 161.9 171.734 161.328 173.446 161.328C175.112 161.328 176.34 161.897 177.218 162.294C177.918 162.6 178.271 162.775 178.84 162.775C179.365 162.775 179.718 162.644 180.418 162.294C181.296 161.9 182.478 161.328 184.19 161.328C185.856 161.328 187.084 161.897 187.962 162.294C188.662 162.6 189.015 162.775 189.54 162.775C190.065 162.775 190.418 162.644 191.162 162.294C192.04 161.9 193.221 161.328 194.934 161.328" fill="white"/>
</g>
<mask id="mask7_192_21813" style="mask-type:luminance" maskUnits="userSpaceOnUse" x="138" y="100" width="38" height="84">
<path d="M138.5 100.95V183.516C157.134 168.3 169.194 145.238 173.709 115.816C174.5 110.684 175.025 105.687 175.331 100.95H138.5Z" fill="white"/>
</mask>
<g mask="url(#mask7_192_21813)">
<path d="M195.022 162.25C193.444 162.25 192.347 162.731 191.469 163.128C190.769 163.434 190.328 163.653 189.672 163.653C189.016 163.653 188.531 163.434 187.875 163.128C186.997 162.734 185.903 162.25 184.322 162.25C182.744 162.25 181.647 162.731 180.769 163.128C180.069 163.434 179.628 163.653 178.972 163.653C178.316 163.653 177.831 163.434 177.175 163.128C176.297 162.734 175.203 162.25 173.622 162.25C172.044 162.25 170.947 162.731 170.069 163.128C169.369 163.434 168.928 163.653 168.272 163.653C167.616 163.653 167.131 163.434 166.475 163.128C165.597 162.734 164.503 162.25 162.922 162.25C161.344 162.25 160.247 162.731 159.369 163.128C158.669 163.434 158.228 163.653 157.572 163.653C156.916 163.653 156.431 163.434 155.775 163.128C154.897 162.734 153.803 162.25 152.222 162.25C150.641 162.25 149.547 162.731 148.669 163.128C147.969 163.434 147.528 163.653 146.872 163.653C146.216 163.653 145.731 163.434 145.075 163.128C144.197 162.734 143.103 162.25 141.522 162.25C139.944 162.25 138.847 162.731 137.969 163.128C137.266 163.434 136.828 163.653 136.172 163.653V165.713C138.409 165.713 139.284 164.266 141.522 164.266C143.759 164.266 144.634 165.713 146.872 165.713C149.109 165.713 149.984 164.266 152.222 164.266C154.459 164.266 155.334 165.713 157.572 165.713C159.809 165.713 160.684 164.266 162.922 164.266C165.159 164.266 166.034 165.713 168.272 165.713C170.509 165.713 171.384 164.266 173.622 164.266C175.859 164.266 176.734 165.713 178.972 165.713C181.209 165.713 182.084 164.266 184.322 164.266C186.559 164.266 187.434 165.713 189.672 165.713C191.909 165.713 192.784 164.266 195.022 164.266" fill="white"/>
</g>
<mask id="mask8_192_21813" style="mask-type:luminance" maskUnits="userSpaceOnUse" x="138" y="100" width="38" height="84">
<path d="M138.5 100.95V183.516C157.134 168.3 169.194 145.238 173.709 115.816C174.5 110.684 175.025 105.687 175.331 100.95H138.5Z" fill="white"/>
</mask>
<g mask="url(#mask8_192_21813)">
<path d="M195.021 166.941C193.224 166.941 191.953 167.509 191.031 167.95C190.374 168.256 190.065 168.388 189.628 168.388C189.19 168.388 188.924 168.256 188.268 167.95C187.346 167.513 186.074 166.941 184.278 166.941C182.481 166.941 181.209 167.509 180.287 167.95C179.631 168.256 179.321 168.388 178.928 168.388C178.49 168.388 178.224 168.256 177.524 167.95C176.603 167.513 175.331 166.941 173.534 166.941C171.737 166.941 170.465 167.509 169.543 167.95C168.887 168.256 168.578 168.388 168.184 168.388C167.746 168.388 167.481 168.256 166.781 167.95C165.859 167.513 164.587 166.941 162.79 166.941C160.993 166.941 159.721 167.509 158.799 167.95C158.143 168.256 157.834 168.388 157.396 168.388C156.959 168.388 156.693 168.256 155.993 167.95C155.071 167.513 153.843 166.941 152.003 166.941C150.206 166.941 148.934 167.509 148.012 167.95C147.356 168.256 147.046 168.388 146.609 168.388C146.171 168.388 145.906 168.256 145.206 167.95C144.284 167.513 143.056 166.941 141.215 166.941C139.418 166.941 138.146 167.509 137.224 167.95C136.568 168.256 136.259 168.388 135.821 168.388V168.913C136.346 168.913 136.699 168.781 137.443 168.431C138.321 168.038 139.503 167.466 141.215 167.466C142.881 167.466 144.109 168.034 144.987 168.431C145.69 168.738 146.04 168.913 146.565 168.913C147.09 168.913 147.443 168.781 148.187 168.431C149.065 168.038 150.246 167.466 151.959 167.466C153.624 167.466 154.853 168.034 155.731 168.431C156.434 168.738 156.784 168.913 157.309 168.913C157.834 168.913 158.187 168.781 158.887 168.431C159.765 168.038 160.946 167.466 162.659 167.466C164.368 167.466 165.553 168.034 166.431 168.431C167.134 168.738 167.484 168.913 168.053 168.913C168.578 168.913 168.931 168.781 169.674 168.431C170.553 168.038 171.734 167.466 173.446 167.466C175.112 167.466 176.34 168.034 177.218 168.431C177.918 168.738 178.271 168.913 178.84 168.913C179.365 168.913 179.718 168.781 180.418 168.431C181.296 168.038 182.478 167.466 184.19 167.466C185.856 167.466 187.084 168.034 187.962 168.431C188.662 168.738 189.015 168.913 189.54 168.913C190.065 168.913 190.418 168.781 191.162 168.431C192.04 168.038 193.221 167.466 194.934 167.466" fill="white"/>
</g>
<mask id="mask9_192_21813" style="mask-type:luminance" maskUnits="userSpaceOnUse" x="138" y="100" width="38" height="84">
<path d="M138.5 100.95V183.516C157.134 168.3 169.194 145.238 173.709 115.816C174.5 110.684 175.025 105.687 175.331 100.95H138.5Z" fill="white"/>
</mask>
<g mask="url(#mask9_192_21813)">
<path d="M195.022 168.388C193.444 168.388 192.347 168.869 191.469 169.266C190.769 169.572 190.328 169.791 189.672 169.791C189.016 169.791 188.531 169.572 187.875 169.266C186.997 168.872 185.903 168.388 184.322 168.388C182.744 168.388 181.647 168.869 180.769 169.266C180.069 169.572 179.628 169.791 178.972 169.791C178.316 169.791 177.831 169.572 177.175 169.266C176.297 168.872 175.203 168.388 173.622 168.388C172.044 168.388 170.947 168.869 170.069 169.266C169.369 169.572 168.928 169.791 168.272 169.791C167.616 169.791 167.131 169.572 166.475 169.266C165.597 168.872 164.503 168.388 162.922 168.388C161.344 168.388 160.247 168.869 159.369 169.266C158.669 169.572 158.228 169.791 157.572 169.791C156.916 169.791 156.431 169.572 155.775 169.266C154.897 168.872 153.803 168.388 152.222 168.388C150.641 168.388 149.547 168.869 148.669 169.266C147.969 169.572 147.528 169.791 146.872 169.791C146.216 169.791 145.731 169.572 145.075 169.266C144.197 168.872 143.103 168.388 141.522 168.388C139.944 168.388 138.847 168.869 137.969 169.266C137.266 169.572 136.828 169.791 136.172 169.791V171.85C138.409 171.85 139.284 170.403 141.522 170.403C143.759 170.403 144.634 171.85 146.872 171.85C149.109 171.85 149.984 170.403 152.222 170.403C154.459 170.403 155.334 171.85 157.572 171.85C159.809 171.85 160.684 170.403 162.922 170.403C165.159 170.403 166.034 171.85 168.272 171.85C170.509 171.85 171.384 170.403 173.622 170.403C175.859 170.403 176.734 171.85 178.972 171.85C181.209 171.85 182.084 170.403 184.322 170.403C186.559 170.403 187.434 171.85 189.672 171.85C191.909 171.85 192.784 170.403 195.022 170.403" fill="white"/>
</g>
<mask id="mask10_192_21813" style="mask-type:luminance" maskUnits="userSpaceOnUse" x="138" y="100" width="38" height="84">
<path d="M138.5 100.95V183.516C157.134 168.3 169.194 145.238 173.709 115.816C174.5 110.684 175.025 105.687 175.331 100.95H138.5Z" fill="white"/>
</mask>
<g mask="url(#mask10_192_21813)">
<path d="M195.021 173.078C193.224 173.078 191.953 173.647 191.031 174.088C190.374 174.394 190.065 174.525 189.628 174.525C189.19 174.525 188.924 174.394 188.268 174.088C187.346 173.65 186.074 173.078 184.278 173.078C182.481 173.078 181.209 173.647 180.287 174.088C179.631 174.394 179.321 174.525 178.928 174.525C178.49 174.525 178.224 174.394 177.524 174.088C176.603 173.65 175.331 173.078 173.534 173.078C171.737 173.078 170.465 173.647 169.543 174.088C168.887 174.394 168.578 174.525 168.184 174.525C167.746 174.525 167.481 174.394 166.781 174.088C165.859 173.65 164.587 173.078 162.79 173.078C160.993 173.078 159.721 173.647 158.799 174.088C158.143 174.394 157.834 174.525 157.396 174.525C156.959 174.525 156.693 174.394 155.993 174.088C155.071 173.65 153.843 173.078 152.003 173.078C150.206 173.078 148.934 173.647 148.012 174.088C147.356 174.394 147.046 174.525 146.609 174.525C146.171 174.525 145.906 174.394 145.206 174.088C144.284 173.65 143.056 173.078 141.215 173.078C139.418 173.078 138.146 173.647 137.224 174.088C136.568 174.394 136.259 174.525 135.821 174.525V175.05C136.346 175.05 136.699 174.875 137.443 174.569C138.321 174.175 139.503 173.603 141.215 173.603C142.881 173.603 144.109 174.128 144.987 174.569C145.69 174.875 146.04 175.05 146.565 175.05C147.09 175.05 147.443 174.875 148.187 174.569C149.065 174.175 150.246 173.603 151.959 173.603C153.624 173.603 154.853 174.128 155.731 174.569C156.434 174.875 156.784 175.05 157.309 175.05C157.834 175.05 158.187 174.875 158.887 174.569C159.765 174.175 160.946 173.603 162.659 173.603C164.368 173.603 165.553 174.128 166.431 174.569C167.134 174.875 167.484 175.05 168.053 175.05C168.578 175.05 168.931 174.875 169.674 174.569C170.553 174.175 171.734 173.603 173.446 173.603C175.112 173.603 176.34 174.128 177.218 174.569C177.918 174.875 178.271 175.05 178.84 175.05C179.365 175.05 179.718 174.875 180.418 174.569C181.296 174.175 182.478 173.603 184.19 173.603C185.856 173.603 187.084 174.128 187.962 174.569C188.662 174.875 189.015 175.05 189.54 175.05C190.065 175.05 190.418 174.875 191.162 174.569C192.04 174.175 193.221 173.603 194.934 173.603" fill="white"/>
</g>
<mask id="mask11_192_21813" style="mask-type:luminance" maskUnits="userSpaceOnUse" x="138" y="100" width="38" height="84">
<path d="M138.5 100.95V183.516C157.134 168.3 169.194 145.238 173.709 115.816C174.5 110.684 175.025 105.687 175.331 100.95H138.5Z" fill="white"/>
</mask>
<g mask="url(#mask11_192_21813)">
<path d="M195.022 174.525C193.444 174.525 192.347 175.006 191.469 175.403C190.769 175.709 190.328 175.928 189.672 175.928C189.016 175.928 188.531 175.709 187.875 175.403C186.997 175.009 185.903 174.525 184.322 174.525C182.744 174.525 181.647 175.006 180.769 175.403C180.069 175.709 179.628 175.928 178.972 175.928C178.316 175.928 177.831 175.709 177.175 175.403C176.297 175.009 175.203 174.525 173.622 174.525C172.044 174.525 170.947 175.006 170.069 175.403C169.369 175.709 168.928 175.928 168.272 175.928C167.616 175.928 167.131 175.709 166.475 175.403C165.597 175.009 164.503 174.525 162.922 174.525C161.344 174.525 160.247 175.006 159.369 175.403C158.669 175.709 158.228 175.928 157.572 175.928C156.916 175.928 156.431 175.709 155.775 175.403C154.897 175.009 153.803 174.525 152.222 174.525C150.641 174.525 149.547 175.006 148.669 175.403C147.969 175.709 147.528 175.928 146.872 175.928C146.216 175.928 145.731 175.709 145.075 175.403C144.197 175.009 143.103 174.525 141.522 174.525C139.944 174.525 138.847 175.006 137.969 175.403C137.266 175.709 136.828 175.928 136.172 175.928V177.988C138.409 177.988 139.284 176.541 141.522 176.541C143.759 176.541 144.634 177.988 146.872 177.988C149.109 177.988 149.984 176.541 152.222 176.541C154.459 176.541 155.334 177.988 157.572 177.988C159.809 177.988 160.684 176.541 162.922 176.541C165.159 176.541 166.034 177.988 168.272 177.988C170.509 177.988 171.384 176.541 173.622 176.541C175.859 176.541 176.734 177.988 178.972 177.988C181.209 177.988 182.084 176.541 184.322 176.541C186.559 176.541 187.434 177.988 189.672 177.988C191.909 177.988 192.784 176.541 195.022 176.541" fill="white"/>
</g>
<mask id="mask12_192_21813" style="mask-type:luminance" maskUnits="userSpaceOnUse" x="138" y="100" width="38" height="84">
<path d="M138.5 100.95V183.516C157.134 168.3 169.194 145.238 173.709 115.816C174.5 110.684 175.025 105.687 175.331 100.95H138.5Z" fill="white"/>
</mask>
<g mask="url(#mask12_192_21813)">
<path d="M195.021 179.219C193.224 179.219 191.953 179.788 191.031 180.228C190.374 180.534 190.065 180.666 189.628 180.666C189.19 180.666 188.924 180.534 188.268 180.228C187.346 179.791 186.074 179.219 184.278 179.219C182.481 179.219 181.209 179.788 180.287 180.228C179.631 180.534 179.321 180.666 178.928 180.666C178.49 180.666 178.224 180.534 177.524 180.228C176.603 179.791 175.331 179.219 173.534 179.219C171.737 179.219 170.465 179.788 169.543 180.228C168.887 180.534 168.578 180.666 168.184 180.666C167.746 180.666 167.481 180.534 166.781 180.228C165.859 179.791 164.587 179.219 162.79 179.219C160.993 179.219 159.721 179.788 158.799 180.228C158.143 180.534 157.834 180.666 157.396 180.666C156.959 180.666 156.693 180.534 155.993 180.228C155.071 179.791 153.843 179.219 152.003 179.219C150.206 179.219 148.934 179.788 148.012 180.228C147.356 180.534 147.046 180.666 146.609 180.666C146.171 180.666 145.906 180.534 145.206 180.228C144.284 179.791 143.056 179.219 141.215 179.219C139.418 179.219 138.146 179.788 137.224 180.228C136.568 180.534 136.259 180.666 135.821 180.666V181.191C136.346 181.191 136.699 181.059 137.443 180.709C138.321 180.316 139.503 179.744 141.215 179.744C142.881 179.744 144.109 180.313 144.987 180.709C145.69 181.016 146.04 181.191 146.565 181.191C147.09 181.191 147.443 181.059 148.187 180.709C149.065 180.316 150.246 179.744 151.959 179.744C153.624 179.744 154.853 180.313 155.731 180.709C156.434 181.016 156.784 181.191 157.309 181.191C157.834 181.191 158.187 181.059 158.887 180.709C159.765 180.316 160.946 179.744 162.659 179.744C164.368 179.744 165.553 180.313 166.431 180.709C167.134 181.016 167.484 181.191 168.053 181.191C168.578 181.191 168.931 181.059 169.674 180.709C170.553 180.316 171.734 179.744 173.446 179.744C175.112 179.744 176.34 180.313 177.218 180.709C177.918 181.016 178.271 181.191 178.84 181.191C179.365 181.191 179.718 181.059 180.418 180.709C181.296 180.316 182.478 179.744 184.19 179.744C185.856 179.744 187.084 180.313 187.962 180.709C188.662 181.016 189.015 181.191 189.54 181.191C190.065 181.191 190.418 181.059 191.162 180.709C192.04 180.316 193.221 179.744 194.934 179.744" fill="white"/>
</g>
<mask id="mask13_192_21813" style="mask-type:luminance" maskUnits="userSpaceOnUse" x="138" y="100" width="38" height="84">
<path d="M138.5 100.95V183.516C157.134 168.3 169.194 145.238 173.709 115.816C174.5 110.684 175.025 105.687 175.331 100.95H138.5Z" fill="white"/>
</mask>
<g mask="url(#mask13_192_21813)">
<path d="M195.022 180.666C193.444 180.666 192.347 181.147 191.469 181.544C190.769 181.85 190.328 182.069 189.672 182.069C189.016 182.069 188.531 181.85 187.875 181.544C186.997 181.15 185.903 180.666 184.322 180.666C182.744 180.666 181.647 181.147 180.769 181.544C180.069 181.85 179.628 182.069 178.972 182.069C178.316 182.069 177.831 181.85 177.175 181.544C176.297 181.15 175.203 180.666 173.622 180.666C172.044 180.666 170.947 181.147 170.069 181.544C169.369 181.85 168.928 182.069 168.272 182.069C167.616 182.069 167.131 181.85 166.475 181.544C165.597 181.15 164.503 180.666 162.922 180.666C161.344 180.666 160.247 181.147 159.369 181.544C158.669 181.85 158.228 182.069 157.572 182.069C156.916 182.069 156.431 181.85 155.775 181.544C154.897 181.15 153.803 180.666 152.222 180.666C150.641 180.666 149.547 181.147 148.669 181.544C147.969 181.85 147.528 182.069 146.872 182.069C146.216 182.069 145.731 181.85 145.075 181.544C144.197 181.15 143.103 180.666 141.522 180.666C139.944 180.666 138.847 181.147 137.969 181.544C137.266 181.85 136.828 182.069 136.172 182.069V184.128C138.409 184.128 139.284 182.681 141.522 182.681C143.759 182.681 144.634 184.128 146.872 184.128C149.109 184.128 149.984 182.681 152.222 182.681C154.459 182.681 155.334 184.128 157.572 184.128C159.809 184.128 160.684 182.681 162.922 182.681C165.159 182.681 166.034 184.128 168.272 184.128C170.509 184.128 171.384 182.681 173.622 182.681C175.859 182.681 176.734 184.128 178.972 184.128C181.209 184.128 182.084 182.681 184.322 182.681C186.559 182.681 187.434 184.128 189.672 184.128C191.909 184.128 192.784 182.681 195.022 182.681" fill="white"/>
</g>
<path d="M154.375 105.903C153.628 105.466 153.894 104.544 154.375 104.15H154.462C154.944 104.544 155.209 105.422 154.462 105.903H154.375Z" fill="white"/>
<path d="M154.506 106.737C154.506 106.737 156.478 104.325 156.084 106.081C155.953 106.694 155.25 106.872 154.55 107.309L154.506 106.737Z" fill="white"/>
<path d="M157.357 106.869C157.313 107.878 155.56 108.141 154.507 108.884L154.463 108.316C155.604 107.394 157.4 105.247 157.357 106.869Z" fill="white"/>
<path d="M154.594 109.719C156.609 108.622 158.628 106.912 158.541 108.316C158.453 109.544 157.006 109.544 154.637 110.684L154.594 109.719Z" fill="white"/>
<path d="M154.594 111.781C157.881 109.984 159.769 108.669 159.812 110.072C159.9 111.737 157.138 111.737 154.594 112.747V111.781Z" fill="white"/>
<path d="M154.725 115.725C159.021 115.156 162.265 113.312 162.265 115.681C162.265 118.006 159.284 116.428 154.725 116.822V115.725Z" fill="white"/>
<path d="M154.725 124.584C158.278 126.688 163.89 128.138 159.987 128.269C157.531 128.356 157.181 126.209 154.725 126.031V124.584Z" fill="white"/>
<path d="M154.725 117.875C162.178 117.875 163.1 116.953 163.1 119.234C163.1 121.559 159.328 119.803 154.725 118.972V117.875Z" fill="white"/>
<path d="M154.725 122.303C161.084 124.891 164.065 124.1 163.187 126.425C162.178 129.1 157.575 123.969 154.725 123.663V122.303Z" fill="white"/>
<path d="M154.812 120.113C162.003 121.297 163.45 120.769 163.45 123.05C163.45 125.375 159.021 122.788 154.725 121.253L154.812 120.113Z" fill="white"/>
<path d="M154.594 113.666C158.234 112.438 160.997 110.947 161.041 112.656C161.084 114.541 159.112 113.578 154.772 114.716L154.594 113.666Z" fill="white"/>
<path d="M155.031 126.95C155.031 126.95 158.362 128.441 155.075 128.441L155.031 126.95Z" fill="white"/>
<path d="M154.331 106.737C154.331 106.737 152.359 104.325 152.753 106.081C152.884 106.694 153.588 106.872 154.288 107.309L154.331 106.737Z" fill="white"/>
<path d="M151.481 106.869C151.525 107.878 153.278 108.141 154.331 108.884L154.375 108.316C153.234 107.394 151.438 105.247 151.481 106.869Z" fill="white"/>
<path d="M154.244 109.719C152.228 108.622 150.209 106.912 150.297 108.316C150.384 109.544 151.831 109.544 154.2 110.684L154.244 109.719Z" fill="white"/>
<path d="M154.243 111.781C150.956 109.984 149.068 108.669 149.024 110.072C148.937 111.737 151.699 111.737 154.243 112.747V111.781Z" fill="white"/>
<path d="M154.109 115.725C149.812 115.156 146.568 113.312 146.568 115.681C146.568 118.006 149.55 116.428 154.109 116.822V115.725Z" fill="white"/>
<path d="M154.109 124.584C150.556 126.688 144.943 128.138 148.846 128.269C151.259 128.356 151.653 126.209 154.109 126.031V124.584Z" fill="white"/>
<path d="M154.109 117.875C146.656 117.875 145.734 116.953 145.734 119.234C145.734 121.559 149.506 119.803 154.109 118.972V117.875Z" fill="white"/>
<path d="M154.109 122.303C147.75 124.891 144.769 124.1 145.647 126.425C146.656 129.1 151.259 123.969 154.109 123.663V122.303Z" fill="white"/>
<path d="M154.022 120.113C146.832 121.297 145.385 120.769 145.385 123.05C145.385 125.375 149.813 122.788 154.11 121.253L154.022 120.113Z" fill="white"/>
<path d="M154.243 113.666C150.603 112.438 147.84 110.947 147.797 112.656C147.753 114.541 149.681 113.578 154.065 114.716L154.243 113.666Z" fill="white"/>
<path d="M153.803 126.95C153.803 126.95 150.471 128.441 153.715 128.441L153.803 126.95Z" fill="white"/>
<path d="M155.69 143.175L154.55 105.641H154.243L153.146 142.472C153.146 142.472 154.943 143.612 155.69 143.175Z" fill="white"/>
</svg>
