<svg width="250" height="250" viewBox="0 0 250 250" fill="none" xmlns="http://www.w3.org/2000/svg">
<rect width="250" height="250" fill="white"/>
<path d="M125.017 37H52.2442L52 95.1007C52 166.384 123.551 211.79 124.284 212.279L124.528 212.523C124.772 212.523 125.261 212.279 125.261 212.279C137.471 204.223 198.033 161.257 198.033 95.5889V37.2441C197.789 37 125.017 37 125.017 37ZM197.545 88.5094H53.4652V80.2093H197.545V88.5094Z" fill="#C41230"/>
<path d="M76.6643 44.0795C81.5483 42.1265 86.9208 43.5912 92.2932 43.103C93.7584 43.3471 95.712 42.3706 96.6889 43.8353C96.6889 45.3001 96.6889 46.7648 96.6889 48.4736C97.1773 49.6942 98.8867 48.9619 99.6193 49.4501C100.108 49.6942 100.596 49.9384 100.84 50.6707C101.084 51.4031 100.84 52.1354 100.596 52.8678C99.6193 53.8443 98.3983 53.6002 96.9331 53.8443L96.4447 54.3325C96.6889 57.262 95.9562 59.7032 96.4447 62.3885C96.4447 62.8767 96.2004 63.8532 96.9331 64.0974C98.3983 64.0974 99.6193 64.0974 100.596 65.0738C101.084 65.8062 101.084 66.5386 100.84 67.515C100.352 70.4445 95.712 67.0268 96.2005 70.4445C96.2005 71.6651 96.4447 73.3739 95.9562 74.5945C90.5838 74.5945 85.2113 74.1063 80.3273 74.5945C79.3505 75.3269 78.3737 75.8151 76.9085 76.0593C75.9316 75.8151 74.9548 75.3269 74.2222 74.5945C69.3382 74.3504 64.6983 74.3504 60.0585 74.3504C58.5933 73.1298 59.5701 70.9327 59.0817 69.2239C58.3491 68.2474 57.1281 68.9798 56.1512 68.4915C55.4186 68.4915 55.1744 67.7592 54.9302 67.2709C54.9302 66.2944 54.9302 65.318 55.6628 64.5856C56.3954 64.0974 57.6165 64.0974 58.5933 64.0974L59.0817 63.6091C58.8375 60.4355 59.5701 57.262 58.8375 53.8443C58.3491 53.1119 57.3723 53.8443 56.8839 53.356C56.1512 53.1119 55.1744 52.6237 54.9302 51.6472C54.686 50.9148 54.686 50.1825 55.4186 49.4501C56.3954 48.2295 58.3491 49.6942 59.3259 48.4736L59.8143 43.8353C60.5469 42.3706 62.2563 43.103 63.7215 43.103C66.1635 42.6147 69.094 43.103 71.536 43.103C73.4896 43.103 75.199 43.5912 76.6643 44.0795Z" fill="black"/>
<path d="M83.258 95.1007L83.0138 96.0772C83.0138 96.5654 82.5254 97.0537 82.037 96.8096L80.0834 96.5654C79.3508 96.3213 78.6182 96.0772 77.8856 96.3213C77.6414 96.5654 77.153 96.8096 76.6646 97.2978C76.9088 97.2978 76.9088 97.5419 76.9088 97.5419C77.3972 97.786 78.374 98.0302 78.6182 99.2508C78.6182 100.227 79.1066 100.96 79.595 101.448L79.8392 101.936C80.0834 102.18 80.0834 102.424 80.0834 102.668C80.0834 102.913 80.0834 102.913 79.8392 103.157L78.8624 104.377L78.374 104.866C78.374 104.866 77.8856 106.086 77.6414 106.574C77.8856 107.063 78.1298 107.307 78.374 107.307C79.3508 107.063 80.0834 107.307 80.816 107.307L82.2812 107.551H82.5254H83.0138C83.5022 107.551 84.479 107.307 85.2116 107.795C85.2116 107.795 85.9442 109.016 85.9442 109.26C86.1884 109.748 86.1884 109.992 86.1884 110.48C86.1884 110.969 86.1884 111.457 85.9442 111.945L85.7 112.677C85.7 112.922 85.7 113.166 85.4558 113.166C84.2348 115.119 82.5254 116.583 80.3276 117.56C80.5718 117.56 80.5718 117.56 80.5718 117.56C80.5718 117.56 80.5718 117.56 80.5718 117.804C80.816 118.048 81.5486 118.048 82.2812 117.804H82.7696C83.7464 117.804 84.479 117.56 85.4558 117.072L88.1421 116.339C88.6305 116.095 88.8747 116.583 89.1189 116.827C89.6073 117.804 90.3399 118.536 90.8283 119.025C90.8283 119.025 90.8283 119.025 91.3167 118.536C91.8051 118.048 92.7819 117.316 94.0029 117.804C94.0029 117.804 94.2471 117.804 94.2471 118.048C95.2239 118.78 95.4681 119.757 95.7123 120.489C95.9565 120.977 95.9565 121.71 96.445 121.954C96.6892 122.198 96.6891 122.442 96.6891 122.442V122.686C96.6891 123.663 95.7123 124.151 95.4681 124.151H95.2239L94.9797 124.395L92.7819 124.883C92.0493 124.883 91.3167 125.128 90.8283 125.372C90.8283 125.372 90.8283 125.616 91.0725 125.616C92.0493 126.104 93.5145 126.348 94.9797 126.592L95.7123 126.836H97.4218H100.352C100.841 126.836 100.841 127.081 101.085 127.325C101.329 127.569 101.085 128.057 100.841 128.301L100.352 129.033L100.108 129.278L95.4681 132.451C95.2239 132.451 92.7819 133.428 92.7819 133.428L89.1189 134.892H88.8747C86.6769 135.381 85.4558 134.16 84.2348 133.428C83.5022 132.695 82.7696 132.207 81.7928 132.207C81.0602 132.207 80.3276 132.451 79.8392 132.939C79.595 133.184 79.595 133.428 79.595 133.916C79.595 134.16 79.595 134.16 79.595 134.404H79.8392C80.3276 134.648 81.3044 134.892 81.3044 136.113C81.3044 137.822 80.5718 139.042 79.8392 140.263C79.3508 141.239 78.6182 142.46 78.6182 143.437V143.681C78.6182 143.925 78.6182 144.169 78.8624 144.169H79.1066H79.3508L79.595 143.681C79.8392 143.192 80.3276 142.46 81.3044 142.216H81.5486C83.5022 142.46 84.479 142.216 85.2116 141.484C85.4558 141.239 85.7 141.239 85.7 141.239C86.1884 141.239 86.9211 141.239 87.4095 141.728C87.8979 142.216 88.1421 142.704 88.1421 143.192C88.1421 143.192 88.1421 143.437 88.1421 143.681C89.3631 143.437 90.0957 142.46 91.0725 140.995L91.5609 140.263C91.8051 140.019 92.0493 139.775 92.2935 139.775L93.0261 139.531C94.0029 139.287 94.9797 138.798 96.2007 139.531C96.4449 139.775 96.6891 140.019 96.6891 140.263C96.6891 140.507 96.6891 140.751 96.6891 140.995C96.6891 141.972 96.2007 142.704 95.9565 143.437C95.9565 143.437 95.7123 143.925 95.7123 144.413C97.4218 143.925 98.887 142.46 100.108 140.751L100.841 139.775C101.085 139.287 101.573 138.066 103.038 138.066H103.283C104.015 138.31 104.259 138.066 104.992 136.845L106.457 135.381C106.701 135.136 106.701 135.136 107.19 135.136H107.678C107.922 135.136 108.167 135.136 108.411 135.381C108.655 135.625 108.655 135.625 108.655 135.869V137.334C108.899 137.334 109.632 136.845 110.12 136.845L112.074 135.625C112.318 135.381 112.562 135.381 113.051 135.625L120.377 137.578C121.842 138.066 122.086 139.042 122.086 140.019C122.086 140.263 122.086 140.751 122.086 140.751C122.086 140.995 122.086 141.239 122.086 141.484C122.086 141.728 122.086 141.728 122.33 141.972C122.575 142.216 122.575 142.46 122.575 142.704C122.575 142.948 122.575 142.948 122.575 143.192C122.33 143.925 121.598 144.657 119.644 144.657L115.981 144.901C113.051 144.901 110.12 144.901 107.922 146.854L105.969 148.807C105.725 149.051 105.48 149.051 105.236 149.051C103.771 149.051 102.794 149.784 101.573 150.516C100.596 151.248 99.3754 151.981 97.9102 152.225C96.9334 152.713 95.7123 152.713 94.7355 152.713C93.7587 152.713 93.2703 152.713 93.0261 152.957C94.0029 154.178 95.7123 154.666 97.4218 155.154C97.666 155.154 98.3986 155.398 98.3986 155.398C99.1312 155.398 100.352 155.398 100.841 156.619C100.841 156.619 100.841 156.863 100.841 157.107C100.841 158.084 101.085 158.572 101.573 158.572H101.817C102.062 158.328 103.038 157.84 104.259 158.572C104.504 158.816 105.969 160.281 105.969 160.281L107.922 162.234C108.167 162.478 108.167 162.966 107.922 163.21C107.19 164.675 105.48 164.431 104.504 164.431H103.771H102.794C101.329 164.675 99.1312 165.163 97.666 163.21L97.9102 163.454L95.7123 162.722C94.4913 161.746 93.5145 160.769 92.0493 160.769C90.5841 161.257 89.8515 161.746 89.8515 162.478L90.0957 162.966L90.8283 163.699C91.0725 163.943 91.0725 164.187 91.0725 164.187C91.0725 164.187 91.0725 164.187 91.0725 164.431C91.0725 164.675 90.8283 164.919 90.5841 165.163C89.3631 165.896 87.8979 167.116 87.8979 168.581C87.8979 168.825 87.8979 169.069 87.8979 169.069C87.8979 169.069 87.8979 169.069 87.8979 169.313C88.1421 169.313 88.3863 169.069 88.3863 169.069C88.8747 168.825 89.8515 168.581 90.8283 169.069C91.0725 169.313 91.3167 169.557 91.3167 169.802V171.022C91.3167 172.243 91.5609 172.731 91.8051 173.219C92.0493 173.219 92.2935 172.975 92.2935 172.975C93.0261 172.487 94.4913 171.999 95.9565 172.975C96.2007 172.975 96.6892 172.975 97.4218 172.487L98.887 171.755C99.1312 171.755 99.1312 171.755 99.1312 171.755C101.573 171.755 102.794 173.952 103.283 175.416C104.504 176.393 105.48 176.881 106.213 176.637V176.393C106.213 176.149 106.213 175.905 106.213 175.416C106.213 175.172 105.969 174.684 105.969 174.196C105.969 173.219 106.213 172.243 107.678 171.755C107.922 171.755 110.12 171.51 110.12 171.51H111.585H111.83C114.028 171.755 115.737 171.755 116.47 170.29C116.47 170.29 118.179 167.605 118.423 167.116C118.423 166.872 118.667 165.407 118.667 165.407C118.667 164.919 118.912 164.675 119.4 164.675C120.133 164.431 121.109 164.675 121.598 164.919C121.598 164.919 121.842 164.919 122.086 165.163C121.598 163.943 121.354 162.722 121.354 161.502C121.354 160.769 121.354 160.281 121.598 159.549C122.086 157.84 122.819 156.375 123.796 155.154C124.04 154.91 124.528 154.666 125.017 154.91L125.505 155.154C125.749 155.398 125.993 155.643 126.238 155.887L126.726 158.328C126.97 159.793 127.214 161.257 127.947 162.722C127.947 162.966 128.191 162.966 127.947 163.21L126.97 166.628L126.238 169.313C125.505 171.999 123.796 173.952 121.354 175.172V175.416C121.354 175.416 121.842 175.416 122.33 175.416C122.33 175.416 123.063 175.416 123.307 175.416C125.993 175.172 128.435 173.708 130.389 171.755C130.633 171.51 131.122 171.266 131.366 171.51C131.854 171.755 132.343 171.51 133.075 171.022C133.808 170.534 135.273 169.802 136.738 170.778C137.227 171.266 138.204 171.266 139.18 171.022C140.646 171.022 143.088 170.778 143.576 173.463V173.952V175.172C143.82 176.393 144.064 178.834 141.378 179.566C141.134 179.566 141.134 179.566 140.89 179.566L138.204 178.59C136.006 177.613 135.029 177.369 134.052 178.59C133.808 178.834 133.564 179.322 133.564 179.566C133.808 180.299 134.785 181.764 133.564 182.984C132.831 184.205 132.343 184.937 132.831 185.914C132.831 185.914 133.075 186.158 133.808 185.914C134.785 185.425 136.006 185.914 136.983 186.158L138.204 186.646C138.448 186.646 138.692 186.89 138.692 186.89L139.18 187.134C140.157 187.867 140.89 188.355 141.867 188.599V188.355L142.355 187.134C142.599 186.89 144.064 186.158 144.064 186.158C145.041 185.669 145.285 185.669 145.285 185.181C145.53 183.472 146.751 181.764 148.46 180.787C148.704 180.787 148.948 180.543 149.193 180.543C149.681 180.543 150.902 180.055 151.391 179.566V179.322L150.902 178.834C150.658 178.59 150.658 178.346 150.414 178.346C150.414 178.102 150.414 177.858 150.414 177.613C150.414 176.393 151.146 175.416 151.635 174.44C152.123 173.708 152.367 172.975 152.367 172.487C152.367 172.243 152.367 171.999 152.123 171.51C152.123 171.266 151.879 171.266 151.879 171.266L151.635 169.557C151.39 168.337 151.391 167.605 150.658 166.872L148.704 165.896L147.972 165.163C147.483 164.919 147.483 164.675 147.483 164.187C147.483 163.21 147.972 162.722 149.193 162.478H149.437C150.658 161.99 151.879 162.478 152.856 162.966C153.833 163.21 154.077 163.21 154.321 163.21C154.077 162.478 153.344 161.746 152.856 161.013C151.635 160.281 150.169 159.793 148.704 159.549C146.262 159.06 143.82 158.328 142.355 156.131C142.111 155.887 142.111 155.643 142.111 155.398C142.111 155.154 142.111 154.91 142.355 154.666L142.599 154.422C142.843 154.178 143.332 154.178 143.576 154.178C146.506 154.91 149.437 154.178 151.391 152.469C152.612 151.004 154.077 149.051 156.275 148.319C157.984 147.098 158.228 144.901 158.228 142.216C158.228 140.751 158.961 139.775 159.938 138.798L162.135 137.822C162.868 137.578 163.112 137.578 163.112 137.334C161.891 136.845 160.426 136.113 159.205 136.357C158.961 136.357 158.717 136.357 158.472 136.113C157.74 135.869 157.74 135.381 157.496 134.892V134.648C157.496 133.916 157.984 133.428 158.472 133.184L158.717 132.939L158.961 132.695L161.159 131.475C164.089 129.766 166.043 128.789 166.043 126.348V126.104C165.798 126.348 165.31 126.348 165.066 126.836L163.112 127.813C161.647 128.545 159.938 129.033 158.472 129.278C156.763 129.522 155.298 130.01 154.077 130.742C153.833 130.742 153.833 130.986 153.588 130.986C153.1 130.986 152.367 130.742 152.367 130.01C152.367 129.766 152.367 129.522 152.367 129.278C152.367 128.789 152.612 128.301 152.856 128.057C153.344 127.325 154.077 126.836 154.809 126.592C155.786 126.104 156.275 125.86 156.519 125.128L156.763 124.395C157.251 123.175 157.74 121.466 159.449 120.733C159.693 120.733 160.914 120.001 160.914 120.001C161.159 120.001 161.403 119.757 161.403 119.757C161.403 119.757 161.403 119.757 161.159 119.513C158.717 118.78 156.275 120.733 154.809 121.954L154.565 122.198L153.344 122.442C151.635 123.175 149.925 123.907 148.948 125.128C148.948 125.372 148.704 125.372 148.46 125.372C147.972 125.616 147.483 125.372 146.995 125.128C146.506 124.883 146.262 124.395 146.262 123.907C145.774 120.001 148.948 117.072 151.391 114.874L151.879 114.386L152.367 114.142L153.833 113.41C155.054 112.677 156.519 111.701 158.472 112.677C159.938 113.41 161.159 113.898 162.38 113.654C163.112 113.41 163.601 112.677 164.333 111.701C164.822 110.969 165.554 109.992 166.531 109.26C167.508 108.771 168.485 109.26 169.217 109.26C169.461 109.26 170.194 109.504 170.194 109.504L170.438 109.26V109.016C170.438 108.283 169.95 107.551 169.217 106.574L168.24 105.354C167.996 105.11 167.996 105.11 167.996 104.866C167.996 104.621 167.996 104.621 167.996 104.377C168.24 103.645 168.485 102.913 168.485 101.936C168.485 99.9831 167.752 98.2743 166.287 97.0537C165.798 96.8096 164.822 96.3213 163.845 96.3213C163.845 96.5654 164.089 96.8096 164.089 96.8096L165.066 98.7625C165.066 99.0066 165.066 99.2508 165.066 99.4949C165.066 103.889 161.403 105.842 158.228 107.307L155.542 108.771C149.437 111.945 141.378 116.827 140.89 124.883C140.89 129.033 142.599 132.939 146.018 136.357C146.018 136.357 146.018 136.601 146.262 136.601L147.483 138.31C148.704 140.263 150.169 142.216 150.169 144.901C150.169 145.39 150.169 146.122 149.925 146.854C148.948 149.295 146.018 149.295 145.041 149.295C138.936 148.807 135.762 142.704 133.32 138.31L132.831 137.578L132.343 136.601C131.61 135.136 130.877 133.672 130.877 131.963C130.877 131.719 130.877 131.231 131.122 131.231C131.366 130.986 132.099 130.254 133.32 130.986C133.564 130.986 134.541 132.695 134.541 132.695C134.785 132.939 134.785 133.184 134.785 133.428C134.785 133.184 135.029 132.939 135.029 132.451C135.029 131.475 134.541 130.254 134.052 129.033L133.808 128.789C133.564 128.301 132.831 127.569 132.099 127.081C131.122 126.348 130.145 125.372 129.656 124.151V123.907C129.656 123.907 129.656 123.907 129.656 123.663C129.656 122.198 130.877 121.954 131.366 121.71H131.61C131.122 120.245 130.877 118.536 130.877 116.827C130.877 116.095 130.877 115.119 131.122 114.386L132.587 112.922C133.075 112.677 133.075 112.677 133.075 112.433C132.587 110.724 132.587 108.771 132.587 107.063C132.587 106.33 132.587 105.598 132.587 104.866C132.587 104.621 133.075 103.157 133.075 103.157C133.32 102.424 133.564 101.936 133.564 101.448C133.564 101.204 133.564 101.204 133.564 100.96C132.587 100.471 132.343 99.2508 132.343 98.7625V98.2743C132.587 98.2743 132.587 98.2743 132.587 98.2743C130.145 98.2743 127.947 97.2978 125.993 96.3213L124.04 95.3448C123.551 95.1007 123.063 95.3448 122.33 95.8331L121.109 96.3213L119.888 96.5654C118.667 96.8096 117.446 97.0537 116.714 97.786C116.225 98.2743 116.225 99.0066 116.225 99.9831V100.715V100.96C115.981 101.692 115.493 101.936 115.249 101.936C114.516 102.18 114.028 101.936 113.539 101.692H113.295C111.341 100.715 110.609 98.7625 111.097 96.8096C111.097 96.5654 110.853 96.0772 110.853 96.0772C110.364 95.8331 109.388 95.589 108.655 95.8331C108.167 96.0772 107.678 96.5654 107.434 97.786C107.434 97.786 107.19 98.0302 107.19 98.2743V98.5184C107.19 99.2508 107.434 99.9831 107.678 100.227C108.411 100.96 109.632 101.692 111.097 102.424L114.272 104.133C114.516 104.377 114.516 104.377 114.516 104.621C114.516 104.866 114.76 105.354 114.76 105.598C114.76 106.818 114.272 107.551 113.783 108.283C114.028 108.527 114.76 109.016 114.76 109.992C114.76 110.236 114.76 110.236 114.76 110.48C114.76 110.969 114.272 111.213 114.028 111.213C112.074 111.701 110.364 111.213 108.899 110.236L107.922 109.016C107.678 108.527 107.434 108.283 107.19 108.283C107.19 108.283 106.946 108.771 106.946 109.016L106.457 109.992C106.457 109.748 106.457 110.724 106.457 110.724C106.457 111.457 106.213 112.433 105.48 113.166C105.236 113.41 104.992 113.41 104.748 113.41H103.771C99.8638 112.189 96.4449 110.236 92.5377 107.307C90.8283 106.086 89.6073 104.377 88.3863 102.668L87.4095 101.448L87.1653 101.204L86.9211 99.9831C86.1884 97.5419 85.7 96.0772 83.9906 95.589C83.5022 95.1007 83.258 95.1007 83.258 95.1007ZM113.295 109.016C113.539 108.771 113.539 108.771 113.539 108.527C113.539 108.527 113.295 108.771 113.295 109.016ZM132.099 121.954C132.343 121.954 132.343 121.954 132.099 121.954V121.954ZM109.143 138.31C109.143 138.066 109.143 138.066 109.143 138.31V138.31Z" fill="white"/>
<path d="M52.9766 95.1007C52.9766 78.0123 52.9766 59.215 52.9766 37H198.277C198.277 37 198.277 45.5442 198.277 95.3448C198.277 168.825 125.016 212.034 125.016 212.034C125.016 212.034 52.9766 166.872 52.9766 95.1007Z" stroke="black" stroke-width="1.0714"/>
<path d="M154.321 179.811C153.833 179.322 153.344 178.59 153.1 178.346C152.612 175.66 156.519 173.952 154.565 171.266C154.077 169.557 154.565 167.604 152.856 166.384C151.635 165.407 150.169 165.163 148.948 164.431C148.948 163.699 149.925 163.943 150.169 163.699C152.367 163.21 154.077 165.652 155.786 163.699C156.03 162.234 154.565 161.013 153.588 160.037C150.414 157.84 145.774 158.816 143.332 155.398L143.576 155.154C146.506 155.887 149.925 155.154 152.123 153.201C153.344 151.493 154.809 149.784 156.763 149.295C158.961 147.587 159.205 144.901 159.205 142.46C159.205 141.484 159.693 140.507 160.426 139.775C161.647 138.798 164.577 139.042 163.845 136.845C162.135 135.869 160.426 135.136 158.717 135.381C157.74 134.892 158.961 134.16 159.205 133.916C162.135 131.963 167.019 130.742 166.775 126.104C166.531 125.616 166.531 124.883 165.798 124.883C164.577 125.127 163.601 126.348 162.38 126.836C159.449 128.545 156.03 128.057 153.1 129.766C152.612 129.766 152.612 129.033 152.856 128.789C153.833 127.325 156.03 127.325 156.763 125.372C157.251 123.907 157.496 121.954 159.205 121.466C160.182 120.733 161.647 120.733 162.135 119.513C162.135 118.78 161.159 118.536 160.67 118.292C157.984 117.56 155.298 119.024 153.344 120.977C151.391 121.954 148.948 122.686 147.483 124.151C147.239 124.151 146.751 124.151 146.751 123.663C146.262 119.757 149.681 117.072 152.367 114.874C154.077 114.386 155.786 112.189 157.74 113.166C159.205 113.898 160.67 114.63 162.38 114.142C164.577 113.41 164.822 110.969 166.775 109.748C168.24 109.26 170.194 111.457 171.171 109.26C171.659 107.063 169.95 105.842 168.973 104.377C170.194 101.448 169.217 98.0301 166.775 95.833C165.554 95.1007 164.089 94.6124 162.868 95.1007C161.891 96.3213 163.845 97.2978 163.845 98.5184C164.333 103.889 158.472 105.11 154.809 107.551C148.216 110.969 140.157 116.095 139.669 124.639C139.669 129.278 141.867 133.672 145.041 136.845C146.751 139.775 149.437 142.46 148.46 146.366C147.727 147.831 146.018 148.075 144.553 148.075C138.936 147.587 135.762 141.239 133.32 136.845C132.587 135.136 131.61 133.428 131.366 131.475C131.61 131.231 131.854 131.231 132.343 131.475C133.32 132.451 133.32 134.648 135.029 134.404C136.494 132.451 135.517 130.01 134.541 128.057C133.564 126.348 131.366 125.372 130.389 123.419C130.389 121.954 132.343 122.93 132.587 121.466C131.854 119.024 131.61 116.339 132.099 114.142C132.587 113.166 134.052 113.166 134.052 111.945C133.32 109.504 133.32 107.307 133.564 104.621C133.808 103.157 135.029 101.448 134.296 99.9831C132.587 99.4948 134.052 97.2978 132.343 97.0536C129.168 97.0536 126.726 95.3448 124.04 94.3683C122.575 93.8801 121.598 94.8565 120.377 95.1007C118.667 95.5889 116.714 95.5889 115.493 96.8095C114.516 97.786 114.76 99.0066 114.76 100.471C114.516 101.204 113.783 100.471 113.295 100.471C112.074 99.739 111.586 98.2742 111.83 96.8095C112.074 96.0772 111.83 95.5889 111.097 95.1007C110.12 94.6124 108.899 94.1242 107.922 94.6124C106.701 95.1007 106.213 96.5654 105.725 97.786C105.725 98.7625 105.725 99.9831 106.213 100.715C108.167 102.668 110.853 103.401 112.807 105.11C113.295 106.33 112.318 107.307 111.586 108.283C111.586 109.26 113.051 109.26 112.807 110.236C111.341 110.724 109.876 110.236 108.655 109.26C107.922 108.527 107.678 107.063 106.457 107.063C105.236 107.063 105.236 108.527 104.748 109.26C104.259 110.236 104.748 111.457 103.771 112.189H103.038C99.1312 110.969 95.7123 108.771 92.2935 106.086C90.3399 104.621 88.8747 102.18 87.4095 100.227C86.6769 97.786 86.1885 94.6124 83.258 93.8801C82.5254 93.8801 81.7928 94.1242 81.5486 94.8566L81.3044 95.833C79.8392 95.833 78.374 94.8565 76.6646 95.3448C75.932 95.833 75.1993 96.3213 74.7109 97.0536C74.7109 98.7625 76.6646 98.0301 76.9088 99.4948C76.9088 100.715 77.8856 101.692 78.374 102.668C77.8856 103.401 77.153 103.645 76.9088 104.377L75.9319 106.818C76.4204 107.551 76.9088 108.527 77.6414 108.527C78.8624 108.039 80.0834 109.016 81.5486 108.771C82.5254 108.771 83.7464 108.039 83.9906 109.504C84.479 110.724 83.9906 111.701 83.9906 112.677C82.7696 114.386 81.0602 115.851 79.3508 116.583C78.8624 117.072 78.8624 117.804 78.8624 118.292C79.595 119.269 81.0602 118.78 82.037 118.78C83.9906 118.78 85.4558 117.56 87.4095 117.316C87.8979 118.292 88.6305 119.513 89.6073 120.001C91.0725 120.489 91.5609 118.292 93.0261 118.78C94.2471 119.757 94.0029 121.466 94.9797 122.686C94.9797 123.419 94.4913 123.419 94.0029 123.663C92.2935 124.151 90.0957 123.663 88.8747 124.883C88.6305 125.616 89.3631 126.348 89.8515 126.592C91.3167 127.325 93.0261 127.569 94.7355 127.813C96.2008 128.057 97.9102 127.325 99.3754 127.813L98.887 128.545L94.2471 131.719C92.0493 132.695 89.8515 132.939 87.8979 134.16C84.9674 134.892 83.7464 131.231 81.0602 131.475C79.8392 131.475 79.1066 131.963 78.374 132.451C77.6414 133.183 77.6414 134.16 77.8856 135.136C78.374 136.113 79.595 135.625 79.595 136.601C79.595 139.286 77.153 141.239 76.9088 143.925C76.9088 144.657 76.9088 145.39 77.8856 145.634C78.374 145.878 79.1066 145.634 79.595 145.39C80.0834 144.901 80.0834 143.925 81.0602 143.681C82.7696 143.925 84.479 143.925 85.4558 142.704C85.9442 142.704 86.6769 143.192 86.6769 143.681C86.6769 144.413 86.6769 145.145 87.4095 145.39C89.8515 145.39 90.8283 142.948 92.0493 141.239C93.0261 140.995 94.2471 140.263 95.2239 140.995C95.7123 142.704 94.2471 143.681 94.0029 145.39C94.0029 145.878 94.4913 146.122 94.9797 146.122C97.9102 145.634 99.3754 143.192 101.085 140.995C101.329 140.507 101.573 139.775 102.55 139.775C104.748 140.507 105.236 137.822 106.701 136.845H107.19C107.434 137.578 106.946 138.066 107.19 138.554C108.167 139.531 109.143 138.554 110.12 138.31L112.074 137.089C114.516 137.822 116.958 138.31 119.4 139.042C121.354 139.775 119.4 141.972 120.621 143.192C120.377 143.925 119.4 144.169 118.667 144.169C114.516 144.657 109.632 143.681 106.213 146.61L104.259 148.563C101.085 148.563 99.6196 151.248 96.6892 151.737C94.7355 152.957 91.8051 151.248 90.5841 153.445C91.5609 155.398 94.0029 156.131 95.9566 156.619C96.9334 157.107 98.1544 156.619 98.6428 157.596C98.6428 158.572 98.887 159.793 100.108 160.037C100.841 160.281 101.329 159.06 102.306 159.793C103.283 161.257 104.992 161.99 105.725 163.21C104.992 164.431 103.527 163.699 102.306 163.699H102.062C100.352 163.943 98.1544 164.675 96.9334 163.21C95.2239 161.99 93.7587 159.793 91.0725 159.793C89.6073 160.281 88.1421 160.769 87.8979 162.234C87.6537 163.21 88.6305 163.454 89.1189 164.187C87.4095 165.407 85.7 167.116 86.1885 169.313C86.4327 169.802 86.6769 170.29 87.1653 170.29C88.1421 170.29 88.6305 169.557 89.6073 170.046C89.8515 171.51 89.3631 173.707 91.0725 174.44C92.2935 174.196 93.2703 172.731 94.7355 173.952C96.2008 174.684 97.1776 173.219 98.6428 172.975C100.596 172.975 101.329 174.928 102.062 176.393C103.283 177.369 104.992 178.834 106.701 177.858C107.922 176.149 105.725 174.196 107.922 173.219C109.143 172.731 110.364 173.219 111.83 172.975C114.028 173.219 116.47 173.463 117.691 171.022L119.644 167.849L120.133 165.896C121.354 165.407 123.063 167.604 123.796 165.652C123.063 163.699 122.819 161.746 123.307 159.793C123.796 158.328 124.284 157.107 125.261 156.131L125.749 156.375C126.238 158.816 126.482 161.013 127.459 163.21C127.214 165.407 126.238 167.36 125.749 169.557C125.261 171.755 123.551 173.707 121.354 174.684C120.865 175.172 120.377 175.66 120.865 176.393C121.354 177.369 122.819 176.881 123.796 177.125C126.726 176.637 129.412 175.416 131.61 173.219C133.808 173.707 134.785 171.266 136.738 172.243C138.692 173.707 142.355 171.022 143.088 174.44C142.843 175.905 144.309 178.59 141.867 179.322C139.425 178.834 136.494 175.66 134.052 178.59C133.564 179.078 133.075 179.811 133.564 180.787C134.052 181.519 134.541 182.252 133.808 182.984C133.075 184.205 132.099 185.669 132.831 186.89C133.32 187.622 134.296 187.622 135.029 187.622C136.494 187.134 137.715 188.355 139.18 188.355C140.401 189.331 141.622 190.552 143.332 190.308C144.064 189.819 143.82 189.087 144.309 188.599C145.285 187.622 147.483 187.866 147.483 185.914C147.727 184.449 148.948 183.228 150.169 182.496C150.658 181.763 153.588 181.031 154.321 179.811Z" fill="black"/>
<path d="M154.321 179.811C153.833 179.322 153.344 178.59 153.1 178.346C152.612 175.66 156.519 174.196 154.565 171.266C154.077 169.557 154.565 167.604 152.856 166.384C151.635 165.407 150.169 165.163 148.948 164.431C148.948 163.699 149.925 163.943 150.169 163.699C152.367 163.21 154.077 165.652 155.786 163.699C156.03 162.234 154.565 161.013 153.588 160.037C150.414 157.84 145.774 158.816 143.332 155.398L143.576 155.154C146.506 155.887 149.925 155.154 152.123 153.201C153.344 151.493 154.809 149.784 156.763 149.295C158.961 147.587 159.205 144.901 159.205 142.46C159.205 141.484 159.693 140.507 160.426 139.775C161.647 138.798 164.577 139.042 163.845 136.845C162.135 135.869 160.426 135.136 158.717 135.381C157.984 134.892 158.961 134.16 159.205 133.916C162.135 131.963 167.019 130.742 166.775 126.104C166.531 125.616 166.531 124.883 165.798 124.883C164.577 125.127 163.601 126.348 162.38 126.836C159.449 128.545 156.03 128.057 153.1 129.766C152.612 129.766 152.612 129.033 152.856 128.789C153.833 127.325 156.03 127.325 156.763 125.372C157.251 123.907 157.496 121.954 159.205 121.466C160.182 120.733 161.647 120.733 162.135 119.513C162.135 118.78 161.159 118.536 160.67 118.292C157.984 117.56 155.298 119.024 153.344 120.977C151.391 121.954 148.948 122.686 147.483 124.151C147.239 124.151 146.751 124.151 146.751 123.663C146.262 119.757 149.681 117.072 152.367 114.874C154.077 114.386 155.786 112.189 157.74 113.166C159.205 113.898 160.67 114.63 162.38 114.142C164.577 113.41 165.066 110.969 166.775 109.748C168.24 109.26 170.194 111.457 171.171 109.26C171.659 107.063 169.95 105.842 168.973 104.377C170.194 101.448 169.217 98.0301 166.775 95.833C165.554 95.1007 164.089 94.6124 162.868 95.1007C161.891 96.3213 163.845 97.2978 163.845 98.5184C164.333 103.889 158.472 105.11 154.809 107.551C148.216 110.969 140.157 116.095 139.669 124.639C139.669 129.278 141.867 133.672 145.041 136.845C146.751 139.775 149.437 142.46 148.46 146.366C147.727 147.831 146.018 148.075 144.553 148.075C138.936 147.587 135.762 141.239 133.32 136.845C132.587 135.136 131.61 133.428 131.366 131.475C131.61 131.231 131.854 131.231 132.343 131.475C133.32 132.451 133.32 134.648 135.029 134.404C136.494 132.451 135.517 130.01 134.541 128.057C133.564 126.348 131.366 125.372 130.389 123.419C130.389 121.954 132.343 122.93 132.587 121.466C131.854 119.024 131.61 116.339 132.099 114.142C132.587 113.166 134.052 113.166 134.052 111.945C133.32 109.504 133.32 107.307 133.564 104.621C133.808 103.157 135.029 101.448 134.296 99.9831C132.587 99.4948 134.052 97.2978 132.343 97.0536C129.168 97.0536 126.726 95.3448 124.04 94.3683C122.575 93.8801 121.598 94.8565 120.377 95.1007C118.667 95.5889 116.714 95.5889 115.493 96.8095C114.516 97.786 114.76 99.0066 114.76 100.471C114.516 101.204 113.783 100.471 113.295 100.471C112.074 99.739 111.586 98.2742 111.83 96.8095C112.074 96.0772 111.83 95.5889 111.097 95.1007C110.12 94.6124 108.899 94.3683 107.922 94.6124C106.701 95.1007 106.213 96.5654 105.725 97.786C105.725 98.7625 105.725 99.9831 106.213 100.715C108.167 102.668 110.853 103.401 112.807 105.11C113.295 106.33 112.318 107.307 111.586 108.283C111.586 109.26 113.051 109.26 112.807 110.236C111.341 110.724 109.876 110.236 108.655 109.26C107.922 108.527 107.678 107.063 106.457 107.063C105.236 107.063 105.236 108.527 104.748 109.26C104.259 110.236 104.748 111.457 103.771 112.189H103.038C99.1312 110.969 95.7123 108.771 92.2935 106.086C90.3399 104.621 88.8747 102.18 87.4095 100.227C86.6769 97.786 86.1885 94.6124 83.258 93.8801C82.5254 93.8801 81.7928 94.1242 81.5486 94.8566L81.3044 95.833C79.8392 95.833 78.374 94.8565 76.6646 95.3448C75.932 95.833 75.1993 96.3213 74.7109 97.0536C74.7109 98.7625 76.6646 98.0301 76.9088 99.4948C76.9088 100.715 77.8856 101.692 78.374 102.668C77.8856 103.401 77.153 103.645 76.9088 104.377L75.9319 106.818C76.4204 107.551 76.9088 108.527 77.6414 108.527C78.8624 108.039 80.0834 109.016 81.5486 108.771C82.5254 108.771 83.7464 108.039 83.9906 109.504C84.479 110.724 83.9906 111.701 83.9906 112.677C82.7696 114.386 81.0602 115.851 79.3508 116.583C78.8624 117.072 78.8624 117.804 78.8624 118.292C79.595 119.269 81.0602 118.78 82.037 118.78C83.9906 118.78 85.4558 117.56 87.4095 117.316C87.8979 118.292 88.6305 119.513 89.6073 120.001C91.0725 120.489 91.5609 118.292 93.0261 118.78C94.2471 119.757 93.7587 121.466 94.9797 122.686C94.9797 123.419 94.4913 123.419 94.0029 123.663C92.2935 124.151 90.0957 123.663 88.8747 124.883C88.6305 125.616 89.3631 126.348 89.8515 126.592C91.3167 127.325 93.0261 127.569 94.7355 127.813C96.2008 128.057 97.9102 127.325 99.3754 127.813L98.887 128.545L94.2471 131.719C92.0493 132.695 89.8515 132.939 87.8979 134.16C84.9674 134.892 83.7464 131.231 81.0602 131.475C79.8392 131.475 79.1066 131.963 78.374 132.451C77.6414 133.183 77.6414 134.16 77.8856 135.136C78.374 136.113 79.595 135.625 79.595 136.601C79.595 139.286 77.153 141.239 76.9088 143.925C76.9088 144.657 76.9088 145.39 77.6414 145.634C78.1298 145.878 78.8624 145.634 79.3508 145.39C79.8392 144.901 79.8392 143.925 80.816 143.681C82.5254 143.925 84.2348 143.925 85.2116 142.704C85.7 142.704 86.4327 143.192 86.4327 143.681C86.4327 144.413 86.4327 145.145 87.1653 145.39C89.6073 145.39 90.5841 142.948 91.8051 141.239C92.7819 140.995 94.0029 140.263 94.9797 140.995C95.4681 142.704 94.0029 143.681 93.7587 145.39C93.7587 145.878 94.2471 146.122 94.7355 146.122C97.666 145.634 99.1312 143.192 100.841 140.995C101.085 140.507 101.329 139.775 102.306 139.775C104.504 140.507 104.992 137.822 106.457 136.845H106.946C107.19 137.578 106.701 138.066 106.946 138.554C107.922 139.531 108.899 138.554 109.876 138.31L111.83 137.089C114.272 137.822 116.714 138.31 119.156 139.042C121.109 139.775 119.156 141.972 120.377 143.192C120.133 143.925 119.156 144.169 118.423 144.169C114.272 144.657 109.388 143.681 105.969 146.61L104.015 148.563C100.841 148.563 99.3754 151.248 96.445 151.737C94.4913 152.957 91.5609 151.248 90.3399 153.445C91.3167 155.398 93.7587 156.131 95.7123 156.619C96.6892 157.107 97.9102 156.619 98.3986 157.596C98.3986 158.572 98.6428 159.793 99.8638 160.037C100.596 160.281 101.085 159.06 102.062 159.793C103.038 161.257 104.748 161.99 105.48 163.21C104.748 164.431 103.283 163.699 102.062 163.699H101.817C100.108 163.943 97.9102 164.675 96.6892 163.21C94.9797 161.99 93.5145 159.793 90.8283 159.793C89.3631 160.281 87.8979 160.769 87.6537 162.478C87.4095 163.454 88.3863 163.699 88.8747 164.431C87.1653 165.652 85.4558 167.36 85.9442 169.557C86.1885 170.046 86.4327 170.534 86.9211 170.534C87.8979 170.534 88.3863 169.802 89.3631 170.29C89.6073 171.755 89.1189 173.952 90.8283 174.684C92.0493 174.44 93.0261 172.975 94.4913 174.196C95.9565 174.928 97.1776 173.463 98.3986 173.219C100.352 173.219 101.085 175.172 101.817 176.637C103.038 177.613 104.748 179.078 106.457 178.102C107.678 176.393 105.48 174.44 107.678 173.463C108.899 172.975 110.12 173.463 111.586 173.219C113.783 173.463 116.225 173.707 117.446 171.266L119.4 168.093L119.888 166.14C121.109 165.652 122.819 167.849 123.551 165.896C122.819 163.943 122.575 161.99 123.063 160.037C123.551 158.572 124.04 157.351 125.017 156.375L125.505 156.619C125.993 159.06 126.238 161.257 127.214 163.454C126.97 165.652 125.993 167.604 125.505 169.802C125.017 171.999 123.307 173.952 121.109 174.928C120.621 175.416 120.133 175.905 120.621 176.637C121.109 177.613 122.575 177.125 123.551 177.369C126.482 176.881 129.168 175.66 131.366 173.463C133.564 173.952 134.541 171.51 136.494 172.487C138.448 173.952 142.111 171.266 142.843 174.684C142.599 176.149 144.064 178.834 141.622 179.566C139.18 179.078 136.25 175.905 133.808 178.834C133.32 179.322 132.831 180.055 133.32 181.031C133.808 181.763 134.296 182.496 133.564 183.228C132.831 184.449 131.854 185.914 132.587 187.134C133.075 187.866 134.052 187.866 134.785 187.866C136.25 187.378 137.471 188.599 138.936 188.599C140.157 189.575 141.378 190.796 143.088 190.552C143.82 190.064 143.576 189.331 144.064 188.843C145.041 187.866 147.239 188.111 147.239 186.158C147.483 184.693 148.704 183.472 149.925 182.74C150.658 181.763 153.588 181.031 154.321 179.811Z" stroke="black" stroke-width="0.2189"/>
<path d="M110.853 96.5654C110.608 97.786 110.608 99.0066 111.341 99.9831C113.295 102.18 116.469 102.913 117.69 105.354H116.958C114.516 103.889 112.318 101.936 109.876 100.96C108.899 100.227 108.166 99.2507 108.411 98.0301C108.655 97.2978 108.899 96.3213 109.876 96.0772C110.364 95.833 110.853 96.0772 110.853 96.5654Z" fill="white"/>
<path d="M131.122 98.7625C131.61 99.2508 131.122 100.471 132.343 100.715C132.587 100.715 132.831 100.96 132.831 101.204C132.831 102.18 132.587 103.157 132.343 104.133C132.098 104.866 131.122 105.11 131.122 106.33C131.122 106.818 131.854 107.063 132.098 107.795V111.701C129.656 112.433 130.877 115.363 130.633 116.827C130.389 118.048 130.633 119.269 130.633 120.489C130.145 120.733 128.924 120.733 128.68 121.466C128.68 122.93 129.412 124.151 129.901 125.128C130.877 126.348 132.587 126.592 132.587 128.301C131.366 128.301 130.145 127.569 129.168 127.081C127.459 126.104 126.238 124.151 125.017 122.442C124.772 122.198 124.284 122.198 124.04 122.442C123.796 123.663 123.796 125.128 122.819 125.86C121.598 125.128 121.598 121.954 119.644 122.93C118.911 127.081 116.225 130.254 113.783 133.672C113.295 133.916 113.051 134.648 112.318 134.648C113.539 131.475 114.516 127.813 113.295 124.151C113.051 123.419 112.318 123.663 111.83 123.907C111.341 124.395 110.853 125.128 110.12 124.883C109.388 123.907 110.853 122.198 109.143 121.466C107.922 121.71 106.946 122.93 105.969 123.419C103.038 125.128 99.6195 125.86 96.2006 125.86C95.468 125.86 94.9796 125.616 94.4912 125.372C95.2238 124.395 96.689 124.395 97.6658 123.663C101.573 121.222 104.259 116.827 107.434 113.654C107.19 112.189 105.969 110.48 107.19 109.26C108.167 109.26 108.655 110.48 109.388 110.724C110.853 111.457 112.562 111.945 114.027 111.213C115.248 110.969 116.225 109.748 116.469 108.527C116.469 108.039 116.225 107.551 115.737 107.551C115.248 107.551 115.004 107.551 114.76 107.063C114.76 106.33 115.248 105.842 115.737 105.842C117.446 105.842 118.911 109.26 120.132 106.574C120.865 104.377 118.667 102.668 117.202 101.204C116.714 100.715 116.469 100.227 116.714 99.4949C117.935 98.7625 116.469 97.786 117.446 96.8096C119.156 95.589 121.598 96.3213 123.307 95.1007C126.238 96.0772 128.435 98.2743 131.122 98.7625Z" fill="white"/>
<path d="M85.9443 98.0302C85.9443 98.5184 86.1885 99.0066 85.9443 99.2508C85.4559 99.739 84.9675 99.2508 84.7233 99.0066C84.2349 98.5184 83.9907 97.786 83.9907 97.2978C84.2349 95.3448 85.9443 97.2978 85.9443 98.0302Z" fill="white"/>
<path d="M84.4789 100.715C87.1651 101.936 88.8745 104.621 90.8281 106.818C94.9796 110.236 99.3752 113.166 104.259 114.63C104.503 115.363 103.771 116.095 103.282 116.583C101.573 118.292 100.352 120.245 98.6426 121.71C98.1542 121.71 97.91 121.71 97.6658 121.71C95.9564 120.001 96.2006 116.827 93.2702 116.583C92.2933 116.583 91.5607 117.804 90.5839 117.072C89.6071 116.339 90.8281 114.63 89.3629 114.142C87.6535 114.874 86.4325 116.583 84.4789 116.339C85.6999 114.142 87.8977 111.945 86.6767 109.26C86.4325 108.039 85.6999 106.574 84.4789 106.33C83.2579 106.33 82.7695 107.551 81.5484 107.063C81.06 106.086 78.8622 106.574 79.839 105.11C80.5716 103.889 83.2579 103.889 82.281 101.936C81.5484 100.96 79.5948 101.448 79.5948 99.9831C79.839 99.2507 79.1064 98.0301 79.5948 97.5419C81.7926 97.0536 83.2579 99.4949 84.4789 100.715Z" fill="white"/>
<path d="M167.996 101.936C168.24 103.401 166.775 104.377 167.263 105.842C167.752 106.574 168.973 106.818 168.729 107.551C165.066 107.551 164.333 112.433 160.914 112.189C159.449 111.945 158.228 110.236 156.518 110.969C151.879 113.166 146.75 116.339 145.529 121.954C145.041 124.151 145.041 126.348 146.75 128.057C147.239 128.301 147.727 128.301 147.971 128.057C148.948 126.348 149.681 124.151 151.879 123.663C153.1 123.175 154.565 122.686 155.786 121.954C156.03 121.954 156.274 121.71 156.274 122.198C155.786 123.907 155.053 125.86 153.1 126.348C151.879 127.569 150.413 128.789 150.413 130.498C150.413 131.231 150.169 132.451 150.902 133.183C151.634 133.672 152.367 132.939 152.855 132.695C155.297 129.766 158.96 129.278 162.624 129.033C162.868 129.278 162.379 130.01 161.891 130.01C158.716 130.986 155.786 133.672 154.809 136.845C154.809 137.334 155.297 137.822 155.542 137.822C157.007 137.578 158.228 136.601 159.937 136.845C160.426 137.822 158.716 137.822 158.228 138.798C155.297 141.484 158.228 147.098 153.344 148.075C151.879 148.563 152.123 150.272 151.146 151.004C149.437 153.201 146.75 153.69 144.308 153.445C142.355 153.69 140.889 151.004 139.18 152.713C139.424 154.666 140.889 155.643 141.866 157.351C144.308 159.549 147.483 159.793 150.658 160.769C151.146 160.769 151.39 161.257 151.634 161.501C151.634 162.234 150.658 161.99 150.169 161.99C148.216 162.234 146.018 162.478 144.064 161.746C143.82 161.746 143.576 161.99 143.332 162.234C143.576 164.431 146.018 165.163 147.483 166.14C148.948 166.872 150.902 166.628 151.39 168.337V170.534C152.123 171.51 152.367 172.975 152.123 174.196C150.902 175.66 149.925 177.613 150.902 179.811C150.413 180.299 149.437 179.811 148.948 180.299C148.216 181.763 146.506 182.008 146.018 183.228C146.018 184.449 145.285 185.425 144.064 185.669C143.087 185.669 142.355 186.158 141.622 185.914C141.134 185.181 141.866 184.205 140.889 183.716C139.668 183.472 139.18 185.425 137.715 184.693C136.982 184.205 136.494 183.961 136.005 183.472C136.005 182.496 136.738 182.252 137.226 182.008C140.401 181.519 144.553 181.031 145.529 177.613C145.774 175.905 145.041 174.684 145.285 173.219C144.797 171.51 143.087 170.29 141.134 170.046C139.424 169.557 137.471 170.29 136.25 169.069C135.761 168.581 135.273 168.337 134.54 168.581C134.052 168.581 133.808 169.313 133.319 169.069C132.831 168.581 132.098 167.849 131.61 168.581C130.389 170.778 128.679 173.219 125.993 173.708C125.505 172.975 126.482 172.243 126.726 171.51C127.458 169.802 128.191 167.604 128.679 165.652C129.412 164.675 130.389 163.21 129.656 161.746C128.435 158.572 127.214 154.91 128.191 151.248C128.924 146.854 127.703 142.704 124.528 139.775C122.819 138.798 121.109 136.845 118.911 136.601C117.446 136.113 115.492 136.601 114.516 135.381C114.76 133.916 116.225 132.939 116.958 131.719L119.4 127.813C120.376 127.569 120.132 129.033 121.109 129.033C123.063 129.033 123.063 125.616 125.016 126.836C125.993 128.057 127.458 128.545 128.435 129.766C129.656 135.136 131.854 140.507 135.517 144.657C138.447 148.319 142.843 151.004 147.239 149.784C148.46 148.807 150.169 147.587 150.413 145.878C151.634 137.334 140.645 132.939 141.378 124.395C142.11 116.339 150.413 111.945 157.007 108.771C160.67 106.818 165.066 104.377 165.554 99.739C165.554 99.2507 165.554 99.0066 165.798 98.5184C167.996 99.0066 167.752 100.715 167.996 101.936Z" fill="white"/>
<path d="M108.899 127.569C109.876 127.813 111.097 126.348 111.585 127.813C111.341 129.766 111.341 132.207 110.364 133.916C109.388 134.892 107.922 134.16 106.946 134.648C105.48 135.136 105.236 138.554 103.527 136.357C102.794 136.113 102.306 136.845 101.817 137.334C101.085 139.042 100.352 140.995 98.887 142.46C98.6428 142.704 98.1544 142.948 97.9102 142.46C97.6659 141.24 98.6428 139.042 96.9333 138.554C96.2007 138.554 95.4681 139.042 94.7355 139.287C93.2703 139.287 91.3167 139.287 90.5841 140.507C90.3399 141.24 90.3399 142.216 89.3631 142.216C88.3863 141.728 87.4094 141.484 86.921 140.507C86.4326 140.263 85.9442 139.775 85.4558 140.263C84.7232 140.995 84.479 142.46 83.258 142.46C82.2812 142.46 81.5486 142.216 80.5718 141.728C80.816 139.531 83.258 139.287 84.7232 138.31C87.6536 137.578 90.0957 135.625 93.0261 135.136C97.6659 133.428 101.573 129.766 105.236 126.104C105.725 125.86 106.457 125.616 106.946 125.616C107.922 126.348 107.922 127.325 108.899 127.569Z" fill="white"/>
<path d="M85.7001 136.357C84.7233 136.845 83.5023 137.334 82.5255 136.845C82.0371 136.357 82.2813 135.136 82.0371 134.404C82.2813 133.672 83.2581 133.916 83.7465 134.16C84.4791 134.892 85.7001 135.136 85.7001 136.357Z" fill="white"/>
<path d="M126.482 148.563C126.482 150.028 126.237 151.004 125.505 152.225C123.795 153.69 122.33 155.643 121.842 158.084C121.842 159.793 121.597 161.257 121.597 162.722C121.109 163.21 120.621 162.478 120.376 162.234C119.644 161.013 119.888 158.572 117.934 158.816C116.958 160.037 115.737 161.746 116.469 163.21C117.446 164.431 119.155 165.407 118.179 167.116C116.713 167.849 117.202 170.046 115.248 170.29C112.318 170.778 109.387 169.313 107.19 171.51C106.457 172.243 105.969 173.219 105.48 174.196C104.259 174.44 104.503 172.487 103.771 171.755C103.282 171.022 102.305 171.51 101.573 171.022C100.596 170.534 99.375 169.557 98.154 170.29C97.1772 170.778 95.9562 172.243 94.7352 171.266L93.0258 170.778C93.0258 170.29 93.5142 169.557 93.0258 168.825L89.8512 167.116C89.6069 166.872 89.8512 166.384 90.0954 166.14C92.7816 164.431 95.9562 166.384 99.1308 165.896C101.329 165.163 103.282 165.407 105.48 165.652C106.701 165.652 108.166 166.14 108.899 164.919C109.387 164.187 109.632 163.21 109.143 162.478C108.166 160.281 105.236 160.037 104.748 157.351C104.503 156.863 104.259 156.375 103.771 156.131C103.038 155.887 102.55 156.619 101.817 156.375C101.573 155.643 101.329 154.91 100.596 154.666C99.1308 154.666 97.4214 155.398 96.2004 154.422C96.4446 153.69 97.4214 153.934 97.9098 153.445C99.8635 152.957 101.573 151.737 103.526 150.76L106.213 150.272C108.899 145.878 114.516 146.122 119.4 145.878L124.039 144.413C125.749 145.39 126.237 147.342 126.482 148.563Z" fill="white"/>
<path d="M96.2006 163.943C95.2238 164.431 94.247 164.187 93.2702 163.943C92.7818 163.454 92.5376 162.478 92.5376 161.746C94.0028 161.257 95.468 162.722 96.2006 163.943Z" fill="white"/>
<path d="M138.692 179.322C138.692 179.811 138.203 179.811 137.959 179.811C137.471 179.811 137.471 179.566 137.471 179.322C137.471 178.59 138.448 179.078 138.692 179.322Z" fill="white"/>
<path d="M126.238 100.471C126.482 101.204 125.993 101.692 125.261 101.692C124.04 101.692 123.063 101.692 122.33 100.715C121.354 99.9831 121.842 99.0066 122.086 98.0301C122.575 97.5419 123.063 97.5419 123.551 97.786C124.528 98.5184 125.505 99.4949 126.238 100.471Z" fill="black"/>
<path d="M131.61 101.936C131.61 102.668 131.121 103.401 130.633 104.133C130.145 104.377 129.656 104.133 129.656 103.645C129.412 102.913 129.9 101.936 130.389 101.448C130.877 101.204 131.61 101.448 131.61 101.936Z" fill="black"/>
<path d="M125.505 108.771V110.48C123.795 112.189 123.795 115.119 121.353 116.095C120.621 116.095 120.132 115.851 120.132 115.119C120.132 114.142 119.888 112.677 120.132 111.701C121.109 111.213 121.353 113.166 122.33 112.189C122.819 110.724 124.04 109.504 124.772 108.283C125.017 108.283 125.505 108.527 125.505 108.771Z" fill="black"/>
<path d="M52.9766 79.2328H198.033V89.2418H52.9766V79.2328Z" fill="black"/>
<path d="M52.9766 79.2328H198.033V89.2418H52.9766V79.2328Z" stroke="black" stroke-width="0.2189"/>
<path d="M160.914 80.9417H177.276V87.533H160.914V80.9417Z" fill="white"/>
<path d="M125.017 80.9417H141.378V87.533H125.017V80.9417Z" fill="white"/>
<path d="M88.8745 80.9417H105.48V87.533H88.8745V80.9417Z" fill="white"/>
<path d="M54.686 80.9417H69.5824V87.533H54.686V80.9417Z" fill="white"/>
<path d="M191.439 43.3471C192.66 44.8119 191.928 47.0089 192.172 48.7178C193.393 49.6943 196.323 48.7178 196.568 51.159C196.812 52.1355 196.079 52.8678 195.591 53.3561C194.614 54.3326 193.149 53.3561 192.416 54.3326C192.172 57.262 192.416 60.4356 192.416 63.8533C193.393 64.3415 194.37 64.3415 195.347 64.8297C195.835 65.318 196.323 66.0503 196.323 66.7827C196.323 67.5151 195.835 68.2474 194.858 68.4915C194.126 68.9798 192.66 68.4915 192.416 69.468C191.928 70.9328 192.416 72.8857 192.172 74.5946C191.195 75.0828 189.73 75.0828 188.509 75.0828H176.787C175.81 75.571 174.589 76.7916 173.124 76.0593C170.682 74.5946 167.263 75.0828 164.577 74.8387H156.03C154.565 73.374 155.542 71.1769 155.053 69.468C154.565 68.4915 152.855 68.9798 151.879 68.4915C150.902 68.0033 150.902 67.0268 150.902 66.2945C150.902 65.318 151.879 64.8297 152.855 64.5856C153.588 64.0974 154.809 64.8297 155.053 63.8533C155.053 60.9238 154.809 57.7502 155.053 55.0649C154.809 53.3561 152.611 54.3326 151.634 53.6002C150.658 53.112 150.658 51.8913 150.902 50.9149C151.634 49.206 153.588 49.6943 155.053 49.206L155.297 48.7178L155.542 43.5912L155.786 43.103L169.217 43.3471C170.682 43.3471 172.147 44.0795 173.613 44.5677C176.543 42.3706 180.694 43.5912 184.113 42.8589C186.555 43.3471 188.997 42.8589 191.439 43.3471Z" fill="black"/>
<path d="M191.439 43.3471C192.66 44.8119 191.928 47.0089 192.172 48.7178C193.393 49.6943 196.323 48.7178 196.568 51.159C196.812 52.1355 196.079 52.8678 195.591 53.3561C194.614 54.3326 193.149 53.3561 192.416 54.3326C192.172 57.262 192.416 60.4356 192.416 63.8533C193.393 64.3415 194.37 64.3415 195.347 64.8297C195.835 65.318 196.323 66.0503 196.323 66.7827C196.323 67.5151 195.835 68.2474 194.858 68.4915C194.126 68.9798 192.66 68.4915 192.416 69.468C191.928 70.9328 192.416 72.8857 192.172 74.5946C191.195 75.0828 189.73 75.0828 188.509 75.0828H176.787C175.81 75.571 174.589 76.7916 173.124 76.0593C170.682 74.5946 167.263 75.0828 164.577 74.8387H156.03C154.565 73.374 155.542 71.1769 155.053 69.468C154.565 68.4915 152.855 68.9798 151.879 68.4915C150.902 68.0033 150.902 67.0268 150.902 66.2945C150.902 65.318 151.879 64.8297 152.855 64.5856C153.588 64.0974 154.809 64.8297 155.053 63.8533C155.053 60.9238 154.809 57.7502 155.053 55.0649C154.809 53.3561 152.611 54.3326 151.634 53.6002C150.658 53.112 150.658 51.8913 150.902 50.9149C151.634 49.206 153.588 49.6943 155.053 49.206L155.297 48.7178L155.542 43.5912L155.786 43.103L169.217 43.3471C170.682 43.3471 172.147 44.0795 173.613 44.5677C176.543 42.3706 180.694 43.5912 184.113 42.8589C186.555 43.3471 188.997 42.8589 191.439 43.3471Z" stroke="black" stroke-width="0.2231"/>
<path d="M143.087 43.103C143.576 43.103 144.308 43.5913 144.797 43.8354C145.285 45.7884 144.797 47.2531 145.285 48.9619C146.506 49.4502 148.46 48.9619 149.192 50.6708C149.437 51.4031 149.437 52.6237 148.948 53.112C147.971 54.3326 145.774 53.112 145.041 54.5767C144.797 57.9944 144.797 60.6797 145.041 63.8533C146.018 64.8298 147.727 64.0974 148.704 65.318C149.192 65.8062 149.437 66.5386 149.192 67.271C148.46 68.4916 146.75 68.4916 145.285 68.7357C144.797 69.2239 145.285 70.2004 145.041 70.6886C144.553 71.9093 145.774 73.6181 144.308 74.3505C140.157 74.8387 136.494 74.1063 132.342 74.3505H128.435C127.458 75.0828 125.993 76.0593 124.772 75.3269L122.33 74.3505C119.4 74.3505 116.714 74.3505 113.783 74.3505C111.829 74.3505 109.143 75.0828 107.678 73.374C107.678 71.9093 107.922 70.2004 107.678 68.7357C106.213 68.2474 103.771 68.9798 103.038 67.0268C102.794 66.5386 103.038 65.5621 103.282 65.0739C104.259 63.6092 106.945 64.8298 107.922 63.6092V59.215C108.166 57.262 107.922 55.5532 107.922 53.6002C106.457 53.112 103.771 53.8443 103.527 51.6472C103.282 50.4266 104.015 49.4502 104.992 49.206C105.969 48.9619 107.434 49.4502 107.922 48.4737L108.166 43.8354C109.387 41.8824 112.318 43.103 114.027 42.8589H123.063C124.528 43.103 125.749 44.3236 127.214 43.5913C131.61 41.8824 137.715 43.5913 143.087 43.103Z" fill="black"/>
<path d="M143.087 43.103C143.576 43.103 144.308 43.5913 144.797 43.8354C145.285 45.7884 144.797 47.2531 145.285 48.9619C146.506 49.4502 148.46 48.9619 149.192 50.6708C149.437 51.4031 149.437 52.6237 148.948 53.112C147.971 54.3326 145.774 53.112 145.041 54.5767C144.797 57.9944 144.797 60.6797 145.041 63.8533C146.018 64.8298 147.727 64.0974 148.704 65.318C149.192 65.8062 149.437 66.5386 149.192 67.271C148.46 68.4916 146.75 68.4916 145.285 68.7357C144.797 69.2239 145.285 70.2004 145.041 70.6886C144.553 71.9093 145.774 73.6181 144.308 74.3505C140.157 74.8387 136.494 74.1063 132.342 74.3505H128.435C127.458 75.0828 125.993 76.0593 124.772 75.3269L122.33 74.3505C119.4 74.3505 116.713 74.3505 113.783 74.3505C111.829 74.3505 109.143 75.0828 107.678 73.374C107.678 71.9093 107.922 70.2004 107.678 68.7357C106.213 68.2474 103.771 68.9798 103.038 67.0268C102.794 66.5386 103.038 65.5621 103.282 65.0739C104.259 63.6092 106.945 64.8298 107.922 63.6092V59.215C108.166 57.262 107.922 55.5532 107.922 53.6002C106.457 53.112 103.771 53.8443 103.527 51.6472C103.282 50.4266 104.015 49.4502 104.992 49.206C105.969 48.9619 107.434 49.4502 107.922 48.4737L108.166 43.8354C109.387 41.8824 112.318 43.103 114.027 42.8589H123.063C124.528 43.103 125.749 44.3236 127.214 43.5913C131.61 41.8824 137.715 43.5913 143.087 43.103ZM76.6643 44.0795C81.5483 42.1265 86.9208 43.5913 92.2932 43.103C93.7584 43.3471 95.712 42.3707 96.6888 43.8354C96.6888 45.3001 96.6888 46.7648 96.6888 48.4737C97.1773 49.6943 98.8867 48.9619 99.6193 49.4502C100.108 49.6943 100.596 49.9384 100.84 50.6708C101.084 51.4031 100.84 52.1355 100.596 52.8678C99.6193 53.8443 98.3983 53.6002 97.1773 53.8443L96.6888 54.3326C96.9331 57.262 96.2004 59.7032 96.6888 62.3885C96.6888 62.8768 96.4446 63.8533 97.1773 64.0974C98.6425 64.0974 99.8635 64.0974 100.84 65.0739C101.329 65.8062 101.329 66.5386 101.084 67.5151C100.596 70.4445 95.9562 67.0268 96.4447 70.4445C96.4447 71.6651 96.6889 73.374 96.2004 74.5946C90.828 74.5946 85.4555 74.1063 80.5715 74.5946C79.5947 75.3269 78.6179 75.8152 77.1527 76.0593C76.1758 75.8152 75.199 75.3269 74.4664 74.5946C69.5824 74.3505 64.9425 74.3505 60.3027 74.3505C58.8375 73.1299 59.8143 70.9328 59.3259 69.2239C58.5933 68.2474 57.3723 68.9798 56.3954 68.4916C55.6628 68.4916 55.4186 67.7592 55.1744 67.271C55.1744 66.2945 55.1744 65.318 55.907 64.5856C56.6396 64.0974 57.8607 64.0974 58.8375 64.0974L59.3259 63.6092C59.0817 60.4356 59.8143 57.262 59.0817 53.8443C58.5933 53.112 57.6165 53.8443 57.1281 53.3561C56.1512 53.112 55.1744 52.6237 54.9302 51.6472C54.686 50.9149 54.686 50.1825 55.4186 49.4502C56.3954 48.2296 58.3491 49.6943 59.3259 48.4737L59.8143 43.8354C60.5469 42.3707 62.2563 43.103 63.7215 43.103C66.1635 42.6148 69.094 43.103 71.536 43.103C73.4896 43.103 75.199 43.5913 76.6643 44.0795Z" stroke="black" stroke-width="0.2231"/>
<path d="M75.9319 45.3001L76.4203 46.2766C76.6645 52.8678 76.6645 59.4591 76.6645 66.5386L76.4203 68.9798C74.7109 68.9798 73.0014 68.2474 71.292 68.4915C69.3384 68.2474 67.3848 68.7357 65.6754 68.2474C64.6986 66.0503 65.4312 63.6091 65.187 61.1679C65.187 56.2855 65.4312 50.1825 65.4312 45.056C65.4312 44.5677 65.9196 44.5677 66.1638 44.3236C69.5826 44.5677 73.2456 43.5912 75.9319 45.3001Z" fill="white"/>
<path d="M62.989 44.8118C62.0122 45.5442 60.7912 46.7648 61.2796 47.9854C61.768 56.2855 61.2796 63.6091 61.768 71.421L62.5006 72.1534C66.4079 72.1534 70.5593 71.6651 74.2223 72.3975C74.4666 72.3975 74.4666 72.8857 74.2223 72.8857C73.2455 73.374 72.0245 73.1298 71.0477 73.1298L61.0354 72.8857C60.3028 72.3975 60.547 71.1769 60.547 70.2004C60.547 69.2239 60.7912 68.0033 59.8144 67.5151C58.3492 67.2709 57.1282 67.5151 56.1514 66.5386C56.884 64.5856 60.0586 66.0503 60.547 64.0974C60.7912 60.4356 60.3028 56.7738 60.547 53.3561C60.0586 51.4031 58.105 51.8913 56.6398 51.6472C56.3956 51.4031 56.1514 51.159 56.1514 50.6707C57.3724 49.4501 59.8144 50.9149 60.547 49.206C61.0354 47.7413 60.547 46.2766 60.7912 44.5677C61.2796 44.3236 62.2564 44.3236 62.989 44.3236V44.8118Z" fill="white"/>
<path d="M90.5839 44.8119C90.5839 52.8679 90.5839 60.4356 90.5839 68.0033C86.6767 68.4916 82.281 67.7592 78.3738 68.7357C77.397 68.0033 78.1296 66.7827 77.8854 65.5621C77.6412 63.1209 77.8854 60.1915 77.8854 57.5062C77.8854 53.6002 77.6412 49.4502 77.8854 45.5443C78.3738 44.3236 79.839 44.0795 81.06 44.0795H90.3397L90.5839 44.8119Z" fill="white"/>
<path d="M95.2237 44.8118C95.4679 46.2766 94.7353 48.4737 95.7121 49.9384C96.6889 50.4266 98.1541 50.1825 99.1309 50.4266C99.6193 50.9149 99.3751 51.4031 99.1309 51.8913C98.1541 52.8678 95.7121 51.6472 95.2237 53.3561C95.2237 57.262 94.9795 60.9238 95.2237 64.8297L95.7121 65.318C96.9331 65.5621 98.6425 65.0739 99.3751 66.0503C99.3751 66.5386 99.3751 67.2709 98.8867 67.5151C97.6657 67.7592 95.7121 67.0268 94.9795 68.4915C94.7353 69.9563 95.2237 71.6651 94.7353 73.1298L94.0027 73.374L80.0831 73.1298C79.8389 72.8857 80.0831 72.6416 80.0831 72.6416L81.5484 72.1534H92.7817C94.0027 71.9092 94.0027 70.4445 94.0027 69.468C94.0027 63.8533 94.0027 59.215 94.0027 53.8443C94.0027 51.159 94.4911 48.7178 93.7585 46.0325C93.7585 45.5442 92.7817 45.056 92.7817 44.3236C93.7585 44.3236 94.7353 44.3236 95.2237 44.8118Z" fill="white"/>
<path d="M158.472 44.8119C158.228 45.5442 157.251 46.2766 157.007 47.009C157.007 55.0649 157.007 63.8533 157.251 72.1534L157.984 72.6416C162.38 72.6416 167.02 71.6651 170.683 73.6181C170.927 73.6181 170.683 73.6181 170.683 73.8622C166.043 73.8622 161.159 74.1063 156.519 73.8622L156.03 73.374C155.786 71.6651 156.275 69.9563 155.542 68.2475C154.565 67.271 151.391 68.4916 152.123 66.2945C153.344 65.318 155.054 66.5386 155.786 65.0739C155.786 60.9238 156.03 57.262 155.786 53.3561C154.809 52.1355 153.344 52.8679 152.123 52.6237C151.635 52.1355 151.391 51.6473 151.879 51.159C153.1 50.1825 157.007 51.4031 156.275 48.4737C156.763 47.2531 155.786 44.8119 157.496 44.5678C157.74 44.3236 158.228 44.3236 158.472 44.8119Z" fill="white"/>
<path d="M190.707 44.8119C191.195 46.7649 190.218 48.4737 191.439 50.1825C192.416 50.6708 194.37 49.9384 194.858 51.159C194.858 53.6002 191.439 51.6473 190.707 53.6002C190.951 57.262 190.463 60.4356 190.707 64.3415C190.218 64.5856 190.218 65.0739 190.463 65.318C191.439 66.2945 192.905 64.8298 194.126 65.8063C194.858 66.0504 194.37 66.5386 194.37 67.0269C193.393 68.2475 191.439 66.7827 190.707 68.4916L190.463 73.374L189.73 73.6181H176.543C176.299 73.374 176.543 73.374 176.543 73.1299L178.008 72.6416H188.021C188.509 72.6416 189.242 72.1534 189.242 71.421C189.242 63.6092 188.997 55.5532 188.997 47.2531L187.776 44.8119C188.997 44.3236 190.463 44.0795 190.707 44.8119Z" fill="white"/>
<path d="M159.937 47.9854C159.937 54.8208 159.937 62.1444 159.937 69.2239C159.693 69.7121 158.961 70.2004 158.716 70.4445L158.228 70.2004C158.228 68.0033 158.228 65.318 158.228 63.1209V61.412C158.228 56.7737 158.228 51.6472 158.228 47.0089C158.716 46.5207 158.961 45.7883 159.449 45.5442C159.937 46.5207 159.937 47.0089 159.937 47.9854Z" fill="white"/>
<path d="M188.753 47.0089C188.509 52.6237 188.753 57.7502 188.753 62.8768C188.753 65.318 188.753 67.515 188.753 69.7121C188.753 69.9563 188.753 69.9563 188.509 70.2004C186.8 69.468 187.532 67.7592 187.288 66.0503C187.288 64.0974 187.044 61.6562 187.532 59.4591L187.288 58.7267V45.7883C187.777 45.056 188.509 46.2766 188.753 47.0089Z" fill="white"/>
<path d="M93.2701 46.5207C93.2701 54.5767 93.2701 62.3885 93.0259 69.468C92.7817 69.9563 92.5375 69.468 92.0491 69.2239C91.5607 68.0033 92.0491 66.5386 92.0491 65.318C91.8049 58.9709 92.0491 52.3796 92.0491 46.0325C92.5375 45.5442 93.0259 46.2766 93.2701 46.5207Z" fill="white"/>
<path d="M174.345 56.5296C174.101 57.0179 173.368 57.0179 172.88 56.7738L172.392 56.5296C172.636 55.5532 172.392 54.0884 173.368 53.3561C174.101 54.0884 173.857 55.5532 174.345 56.5296Z" fill="white"/>
<path d="M92.2933 70.6886C92.0491 71.1769 91.0723 70.9327 90.5839 71.1769H87.4093C84.9672 71.1769 82.281 70.9327 80.0832 71.421C79.5948 71.421 79.3506 70.9327 79.3506 70.4445C79.5948 69.468 80.8158 69.9563 81.5484 69.468C84.4788 69.468 88.1419 69.468 91.0723 69.468C91.3165 69.7121 91.8049 70.2004 92.2933 70.6886Z" fill="white"/>
<path d="M75.6878 70.2004C75.6878 70.6886 75.1994 71.1769 74.711 71.421C71.5364 70.4445 68.1176 71.1769 64.6987 70.6886C64.9429 70.2004 65.4313 69.7122 66.1639 69.7122C69.3386 69.7122 72.7574 69.7122 75.6878 70.2004Z" fill="white"/>
<path d="M172.148 70.6887C172.392 70.9328 172.392 71.421 172.148 71.421C170.927 72.8857 169.461 71.1769 167.996 71.421C165.554 71.1769 162.624 71.421 159.938 71.1769C160.67 68.9798 163.601 70.2004 165.31 69.9563C167.752 70.2004 170.194 69.468 172.148 70.6887Z" fill="white"/>
<path d="M186.8 70.2004C187.288 70.4445 187.777 70.9328 187.777 71.421C183.625 71.9092 179.718 70.9328 176.055 71.9092C175.567 71.9092 175.322 71.1769 175.567 70.6886C176.299 69.7122 177.52 69.9563 178.741 69.7122L186.8 70.2004Z" fill="white"/>
<path d="M78.8623 72.1534C79.1065 72.8857 78.8623 73.8622 78.3739 74.3504C77.8855 74.8387 77.1528 74.8387 76.6644 74.5946C76.176 74.5946 75.9318 73.8622 75.9318 73.374C75.6876 72.3975 76.9086 71.9092 77.397 71.1769C78.1297 71.1769 78.6181 71.6651 78.8623 72.1534Z" fill="white"/>
<path d="M175.078 72.6416C175.078 73.6181 175.078 74.8387 174.101 74.8387C173.369 74.8387 172.636 74.5945 172.392 73.8622C172.148 72.8857 172.88 71.9092 173.369 71.6651C174.345 71.6651 174.834 72.1533 175.078 72.6416Z" fill="white"/>
<path d="M139.18 45.056C139.18 52.6237 139.18 60.6797 139.18 68.2474L138.692 68.4915C134.54 68.9798 130.389 67.7592 126.482 69.2239C125.749 68.7357 126.482 67.7592 126.237 67.0268C126.237 60.4356 126.237 53.6002 126.237 46.5207C126.237 45.7883 126.726 45.3001 127.214 45.056C128.191 44.3236 129.656 44.5677 131.121 44.3236L138.936 44.5677L139.18 45.056Z" fill="white"/>
<path d="M143.82 44.8119C143.82 46.5207 143.82 48.2296 144.064 49.9384C145.285 50.9149 148.704 49.4502 147.971 52.1355C146.995 52.8679 145.529 52.3796 144.308 52.6237L143.82 52.8679C143.332 56.7738 144.064 60.9238 143.82 64.3415C143.82 64.8298 144.064 65.318 144.797 65.5621C145.774 65.5621 147.483 64.8298 147.971 66.2945C147.727 68.7357 144.797 66.5386 143.82 68.2475C143.576 69.9563 144.308 71.6652 143.576 73.374L143.087 73.6181C137.959 73.6181 133.075 73.6181 128.435 73.374C128.191 73.374 128.435 72.8858 128.435 72.8858L129.412 72.3975C133.319 71.9093 137.715 72.3975 141.866 71.9093C142.355 71.9093 142.843 71.421 142.843 70.6887C142.843 63.1209 142.843 55.5532 142.843 47.009C142.599 45.7884 141.378 45.056 141.378 44.0795C142.111 44.3236 143.332 44.0795 143.82 44.8119Z" fill="white"/>
<path d="M111.097 44.5678C110.853 45.5442 110.12 45.7884 109.632 46.5207C109.143 47.9854 109.632 49.6943 109.388 51.4031C109.388 58.2385 109.388 64.5856 109.388 71.1769C109.388 71.6651 109.876 72.1534 110.364 72.3975L120.865 72.6416C121.354 72.6416 122.086 72.8857 122.575 73.374C122.33 73.8622 121.598 73.8622 121.109 73.8622C117.202 73.8622 113.051 74.1063 109.143 73.6181L108.655 73.374C108.655 71.6651 108.655 69.7122 107.922 68.2474C106.701 67.7592 105.236 68.2474 104.015 67.7592C103.527 67.5151 103.527 66.7827 104.015 66.2945C105.236 65.5621 107.678 66.7827 108.411 64.8298C108.411 60.9238 108.655 57.262 108.411 53.3561C107.434 51.8914 104.992 53.3561 104.015 51.8914C104.504 49.6943 107.434 51.6473 108.411 49.6943L108.655 45.056C109.632 44.3236 110.364 44.3236 111.097 44.5678Z" fill="white"/>
<path d="M112.562 45.7884C112.807 52.6237 112.074 58.7267 112.562 65.5621C112.074 67.0268 113.295 69.468 111.097 69.7122C110.609 62.8768 111.097 55.5532 110.853 48.2296C110.609 47.009 111.341 46.0325 112.318 45.3001L112.562 45.7884Z" fill="white"/>
<path d="M141.867 47.0089C141.867 54.5767 142.111 62.6326 141.622 69.7121C141.134 69.7121 140.646 69.2239 140.646 68.9798C140.646 66.0503 140.157 62.8768 140.401 59.7032C140.646 55.5531 140.157 50.4266 140.646 46.0324C141.134 45.7883 141.867 46.5207 141.867 47.0089Z" fill="white"/>
<path d="M123.795 70.2004C124.284 70.2004 124.772 70.6886 124.284 71.1769L123.551 71.9092C120.132 70.6886 115.737 71.421 112.074 70.9327C112.318 70.4445 112.562 69.9563 113.051 69.468C116.714 69.9563 120.377 69.468 123.795 70.2004Z" fill="white"/>
<path d="M139.424 69.7121C139.913 69.9563 140.401 70.4445 140.401 70.9327L139.913 71.1769C135.761 71.1769 131.61 70.6886 127.703 71.6651C127.214 71.6651 126.482 71.6651 126.237 70.9327C126.726 69.9563 127.703 69.7121 128.679 69.7121C132.587 69.468 136.005 69.7121 139.424 69.7121Z" fill="white"/>
<path d="M126.726 73.1298C126.726 73.8622 126.726 74.8387 125.749 74.8387C125.016 74.8387 124.04 74.8387 124.04 73.8622C124.284 73.1298 124.772 72.6416 125.505 72.1533C126.237 71.9092 126.482 72.6416 126.726 73.1298Z" fill="white"/>
<path d="M124.772 60.6797C125.261 56.7738 124.772 52.3796 125.017 48.4737C125.017 47.2531 125.017 46.0325 124.284 45.056C121.353 43.8354 117.69 44.5677 114.272 44.3236C114.027 44.3236 113.783 44.3236 113.783 44.5677C113.783 52.3796 113.783 59.7032 113.783 67.2709L114.027 68.2474C116.469 68.7357 118.667 68.4915 121.109 68.4915C122.33 68.7357 123.551 68.9798 124.772 69.2239C124.772 66.5386 125.017 64.5856 124.772 61.9003V60.6797Z" fill="white"/>
<path d="M123.796 60.4356C122.575 59.4591 122.33 57.9944 121.354 56.7738C121.842 56.2855 122.33 56.0414 122.819 55.5532C123.551 54.8208 124.284 53.6002 124.04 52.6237C124.04 51.6472 123.551 50.6708 122.575 50.1825C120.621 49.4502 117.935 49.6943 115.737 49.9384C115.249 50.1825 115.249 50.4266 115.493 50.9149C116.225 50.9149 116.714 51.4031 116.714 52.1355C116.714 54.8208 116.714 57.5061 116.225 60.1915L115.249 61.4121C116.225 62.3885 117.691 61.6562 119.4 61.9003C119.888 61.1679 118.667 60.6797 118.423 59.9473C118.667 59.215 118.423 57.9944 118.912 57.5061C120.377 58.7267 120.865 60.9238 122.575 62.1444L124.772 62.3885V61.1679C124.772 60.9238 124.04 60.4356 123.796 60.4356ZM120.865 55.5532C120.133 55.5532 119.156 56.0414 118.912 55.0649C118.912 53.8443 118.423 52.1355 118.912 50.9149C119.888 50.1825 121.109 50.4266 121.842 51.4031C122.33 52.1355 122.33 52.8678 122.33 53.8443C121.842 54.5767 121.598 55.309 120.865 55.5532Z" fill="black"/>
<path d="M186.311 47.2531C186.311 46.2766 186.311 45.3001 185.823 44.5677H182.16C179.718 45.056 176.787 44.0795 174.59 45.5442C173.613 46.7648 174.101 47.9854 173.857 49.4501C174.101 50.1825 174.345 51.159 174.59 51.8913L174.101 52.8678L172.88 52.3796L172.392 51.4031C172.636 50.9149 172.88 50.4266 172.88 49.6943C172.88 47.9854 173.369 45.5442 171.171 44.8118C167.996 44.5677 165.066 44.3236 161.647 44.3236C161.403 44.3236 161.158 44.3236 161.158 44.5677C161.158 52.1355 161.158 58.7267 161.158 66.0503C161.158 67.0268 160.914 68.0033 161.891 68.4915C164.822 68.0033 167.264 68.4915 169.95 68.4915C170.927 68.4915 171.659 69.468 172.88 69.2239C173.124 66.2945 173.124 62.6327 173.124 59.215C173.124 58.9708 173.124 58.2385 172.636 58.2385V57.5061L174.345 57.7502L174.59 58.2385C174.59 58.2385 174.59 58.2385 174.345 58.4826L174.101 68.4915C174.101 68.7357 174.101 69.468 174.834 69.468C177.764 67.7592 181.671 68.9798 185.09 68.4915L185.823 68.2474C186.311 66.5386 186.067 60.6797 186.067 60.6797C186.311 56.2855 186.311 51.8913 186.311 47.2531Z" fill="white"/>
<path d="M174.834 58.2385C175.322 58.7267 175.567 59.4591 175.322 60.1915L174.59 61.1679L175.078 61.6562C176.299 61.6562 177.764 61.9003 178.985 61.4121C178.741 60.9238 178.009 60.6797 177.52 60.1915C176.055 56.5297 175.078 52.8678 174.101 48.9619L172.88 49.6943C172.148 53.112 170.927 56.0414 169.95 59.4591C169.706 60.1915 168.973 60.1915 168.485 60.6797C167.752 60.9238 167.508 60.1915 167.264 59.7032C167.264 56.7738 167.508 54.3326 167.264 51.159C167.264 50.6708 167.752 50.1825 168.241 50.6708C168.973 51.159 168.973 52.1355 169.217 52.6237C169.706 52.8678 170.194 52.8678 170.194 52.3796L170.683 49.4502C170.194 48.4737 169.462 49.4502 168.729 49.4502C167.264 49.4502 165.31 49.6943 163.845 48.9619C162.624 49.4502 162.868 50.9149 162.868 52.1355C162.868 52.3796 162.868 52.6237 162.868 52.6237C163.845 51.8914 164.333 50.4266 165.554 50.6708V53.6002V59.9473C165.066 60.4356 164.089 60.6797 164.333 61.4121C166.043 61.9003 167.996 61.4121 169.706 61.6562C170.683 61.6562 171.659 61.9003 172.636 61.6562C172.88 61.4121 172.636 61.1679 172.636 60.9238C172.148 60.6797 171.415 60.1915 171.659 59.4591C171.904 58.9709 172.148 57.9944 172.88 58.2385C173.125 58.2385 173.125 58.2385 173.369 58.4826L174.834 58.7267C174.59 58.4826 174.59 58.2385 174.834 58.2385ZM172.636 57.0179L172.148 56.7738C172.392 55.7973 172.148 54.3326 173.125 53.6002C174.101 54.0884 173.857 55.5532 174.346 56.5297C174.101 57.0179 173.125 57.0179 172.636 57.0179Z" fill="black"/>
<path d="M183.869 50.1825C183.869 50.9149 184.358 52.1355 183.869 52.6237C183.137 52.1355 183.137 51.4031 181.916 51.159C181.427 51.159 180.695 51.159 180.695 51.8913C180.451 54.0884 182.648 54.0884 183.869 55.309C185.09 56.5296 185.579 58.2385 185.09 59.7032C184.602 60.9238 184.114 61.412 182.893 61.412C181.916 61.6562 181.183 60.9238 180.451 61.412C180.206 61.412 179.962 61.6562 179.718 61.412V57.5061C179.718 57.262 179.962 57.262 180.206 57.262C180.695 58.4826 180.451 59.9473 182.16 60.1914C182.648 60.1914 183.137 59.9473 183.381 59.215C183.625 55.7973 178.985 56.5296 178.985 52.8678C178.985 52.1355 179.23 51.4031 179.474 50.6707C180.206 49.4501 182.16 50.1825 183.381 49.4501C183.625 49.206 183.625 49.9384 183.869 50.1825Z" fill="black"/>
<path d="M134.54 49.9384C133.564 50.4266 132.587 51.159 132.831 52.6237C132.587 55.0649 132.587 57.5061 132.831 59.9473L134.296 61.412V61.6562C132.587 61.6562 131.121 61.9003 129.412 61.6562C128.679 60.9238 130.389 60.4356 130.633 59.9473C130.877 57.262 131.121 54.3326 130.877 51.4031C130.389 50.4266 128.924 50.6707 129.168 49.6943C130.633 49.4501 132.587 49.4501 134.052 49.6943L134.54 49.9384Z" fill="black"/>
<path d="M86.6766 51.8914C85.6998 53.112 85.4556 50.9149 84.4788 50.6708C83.9904 50.6708 83.0136 50.4266 82.5252 50.9149C82.281 52.1355 82.0368 53.3561 82.5252 54.5767C83.0136 54.8208 83.7462 54.8208 84.2346 54.8208C84.723 54.3326 85.2114 53.3561 85.944 53.3561C86.4324 53.8443 85.6998 54.5767 85.944 55.0649C85.6998 55.7973 86.4324 56.7738 85.4556 57.0179C84.9672 56.7738 84.4788 55.5532 83.7462 55.5532H82.281C81.7926 57.262 82.0368 58.9709 82.281 60.6797C83.0136 61.4121 83.9904 60.6797 84.9672 60.6797C86.1882 60.4356 85.944 58.7267 86.9208 58.7267C87.165 59.4591 87.4092 60.4356 87.165 61.1679L86.6766 61.6562H79.5947C79.3505 61.6562 78.6179 61.6562 78.8621 61.1679C81.06 59.7032 79.8389 57.0179 80.0832 55.0649C79.8389 53.6002 81.06 51.159 78.8621 50.1825C78.8621 49.6943 79.3505 49.6943 79.5947 49.6943C81.3042 49.6943 83.7462 50.4266 85.2114 48.9619C86.6766 49.4502 86.6766 50.9149 86.6766 51.8914Z" fill="black"/>
<path d="M75.9317 50.4266C73.9781 51.8913 73.9781 54.8208 73.0013 57.0179C72.2687 58.2385 72.5129 60.1914 71.2919 61.1679C70.8035 61.412 70.3151 60.9238 70.3151 60.4356C69.5824 57.5061 68.8498 54.3325 67.6288 51.4031C67.6288 50.6707 65.431 50.4266 66.652 49.6942C68.1172 49.4501 69.094 49.9384 70.5593 49.6942C70.8035 50.6707 69.5824 51.159 69.8267 52.1355C70.8035 53.3561 70.3151 55.309 71.5361 56.7737L72.0245 56.2855C72.0245 54.0884 74.7107 51.8913 72.5129 49.9384C73.0013 48.9619 74.4665 49.6942 75.4433 49.4501C75.6875 49.6942 76.4201 49.9384 75.9317 50.4266Z" fill="black"/>
<path d="M63.9659 45.7883C64.4543 53.8443 63.9659 61.412 63.9659 68.9798C63.9659 69.468 63.4775 69.9563 62.9891 69.9563C62.5007 67.5151 62.5007 65.0739 62.7449 62.6326C62.5007 57.5061 62.7449 52.1355 62.7449 47.0089C62.7449 46.2766 63.4775 45.7883 63.9659 45.7883Z" fill="white"/>
</svg>
