<svg width="250" height="250" viewBox="0 0 250 250" fill="none" xmlns="http://www.w3.org/2000/svg">
<rect width="250" height="250" fill="white"/>
<path d="M139.418 70.3758C138.939 69.6832 138.118 68 136.288 68C134.419 68 133.641 69.7296 133.162 70.3758H133.165L57.7383 183H71.7147L143.679 76.5476L139.418 70.3758Z" fill="#00ADEF"/>
<path d="M103.571 86.9539C103.087 86.2613 102.271 84.582 100.444 84.582C98.5717 84.582 97.7939 86.3077 97.3141 86.9539H97.318L33 182.997H46.9803L107.754 93.2457L103.571 86.9539Z" fill="#00ADEF"/>
<path d="M103.553 86.9591C103.069 86.2703 102.257 84.5871 100.431 84.5871C98.5577 84.5871 97.78 86.3167 97.3001 86.9591L93.0747 93.2895L153.724 182.999H167.701L103.553 86.9591Z" fill="#D9058D"/>
<path d="M178.441 183H192.425L124.594 83.2336L117.269 94.1145L178.441 183Z" fill="#D9058D"/>
<path d="M139.402 70.3797C138.919 69.6871 138.102 68.0039 136.276 68.0039C134.407 68.0039 133.629 69.7335 133.145 70.3797L128.928 76.7063L203.159 183H217.14L139.402 70.3797Z" fill="#D9058D"/>
<path d="M155.804 94.1401L148.387 83.3946L141.193 94.2678L148.615 104.901L155.804 94.1401Z" fill="#21236A"/>
<path d="M168.081 111.925L160.664 101.18L153.586 112.014L161.008 122.644L168.081 111.925Z" fill="#21236A"/>
<path d="M139.402 70.3795C138.919 69.6869 138.102 68.0037 136.276 68.0037C136.044 68.0037 135.827 68.0308 135.626 68.0772C134.229 68.4216 133.583 69.8107 133.161 70.3757H133.165L129.346 76.0792L128.928 76.7061L136.369 87.3625L143.67 76.5629L139.402 70.3795Z" fill="#21236A"/>
<path d="M124.595 83.235L117.271 94.112L124.603 104.768L131.901 93.9765L124.595 83.235Z" fill="#21236A"/>
<path d="M136.835 122.541L144.013 111.792L136.704 101.047L129.518 111.908L136.835 122.541Z" fill="#21236A"/>
<path d="M149.212 140.526L156.27 129.827L148.968 119.081L141.899 129.9L149.212 140.526Z" fill="#21236A"/>
<path d="M103.557 86.9589C103.073 86.2701 102.257 84.5869 100.431 84.5869C100.194 84.5869 99.9817 84.614 99.7805 84.6604C98.3797 85.0048 97.7335 86.3901 97.3156 86.955L93.0747 93.2893L100.396 104.112L107.752 93.2467L107.697 93.1616L103.557 86.9589Z" fill="#21236A"/>
<path d="M119.999 111.579L112.794 100.791L105.508 111.672L112.72 122.344L119.999 111.579Z" fill="#21236A"/>
<path d="M132.077 129.663L124.891 118.902L117.717 129.74L124.914 140.385L132.077 129.663Z" fill="#21236A"/>
<path d="M144.302 147.966L137.12 137.212L130.07 148.008L137.256 158.641L144.302 147.966Z" fill="#21236A"/>
</svg>
