<svg width="250" height="250" viewBox="0 0 250 250" fill="none" xmlns="http://www.w3.org/2000/svg">
<rect width="250" height="250" fill="#004B8D"/>
<path d="M208.972 189.386C203.508 128.961 171.413 76.2325 124.528 43H124.514C77.6289 76.2325 45.5341 128.961 40.0702 189.386H40C95.0598 214.865 156.763 213.447 209 189.456L208.972 189.386Z" fill="white"/>
<path d="M186.189 176.197C182.72 137.782 155.808 91.0229 124.542 68.8585C94.2309 90.3346 66.0268 138.554 62.5996 176.38C96.6468 192.139 154.361 190.805 186.189 176.197Z" fill="#FFCF01"/>
<path d="M63.2317 176.029C70.2828 133.484 92.6719 96.1215 124.528 69.7995V47.284C79.6795 79.0698 49.0033 129.495 43.7642 187.279L63.2317 176.029Z" fill="#8B9DC7"/>
<path d="M63.26 176C103.628 191.156 147.184 190.454 185.909 176.029L205.39 187.293C155.443 210.244 96.4363 211.593 43.7783 187.237L63.26 176Z" fill="#004B8D"/>
<path d="M185.838 176.029C178.773 133.484 156.384 96.1075 124.542 69.7995V47.284C169.39 79.0698 200.067 129.495 205.292 187.279L185.838 176.029Z" fill="#4B6EA7"/>
<path d="M94.1045 169.329H154.993V177.489H94.1045V169.329Z" fill="#004B8D"/>
<path d="M125.834 98.9728C127.464 98.9728 128.812 98.9728 128.812 98.9728C128.812 98.9728 129.444 95.2085 126.509 94.1691C125.891 90.8262 126.087 84.9691 125.68 82.2442C125.553 80.9519 125.048 79.7861 124.5 79.7721C123.966 79.8002 123.447 80.966 123.334 82.2442C122.913 84.9691 123.124 90.8122 122.491 94.1691C119.57 95.2085 120.188 98.9728 120.188 98.9728C120.188 98.9728 121.536 98.9728 123.166 98.9728H125.834Z" fill="#004B8D"/>
<path d="M120.455 133.217H110.173C110.805 132.163 111.016 130.899 112.266 130.281C113.109 129.86 114.991 130.07 114.991 130.07C115.412 125.239 114.148 124.817 119.387 125.028C119.387 118.946 119.387 111.811 119.387 111.811C114.148 109.704 115.398 103.411 119.809 102.569C120.02 102.358 120.019 101.108 120.23 101.108H122.73H126.214H128.714C128.925 101.108 128.925 102.372 129.135 102.569C133.546 103.411 134.796 109.704 129.557 111.811C129.557 111.811 129.557 118.946 129.557 125.028C134.796 124.817 133.546 125.239 133.953 130.07C133.953 130.07 135.849 129.86 136.692 130.281C137.942 130.913 138.153 132.163 138.785 133.217H128.517H120.455Z" fill="#004B8D"/>
<path d="M108.122 135.113H117.14C113.994 140.577 110.426 153.794 110.426 161.772C108.951 162.193 107.912 164.708 108.333 166.393H98.0516C98.0516 163.879 97.2088 162.193 94.9053 161.351C98.6836 144.552 102.041 139.72 108.122 135.113Z" fill="#004B8D"/>
<path d="M140.877 135.113H131.86C135.006 140.577 138.574 153.794 138.574 161.772C140.035 162.193 141.088 164.708 140.681 166.393H150.962C150.962 163.879 151.805 162.193 154.123 161.351C150.316 144.552 146.959 139.72 140.877 135.113Z" fill="#004B8D"/>
<path d="M126.017 166.379H131.972C131.972 163.092 133.84 161.758 135.526 161.547C135.947 155.887 135.105 146.223 129.444 135.099H126.523H122.365H119.472C113.797 146.223 112.968 155.873 113.376 161.547C115.047 161.758 116.929 163.092 116.929 166.379H122.871H126.017Z" fill="#004B8D"/>
</svg>
