<svg width="250" height="250" viewBox="0 0 250 250" fill="none" xmlns="http://www.w3.org/2000/svg">
<rect width="250" height="250" fill="white"/>
<path d="M137.132 62V99.498C137.132 114.192 141.548 125.694 150.601 134.266V124.47C146.954 117.55 145.15 109.807 145.362 101.987V94.7204H156.945V132.861C156.945 136.534 156.804 138.481 156.744 139.304C155.218 160.101 144.921 174.193 125.429 182.343C105.917 174.313 95.6391 160.121 94.1135 139.365C107.342 130.372 113.746 117.283 113.746 99.5984V94.7204H130.748V86.2894H85.5419V131.114C85.5419 131.235 85.5419 131.355 85.5419 131.476C88.8724 129.167 91.7109 126.219 93.8927 122.804V94.7003H105.475V101.967C105.475 114.915 101.661 125.253 93.8927 132.74C91.4907 135.09 88.7912 137.114 85.8631 138.762C84.0807 139.779 82.2371 140.684 80.3428 141.472C63.4807 134.386 55.2705 121.017 55.2705 101.987V70.4511H105.455V79.946H113.726V62H47V99.498C47 122.463 57.7998 137.719 80.3829 146.31C82.5509 145.507 84.5984 144.604 86.5657 143.661C90.0585 164.196 102.785 178.428 125.449 187C148.092 178.428 160.839 164.196 164.332 143.6C166.339 144.544 168.347 145.447 170.515 146.25C193.078 137.719 203.898 122.463 203.898 99.498V62H137.132ZM195.547 101.987C195.547 121.017 187.317 134.386 170.434 141.432C168.534 140.642 166.684 139.737 164.894 138.722C165.135 136.273 165.255 133.744 165.255 131.114V86.2894H145.362V70.4511H195.547V101.987Z" fill="#231F20"/>
</svg>
