<svg width="250" height="250" viewBox="0 0 250 250" fill="none" xmlns="http://www.w3.org/2000/svg">
<rect width="250" height="250" fill="#600091"/>
<path d="M136.6 126.053H103.347V136.107H136.6V126.053Z" fill="white"/>
<path d="M111.853 120.64C87.88 106.72 90.2 85.84 100.253 71.1467V69.6C99.48 65.7333 95.6133 57.2267 94.0667 54.9067C93.2933 54.1333 93.2933 54.1333 93.2933 54.9067C93.2933 58.7733 88.6533 68.8267 81.6933 80.4267C73.96 93.5733 73.96 120.64 111.853 120.64Z" fill="white"/>
<path d="M118.04 119.867C104.12 89.7067 131.96 69.6 136.6 65.7333C137.373 64.96 137.373 64.96 137.373 64.1867C137.373 54.9067 131.96 39.44 130.413 37.12H129.64C127.32 46.4 114.173 60.32 111.853 63.4133C89.4267 88.9333 94.84 105.173 118.04 119.867Z" fill="white"/>
<path d="M122.68 118.32C129.64 85.84 155.933 85.0667 158.253 78.88C162.12 69.6 155.16 52.5867 153.613 50.2667H152.84C148.973 58 143.56 65.7333 138.92 68.8267C133.507 74.24 110.307 91.2533 122.68 118.32Z" fill="white"/>
<path d="M127.32 121.413C169.853 122.96 172.947 84.2933 172.947 69.6C172.947 68.8267 172.173 68.8267 172.173 69.6C170.627 72.6933 165.213 83.52 149.747 89.7067C136.6 95.8933 128.093 109.04 127.32 121.413Z" fill="white"/>
<path d="M117.267 204.933C117.267 206.48 121.133 207.253 121.907 204.933L129.64 140.747H110.307L117.267 204.933Z" fill="white"/>
</svg>
