<svg width="250" height="250" viewBox="0 0 250 250" fill="none" xmlns="http://www.w3.org/2000/svg">
<rect width="250" height="250" fill="white"/>
<g clip-path="url(#clip0_192_21798)">
<g clip-path="url(#clip1_192_21798)">
<path fill-rule="evenodd" clip-rule="evenodd" d="M106.76 88.8419C106.29 89.2048 107.311 89.6984 107.224 89.6742C107.258 91.1403 107.05 92.65 107.544 93.4C107.853 93.8597 108.826 94.2032 108.995 93.7629C109.155 93.3129 109.89 92.3984 110.06 92.2435C110.365 91.9677 110.094 91.7161 109.837 91.9871C109.305 92.5629 109.005 92.2968 108.613 91.9193C108.424 91.7016 108.352 89.6451 108.487 89.5822C108.487 89.5822 109.469 89.4371 109.702 89.4371C109.885 89.4371 109.866 88.8661 109.677 88.8661C109.382 88.8661 108.511 88.871 108.463 88.7355C108.352 88.45 108.637 87.0661 108.685 86.4419C108.724 86.0016 108.492 85.8613 108.376 86.2726C108.25 86.6742 107.311 88.4306 106.76 88.8419ZM109.344 83.5968C109.915 83.5387 110.829 83.8919 111.845 83.8097C113.05 83.7177 113.998 81.8161 113.476 80.3355C112.992 78.9322 111.448 79.179 110.413 78.8355C109.46 78.5742 109.063 77.9693 110.103 77.2726C111.327 76.4645 112.847 77.7564 112.992 78.0274C113.219 78.4387 113.403 78.429 113.403 77.8968C113.437 76.7355 113.331 77.3935 113.219 76.3C113.181 75.9081 112.9 75.8742 112.871 76.2468C112.847 76.629 112.387 76.5177 112.044 76.5177C111.69 76.5081 110.669 76.3484 109.789 76.8419C109.227 77.1758 107.945 78.1968 108.661 79.4258C109.082 80.1371 111.55 80.7177 112.16 81.129C112.779 81.5403 112.915 82.5903 112.329 83.0742C111.594 83.6693 109.6 83.171 109.295 82.8081C108.94 82.4397 108.714 81.9659 108.652 81.4581C108.565 80.9161 108.119 80.9645 108.119 81.4581C108.119 81.9468 108.235 83.6306 108.323 84.0226C108.4 84.4387 108.806 84.2984 108.845 83.9935C108.889 83.6984 109.077 83.6113 109.344 83.5968ZM112.16 85.2081C111.903 85.7281 111.466 86.1372 110.931 86.3597C111.329 86.7263 111.747 87.0704 112.184 87.3903C112.576 86.95 112.934 86.5387 113.384 86.1081C113.122 86.0695 112.873 85.9673 112.66 85.8104C112.446 85.6535 112.275 85.4467 112.16 85.2081ZM106.015 84.5645C106.431 84.2258 106.735 83.6548 106.905 83.5242C107.224 83.2581 106.958 82.9822 106.692 83.2435C106.474 83.4564 105.913 82.9581 105.889 82.9193C105.705 82.7064 105.439 79.8468 105.565 79.7839C105.565 79.7839 107.35 79.5564 107.587 79.5564C107.766 79.5758 107.79 79 107.597 78.9903C107.306 78.9903 105.942 79.179 105.894 79.0435C105.707 78.3094 105.773 77.5336 106.082 76.8419C106.29 76.4645 106.073 76.0919 105.937 76.4839C105.777 76.8855 104.655 78.6516 103.934 78.9468C103.344 79.1887 103.406 79.3242 103.789 79.4258C104.089 79.4839 104.403 79.8516 104.345 79.8468C104.287 81.3129 104.142 83.1226 104.592 83.8919C104.877 84.3758 105.661 84.879 106.015 84.5645ZM101.069 87.5839C100.619 88.0145 100.266 88.4113 99.6032 88.9387C99.9129 89.2919 100.431 89.7468 100.479 90.3661C100.518 90.9855 100.494 93.8742 100.532 94.5951C101.016 94.5951 100.929 94.6435 101.761 94.6145C101.679 94.1258 101.747 90.3758 101.747 89.8435C102.056 89.5387 102.1 89.4951 102.458 89.2242C102.715 89.4516 103.315 89.5871 103.315 89.9935C103.315 90.3951 103.435 92.171 103.295 92.829C103.202 93.1964 103.183 93.5786 103.24 93.9533C103.296 94.328 103.427 94.6877 103.624 95.0113C103.948 94.6435 105.153 93.7871 105.415 93.5742C105.671 93.3468 105.54 93.1774 105.206 93.2693C104.848 93.3468 104.785 93.4193 104.785 93.1871C104.785 92.7564 104.616 90.8064 104.592 89.5629C104.544 88.3097 103.948 87.9419 103.6 87.7726C103.247 88.1693 102.463 88.6726 101.994 89.0742C101.64 88.8081 101.466 88.2129 101.069 87.5839ZM96.3129 88.4306C96.521 88.9774 97.1936 90.008 97.4935 90.1919C96.9758 90.7242 95.6984 91.6048 95.3403 91.8564C94.6871 91.029 94.3339 89.6645 96.3129 88.4306ZM94.0677 90.9758C93.7581 93.3177 95.9306 94.7161 96.9758 95.1661C97.2419 94.6242 97.7742 93.7532 98.3016 93.1387C98.6984 92.6645 98.2581 92.5435 97.9 92.9064C97.421 93.4435 95.9839 92.9355 95.6016 92.2242C96.2935 91.6919 98.1081 90.1581 98.8919 89.5C98.3742 89.0016 97.571 87.7726 97.4452 87.0661C96.7435 87.5451 94.421 88.5371 94.0677 90.9758ZM93.4677 79.7016C92.6306 81.0081 92.171 83.0645 93.6226 84.2645C94.3097 84.85 94.8758 85.3048 96.2694 85.0484C96.55 84.4822 96.671 84.2984 97.1645 83.6548C96.746 83.7439 96.3129 83.7393 95.8963 83.6414C95.4797 83.5436 95.0899 83.3548 94.7548 83.0887C93.3081 81.9468 93.7581 80.1129 94.1839 79.4839C94.9629 78.3081 96.071 79.9919 96.2694 80.2242C96.5306 79.9048 96.9758 79.4597 97.4113 79.1113C96.9758 78.5355 96.6226 77.9935 96.3323 77.6451C95.4081 77.9839 94.0484 78.8258 93.4677 79.7016ZM100.189 76.2177C100.077 76.0726 99.8645 75.8403 99.8548 75.5548L99.879 73.0919C99.879 72.8548 99.4097 72.8839 99.4097 73.0919C99.3903 73.4548 99.4387 74.0597 99.129 74.5581C98.2581 75.9226 96.5984 76.4839 95.4371 74.8048C95.0403 74.2532 94.9484 73.4113 94.8952 72.8064C94.8177 72.0081 95.4177 70.9677 95.4516 70.8758C95.6556 70.553 95.9437 70.2919 96.2849 70.1207C96.6262 69.9494 97.0077 69.8744 97.3884 69.9038C97.7691 69.9331 98.1346 70.0657 98.4455 70.2873C98.7565 70.5089 99.0012 70.811 99.1532 71.1613C99.2645 71.7032 99.3806 72.3564 99.3806 72.7C99.371 72.9322 99.8548 72.9081 99.8645 72.671L99.879 69.1774C99.8887 68.9839 99.4871 68.921 99.4774 69.1774C99.4581 69.6613 99.1774 69.7 98.8194 69.579C98.0694 69.3564 96.4048 68.9887 95.4419 69.5597C94.5903 70.0677 93.2887 71.2581 93.3129 72.7532C93.3371 75.2161 94.2516 75.4242 95.3161 76.0871C96.3081 76.6822 97.6871 76.3 98.9403 75.9226C99.4387 75.7871 99.5016 76.1113 99.7435 76.4645C100.15 77.021 100.479 76.6677 100.189 76.2177ZM100.9 83.2968V83.7951C100.726 83.8387 100.527 83.8871 100.281 84.0081C99.9468 83.7177 98.3645 83.1903 99.4 82.3435C100.039 82.7258 100.281 82.4258 100.9 82.0387V83.2968ZM100.89 81.6226C99.9758 82.2274 99.6855 82.2081 99.0613 81.4871C98.7468 81.1193 98.7758 80.4226 98.921 80.1661C99.2016 79.7113 99.7 79.2564 99.9371 79.2661C100.14 79.271 100.876 80.1855 100.823 80.5774C100.861 80.8 100.881 81.2016 100.89 81.6226ZM100.823 78.2306C100.01 78.3081 98.8242 79.2806 98.471 80.1177C98.3306 80.4516 98.5339 81.6564 98.6839 81.7919C98.7903 81.8887 98.8774 81.9516 98.9694 82.0242C98.4323 82.5371 97.929 82.9677 97.9436 83.7177C97.9677 84.4435 98.5339 85.0919 99.2694 85.4306C99.6525 84.849 100.248 84.4408 100.929 84.2935C100.982 84.8742 101.118 85.3 101.49 85.5855C101.761 85.2855 102.835 84.3371 103.044 84.1242C103.271 83.9064 103.102 83.6548 102.835 83.9064C102.681 84.0613 102.294 83.8387 102.182 83.6548C102.182 83.3258 102.182 79.9919 102.318 79.8371C101.829 79.3 101.369 78.1726 100.823 78.2306ZM106.769 70.0726C107.094 69.7532 106.75 69.521 106.465 69.7968C106.252 69.5403 105.705 68.9693 105.415 68.621C104.965 68.9589 104.493 69.266 104.002 69.5403C103.692 69.1774 103.31 69.1774 102.69 68.6887C102.347 68.9548 101.587 69.521 101.181 70.0242C101.902 70.2322 102.444 70.2806 102.487 70.9048C102.516 71.4177 102.434 74.5677 102.477 75.1435C102.865 75.2306 103.334 75.1919 103.885 75.1629C103.924 74.7129 103.905 70.7645 103.905 70.3242C104.113 70.2081 104.326 70.0968 104.427 69.9903C104.655 70.1693 105.105 70.8322 105.468 71.0597C105.748 70.8419 106.465 70.3822 106.769 70.0726ZM108.947 71.4613C108.473 69.9032 108.652 69.3661 109.6 68.6016C109.813 69.1339 110.36 69.521 110.665 69.7048C110.127 70.2322 109.295 71.1951 108.947 71.4613ZM112.034 73.3774C110.152 73.8613 109.271 72.3274 109.082 71.9161C109.842 71.1274 111.139 69.8306 111.927 69.1774C111.405 68.6887 111.192 67.8758 110.268 67.8081C109.46 67.8274 107.577 68.7613 107.244 71.1903C106.929 73.5226 109.082 74.7806 110.79 74.8484C111.361 74.8484 112.068 74.1032 112.421 73.929C113.181 73.5516 112.9 73.179 112.034 73.3774ZM117.332 70.5419L116.548 71.1855C116.342 71.2283 116.13 71.2397 115.919 71.2193C115.276 71.1274 114.966 70.6339 114.671 70.2322C114.361 69.821 115.155 69.4774 115.542 69.521C115.939 69.5742 116.81 70.0484 117.332 70.5419ZM115.977 72.3806C116.403 72.5742 116.839 72.7726 117.313 73.0581C118 73.4548 117.647 74.2048 116.906 74.5484C116.156 74.9016 114.811 73.9097 114.603 73.5081C115.054 73.1229 115.512 72.747 115.977 72.3806ZM119.21 69.6903C118.687 69.3226 118.121 68.4419 116.858 68.3839C115.59 68.3306 114.163 69.4968 113.698 70.2274C113.084 71.1951 113.839 72.0419 114.647 72.671C114.129 73.121 113.413 73.8081 112.75 74.4419C113.016 74.7322 114.468 75.429 115.281 75.4048C116.51 75.3758 117.647 74.7322 118.348 74.1613C119.626 73.1355 119.181 72.0419 117.884 71.2677C117.768 71.2058 117.642 71.1648 117.511 71.1468C118.319 70.4984 119.026 69.9177 119.21 69.6903ZM120.773 77.1564L120.003 76.3484L119.229 77.0548L119.244 78.0274L119.718 78.521H120.197L120.773 77.9887V77.1564ZM120.429 71.6742C120.134 71.6548 119.669 72.4871 121.46 72.4193C121.735 72.4097 121.944 71.7613 120.429 71.6742ZM120.405 72.7677C120.1 72.7435 119.635 73.3145 121.431 73.5032C121.706 73.5371 122.084 72.8645 120.405 72.7677ZM121.571 84.9758L122.239 84.25C121.494 84.1097 121.494 84.1581 121.097 83.8L121.126 80.3064L120.477 79.3339L120.129 79.3822L118.639 80.7806C118.237 81.1484 118.595 81.3226 119.045 80.9161L119.815 81.3951L119.844 84.6855C119.921 85.0774 120.26 85.2081 120.739 85.7113L121.571 84.9758ZM117.003 91.1839C117.56 91.571 117.879 91.5177 118.581 91.45C118.552 91.8371 118.523 92.1903 118.523 92.3451C118.523 92.5145 118.59 92.65 118.639 92.8C118.276 92.9258 117.816 93.0081 117.463 93.1871C117.139 92.8968 115.953 92.0742 117.003 91.1839ZM118.605 91.0774C118 91.0919 117.482 90.8984 116.819 90.3081C116.694 90.2016 116.577 89.4371 116.723 89.1855C117.008 88.7161 117.008 88.571 117.265 88.5758C117.463 88.5758 118.682 89.3258 118.615 89.7226C118.663 90.0081 118.639 90.55 118.605 91.0774ZM116.5 90.7871C115.958 91.3532 115.561 91.9726 115.566 92.7516C115.595 93.5016 115.837 94.2371 116.582 94.5758C117.245 94.0774 118.092 93.4822 118.915 93.3274C119.311 93.8161 119.931 94.1403 120.298 94.4355C120.555 94.121 121.373 93.4484 121.595 93.2403C121.813 93.0177 121.595 92.7081 121.373 92.9984C121.198 93.2645 120.623 93.071 120.458 92.8C120.458 92.4806 120.158 89.1274 120.289 88.9774C119.815 88.4403 118.997 87.221 118.445 87.2839C117.642 87.3613 116.442 88.5322 116.185 88.9145C115.987 89.2 116.244 90.579 116.398 90.7097L116.5 90.7871ZM114.356 82.8226C114.534 83.3709 114.874 83.8525 115.331 84.204C115.788 84.5555 116.341 84.7605 116.916 84.7919C117.177 84.2984 117.666 83.5387 117.932 83.1903C118.324 82.6629 117.923 82.3435 117.647 82.958C117.434 83.4322 116.292 82.9145 115.881 82.5081C115.319 81.9806 114.976 80.6016 115.421 80.1177C115.866 79.6242 116.51 79.8516 117.337 79.8274C117.884 79.8032 117.995 79.2903 118.092 79.029C117.69 78.8223 117.298 78.5979 116.916 78.3564C116.384 78.7 115.561 79.4113 115.203 79.7113C114.763 80.0935 113.853 81.4097 114.356 82.8226ZM114.032 93.3129L114.681 92.5822C113.95 92.4468 114.289 92.4516 113.906 92.0935L113.882 89.0742L112.934 87.6661L112.576 87.7145L111.09 89.1226C110.698 89.4758 111.042 89.6451 111.502 89.2581L112.484 89.771L112.508 92.9597C112.59 93.3564 112.934 93.4484 113.413 93.9516L114.032 93.3129ZM126.405 110.708C126.405 110.708 127 110.05 127 109.576C127 108.937 126.405 108.473 126.405 108.473C126.913 108.618 128.127 109.31 128.558 109.6L126.405 110.708ZM130.208 109.542V109.455C128.877 109.261 127.832 108.318 126.618 107.853C124.934 107.205 123.153 108.521 123.153 108.729C123.153 109.194 123.632 109.431 124.992 108.56C123.923 109.813 125.137 110.834 125.137 110.834C124.622 110.766 124.122 110.614 123.656 110.384C123.574 110.834 124.189 110.998 124.479 111.197C126.739 112.135 128.219 109.934 130.208 109.542ZM145.469 88.5226C145.126 88.8806 144.516 89.2919 143.95 89.9306C144.419 89.9693 144.811 90.0758 145.034 90.5306C145.271 90.9806 145.073 92.8968 145.106 93.6371C145.14 94.3532 145.571 94.508 146.127 95.0984C146.689 94.9532 148.242 94.2951 148.769 93.9274C148.721 94.5177 149.452 95.1758 149.887 95.3064C150.177 94.9871 150.492 94.808 150.918 94.4016C150.502 94.121 150.555 94.0822 150.4 93.521C150.279 92.9839 150.429 90.9371 150.444 90.0613C150.057 89.474 149.576 88.9542 149.021 88.5226C148.629 88.8855 148.102 89.3693 147.482 90.0322C147.942 89.9693 148.852 90.1581 148.895 90.5452C148.919 91.0581 148.997 92.1661 148.895 93.0226C148.789 93.8935 146.49 93.4968 146.461 92.9113C146.408 92.3113 146.577 90.5839 146.587 89.7613C146.311 89.2704 145.929 88.8472 145.469 88.5226ZM146.621 81.7822C146.785 80.9161 147.381 80.5629 147.656 80.3064C148.044 80.7419 148.431 81.2355 149.011 81.2355C149.582 81.2403 150.173 80.9742 150.356 80.7371C149.887 80.35 148.818 79.2081 148.605 78.9903C148.063 79.3 145.711 80.5387 145.513 81.9661C145.227 84.0806 145.885 84.5016 146.8 85.6581C147.01 85.9099 147.286 86.0982 147.597 86.2016C147.908 86.3051 148.242 86.3196 148.561 86.2435C148.982 85.9532 150.516 84.4677 150.69 84.279C150.845 84.1 150.618 83.9306 150.429 84.1193C150.24 84.2935 150.313 84.371 150.056 84.4097C149.795 84.4532 148.75 84.6322 148.14 84.3081C147.381 83.9016 146.389 82.9484 146.621 81.7822ZM140.06 81.5548C140.118 82.9726 139.387 84.4677 138.594 85.1451C139.968 84.7822 140.147 83.95 140.897 82.9726C141.308 83.5968 142.077 84.3468 142.639 84.671C143.035 84.4097 144.153 83.1274 144.4 82.8613C143.592 82.6484 142.034 81.8064 141.647 80.921C141.337 80.2629 141.41 79.9532 141.719 79.4355C141.99 79.8032 143.887 80.6887 144.739 79.208C143.805 78.8597 142.968 78.2355 142.682 77.7371C142.431 77.95 141.598 78.8693 141.129 79.1645C141.023 78.6564 140.253 78.1097 139.634 77.9935C139.431 78.2161 137.969 79.3484 137.297 79.6822C137.094 79.7839 137.171 80.2339 137.456 80.1226C137.732 80.0016 138.182 79.6532 138.705 79.3968C139.31 79.6387 139.997 80.2629 140.06 81.5548ZM139.794 88.3871C139.232 88.6629 140.539 89.1903 140.452 89.1661C140.432 90.671 140.137 93.1339 140.645 93.9129C140.955 94.3871 141.671 94.7016 142.15 94.5177C142.61 94.329 143.2 93.3903 143.374 93.2403C143.713 92.9839 143.423 92.7081 143.137 92.9742C142.856 93.2403 142.092 93.0516 141.99 92.7855C141.908 92.4951 141.811 89.2193 141.947 89.1516C141.947 89.1516 142.866 89.1274 143.113 89.1371C143.306 89.1371 143.321 88.5419 143.132 88.5419C142.794 88.5371 142.053 88.4693 142.01 88.3387C141.898 88.0242 142.034 87.0226 142.223 86.6161C142.421 86.2097 142.044 86.0306 141.898 86.4274C141.744 86.8581 140.776 87.8887 139.794 88.3871ZM134.5 89.3693C134.815 88.8806 135.013 88.7839 135.265 88.7839C135.492 88.7984 136.368 89.4129 136.324 89.8242C136.363 90.0903 136.373 90.6516 136.373 91.2226C135.715 91.3 135.25 91.3822 134.515 90.7484C134.379 90.6371 134.34 89.621 134.5 89.3693ZM134.892 91.5758C135.376 91.8468 135.618 91.6774 136.368 91.5951L136.348 92.7371C135.966 92.9934 135.564 93.2215 135.148 93.4193C134.776 93.1097 134.234 92.8435 134.892 91.5758ZM134.287 91.1258C133.881 91.5177 133.16 92.5242 133.174 93.2693C133.192 93.9843 133.481 94.6657 133.982 95.1758C134.723 94.6484 135.187 93.9226 136.421 93.4435C136.571 94.0242 136.977 94.1161 137.461 94.4887C137.747 94.1693 138.797 92.8581 139.029 92.6306C139.261 92.4032 139.126 92.1758 138.797 92.4032C138.468 92.6306 138.24 92.4951 137.689 91.8903C137.708 91.5661 137.65 88.8855 137.776 88.7403C137.273 88.1887 136.813 87.4339 136.218 87.5016C135.352 87.5693 134.253 89.0984 133.982 89.5C133.765 89.7855 133.992 90.879 134.152 91.0193C134.21 91.0726 134.239 91.0774 134.287 91.1258ZM129.245 86.0451C129.274 86.771 129.535 92.9839 129.458 93.8451C129.41 94.3435 130.058 94.8613 130.653 95.2726C130.944 94.9193 131.568 93.9903 132.09 93.5984C132.395 93.3419 132.182 93.1774 131.945 93.2693C131.481 93.4919 131.006 93.3177 130.963 92.771C130.919 90.5486 130.919 88.3256 130.963 86.1032C130.39 86.1012 129.817 86.0818 129.245 86.0451ZM128.805 81.5403C128.829 84.0806 129.826 84.2935 130.963 84.9613C132.037 85.5806 133.847 85.45 135.202 85.0919C135.715 84.9371 135.995 84.9081 135.976 85.3532C135.976 85.6387 136.368 85.5806 136.368 85.3677L136.382 82.7935C136.382 82.5274 136.005 82.5661 136.005 82.7935C136.005 83.1516 136.005 83.2581 135.661 83.7613C134.727 85.1693 132.395 85.1113 131.147 83.3984C130.716 82.8081 130.329 82.029 130.823 81.879C131.316 81.729 132.816 82.0484 133.813 82.1306C134.403 82.1645 135.777 82.3145 135.952 82.4161C136.106 82.5274 136.334 82.6774 136.334 82.3677C136.348 82.0726 136.348 81.0903 136.348 80.7951C136.348 80.5 136.126 80.6355 135.956 80.7419C135.787 80.8629 134.321 81.1097 133.735 81.2161C133.15 81.3274 131.331 81.4774 130.852 81.3129C130.363 81.1484 130.527 80.1516 130.963 79.5806C132.226 77.8774 134.785 77.9935 135.71 79.4113C136.024 79.9048 136.024 80.021 136.024 80.3887C136.024 80.6113 136.392 80.6355 136.392 80.3887C136.416 80.1516 136.421 77.5822 136.421 77.3693C136.421 77.1758 136.053 77.0984 136.053 77.3693C136.053 77.5532 135.647 77.6693 135.245 77.5532C134.452 77.3064 132.139 77.6693 131.108 78.2451C130.194 78.7774 128.785 80.0016 128.805 81.5403ZM138.637 66.7774C137.773 66.7601 136.908 66.8152 136.053 66.9419C135.492 67.0242 135.492 67.3048 135.956 67.3677C136.421 67.4113 136.513 67.5081 136.76 68.1468C136.982 68.7951 135.86 71.6984 135.579 72.3806C135.255 71.8822 134.065 69.221 134.065 68.8581C134.065 68.6016 134.587 68.3451 134.815 68.2822C135.255 68.1419 135.245 67.8371 134.911 67.7693C133.982 67.6339 130.702 67.3435 130.126 67.271C129.705 67.2371 129.516 67.7306 130.024 67.7306C130.547 67.7403 131.094 67.5806 131.669 68.4371C132.327 69.4048 134.403 73.9435 134.902 75.85C135.148 75.4484 137.219 69.3419 137.34 68.6935C137.485 68.0645 137.926 67.4451 138.535 67.2613C139.16 67.0919 139.106 66.8161 138.637 66.7774ZM141.448 67.8855L142.063 67.3387V66.4677L141.231 65.65L140.408 66.3613L140.427 67.3677L140.935 67.8855H141.448ZM142.397 75.8451L143.485 74.3984C143.156 74.373 142.836 74.2768 142.547 74.1165C142.258 73.9562 142.007 73.7354 141.811 73.4693L141.835 69.8839L140.718 68.7468L140.335 68.7951L138.579 70.3484C138.4 70.629 138.869 70.629 139.106 70.3048L140.379 71.0451L140.432 74.5145C140.529 74.9306 140.868 75.3322 141.376 75.8451H142.397ZM149.669 69.6951C149.335 69.6951 147.095 69.7435 147.037 69.6129C146.936 69.2996 146.9 68.969 146.931 68.6413C146.962 68.3136 147.059 67.9955 147.216 67.7064C147.41 67.2951 147.037 67.1258 146.897 67.5419C146.752 67.9387 145.629 69.5161 144.468 70.0242C143.868 70.2661 145.198 70.8274 145.106 70.8032C145.097 72.3129 145.315 74.5871 145.629 75.5064C145.827 76.0484 146.437 76.929 146.853 76.6581C147.124 76.4839 147.71 75.3032 147.894 75.1581C148.218 74.8919 147.898 74.4274 147.632 74.7032C147.327 74.9742 147.076 74.5581 146.994 74.2774C146.897 74.0113 146.621 70.6726 146.761 70.6097C146.761 70.6097 149.408 70.2806 149.669 70.2806C149.853 70.2806 149.863 69.6951 149.669 69.6951ZM153.744 76.1693C153.343 76.204 152.954 76.3227 152.602 76.5177C152.219 76.1984 151.227 74.9839 151.958 73.629C151.856 73.5613 151.75 73.5081 151.653 73.4451C152.326 73.8322 153.115 74.1613 153.729 74.3693L153.71 75.5742C153.71 75.8016 153.724 75.9855 153.744 76.1693ZM153.734 74.0355C153.037 73.7839 151.663 73.1258 151.16 72.7048C151.029 72.5984 151.015 72.5355 151.179 72.2742C151.494 71.7951 151.856 71.3742 152.113 71.3935C152.326 71.3935 153.724 72.1581 153.681 72.5548C153.729 72.8403 153.739 73.4403 153.734 74.0355ZM154.59 77.6693L156.003 76.0919C156.003 76.0919 155.374 75.5935 155.002 75.1242C155.002 74.7951 155.002 71.6451 155.137 71.4758C154.073 70.5081 153.294 70.3822 152.834 70.4548C151.973 70.5806 151.092 71.7032 150.811 72.0806C150.603 72.3806 150.656 72.7532 150.811 72.8935C150.981 73.0339 151.203 73.179 151.44 73.3242L151.319 73.2564C150.918 73.6435 150.327 74.7564 150.347 75.5113C150.356 76.271 151.029 77.3693 151.479 77.7758C151.977 77.3887 152.718 76.7258 153.806 76.5177C153.854 76.7523 153.947 76.9751 154.082 77.1729C154.216 77.3707 154.389 77.5395 154.59 77.6693ZM154.639 86.0016C154.271 85.8226 152.94 84.7822 152.635 83.979C152.239 82.9 152.239 81.7097 153.366 81.0129C154.247 81.3419 155.273 82.2226 155.365 83.0306C155.49 84.0806 155.195 85.3242 154.639 86.0016ZM155.834 85.5806C156.221 84.8645 156.792 83.7177 156.753 82.8371C156.705 81.7629 156.052 80.1661 154.498 79.6387C152.529 80.35 151.31 81.9322 151.252 83.8C151.218 84.8935 152.132 87.1484 154.024 87.1629C154.605 86.5919 155.224 85.9871 155.834 85.5806ZM157.697 91.029C157.262 90.5754 156.782 90.1669 156.265 89.8097C155.82 90.1783 155.346 90.51 154.847 90.8016C154.527 90.4339 154.111 89.9306 153.468 89.4274C153.081 89.6984 151.968 90.729 151.494 91C152.176 91.0193 153.187 91.2468 153.221 91.8903C153.245 92.4081 153.187 95.6548 153.221 96.2451C153.637 96.3371 154.131 96.2887 154.735 96.2597C154.765 95.8 154.75 92.0597 154.765 91.6048C154.963 91.4887 155.205 91.3774 155.321 91.271C155.553 91.4451 156.265 92.2726 156.676 92.4951C156.956 92.2822 157.697 91.6242 158.021 91.3145C158.365 90.971 157.992 90.7484 157.697 91.029ZM157.697 84.1726C157.948 84.25 158.413 84.3177 158.887 84.3564C159.187 84.3903 159.09 83.8871 158.858 83.7903C158.515 83.6789 158.159 83.6138 157.798 83.5968C157.455 83.5968 157.29 84.0468 157.697 84.1726ZM158.902 82.6629C158.55 82.5486 158.183 82.4851 157.813 82.4742C157.489 82.4742 157.315 82.9435 157.716 83.0548C157.977 83.1274 158.456 83.2145 158.916 83.2339C159.231 83.2677 159.129 82.7645 158.902 82.6629ZM166.963 162.211C166.334 165.347 165.269 168.25 163.416 170.95C162.115 172.871 161.587 169.145 162.705 165.545C164.297 164.897 165.884 163.648 166.963 162.211ZM165.197 162.845C161.05 167.006 154.832 165.497 149.931 167.727C145.489 169.377 142.271 173.544 137.616 174.598C136.242 175.048 136.019 175.745 136.89 175.721C137.403 175.706 140.244 178.721 144.782 176.398C146.302 175.619 151.01 172.953 151.808 172.803C149.258 175.271 147.976 177.473 145.697 178.774C144.303 179.573 138.623 181.639 132.956 180.521C130.445 180.027 128.515 182.379 129.153 182.326C130.498 181.963 132.003 182.147 132.908 183.352C134.553 184.663 136.939 186.294 138.985 183.86C139.668 183.052 142.919 181.339 145.977 184.489C142.726 184.319 143.05 190.261 136.885 189.564C134.606 189.55 129.565 184.247 128.132 185.882C125.582 188.795 133.605 191.558 130.131 195.211C126.995 198.516 123.245 192.579 123.245 192.579C125.205 193.416 128.815 193.953 127.227 190.716C126.594 189.434 125.394 188.282 125.394 185.906C125.118 184.726 117.942 195.303 113.19 190.527C111.327 188.645 107.548 184.527 104.127 182.96C113.19 182.181 114.569 185.863 115.005 186.458C117.903 190.426 120.584 186.395 121.198 185.689C122.142 184.595 123.482 183.09 123.008 182.863C119.49 181.165 115.474 180.811 112.474 182.205C118.895 173.229 123.894 181.634 123.894 181.634C124.6 182.079 123.715 176.311 117.361 175.997C113.394 175.794 109.9 179.427 107.166 179.423C104.94 179.418 98.1952 174.787 96.6081 170.674C100.532 173.66 105.54 175.373 108.661 173.481C114.526 169.929 121.915 175.285 122.263 174.647C120.627 173.345 116.892 168.26 106.818 171.158C102.913 173.437 101.263 169.469 98.8677 169.402C102.947 165.719 105.777 167.592 107.205 167.698C107.544 167.698 105.502 165.995 104.069 165.845C92.9403 164.665 85.8903 161.553 85.8903 161.553C85.8323 161.553 86.8145 159.269 91.6 160.919C91.6 160.919 87.3129 158.248 87.3468 154.818C87.4871 152.703 88.4935 150.439 86.9016 148.677C93.3613 148.406 88.7694 157.561 93.3081 159.918C93.4048 159.961 91.9726 157.735 93.9903 156.008C94.929 158.698 97.2323 160.087 98.8532 160.527C99.2355 160.31 99.7048 159.487 99.7048 159.492C98.0016 156.618 97.7742 153.279 98.2339 149.447L98.3016 149.413C98.6694 149.427 99.2935 150.729 99.729 151.682C100.673 153.739 100.648 156.705 102.526 159.144C103.566 160.494 104.21 161.834 105.144 162.487C105.545 161.534 105.245 159.894 105.182 159.458C104.969 157.905 104.011 155.181 106.629 152.771C107.853 156.361 109.518 155.321 109.74 157.039C110.055 159.453 109.948 159.071 109.706 160.919C109.832 163.474 112.111 164.19 114.139 165.821C118.702 168.347 121.735 169.711 123.724 172.944C124.692 167.49 110.2 166.397 112.068 155.868C111.874 151.663 112.585 151.31 109.653 148.74C115.465 148.914 118.634 158.616 118.948 160.387C119.534 163.644 121.474 163.808 124.145 168.052C124.532 168.197 119.374 156.748 125.519 146.95C125.519 146.95 127.59 152.04 126.613 155.379C126.027 157.387 126.574 159.613 126.681 160.876C126.797 162.158 126.429 156.231 130.823 153.163C131.094 155.403 133.208 158.882 131.205 162.603C128.766 167.137 128.587 165.506 128.548 171.081C128.771 170.984 129.405 167.239 131.079 165.115C134.611 160.619 132.085 158.205 135.54 154.31C135.811 156.255 136.3 155.485 136.508 157.218C136.973 161.113 132.971 165.371 133.856 165.235C134.873 165.095 136.508 164.195 137.055 161.244C137.055 161.244 138.531 163.939 137.181 164.839C134.742 166.46 134.234 168.216 134.611 170.185C136.571 167.805 139.242 165.177 138.782 161.795C139.005 159.753 141.177 158.926 141.613 154.184C141.685 153.4 142.46 152.447 143.229 152.026C142.895 154.692 144.927 157.44 142.615 160.702C143.142 160.992 145.102 158.161 147.961 159.192C142.218 160.247 143.892 166.571 139.494 169.498C138.163 170.384 138.39 171.371 137.994 171.482C141.927 171.26 144.952 166.498 145.479 166.135C149.427 163.421 150.294 163.01 151.871 158.606C152.49 156.937 152.04 156.197 154.232 153.932C155.19 156.163 153.797 160.774 153.463 161.771C152.756 163.895 150.274 165.734 150.802 165.734C161.389 160.987 161.253 157.794 163.789 154.392C164.548 153.09 168.313 150.835 169.721 150.627C169.377 151.339 167.916 152.529 167.848 153.816C167.718 156.197 166.963 157.648 165.782 159.56C166.44 160.387 167.703 157.992 168.995 159.192C167.287 159.768 166.523 161.703 165.197 162.845ZM155.5 159.468C155.805 158.35 155.805 157.581 155.95 156.598C156.013 156.173 156.018 156.226 156.037 155.868C156.047 155.752 159.032 158.394 159.197 158.5C158.447 159.458 157.808 159.802 157.092 160.474C156.589 160.024 155.471 159.569 155.5 159.468ZM156.405 161.113C155.026 162.347 154.126 162.782 154.426 162.168C154.76 161.49 155.006 160.91 155.195 160.402C155.258 160.232 156.405 161.113 156.405 161.113ZM169.939 149.176C168.676 149.51 165.347 150.86 164.544 152.19C164.969 144.869 162.642 137.694 161.902 135.956C160.46 132.574 162.55 143.824 162.69 146.413C162.695 146.529 150.748 130.808 157.963 142.919C159.831 146.05 162.748 148.102 162.753 148.155C162.802 150.337 162.656 151.944 162.25 153.115C161.515 153.71 145.977 132.1 154.566 147.066C155.631 148.924 161.863 154.542 161.81 154.653C161.309 155.772 160.611 156.792 159.748 157.663C159.584 157.494 156.163 154.934 156.139 154.774C155.882 153.105 155.873 151.532 153.84 152.713C153.84 152.713 146.19 143.655 149.732 150.003C151.281 152.781 152.302 153.085 152.713 153.579C152.713 153.579 151.523 155.21 151.14 156.952C150.99 157.648 144.506 149.645 147.052 154.673C147.865 156.284 150.831 158.04 150.797 158.152C150.555 159.082 150.242 159.993 149.863 160.876C149.452 161.708 143.761 166.319 143.771 166.314C143.771 166.31 144.884 162.666 147.303 160.876C148.682 159.845 148.687 160.073 149.602 159.492C149.582 158.945 149.074 158.065 148.411 157.832C147.579 157.532 144.884 158.035 144.884 158.035C145.135 156.666 143.96 153.71 143.974 150.463C142.958 150.565 141.177 152.161 140.752 153.066C140.437 158.447 139.285 156.835 138.211 160.702C137.04 159.081 138.294 156.748 137.147 155.234C135.565 153.139 135.327 151.735 135.095 149.161C135.463 148.948 137.074 147.144 135.608 143.35C135.371 137.389 137.989 135.11 133.305 130.939C133.697 130.808 133.982 127.823 133.982 127.818C137.432 129.685 136.75 125.65 138.095 124.856C140.229 123.598 139.842 122.292 138.884 120.666C144.99 122.432 138.608 126.676 141.371 126.768C143.379 126.826 144.719 126.318 145.59 124.939C146.519 123.497 145.431 122.606 148.019 120.255C148.281 120.023 148.968 118.46 146.911 118.029C146.461 117.927 146.916 116.147 146.916 116.147C145.271 117.56 144.753 119.553 142.111 118.29C140.756 117.642 139.876 118.281 139.324 118.552C139.324 118.552 139.044 117.429 140.161 117.042C143.06 116.06 143.771 114.884 143.616 114.245C143.224 112.716 143.103 114.245 143.19 112.634C143.224 111.99 143.96 111.124 144.565 110.384C146.524 107.974 147.918 108.874 148.416 109.087C149.558 108.192 149.761 108.255 150.821 107.829C152.64 107.103 156.574 108.313 158.776 109.348C159.845 109.837 161.123 110.132 162.366 109.856C162.352 110.51 161.902 110.863 161.456 110.989C160.769 111.206 159.952 110.989 160.005 111.502C160.034 111.797 160.977 111.85 161.563 112.015C164.824 112.919 169.048 115.89 166.276 115.261C165.947 115.189 168.274 117.032 170.031 119.427L176.253 125.568C175.968 125.911 173.785 125.602 166.876 119.016C165.894 119.911 175.281 127.102 179.152 134.727C178.818 134.965 173.994 133.184 172.252 131.355C169.566 128.534 166.484 121.363 165.221 122.413C165.066 122.471 170.316 130.784 172.915 135.71C174.226 138.206 175.3 141.782 175.387 144.477C175.803 157.745 173.839 156.734 173.839 156.734C170.781 146.263 169.348 134.118 164.882 128.51C163.102 126.269 169.653 138.318 169.939 149.176ZM174.763 78.0419L174.632 77.0839C174.54 76.4016 172.6 76 171.231 76.6097C169.315 77.4613 164.515 80.2435 162.763 79.7161V72.8548C167.084 74.7613 168.773 73.0339 170.161 73.0339C174.429 73.0339 174.642 77.0839 174.642 77.0839L174.763 78.0419ZM170.331 87.4339C174.076 86.8774 174.642 91.3726 174.642 91.3726H174.632C173.708 90.6274 171.855 90.2935 170.602 91.1161C166.416 93.8548 162.642 93.8839 162.642 93.8839V87.0226C162.642 87.0226 163.44 88.4597 170.331 87.4339ZM161.379 101.379C154.581 101.853 140.476 97.9242 136.89 97.9242C129.492 97.9242 125.916 100.852 125.916 100.852C125.916 100.852 125.926 66.7242 125.916 65.4951C125.916 65.4951 135.637 60.8597 142.706 63.5113C151.368 66.7629 161.379 65.3258 161.379 65.3258V101.379ZM133.213 106.706C133.29 107.068 133.228 107.446 133.038 107.763C132.849 108.081 132.547 108.315 132.192 108.419C132.818 108.614 133.493 108.573 134.091 108.305C134.688 108.036 135.168 107.559 135.439 106.963C136.184 110.113 133.063 110.292 132.085 110.481C132.085 110.481 133.673 110.94 133.755 111.985C133.958 114.652 135.647 114.424 136.01 114.221C135.947 114.54 135.429 116.152 133.532 114.695C133.213 115.015 134.05 115.513 134.215 116.834C134.427 118.503 134.379 120.061 136.276 121.073C135.115 122.016 133.74 119.568 133.619 119.863C133.484 120.187 135.24 121.087 133.31 125.708C132.429 125.195 132.918 125.297 131.897 124.063C131.118 123.395 130.813 123.245 131.461 124.344C132.603 125.785 132.869 129.095 132.477 129.985C131.539 129.565 131.781 128.805 130.673 127.774C130.571 128.21 131.011 130.406 132.158 131.452C134.132 133.261 134.834 135.453 134.868 135.884C135.027 137.534 134.515 139.706 134.321 141.826C133.377 141.69 132.569 138.947 132.342 139.111C132.061 139.29 132.458 141.787 134.248 143.485C135.115 146.05 134.766 147.434 134.534 147.526C134.229 147.661 133.266 144.898 132.744 145.377C135.284 151.958 133.508 154.252 132.831 156.274C132.308 154.198 132.042 152.645 131.384 150.289C129.995 151.397 129.661 153.037 127.968 154.537C127.968 151.856 126.439 145.377 125.229 143.868C125.176 143.8 123.042 149.674 122.074 152.292C120.811 155.674 120.618 159.913 122.074 163.213C118.929 158.669 118.595 150.216 121.305 149.079C121.537 148.469 121.14 146.481 120.535 146.723C120.366 147.7 120.477 148.532 119.684 149.481C117.608 148.861 118.552 146.282 118.74 145.421C121.44 142.135 119.752 141.376 119.626 141.463C119.335 142.218 119.079 143.137 118.256 143.485C116.524 140.456 117.637 135.71 120.923 132.168C121.063 130.842 119.452 133.155 118.402 133.073C118.131 130.523 119.04 126.095 123.681 125.931C122.795 125.665 122.321 125.505 122.108 124.75C123.511 124.542 127.915 124.198 127.189 120.671C126.768 121.097 126.637 121.726 125.49 122.437C124.716 122.916 123.874 122.96 123.439 122.263C125.481 121.581 124.808 119.055 122.142 119.795C121.324 120.027 120.129 119.156 120.071 118.194C120.666 118.798 121.866 118.353 122.563 117.894C125.563 115.91 127.392 118.784 127.798 119.398C127.919 119.398 129.144 116.529 124.885 115.755C124.532 114.748 123.555 112.968 120.666 113.19C119.713 109.779 116.829 111.463 116.926 113.011C113.863 110.718 116.979 107.824 118.213 107.374C119.074 107.452 118.881 110.21 120.39 109.74C120.753 109.634 119.219 107.844 119.805 107.031C121.189 106.227 121.155 108.056 121.837 107.374C122.176 106.184 123.531 105.511 124.648 105.381C127.774 104.931 130.213 108.419 133.213 106.706ZM124.285 100.823C124.285 100.823 119.674 98.2822 114.269 97.9242C109.034 97.5613 98.471 101.815 90.3565 101.248V65.0161C90.3565 65.0161 99.6081 66.2645 103.406 64.7742C116.331 59.7129 124.285 65.3693 124.285 65.3693V100.823ZM88.7113 93.2403H84.3081V88.8419H88.7113V93.2403ZM88.7113 77.9064H84.3081V73.5032H88.7113V77.9064ZM79.1258 94.5129C73.9581 94.5129 73.9581 86.8193 79.1258 86.8193C84.0952 86.8193 84.1242 94.5129 79.1258 94.5129ZM79.1258 79.1451C74.0742 79.1451 74.1806 71.4419 79.1258 71.4419C84.0952 71.4419 84.0952 79.1451 79.1258 79.1451ZM112.411 115.082C111.487 113.481 113.51 111.956 113.51 111.956C113.452 116.456 119.108 113.369 122.065 114.797C122.747 115.142 123.28 115.723 123.565 116.432C120.39 114.197 114.516 118.735 112.411 115.082ZM97.1161 153.182C97.1403 154.726 97.0339 155.868 97.4742 157.435C98.1903 159.802 97.8323 159.071 96.8548 158.253C96.0758 157.377 95.35 156.656 94.9774 155.631C94.8855 154.9 95.4613 154.861 97.1161 153.182ZM85.721 121.382L85.6339 121.295C85.5323 121.295 78.279 125.945 73.5661 123.715C77.079 121.74 89.2339 113.887 92.5581 111.661C94.1306 112.01 94.7645 111.429 95.2629 111.076C93.9952 111.153 89.7806 111.826 91.9097 107.998C92.7274 111.429 98.6355 108.265 100.755 107.771C106.663 106.392 106.619 112.803 106.116 115.465C105.927 116.447 107.926 117.153 108.913 117.008C107.219 121.252 104.326 117.25 103.982 118.871C103.842 119.524 101.906 120.037 101.916 121.668C101.926 123.894 102.782 122.679 102.86 124.402C102.947 126.076 102.158 124.774 102.337 126.584C102.623 129.453 107.297 126.197 109.227 126.976C110.19 127.363 110.829 128.244 111.773 128.069C112.048 127.842 111.923 126.758 111.879 126.366C111.782 125.456 110.123 125.35 109.348 124.106C108.681 123.018 110.113 119.752 110.892 118.794C112.005 124.184 116.979 122.495 117.719 128.166C118.189 129.768 116.011 131.548 117.777 134.161C116.466 135.453 114.889 141.594 117.637 144.477C117.168 145.779 116.558 148.789 119.002 150.55C118.179 152.326 118.368 154.503 119.06 156.715C117.535 156.719 117.84 148.044 108.724 147.768C108.521 147.705 108.468 148.755 108.734 149.219C109.827 151.169 111.294 151.058 110.979 155.65C110.868 157.218 109.963 155.374 109.479 154.944C108.376 153.947 107.524 153.816 107.045 150.584C103.339 153.54 103.702 157.111 103.934 158.931C103.934 158.931 103.116 156.666 102.182 154.339C102.129 154.213 105.942 149.548 106.547 148.445C114.24 134.374 101.582 152.994 101.558 152.931C100.876 151.324 100.276 149.94 99.879 149.505C99.9758 149.311 102.085 146.916 103.044 144.898C108.995 132.308 99.5065 149.089 99.1677 148.779C98.4516 148.131 97.8613 147.308 97.4065 147.598C97.3 149.534 96.8452 149.273 96.9758 151.247C95.6425 152.942 94.094 154.456 92.3694 155.752C92.3694 155.752 91.9968 152.258 92.0984 152.137C92.8435 151.208 95.771 148.019 96.3661 147.066C106.116 131.51 91.8032 150.816 91.7742 150.652C91.6774 150.037 90.8935 149.021 90.0565 148.155C90.0565 148.155 93.2161 143.781 93.9952 142.15C99.9274 129.753 89.229 147.642 89.1081 147.579C88.8516 147.439 88.8274 147.444 88.5274 147.342C88.2274 147.235 88.8565 143.771 89.2677 141.681C90.071 137.548 87.9177 140.877 87.3323 147.424C86.7806 147.516 85.4452 147.656 84.9419 148.121C85.2661 149.868 85.6726 148.523 86.3935 150.202C87.2548 152.21 85.1936 155.51 86.9887 157.924C87.6806 158.853 87.7242 158.698 87.5839 159.313C86.4806 159.231 85.8081 159.206 85.1113 160.174C83.7565 153.903 83.7952 150.894 84.1145 144.516C84.2597 141.623 85.1935 137.239 84.7677 137.161C84.3613 137.084 77.9016 153.985 76.3387 157.3C73.6145 156.366 78.0371 141.734 83.6548 134.689C84.1823 132.448 80.7081 136.963 78.6323 138.753C76.7306 140.403 74.321 142.552 71.6984 141.816C75.071 138.197 82.7935 131.418 83.6548 129.724C84.371 128.277 78.3806 134.244 72.0516 132.027C76.15 129.797 85.7065 124.837 85.721 121.382ZM85.6581 162.55C86.7129 163.276 87.9565 163.6 89.0984 164.098C90.5161 167.853 89.1323 171.555 88.3387 170.016C86.9452 167.331 86.3984 165.105 85.6581 162.55ZM183.182 141.642L183.177 57.8839C116.974 51.4 67 57.8839 67 57.8839V141.656C72.2742 198.434 124.6 205.106 125.098 205.015C134.442 203.302 178.31 194.335 183.182 141.642Z" fill="#800000"/>
</g>
</g>
<defs>
<clipPath id="clip0_192_21798">
<rect width="116.129" height="150" fill="white" transform="translate(67 55)"/>
</clipPath>
<clipPath id="clip1_192_21798">
<rect width="116.129" height="150" fill="white" transform="translate(67 55)"/>
</clipPath>
</defs>
</svg>
