<svg width="250" height="250" viewBox="0 0 250 250" fill="none" xmlns="http://www.w3.org/2000/svg">
<rect width="250" height="250" fill="#F7F7F7"/>
<path d="M62.8928 123.995H124.405V60H67.2249C64.3241 66.7725 57.7818 93.471 62.8928 123.995Z" fill="#8C191C"/>
<path d="M183.075 60H125.925V202.168V209.528C130.172 207.207 134.109 204.643 137.812 202.168C206.634 154.558 188.55 72.6509 183.075 60Z" fill="#8C191C"/>
<path d="M112.511 202.168C116.236 204.643 120.177 207.203 124.406 209.528V202.168V125.568H63.1655C67.8123 151.657 81.1423 180.52 112.511 202.168Z" fill="#8C191C"/>
<path d="M124.405 60V123.995H62.8926C62.9732 124.517 63.0537 125.047 63.165 125.568H124.405V202.168V209.528C124.666 209.624 124.912 209.731 125.169 210C125.434 209.731 125.671 209.624 125.925 209.528V202.168V60H124.405Z" fill="white"/>
<path d="M93.4861 71.7722L93.5283 73.5104C94.7293 72.5895 96.456 71.8067 97.8373 71.5228C97.0661 74.9301 95.3816 75.8395 93.5475 76.1734L93.4707 79.032C95.0017 77.854 97.2464 76.2194 98.9655 75.8894C97.9716 80.1985 95.8881 81.8062 93.5513 82.1209V84.9488C95.4046 83.7708 98.3592 81.6259 100.504 81.2959C99.2763 85.7277 96.5174 87.4506 93.5667 87.7307L93.5782 90.4013C95.42 89.1313 98.3592 87.3201 100.485 86.9057C99.307 91.2417 96.433 93.8048 93.5858 94.1655V96.3834C95.4353 95.2169 98.3592 93.306 100.485 92.9837C99.353 97.4539 96.5135 99.902 93.5475 100.163V101.943C95.7922 100.597 99.4681 98.3096 102.035 97.9643C100.566 102.749 97.0738 105.332 93.5475 105.638V107.757C94.7523 106.747 97.2733 105.773 98.6623 105.504C97.9141 108.7 95.301 109.917 93.5398 110.301L93.5321 114.188C93.9542 114.18 94.3302 114.13 94.7753 114.099C94.6487 112.737 95.4276 111.352 97.1889 110.239C97.2656 111.206 96.6862 112.764 96.3332 113.723C97.2886 113.577 98.2057 113.309 99.1496 112.864C98.6508 110.907 99.2954 108.275 101.54 105.991C101.989 107.488 101.563 109.971 101.387 111.621C102.365 111.033 103.386 110.312 104.33 109.476C103.244 107.584 103.459 104.725 105.55 101.859C106.183 103.275 106.202 106.038 106.225 107.695C107.077 106.724 107.983 105.765 108.8 104.656C107.338 102.799 107.288 101.08 109.053 97.523C109.656 99.0195 110.208 101.107 110.235 102.776C111.014 101.832 111.555 101.011 112.192 99.7562C111.82 98.866 112.004 98.2214 112.453 97.6266C113.132 96.8131 114.095 96.0726 114.962 96.6098C116.209 97.17 115.565 98.5283 115.166 99.4646C114.855 100.201 114.337 100.692 113.435 100.597C112.779 101.709 111.896 102.995 111.144 103.923C112.929 104.484 114.168 104.948 115.388 106.137C112.737 107.231 111.198 106.966 109.886 105.869C109.038 106.985 107.791 108.267 106.889 109.165C108.639 109.706 109.778 110.212 111.194 111.632C108.305 112.795 106.202 112.457 104.917 111.087C103.946 111.931 102.964 112.802 101.966 113.393C103.662 114.245 104.875 115.231 105.907 116.628C102.641 117.319 100.481 116.421 99.5449 114.548C98.5664 114.989 97.657 115.308 96.7016 115.523C97.6186 116.332 98.2326 116.931 98.7237 117.994C96.4905 117.867 95.2128 117.334 94.8713 116.045C94.4492 116.075 93.9811 116.367 93.536 116.363V120.672L90.8039 119.487V116.336C90.52 116.221 89.8485 116.072 89.5799 115.953C89.1962 117.28 88.2024 117.81 86.0843 117.833C86.5217 116.755 86.7827 116.068 87.8647 115.511C86.9054 115.25 85.9462 114.744 84.9869 114.257C84.1389 116.352 82.2012 117.196 78.7785 116.394C79.7723 114.986 81.0615 113.677 82.7767 113.105C81.9019 112.545 81.0846 112.004 80.225 111.168C78.9511 112.572 76.8254 113.079 73.8938 111.889C75.091 110.615 76.292 109.687 78.0993 109.364C77.1937 108.39 76.3496 107.285 75.4824 106.176C74.1701 107.342 72.2017 107.745 69.5195 106.621C70.7321 105.347 72.1057 104.115 73.8171 104.123C73.2914 103.34 72.8079 102.492 72.2631 101.629C71.6952 101.621 71.2079 101.629 70.6131 100.857C69.9838 100.052 69.3891 98.3211 70.4558 97.7686C71.0966 97.2007 72.6122 98.0333 73.1034 98.9235C73.583 99.76 73.3988 100.274 73.2492 100.854C73.7902 101.686 74.3811 102.527 74.926 103.298C74.5538 100.857 75.2445 98.8775 75.8546 97.4654C78.0149 100.485 77.6005 103.045 76.411 104.929C77.2973 106.038 78.0648 106.866 78.9435 107.745C78.6902 106.064 78.9051 103.528 79.5152 102.101C81.5335 104.806 81.8059 107.711 80.8774 109.518C81.7177 110.266 82.5311 110.907 83.36 111.44C82.8803 109.921 82.7077 107.239 83.1105 105.757C85.3783 108.04 86.092 110.619 85.5701 112.587C86.5102 113.071 87.481 113.412 88.4249 113.658C87.9722 112.749 87.5347 111.118 87.6 110.066C89.3036 111.164 89.7487 112.465 89.695 113.819C89.9598 113.838 90.6581 114.153 90.9267 114.153L90.8768 110.301C89.1962 109.921 86.6675 108.904 85.8387 105.631C87.4119 106.057 89.4303 106.41 90.8768 107.73V105.731C87.4848 105.458 84.0545 103.014 82.3546 98.229C85.313 98.747 88.1448 100.151 90.8768 101.893V100.14C87.8954 99.9174 85.0905 97.1508 83.8626 93.2446C86.3145 93.7243 88.6053 94.7833 90.873 96.3949V94.1617C88.1026 93.8624 85.244 91.541 83.8626 87.1667C86.3145 87.6616 88.6053 88.7322 90.873 90.2786V87.7806C88.0067 87.6425 85.29 86.0155 83.8626 81.553C86.3145 82.0441 88.6053 83.2797 90.873 84.922V82.1247C88.6206 81.8638 86.468 80.4671 85.3399 76.0621C87.3045 76.5417 89.0389 77.3859 90.873 79.0243V76.158C89.1501 75.782 87.5232 75.1182 86.6599 71.7415C87.8417 72.0178 89.2614 72.06 90.8884 73.4836L90.8538 71.7722C89.53 69.8076 89.8216 68.9558 89.9981 67.3634C90.1209 65.9552 90.6543 64.8884 92.1815 64.8386C93.7009 64.9 94.219 65.9552 94.3724 67.3634C94.5336 68.9558 94.8175 69.8076 93.4861 71.7722Z" fill="white"/>
<path d="M145.333 82.9843C145.598 83.1684 145.894 83.1569 145.974 82.9497C146.097 82.7387 145.936 82.4624 145.663 82.3703C145.399 82.1823 145.099 82.1976 145.03 82.4125C144.942 82.6236 145.061 82.8922 145.333 82.9843Z" fill="#A61D38"/>
<path d="M146.737 79.9491C146.971 80.1832 147.259 80.2139 147.37 80.1103C147.543 79.9223 147.478 79.6383 147.255 79.4772C147.006 79.2661 146.726 79.2354 146.599 79.3429C146.449 79.5232 146.495 79.8148 146.737 79.9491Z" fill="#A61D38"/>
<path d="M157.662 107.181C158.602 96.3143 160.244 93.2791 162.965 91.0191L163.206 90.8042L162.174 84.12L161.679 84.2734C160.194 84.4807 158.851 85.9119 157.938 87.1206L157.93 80.7817L150.594 76.4841L150.601 80.1946C149.803 79.3888 149.044 78.7864 148.763 78.5562C147.931 77.9653 147.225 77.6851 146.461 77.6851C146.028 77.6851 145.636 77.8386 145.302 77.8923C144.727 77.9959 144.293 78.1763 143.453 77.8233C139.762 77.0559 136.911 77.8847 135.303 80.1179C133.833 82.1746 133.584 85.4476 134.697 88.5518C135.587 91.0766 137.271 93.636 138.557 95.4279C139.255 96.3795 145.698 103.233 147.217 104.718C148.295 105.815 149.45 106.905 150.621 107.987V110.842L148.737 109.537L146.925 113.854L147.298 114.111C148.944 115.07 150.567 117.76 151.668 131.504C147.651 132.947 142.298 137.713 142.171 142.682C142.079 144.953 143.161 148.192 148.798 150.394C150.026 150.889 151.35 151.423 152.631 151.96C152.708 154.381 152.785 157.109 152.838 159.949C151.802 160.382 149.5 161.576 149.078 163.375C148.733 164.925 149.677 166.261 151.779 167.723C152.152 167.88 152.562 168.156 152.923 168.233C152.934 168.908 152.938 169.611 152.95 170.474C151.741 171.05 151.269 171.238 150.548 172.181C150.133 172.653 149.799 172.968 150.014 173.44C150.06 173.521 150.218 173.881 150.651 173.881C150.943 173.881 151.384 173.801 152.155 173.386C152.608 173.267 152.888 173.214 153.115 173.183C153.433 173.916 154.189 174.449 155.026 174.449C155.92 174.449 156.653 173.851 156.837 172.799C156.837 172.4 156.837 172.216 156.833 171.832C157.869 171.495 158.491 170.535 158.521 169.419C158.594 168.199 157.911 166.825 156.806 166.084C156.802 164.998 156.798 163.932 156.791 162.861C160.532 162.163 164.522 159.811 164.872 156.538C165.106 154.5 164.043 151.672 157.869 149.262C157.474 149.159 157.105 148.879 156.756 148.783C156.752 143.718 156.76 139.152 156.783 134.885C163.444 131.55 167.949 128.465 168.528 124.302C169.104 120.024 165.512 114.943 157.662 107.181ZM146.415 79.1164C146.58 78.9706 147.075 78.9782 147.409 79.2775C147.589 79.385 147.701 79.6306 147.724 79.8569C147.731 79.9874 147.662 80.1601 147.574 80.233C147.486 80.3941 147.317 80.4363 147.175 80.4363C146.956 80.4363 146.726 80.3634 146.53 80.1677C146.381 79.9721 146.239 79.8071 146.235 79.5692C146.235 79.3735 146.308 79.2775 146.415 79.1164ZM144.781 82.328C144.961 82.0287 145.391 81.8906 145.817 82.117C146.193 82.3511 146.388 82.7079 146.219 83.0226C146.135 83.2489 145.916 83.3487 145.659 83.3487C145.536 83.3487 145.356 83.2873 145.222 83.2374C144.992 83.1569 144.807 82.9305 144.754 82.7002C144.727 82.6005 144.731 82.4125 144.781 82.328ZM148.395 98.4937C138.357 89.3691 137.939 85.2097 138.587 83.5444C139.171 82.0633 140.909 81.6067 141.884 81.6067C142.129 81.6067 142.302 81.6297 142.432 81.6911C142.751 81.7832 142.758 81.8254 142.847 82.1937C143.023 82.8883 143.257 83.8168 145.176 84.4768C147.555 85.2289 149.312 85.6932 150.609 85.7354L150.621 100.512C149.846 99.7792 149.193 99.1614 148.395 98.4937ZM160.378 156.718C160.367 157.19 159.814 158.118 156.775 158.936C156.771 157.182 156.768 155.452 156.764 153.763C158.893 154.849 160.405 155.931 160.378 156.718ZM156.86 81.4609V85.7929L154.224 85.1368L153.007 84.542C153.161 83.5904 152.524 82.4508 151.657 81.3995V78.2952L156.86 81.4609ZM147.259 142.785C147.083 141.535 148.568 139.827 152.044 137.164C152.228 140 152.351 143.273 152.501 146.999C149.469 145.498 147.424 144.24 147.259 142.785ZM153.721 152.278C154.427 152.654 155.079 152.854 155.697 153.23C155.701 155.103 155.705 157.186 155.712 159.323L155.697 159.331V163.183L155.735 163.176C155.735 163.889 155.739 164.576 155.743 165.47C155.225 165.14 154.231 164.549 153.97 163.82C153.909 159.565 153.802 155.908 153.721 152.278ZM155.029 173.359C154.703 173.359 154.277 173.24 154.055 172.738L154.047 172.642C154.036 171.149 154.028 169.868 154.016 168.421C155.129 168.774 155.758 168.924 155.739 170.466V172.308L155.824 172.3C155.824 172.381 155.824 172.646 155.824 172.726C155.666 173.333 155.152 173.359 155.029 173.359ZM155.678 148.307C154.941 148.104 154.247 147.716 153.583 147.513C152.562 117.959 150.287 114.771 148.261 113.397L149.232 111.164L151.703 112.837L151.695 108.915C152.129 109.372 152.593 109.744 153.061 110.193C154.143 111.125 155.183 112.046 156.219 113.048C155.839 121.167 155.663 132.398 155.678 148.307ZM156.699 106.176C155.152 104.725 153.472 103.114 151.691 101.441L151.672 85.7047C152.017 85.6586 152.271 85.4745 152.474 85.3555L153.679 85.9464L155.264 88.4559L155.728 88.2679L155.643 86.6448L156.871 86.38V89.0008L157.892 89.1619C158.441 88.0645 159.891 86.05 161.299 85.4438L162.074 90.4243C159.304 92.7611 157.619 95.8308 156.699 106.176ZM156.825 129.313C156.933 123.212 157.059 118.186 157.263 113.973C160.854 117.48 163.483 120.665 162.991 123.631C162.654 125.699 160.601 127.598 156.825 129.313Z" fill="white"/>
<path d="M109.149 150.383L109.138 136.646H84.96V160.954H92.4193V174.518H116.612V150.379L109.149 150.383ZM102.004 139.808H105.968V149.911H102.004V139.808ZM106.049 160.958V163.955H102.967V160.958H106.049ZM88.586 139.808H98.6968V143.764H88.586V139.808ZM92.4154 157.796H88.444V147.701H92.4154V157.796ZM95.5043 147.221H98.574V150.383H95.5043V147.221ZM95.8458 153.859H105.964V157.792H95.8458V153.859ZM99.8901 171.061H95.9417V160.958H99.8901V171.061ZM112.986 170.984H102.872V167.044H112.982L112.986 170.984ZM113.124 163.882H109.13V153.779H113.117V163.882H113.124Z" fill="white"/>
</svg>
