<svg width="250" height="250" viewBox="0 0 250 250" fill="none" xmlns="http://www.w3.org/2000/svg">
<rect width="250" height="250" fill="#011F5B"/>
<path d="M189 52H61V115.738C61 143.541 76.2131 163.738 89.3279 175.541C103.492 188.656 119.23 196.262 124.475 197.574L125 197.836L125.525 197.574C130.77 196.525 146.508 188.918 160.672 175.541C173.525 163.475 189 143.541 189 115.738C189 114.951 189 52 189 52Z" fill="white"/>
<path d="M64.1475 55.4099C64.1475 55.4099 64.4098 92.3935 64.1475 92.3935H185.852C185.852 75.082 185.852 55.4099 185.852 55.4099H64.1475ZM96.9343 78.7541L97.4589 79.2787C97.7212 79.541 97.7212 79.8033 97.7212 80.0656C97.7212 80.3279 97.7212 80.5902 97.4589 80.8525C97.1966 81.1148 97.1966 81.1148 96.9343 81.3771C96.6721 81.6394 96.4098 81.9017 96.4098 82.164V84.5246H83.0327H69.6557V82.164C69.6557 81.9017 69.3934 81.6394 69.1311 81.3771C68.8688 81.1148 68.8688 81.1148 68.6065 80.8525C68.3442 80.5902 68.3442 80.3279 68.3442 80.0656C68.3442 79.8033 68.3442 79.541 68.6065 79.2787L69.1311 78.7541C69.3934 78.4918 69.6557 78.2295 69.6557 77.9672V70.623C69.6557 70.3607 69.3934 70.0984 69.1311 69.8361C68.6065 69.5738 68.6065 69.3115 68.3442 69.0492C68.3442 69.0492 68.0819 68.7869 68.0819 68.5246C68.0819 68.2623 68.0819 68 68.3442 67.7377L68.8688 67.2131C69.1311 66.9508 69.3934 66.6885 69.3934 66.4262V64.0656H69.6557C71.2294 64.0656 72.5409 64.0656 73.5901 63.541C74.1147 63.541 74.377 63.2787 74.9016 63.0164C75.6884 62.4918 76.4753 61.9672 78.0491 61.9672C79.0983 61.9672 80.1475 62.4918 81.1966 62.7541C81.7212 63.0164 82.5081 63.2787 83.0327 63.2787H83.295C83.8196 63.2787 84.3442 63.0164 85.1311 62.7541C85.918 62.4918 86.9671 61.9672 88.2786 61.9672C89.5901 61.9672 90.6393 62.4918 91.4262 63.0164C91.6884 63.2787 92.213 63.541 92.4753 63.541C93.5245 64.0656 94.836 64.0656 96.4098 64.0656H96.6721V66.4262C96.6721 66.6885 96.9343 66.9508 97.1966 67.2131C97.4589 67.4754 97.4589 67.4754 97.7212 67.7377C97.4589 68 97.7212 68.2623 97.7212 68.5246C97.7212 68.7869 97.7212 69.0492 97.4589 69.3115C97.1966 69.5738 97.1966 69.5738 96.9343 69.8361C96.6721 70.0984 96.4098 70.3607 96.4098 70.623V77.9672C96.4098 78.2295 96.6721 78.4918 96.9343 78.7541ZM148.344 82.6885C146.246 86.0984 142.311 86.8853 142.049 86.8853C141.262 87.1476 140.475 87.1476 139.688 87.1476C135.492 87.1476 131.557 85.3115 127.623 83.2131C127.098 82.9508 126.574 82.6885 126.049 82.4262C123.426 81.1148 120.016 79.0164 117.131 79.0164C116.344 79.0164 115.557 79.2787 114.77 79.541V79.8033C114.77 80.0656 114.77 80.5902 114.508 80.8525C113.984 82.164 112.41 83.4754 111.623 84C109.787 85.3115 107.688 86.623 105.065 86.623C104.541 86.623 104.279 86.623 104.016 86.3607C103.492 86.0984 103.229 85.8361 102.967 85.5738C102.705 85.3115 102.705 85.0492 102.705 85.0492C102.705 84.7869 102.705 84.7869 102.443 84.5246V84.2623H102.18C101.131 84 100.606 83.2131 100.606 82.4262C100.606 81.9017 101.131 81.3771 101.393 80.8525C102.18 80.0656 102.705 79.2787 101.656 78.4918L101.393 78.2295C101.131 78.2295 101.131 77.9672 101.131 77.9672C100.344 77.1803 100.869 75.082 101.131 74.0328C101.393 72.7213 101.918 71.4099 102.705 70.0984C103.754 68.2623 104.803 66.164 106.377 64.8525C107.951 63.541 106.639 65.1148 106.902 65.6394L107.164 66.164L107.426 65.1148C107.951 63.8033 108.475 63.0164 109.525 62.4918C110.574 61.9672 111.623 62.7541 112.147 63.0164L112.41 63.2787L112.672 63.0164C112.934 62.4918 113.459 61.9672 114.508 61.9672C115.557 61.9672 116.606 62.7541 116.869 63.0164L117.131 63.2787L117.393 63.0164C117.918 62.4918 119.229 61.7049 120.541 61.9672C121.852 62.2295 122.115 63.2787 122.377 63.541V63.8033H122.639C123.164 63.541 124.213 63.2787 125.262 63.8033C126.049 64.3279 126.049 64.8525 126.049 65.3771V65.6394H126.311C127.098 65.3771 128.41 65.3771 129.459 66.164C130.246 66.9508 130.246 67.7377 129.984 68.2623V68.5246H130.246C131.033 68.5246 131.82 68.5246 132.344 69.3115C132.606 69.8361 132.606 70.623 132.344 70.8853V71.1476H132.606C133.131 71.1476 133.656 71.4099 133.918 71.9344C134.18 72.459 133.918 72.9836 133.656 73.7705V74.0328H133.918C134.18 74.2951 134.967 74.5574 135.229 75.082C135.492 75.8689 135.492 76.6558 135.229 77.4426V77.7049C136.016 78.4918 137.065 79.2787 137.852 79.8033C139.688 81.1148 142.311 81.9017 144.41 80.3279C145.197 79.8033 145.459 78.7541 145.197 77.7049C144.934 76.918 144.41 76.1312 143.623 76.1312C142.311 75.8689 141 77.1803 140.213 78.4918C140.213 78.4918 140.213 78.4918 139.951 78.4918C139.164 76.3935 139.164 74.8197 139.951 73.5082C140.475 72.459 141.787 71.6721 143.361 71.4099H143.623V71.1476C143.623 68.7869 144.147 66.9508 145.459 65.9017C146.246 65.3771 147.557 64.5902 149.656 64.8525C148.082 68.7869 148.344 70.0984 149.393 73.2459C149.393 73.5082 149.656 73.7705 149.656 74.0328C149.918 77.9672 149.656 80.5902 148.344 82.6885ZM181.131 78.7541C181.393 79.0164 181.393 79.0164 181.656 79.2787C181.918 79.541 181.918 79.8033 181.918 80.0656C181.918 80.3279 181.918 80.5902 181.656 80.8525C181.393 81.1148 181.393 81.1148 181.131 81.3771C180.869 81.6394 180.606 81.9017 180.606 82.164V84.5246H167.229H153.852V82.164C153.852 81.9017 153.59 81.6394 153.328 81.3771C153.065 81.1148 152.803 80.8525 152.803 80.5902C152.541 80.3279 152.541 80.0656 152.541 79.8033C152.541 79.541 152.541 79.2787 152.803 79.0164C153.065 78.7541 153.065 78.7541 153.328 78.4918C153.59 78.2295 153.852 77.9672 153.852 77.7049V70.623C153.852 70.3607 153.59 70.0984 153.328 69.8361C153.065 69.5738 152.803 69.3115 152.803 69.0492C152.541 68.7869 152.541 68.5246 152.541 68.2623C152.541 68 152.541 67.7377 152.803 67.4754C153.065 67.2131 153.065 67.2131 153.328 66.9508C153.59 66.6885 153.852 66.4262 153.852 66.164V64.0656H154.115C155.688 64.0656 157 64.0656 158.049 63.541C158.311 63.2787 158.836 63.0164 159.098 63.0164C159.885 62.4918 160.934 61.9672 162.246 61.9672C163.295 61.9672 164.344 62.4918 165.393 62.7541C165.918 63.0164 166.705 63.2787 167.229 63.2787H167.492C168.016 63.2787 168.541 63.0164 169.328 62.7541C170.115 62.4918 171.164 61.9672 172.475 61.9672C173.787 61.9672 174.836 62.4918 175.623 63.0164C175.885 63.2787 176.41 63.541 176.672 63.541C177.721 64.0656 179.033 64.0656 180.606 64.0656H180.869V66.4262C180.869 66.6885 181.131 66.9508 181.393 67.2131C181.393 67.4754 181.656 67.4754 181.656 67.7377C181.918 68 181.918 68.2623 181.918 68.5246C181.918 68.7869 181.918 69.0492 181.656 69.3115C181.393 69.5738 181.393 69.5738 181.131 69.8361C180.869 70.0984 180.606 70.3607 180.606 70.623V77.9672C180.606 78.2295 180.869 78.4918 181.131 78.7541Z" fill="#990000"/>
<path d="M106.115 77.1804C106.639 77.1804 106.902 77.1804 107.426 77.7049C107.688 77.7049 107.688 77.9672 107.688 77.9672C107.951 78.2295 107.951 78.7541 107.688 79.0164C107.426 79.2787 107.164 79.541 106.902 79.541C106.377 79.8033 105.59 80.5902 105.065 80.0656C104.803 79.8033 105.328 79.541 105.065 78.4918C104.803 77.4427 105.59 77.1804 106.115 77.1804Z" fill="#011F5B"/>
<path d="M139.689 87.1476C135.492 87.1476 131.557 85.3115 127.623 83.2132C127.098 82.9509 126.574 82.6886 126.049 82.4263C122.902 80.5902 117.918 77.9673 115.033 79.8033C115.033 80.3279 115.033 80.5902 114.771 80.8525C114.246 82.164 112.672 83.4755 111.885 84C110.049 85.3115 107.951 86.623 105.328 86.623C104.803 86.623 104.541 86.623 104.279 86.3607C103.754 86.0984 103.23 85.8361 102.967 85.5738C102.705 85.3115 102.705 85.0492 102.443 84.7869C102.443 84.5246 102.18 84.2623 102.18 84.2623C101.131 84 100.344 83.2132 100.344 82.164C100.344 81.3771 100.869 80.8525 101.394 80.3279C102.18 79.541 102.443 79.0164 101.656 78.2295L101.394 77.9673C101.131 77.9673 101.131 77.705 100.869 77.705C99.8197 76.6558 100.344 74.8197 100.869 73.5082C101.131 72.1968 101.656 70.8853 102.443 69.5738C103.492 67.7377 104.541 65.6394 106.115 64.0656H106.377C106.377 64.0656 106.639 64.0656 106.639 64.3279C106.639 64.3279 107.426 65.3771 107.951 66.6886C110.836 65.1148 114.771 64.8525 115.295 64.8525C117.918 64.8525 121.328 65.1148 124.475 67.4754C126.312 69.0492 127.885 70.8853 129.459 72.4591C129.984 72.9836 130.246 73.5082 130.771 73.7705C133.131 76.3935 135.492 78.4918 137.59 80.0656C139.426 81.3771 142.049 81.9017 143.885 80.5902C144.41 80.0656 144.935 79.0164 144.672 78.2295C144.41 77.4427 143.885 76.9181 143.361 76.6558C142.049 76.3935 141 77.705 140.213 79.0164L139.951 79.2787C139.689 79.2787 139.689 79.2787 139.689 79.0164C138.902 76.9181 138.902 75.082 139.689 73.7705C140.475 72.7214 141.787 71.6722 143.361 71.6722C143.361 69.3115 143.885 67.4754 145.197 66.164C145.984 65.3771 147.295 64.8525 149.656 65.1148C149.656 65.1148 149.918 65.1148 149.918 65.3771V65.6394C148.344 69.3115 148.869 70.8853 149.656 74.0328C149.656 74.2951 149.918 74.5574 149.918 74.8197C150.705 77.9673 150.443 80.5902 149.131 82.6886C147.033 86.0984 142.836 86.8853 142.836 86.8853C141.262 87.1476 140.475 87.1476 139.689 87.1476ZM117.131 78.4918C120.279 78.4918 123.689 80.3279 126.312 81.9017L127.885 82.6886C132.607 85.0492 137.066 87.1476 142.049 86.3607C142.049 86.3607 145.984 85.5738 147.82 82.4263C149.131 80.5902 149.131 77.9673 148.607 75.3443C148.607 75.082 148.344 74.8197 148.344 74.5574C147.557 71.6722 147.033 69.8361 148.607 66.164C147.033 66.164 145.984 66.6886 145.459 67.2132C144.41 68.2623 143.885 69.8361 143.885 72.4591C143.885 72.7214 143.623 72.7214 143.623 72.9836C142.049 73.2459 140.738 73.7705 140.213 74.8197C139.689 75.8689 139.689 77.1804 140.213 78.7541C141 77.705 142.312 76.3935 143.885 76.6558C144.935 76.9181 145.721 77.705 145.984 78.7541C146.246 80.0656 145.984 81.3771 144.935 81.9017C142.836 83.7377 139.689 82.9509 137.853 81.3771C135.492 79.8033 133.394 77.705 130.771 74.8197C130.246 74.2951 129.984 73.7705 129.459 73.5082C127.885 71.6722 126.312 69.8361 124.475 68.5246C121.59 66.164 118.18 65.9017 115.82 65.9017C114.246 65.9017 110.836 66.4263 108.738 67.7377C109.525 69.0492 110.049 70.623 110.049 71.9345V72.7214C111.623 71.6722 113.459 72.4591 114.508 73.5082C114.771 73.7705 115.033 74.0328 115.295 74.5574C115.82 75.082 116.082 75.8689 116.607 76.3935V76.6558C116.607 76.6558 116.607 76.9181 116.344 76.9181C116.344 76.9181 115.295 77.705 113.984 78.7541C113.721 79.0164 113.459 79.0164 113.459 79.2787L114.771 79.541C115.295 78.7541 116.344 78.4918 117.131 78.4918ZM106.377 65.1148C105.066 66.4263 104.016 68.2623 103.23 70.0984C102.443 71.4099 102.18 72.7214 101.656 73.7705C101.394 74.5574 100.869 76.3935 101.656 77.1804L101.918 77.4427L102.18 77.705C103.492 79.0164 102.705 80.0656 101.918 80.8525C101.656 81.3771 101.131 81.6394 101.131 82.164C101.131 83.2132 102.18 83.4755 102.705 83.4755C102.967 83.4755 102.967 83.7377 102.967 83.7377C102.967 84 102.967 84.2623 103.23 84.5246C103.23 84.7869 103.492 84.7869 103.492 85.0492C103.754 85.3115 104.016 85.5738 104.541 85.5738C104.803 85.5738 105.066 85.8361 105.328 85.8361C107.689 85.8361 109.787 84.5246 111.623 83.4755C112.672 82.6886 113.721 81.6394 114.246 80.5902C114.246 80.3279 114.508 80.0656 114.508 79.8033L112.672 79.541C112.41 79.541 112.41 79.2787 112.41 79.2787C112.41 79.0164 112.672 78.7541 113.197 78.2295C113.459 78.2295 113.459 77.9673 113.721 77.9673C114.508 77.1804 115.295 76.6558 115.82 76.3935C115.295 75.8689 115.033 75.3443 114.508 74.8197C114.246 74.2951 113.984 74.0328 113.721 73.7705C112.935 72.7214 111.361 72.1968 110.049 72.9836C109.525 73.2459 109 73.7705 108.738 74.0328C108.475 74.2951 107.951 74.8197 107.426 75.082C107.164 75.082 107.164 75.082 106.902 75.082C106.902 74.8197 106.902 74.8197 106.902 74.5574C106.902 74.5574 106.902 74.5574 107.164 74.2951C107.689 73.7705 109 72.4591 109 71.6722C109 69.5738 106.902 66.164 106.377 65.1148Z" fill="#011F5B"/>
<path d="M103.754 84.5246C103.492 84.5246 102.967 84.5246 102.705 84.5246C102.442 84.5246 102.442 84.2623 102.442 84C102.442 83.7377 102.705 83.7377 102.967 83.7377C104.803 84 107.164 83.7377 109.524 81.3771C109.787 81.1148 109.787 81.1148 110.049 81.3771C110.311 81.6394 110.311 81.6394 110.049 81.9017C108.213 83.7377 106.115 84.5246 103.754 84.5246Z" fill="#011F5B"/>
<path d="M134.705 78.7541C134.443 78.7541 134.18 78.4918 134.443 78.2295C134.967 77.1804 134.967 76.6558 134.705 75.8689C134.18 75.082 133.394 74.8197 133.394 74.8197C133.394 74.8197 133.131 74.8197 133.131 74.5574V74.2951C133.394 74.0328 133.656 72.9836 133.394 72.459C133.131 71.9345 132.344 71.9345 132.082 71.6722C132.082 71.6722 131.82 71.6722 131.82 71.4099V71.1476C131.82 70.8853 132.082 70.0984 131.82 69.5738C131.295 68.7869 129.721 69.0492 129.721 69.0492H129.459V68.7869C129.459 68.7869 129.984 67.4754 128.935 66.4263C127.885 65.3771 125.787 65.9017 125.787 65.9017H125.525V65.6394C125.525 65.6394 125.787 64.5902 125 64.0656C123.689 63.2787 122.377 64.3279 122.377 64.3279H122.115L121.853 64.0656C121.853 64.0656 121.59 62.4918 120.279 62.2295C118.967 61.9672 117.394 63.541 117.394 63.541H117.131C117.131 63.541 116.869 63.541 116.869 63.2787C116.869 63.2787 115.82 61.9672 114.508 61.9672C113.197 61.9672 112.935 63.2787 112.935 63.2787L112.672 63.541H112.41C112.41 63.541 111.098 62.4918 110.049 62.7541C108.476 63.2787 108.213 65.1148 107.951 65.9017C107.951 66.164 107.689 66.164 107.426 66.164C107.164 66.164 107.164 65.9017 107.164 65.6394C107.426 64.8525 107.951 62.7541 109.787 61.9672C110.836 61.4427 112.148 62.2295 112.672 62.4918C112.935 61.9672 113.721 61.1804 114.771 61.1804C116.082 61.1804 116.869 61.9672 117.394 62.4918C117.918 61.9672 119.23 61.1804 120.541 61.1804C121.59 61.4427 122.377 62.2295 122.639 63.0164C123.164 62.7541 124.476 62.2295 125.525 63.0164C126.312 63.541 126.312 64.3279 126.312 64.8525C126.836 65.1148 128.41 65.1148 129.197 66.164C129.984 66.9509 129.984 68 129.984 68.5246C130.771 68.5246 131.82 68.5246 132.344 69.3115C132.607 69.8361 132.607 70.623 132.344 71.1476C132.869 71.1476 133.656 71.6722 133.918 72.1968C134.18 72.7213 133.918 73.7705 133.656 74.2951C134.18 74.5574 134.705 74.8197 134.967 75.6066C135.492 76.3935 135.23 77.4427 134.705 78.4918C134.967 78.7541 134.967 78.7541 134.705 78.7541Z" fill="#011F5B"/>
<path d="M132.869 83.7377C132.607 83.7377 132.607 83.4754 132.607 83.2131C132.869 81.9016 132.082 81.6394 131.295 81.3771C131.033 81.3771 131.033 81.3771 130.77 81.1148C130.508 80.8525 130.246 80.3279 130.246 80.0656C130.246 79.541 130.246 79.0164 129.721 78.4918C129.197 77.9672 127.885 78.2295 127.885 78.2295H127.623C127.623 78.2295 127.361 77.9672 127.623 77.9672C127.623 77.9672 127.885 76.3935 127.098 75.8689C126.311 75.3443 125 75.3443 124.475 75.6066H124.213C124.213 75.6066 123.951 75.3443 124.213 75.3443C124.213 74.5574 123.951 73.7705 123.164 73.2459C122.639 72.9836 121.852 72.7213 121.328 72.9836C119.754 73.7705 119.229 73.7705 117.656 72.7213C117.131 72.459 116.607 72.1967 116.082 72.459C115.557 72.7213 115.033 73.2459 114.508 74.0328C114.508 74.2951 114.246 74.2951 113.984 74.2951C113.459 73.7705 113.459 73.5082 113.459 73.2459C113.984 72.1967 114.77 71.6721 115.557 71.4098C116.344 71.1476 116.869 71.4098 117.656 71.9344C118.967 72.9836 119.229 72.7213 120.541 72.1967C121.328 71.6721 122.377 71.9344 123.164 72.459C123.951 72.9836 124.475 73.7705 124.475 74.8197C125.262 74.8197 126.311 74.8197 127.098 75.3443C127.885 76.1312 127.885 76.918 127.885 77.7049C128.41 77.7049 129.459 77.4426 130.246 78.2295C130.77 78.7541 130.77 79.541 130.77 80.3279V80.8525H131.033C131.82 81.1148 133.131 81.3771 132.869 83.4754C133.131 83.7377 133.131 83.7377 132.869 83.7377Z" fill="#011F5B"/>
<path d="M96.9346 78.4918C96.6723 78.2295 96.41 78.2295 96.41 77.9672V70.6229C96.41 70.3606 96.6723 70.3606 96.9346 70.0983C97.1969 69.836 97.4592 69.836 97.4592 69.5737C97.7215 69.3115 97.7215 69.0492 97.7215 68.7869C97.7215 68.5246 97.7215 68.2623 97.4592 68C97.1969 67.7377 97.1969 67.4754 96.9346 67.4754C96.6723 67.2131 96.41 67.2131 96.41 66.9508V64.3278H95.8854C94.5739 64.3278 93.0002 64.3278 91.951 63.8033C91.6887 63.541 91.1641 63.541 90.9018 63.2787C90.1149 62.7541 89.0657 62.2295 87.492 62.2295C86.7051 61.7049 85.6559 61.9672 84.6067 62.4918C84.0821 62.7541 83.2952 63.0164 83.0329 63.0164C82.5083 63.0164 81.7215 62.7541 81.1969 62.4918C80.1477 61.9672 79.0985 61.7049 78.0493 61.7049C76.4756 61.7049 75.6887 62.2295 74.6395 62.7541C74.3772 63.0164 73.8526 63.2787 73.5903 63.2787C72.5411 63.8033 71.2297 63.8033 69.9182 63.8033H69.1313V66.4262C69.1313 66.6885 68.869 66.6885 68.6067 66.9508C68.6067 67.2131 68.3444 67.2131 68.0821 67.4754C68.0821 67.7377 67.8198 68 67.8198 68.5246C67.8198 68.7869 67.8198 69.0492 68.0821 69.3115C68.3444 69.5737 68.3444 69.836 68.6067 69.836C69.1313 70.0983 69.1313 70.3606 69.1313 70.6229V77.9672C69.1313 78.2295 68.869 78.2295 68.6067 78.4918C68.3444 78.7541 68.0821 78.7541 68.0821 79.0164C67.8198 79.2787 67.8198 79.541 67.8198 79.8033C67.8198 80.0656 67.8198 80.3278 68.0821 80.5901C68.3444 80.8524 68.3444 81.1147 68.6067 81.1147C68.869 81.377 69.1313 81.377 69.1313 81.6393V84H82.7706H96.41V81.6393C96.41 81.377 96.6723 81.377 96.9346 81.1147C97.1969 80.8524 97.4592 80.8524 97.4592 80.5901C97.7215 80.3278 97.7215 80.0656 97.7215 79.8033C97.7215 79.541 97.7215 79.2787 97.4592 79.0164C97.4592 78.7541 97.1969 78.7541 96.9346 78.4918ZM84.869 63.2787C85.9182 62.7541 86.7051 62.4918 87.7542 62.4918C89.0657 62.4918 89.8526 63.0164 90.6395 63.541C90.9018 63.8033 91.4264 64.0656 91.951 64.3278C92.2133 64.5901 92.7379 64.5901 93.0002 64.5901V80.3278C92.4756 80.3278 91.6887 80.3278 90.9018 80.3278C89.8526 80.3278 88.5411 80.3278 87.492 80.0655C87.2297 80.0655 86.7051 79.8033 86.4428 79.8033C85.3936 79.541 84.3444 79.0164 83.5575 79.0164V63.8033C83.8198 63.541 84.3444 63.541 84.869 63.2787ZM73.8526 64.0656C74.3772 63.8033 74.6395 63.541 75.1641 63.2787C75.951 63.0164 76.7379 62.4918 78.0493 62.4918C79.0985 62.4918 80.1477 63.0164 80.9346 63.2787C81.4592 63.541 81.9838 63.8033 82.5083 63.8033V78.7541C81.7215 78.7541 80.6723 79.0164 79.6231 79.541C79.3608 79.541 78.8362 79.8033 78.5739 79.8033C77.5247 80.0656 76.2133 80.0655 75.1641 80.0655C74.3772 80.0655 73.5903 80.0655 73.0657 80.0655V64.3278C73.328 64.3278 73.5903 64.3278 73.8526 64.0656ZM97.1969 80.0655V80.5901C97.1969 80.8524 96.9346 80.8524 96.6723 80.8524C96.41 81.1147 95.8854 81.377 95.8854 82.1639V83.7377H82.7706H69.9182V82.1639C69.9182 81.6393 69.3936 81.1147 69.1313 80.8524C68.869 80.8524 68.869 80.5901 68.6067 80.5901C68.6067 80.3278 68.3444 80.3278 68.6067 80.0655C68.6067 79.8033 68.6067 79.8033 68.6067 79.541C68.6067 79.2787 68.869 79.2787 69.1313 79.2787C69.3936 79.0164 69.9182 78.7541 69.9182 77.9672V70.6229C69.9182 70.0983 69.3936 69.5737 69.1313 69.3115C69.1313 69.0492 68.869 69.0492 68.869 68.7869C68.869 68.5246 68.6067 68.5246 68.869 68.2623C68.869 68 68.869 68 68.869 67.7377H69.1313C69.3936 67.4754 69.9182 67.2131 69.9182 66.4262V64.5901H71.7543V81.6393H81.1969C81.4592 82.4262 81.9838 82.6885 82.7706 82.6885C83.5575 82.6885 84.0821 82.1639 84.3444 81.6393H93.787V64.5901H95.6231V66.4262C95.6231 66.9508 96.1477 67.4754 96.41 67.7377C96.6723 67.7377 96.6723 68 96.9346 68C96.9346 68.2623 97.1969 68.2623 96.9346 68.5246V69.0492C96.9346 69.3115 96.6723 69.3115 96.41 69.3115C96.1477 69.5737 95.6231 69.836 95.6231 70.6229V77.9672C95.6231 78.4918 96.1477 79.0164 96.41 79.2787C96.6723 79.2787 96.6723 79.541 96.9346 79.541C96.9346 79.541 97.1969 79.8033 97.1969 80.0655Z" fill="#011F5B"/>
<path d="M181.394 78.4918C181.131 78.2295 180.869 78.2295 180.869 77.9672V70.6229C180.869 70.3606 181.131 70.3606 181.394 70.0983C181.656 69.836 181.656 69.5737 181.918 69.3115C182.18 69.0492 182.18 68.7869 182.18 68.5246C182.18 68.2623 182.18 68 181.918 67.7377C181.656 67.2131 181.656 67.2131 181.394 66.9508C181.131 66.6885 180.869 66.6885 180.869 66.4262V63.8033H180.344C179.033 63.8033 177.459 63.8033 176.41 63.2787C176.148 63.0164 175.623 63.0164 175.361 62.7541C174.574 62.2295 173.525 61.7049 171.951 61.7049C170.902 61.7049 169.59 62.2295 168.803 62.4918C168.279 62.7541 167.492 63.0164 167.23 63.0164C166.705 63.0164 166.18 62.7541 165.656 62.4918C164.607 62.2295 163.558 61.7049 162.508 61.7049C160.935 61.7049 160.148 62.2295 159.098 62.7541C158.836 63.0164 158.312 63.2787 158.049 63.2787C157 63.8033 155.689 63.8033 154.115 63.8033H153.59V66.4262C153.59 66.6885 153.328 66.6885 153.066 66.9508C152.803 67.2131 152.541 67.2131 152.541 67.4754C152.279 67.7377 152.279 68 152.279 68.2623C152.279 68.5246 152.279 68.7869 152.541 69.0492C152.803 69.3115 152.803 69.5737 153.066 69.5737C153.328 69.836 153.59 69.836 153.59 70.0983V77.4426C153.59 77.7049 153.328 77.7049 153.066 77.9672C152.803 78.2295 152.541 78.2295 152.541 78.4918C152.279 78.7541 152.279 79.0164 152.279 79.2787C152.279 79.541 152.279 79.8033 152.541 80.0656C152.803 80.3278 152.803 80.5901 153.066 80.5901C153.328 80.8524 153.59 80.8524 153.59 81.1147V83.4754H167.23H180.869V81.1147C180.869 80.8524 181.131 80.8524 181.394 80.5901C181.656 80.3278 181.918 80.3278 181.918 80.0656C182.18 79.8033 182.18 79.541 182.18 79.2787C182.18 79.0164 182.18 78.7541 181.918 78.4918C181.656 78.7541 181.656 78.7541 181.394 78.4918ZM169.328 63.2787C170.115 62.7541 171.164 62.4918 172.213 62.4918C173.525 62.4918 174.312 63.0164 175.098 63.541C175.361 63.8033 175.885 64.0656 176.41 64.3278C176.672 64.5901 177.197 64.5901 177.459 64.5901V80.3278C176.935 80.3278 176.148 80.3278 175.361 80.3278C174.312 80.3278 173 80.3278 171.951 80.0656C171.689 80.0656 171.164 79.8033 170.902 79.8033C169.853 79.541 168.803 79.0164 168.017 79.0164V63.8033C168.017 63.541 168.541 63.541 169.328 63.2787ZM158.312 64.0656C158.836 63.8033 159.098 63.541 159.623 63.2787C160.41 63.0164 161.197 62.4918 162.246 62.4918C163.295 62.4918 164.344 63.0164 165.131 63.2787C165.656 63.541 166.18 63.8033 166.705 63.8033V78.7541C165.918 78.7541 164.869 79.0164 163.82 79.541C163.558 79.541 163.033 79.8033 162.771 79.8033C161.721 80.0656 160.41 80.0656 159.361 80.0656C158.574 80.0656 157.787 80.0656 157.262 80.0656V64.3278C157.525 64.3278 157.787 64.3278 158.312 64.0656ZM181.394 80.0656V80.5901C181.394 80.8524 181.131 80.8524 180.869 80.8524C180.607 81.1147 180.082 81.377 180.082 82.1639V83.7377H167.23H154.377V82.1639C154.377 81.6393 153.853 81.1147 153.59 80.8524C153.328 80.8524 153.328 80.5901 153.066 80.5901C153.066 80.3278 152.803 80.3278 153.066 80.0656C153.066 79.8033 153.066 79.8033 153.066 79.541C153.066 79.2787 153.328 79.2787 153.59 79.2787C153.853 79.0164 154.377 78.7541 154.377 77.9672V70.6229C154.377 70.0983 153.853 69.5737 153.59 69.3115C153.328 69.3115 153.328 69.0492 153.066 69.0492C153.066 68.7869 152.803 68.7869 153.066 68.5246C153.066 68.2623 153.066 68.2623 153.066 68C153.328 67.7377 153.328 67.7377 153.59 67.7377C153.853 67.4754 154.377 67.2131 154.377 66.4262V64.5901H156.213V81.6393H165.656C165.918 82.4262 166.443 82.6885 167.23 82.6885C168.017 82.6885 168.541 82.1639 168.803 81.6393H178.246V64.5901H180.082V66.4262C180.082 66.9508 180.607 67.4754 180.869 67.7377C181.131 67.7377 181.131 68 181.394 68C181.394 68.2623 181.656 68.2623 181.394 68.5246V69.0492C181.394 69.3115 181.131 69.3115 180.869 69.3115C180.607 69.5737 180.082 69.836 180.082 70.6229V77.9672C180.082 78.4918 180.607 79.0164 180.869 79.2787C181.131 79.2787 181.131 79.541 181.394 79.541V80.0656Z" fill="#011F5B"/>
<path d="M186.64 54.3607H63.3608V115.738C63.3608 142.754 78.3117 162.164 90.9018 173.967C104.541 186.557 120.017 194.164 125 195.213C129.722 194.164 145.197 186.557 159.099 173.967C171.689 162.426 186.64 142.754 186.64 115.738C186.64 114.951 186.64 54.3607 186.64 54.3607ZM185.066 56.1967V91.6066H65.1969C65.1969 76.918 65.1969 60.1311 65.1969 56.1967H185.066ZM88.8035 151.41C84.6067 147.213 84.6067 140.656 88.8035 136.459C93.0002 132.262 99.5576 132.262 103.754 136.459C107.951 140.656 107.951 147.213 103.754 151.41C99.8199 155.344 93.0002 155.344 88.8035 151.41ZM158.049 172.656C143.885 185.77 128.935 192.59 125 193.639C121.066 192.59 106.377 186.033 91.951 172.656C91.6887 172.393 91.1641 172.131 90.9018 171.607L125 135.41L159.099 171.607C158.836 172.131 158.312 172.393 158.049 172.656ZM114.508 117.574C114.508 111.803 119.23 107.082 125 107.082C130.771 107.082 135.492 111.803 135.492 117.574C135.492 123.344 130.771 128.066 125 128.066C119.23 128.328 114.508 123.607 114.508 117.574ZM161.197 151.41C157 155.607 150.443 155.607 146.246 151.41C142.049 147.213 142.049 140.656 146.246 136.459C150.443 132.262 157 132.262 161.197 136.459C165.394 140.393 165.394 147.213 161.197 151.41ZM177.984 145.902L125 94.7541L72.0166 145.902C67.8199 137.246 65.1969 127.279 65.1969 115.738C65.1969 115.475 65.1969 104.984 65.1969 92.918H185.066V115.738C185.066 127.279 182.181 137.246 177.984 145.902Z" fill="#011F5B"/>
</svg>
