<svg width="250" height="250" viewBox="0 0 250 250" fill="none" xmlns="http://www.w3.org/2000/svg">
<rect width="250" height="250" fill="#003930"/>
<path d="M125.017 62.6792C103.003 62.1672 81.5017 59.6075 60 55V163.532C60 165.068 60 166.604 60 166.604C60 171.212 61.5358 175.819 64.6075 178.891C67.1672 181.451 69.727 183.498 73.3106 185.546L76.8942 187.082L79.4539 188.106C80.4778 188.106 83.0375 189.642 84.0614 189.642L125.017 205L165.973 189.642L170.068 188.106L173.14 186.57L176.724 185.034C179.795 183.498 182.867 180.939 185.427 178.379C188.498 174.795 190.034 170.7 190.034 166.092C190.034 166.092 190.034 165.068 190.034 163.02V55C168.532 59.6075 146.519 62.1672 125.017 62.6792Z" fill="#007361"/>
<path d="M125.017 69.3345C105.051 68.8225 85.0853 66.2628 65.6313 62.1672V89.8123C85.0853 93.9079 105.051 96.4676 125.017 96.9795C144.983 96.4676 164.949 93.9079 184.403 89.8123V62.1672C164.949 66.2628 144.983 68.8225 125.017 69.3345Z" fill="#E1C4AC"/>
<path d="M125.017 96.4675C105.051 95.9556 85.0853 93.9078 65.6313 89.3003V150.734C85.0853 154.829 105.051 157.389 125.017 157.901C144.983 157.389 164.949 154.829 184.403 150.734V89.3003C164.949 93.9078 144.983 96.4675 125.017 96.4675Z" fill="#A41E22"/>
<path d="M65.6313 164.044C65.6313 168.14 67.1672 172.235 69.7269 175.307C71.7747 177.867 74.8464 179.915 77.4061 181.45L80.9897 182.986L83.5494 184.01L87.645 185.546L125.017 199.88L162.389 185.546L166.485 184.01L169.044 182.986C170.068 182.474 171.092 181.962 172.116 181.45C175.188 179.915 177.747 177.867 179.795 175.307C182.355 172.235 183.891 168.14 184.403 164.044C184.403 164.044 184.403 163.02 184.403 161.485V151.758C164.949 155.853 144.983 158.413 125.017 158.925C105.051 158.413 85.0853 155.853 65.6313 151.758V164.044Z" fill="#E1C4AC"/>
<path d="M86.6214 68.3106L89.1811 77.0137H97.8842L91.2289 82.1331L93.7887 90.3243L86.6214 85.7168L79.4542 90.3243L82.0139 82.1331L74.8467 77.0137H83.5498L86.6214 68.3106Z" fill="#007361"/>
<path d="M163.413 68.3106L165.973 77.0137H174.676L168.02 82.1331L170.58 90.3243L163.413 85.7168L156.246 90.3243L158.805 82.1331L151.638 77.0137H160.341L163.413 68.3106Z" fill="#007361"/>
<path d="M125.017 71.8942L127.577 80.0854H136.28L129.624 85.2048L132.184 93.9079L125.017 88.7884L117.85 93.9079L120.409 85.2048L113.242 80.0854H121.945L125.017 71.8942Z" fill="#007361"/>
<path d="M125.017 160.461L121.945 163.532V171.724L123.481 176.331V183.498H126.553V176.331L128.089 171.724V163.532L125.017 160.461Z" fill="#007361"/>
<path d="M126.553 190.154V186.058H123.481V190.154L121.945 193.225L125.017 196.809L128.089 193.225L126.553 190.154Z" fill="#007361"/>
<path d="M128.601 186.058V189.13L130.648 191.177L134.232 188.618V186.058H128.601Z" fill="#007361"/>
<path d="M132.184 172.235L128.601 176.331V183.498H131.672V178.891L134.744 175.819L138.328 178.379L140.887 175.819V172.235H132.184Z" fill="#007361"/>
<path d="M121.434 186.058V189.13L119.386 191.177L115.802 188.618V186.058H121.434Z" fill="#007361"/>
<path d="M117.338 172.235L121.433 176.331V183.498H118.361V178.891L115.29 175.819L111.706 178.379L109.146 175.819V172.235H117.338Z" fill="#007361"/>
<path d="M153.174 106.195V141.519H129.624L128.088 143.055L125.017 145.614L121.945 143.055L120.409 141.519H96.8597V106.195L91.7402 110.29V146.638H119.385L121.945 148.686L125.017 151.246L128.088 148.686L130.136 146.638H158.293V110.29L153.174 106.195Z" fill="#E1C4AC"/>
<path d="M128.6 103.635L128.088 104.147L125.017 106.707L121.945 104.147L120.921 103.635H101.467V136.911H120.921L122.457 137.935L125.017 139.983L127.065 137.935L128.6 136.911H148.054V103.635H128.6Z" fill="#E1C4AC"/>
<path d="M163.413 113.874V136.399C169.556 135.375 176.723 134.352 184.402 132.816V110.29C176.723 111.826 169.556 112.85 163.413 113.874Z" fill="#E1C4AC"/>
<path d="M86.6211 113.874C79.9658 112.85 73.3105 111.826 65.6313 110.29V132.816C73.3105 134.352 79.9658 135.375 86.6211 136.399V113.874Z" fill="#E1C4AC"/>
<path d="M163.413 157.389L161.365 159.437V165.58L162.389 168.652V173.771H164.437V168.652L165.461 165.58V159.437L163.413 157.389Z" fill="#007361"/>
<path d="M164.437 178.379V175.307H162.389V178.379L161.365 180.427L163.413 182.986L165.461 180.427L164.437 178.379Z" fill="#007361"/>
<path d="M165.973 175.307V177.355L167.508 178.891L169.556 177.355V175.307H165.973Z" fill="#007361"/>
<path d="M168.532 165.58L165.973 168.652V173.771H168.02V170.7L170.068 168.14L172.628 170.188L174.164 168.14V165.58H168.532Z" fill="#007361"/>
<path d="M160.853 175.307V177.355L159.318 178.891L156.758 177.355V175.307H160.853Z" fill="#007361"/>
<path d="M158.293 165.58L160.853 168.652V173.771H158.805V170.7L156.757 168.14L154.198 170.188L152.15 168.14V165.58H158.293Z" fill="#007361"/>
<path d="M86.6215 157.389L84.5737 159.437V165.58L85.5976 168.652V173.771H87.6454V168.652L88.6693 165.58V159.437L86.6215 157.389Z" fill="#007361"/>
<path d="M87.6454 178.379V175.307H85.5976V178.379L84.5737 180.427L86.6215 182.986L88.6693 180.427L87.6454 178.379Z" fill="#007361"/>
<path d="M89.1807 175.307V177.355L90.7165 178.891L92.7643 177.355V175.307H89.1807Z" fill="#007361"/>
<path d="M91.7404 165.58L89.1807 168.652V173.771H91.2284V170.7L93.2762 168.14L95.836 170.188L97.3718 168.14V165.58H91.7404Z" fill="#007361"/>
<path d="M84.0614 175.307V177.355L82.5255 178.891L79.9658 177.355V175.307H84.0614Z" fill="#007361"/>
<path d="M81.5017 165.58L84.0615 168.652V173.771H82.0137V170.7L79.9659 168.14L76.8942 170.188L75.3584 168.14V165.58H81.5017Z" fill="#007361"/>
</svg>
