<svg width="250" height="250" viewBox="0 0 250 250" fill="none" xmlns="http://www.w3.org/2000/svg">
<rect width="250" height="250" fill="#0E3A24"/>
<g clip-path="url(#clip0_192_21765)">
<path d="M195.652 36.8264H54.7831L54.7793 95.5337H195.656V36.8264H195.652Z" fill="white"/>
<path d="M178.052 36.5872L125.078 59.3933L72.4232 36.8208H54.7799L54.7794 42.6612L109.492 66.101L54.7794 89.6511L54.7788 95.4824H72.4229L125.229 72.8444L178.052 95.4824H195.653V89.6511L140.843 66.1565L195.653 42.6612V36.5868L178.052 36.5872Z" fill="#E31A22"/>
<path d="M141.284 39.0482C140.842 39.0483 140.508 39.3938 140.508 39.8492C140.508 40.2412 140.842 40.628 141.284 40.628C141.725 40.628 142.089 40.2412 142.089 39.8492C142.089 39.3938 141.725 39.0482 141.284 39.0482ZM108.935 39.204C108.543 39.204 108.201 39.5399 108.201 39.9828C108.201 40.3875 108.543 40.7392 108.935 40.7392C109.38 40.7392 109.714 40.3875 109.714 39.9828C109.714 39.5399 109.38 39.204 108.935 39.204ZM139.71 40.628C139.319 40.628 138.97 40.9737 138.97 41.429C138.97 41.821 139.319 42.1629 139.71 42.1632C140.145 42.1632 140.508 41.821 140.508 41.429C140.508 40.9737 140.145 40.628 139.71 40.628ZM142.886 40.628C142.444 40.628 142.089 40.9737 142.089 41.429C142.089 41.821 142.444 42.1629 142.886 42.1632C143.278 42.1632 143.626 41.821 143.626 41.429C143.626 40.9737 143.278 40.628 142.886 40.628ZM107.4 40.7392C106.958 40.7392 106.599 41.0751 106.599 41.518C106.599 41.9733 106.958 42.319 107.4 42.319C107.841 42.319 108.201 41.9733 108.201 41.518C108.201 41.0751 107.841 40.7392 107.4 40.7392ZM110.515 40.7392C110.073 40.7392 109.714 41.0751 109.714 41.518C109.714 41.9733 110.073 42.319 110.515 42.319C110.956 42.319 111.316 41.9733 111.316 41.518C111.316 41.0751 110.956 40.7392 110.515 40.7392ZM141.284 41.429C141.284 41.429 139.226 48.2991 139.376 48.4379C139.461 48.5896 140.707 48.104 140.707 48.104C140.707 48.104 141.085 50.2179 141.284 50.2179C141.49 50.2179 141.91 48.104 141.91 48.104C141.91 48.104 143.078 48.5896 143.27 48.4379C143.37 48.3368 141.284 41.429 141.284 41.429ZM108.935 41.518C108.935 41.518 106.919 48.4422 107.022 48.5939C107.121 48.7448 108.379 48.193 108.379 48.193C108.379 48.193 108.796 50.329 108.935 50.329C109.138 50.329 109.536 48.193 109.536 48.193C109.536 48.193 110.713 48.7448 110.916 48.5939C111.054 48.4928 108.935 41.518 108.935 41.518ZM125.221 45.6341C124.78 45.6341 124.466 45.9701 124.466 46.413C124.466 46.8559 124.78 47.214 125.221 47.214C125.677 47.214 126.026 46.8559 126.026 46.413C126.026 45.9701 125.677 45.6341 125.221 45.6341ZM123.665 47.214C123.22 47.214 122.864 47.5501 122.864 47.9929C122.864 48.3853 123.22 48.7491 123.665 48.7491C124.12 48.7491 124.466 48.3853 124.466 47.9929C124.466 47.5501 124.12 47.214 123.665 47.214ZM126.802 47.214C126.36 47.214 126.026 47.5501 126.026 47.9929C126.026 48.3853 126.36 48.7491 126.802 48.7491C127.208 48.7491 127.557 48.3853 127.557 47.9929C127.557 47.5501 127.208 47.214 126.802 47.214ZM125.221 47.9929C125.221 47.9929 123.164 54.8723 123.264 55.0239C123.367 55.1756 124.644 54.6679 124.644 54.6679C124.644 54.6679 125.033 56.7819 125.221 56.7819C125.428 56.7819 125.826 54.6679 125.826 54.6679C125.826 54.6679 127.008 55.1756 127.158 55.0239C127.293 54.9228 125.221 47.9929 125.221 47.9929ZM66.838 51.1079C66.3958 51.1079 66.037 51.4504 66.037 51.842C66.037 52.2849 66.3958 52.643 66.838 52.643C67.2808 52.643 67.6169 52.2849 67.6169 51.842C67.6169 51.4504 67.2808 51.1079 66.838 51.1079ZM184.097 51.1521C183.649 51.1521 183.293 51.5038 183.293 51.9089C183.293 52.3518 183.649 52.6879 184.097 52.6879C184.489 52.6879 184.831 52.3518 184.831 51.9089C184.831 51.5038 184.489 51.1521 184.097 51.1521ZM65.236 52.643C64.8436 52.643 64.524 52.9791 64.524 53.4219C64.5247 53.8641 64.8436 54.2229 65.236 54.2229C65.6788 54.2229 66.037 53.8641 66.037 53.4219C66.037 52.9791 65.6788 52.643 65.236 52.643ZM68.4179 52.643C67.975 52.643 67.6169 52.9791 67.6169 53.4219C67.6169 53.8641 67.975 54.2229 68.4179 54.2229C68.8095 54.2229 69.1968 53.8641 69.1968 53.4219C69.1968 52.9791 68.8095 52.643 68.4179 52.643ZM182.516 52.6879C182.074 52.6879 181.718 53.046 181.718 53.4882C181.718 53.931 182.074 54.2671 182.516 54.2671C182.957 54.2671 183.292 53.931 183.292 53.4882C183.292 53.046 182.957 52.6879 182.516 52.6879ZM185.606 52.6879C185.214 52.6879 184.873 53.046 184.873 53.4882C184.873 53.931 185.214 54.2671 185.606 54.2671C186.047 54.2671 186.41 53.931 186.41 53.4882C186.41 53.046 186.047 52.6879 185.606 52.6879ZM66.8372 53.4219C66.8372 53.4219 64.7504 60.3583 64.9013 60.4971C65.0031 60.6488 66.237 60.097 66.237 60.097C66.237 60.097 66.6479 62.233 66.8372 62.233C67.0402 62.233 67.4161 60.097 67.4161 60.097C67.4161 60.097 68.6059 60.6488 68.7952 60.4971C68.8963 60.4088 66.8372 53.4219 66.8372 53.4219ZM184.096 53.4882C184.096 53.4889 181.953 60.4408 182.096 60.542C182.295 60.6936 183.498 60.1411 183.498 60.1411C183.498 60.1411 183.89 62.2771 184.096 62.2771C184.282 62.2771 184.673 60.1411 184.673 60.1411C184.673 60.1411 185.912 60.6936 186.012 60.542C186.111 60.4031 184.096 53.4882 184.096 53.4882ZM88.4678 60.8531C88.0755 60.8531 87.7337 61.1956 87.7337 61.5879C87.7337 62.03 88.0755 62.3661 88.4678 62.3661C88.9107 62.3661 89.2688 62.03 89.2688 61.5879C89.2688 61.1956 88.9107 60.8531 88.4678 60.8531ZM162.445 60.898C162.003 60.898 161.647 61.2404 161.647 61.632C161.647 62.0749 162.003 62.433 162.445 62.433C162.843 62.433 163.178 62.0749 163.178 61.632C163.178 61.2404 162.843 60.898 162.445 60.898ZM86.9299 62.3661C86.4877 62.3661 86.1509 62.7242 86.1509 63.1671C86.1509 63.61 86.4877 63.946 86.9299 63.946C87.3222 63.946 87.686 63.61 87.686 63.1671C87.6867 62.7242 87.3222 62.3661 86.9299 62.3661ZM90.0449 62.3661C89.6034 62.3661 89.2659 62.7242 89.2659 63.1671C89.2659 63.61 89.6034 63.946 90.0449 63.946C90.4863 63.946 90.8459 63.61 90.8459 63.1671C90.8459 62.7242 90.4863 62.3661 90.0449 62.3661ZM160.864 62.433C160.422 62.433 160.066 62.7691 160.066 63.212C160.066 63.6548 160.422 64.013 160.864 64.013C161.305 64.013 161.647 63.6548 161.647 63.212C161.647 62.7691 161.305 62.433 160.864 62.433ZM163.982 62.433C163.591 62.433 163.178 62.7691 163.178 63.212C163.178 63.6548 163.591 64.013 163.982 64.013C164.424 64.013 164.759 63.6548 164.759 63.212C164.759 62.7691 164.424 62.433 163.982 62.433ZM88.4678 63.1671C88.4678 63.1671 86.4528 70.0692 86.5547 70.2202C86.6558 70.3725 87.8897 69.8421 87.8897 69.8421C87.8897 69.8421 88.2656 71.956 88.4678 71.956C88.67 71.956 89.0687 69.8421 89.0687 69.8421C89.0687 69.8421 90.2563 70.3725 90.4486 70.2202C90.5974 70.1198 88.4678 63.1671 88.4678 63.1671ZM162.445 63.212C162.445 63.212 160.316 70.186 160.465 70.2871C160.657 70.4388 161.846 69.887 161.846 69.887C161.846 69.887 162.245 72.023 162.445 72.023C162.601 72.023 162.979 69.887 162.979 69.887C162.979 69.887 164.26 70.4388 164.36 70.2871C164.46 70.1354 162.445 63.212 162.445 63.212ZM66.8372 69.2419C66.3951 69.2419 66.0362 69.5836 66.0362 69.976C66.0362 70.4309 66.3951 70.777 66.8372 70.777C67.2801 70.777 67.6162 70.4309 67.6162 69.976C67.6162 69.5836 67.2801 69.2419 66.8372 69.2419ZM184.096 69.286C183.648 69.286 183.292 69.6278 183.292 70.0201C183.292 70.463 183.648 70.8211 184.096 70.8211C184.538 70.8211 184.873 70.463 184.873 70.0201C184.873 69.6278 184.538 69.286 184.096 69.286ZM65.2352 70.777C64.7924 70.777 64.457 71.113 64.457 71.5559C64.457 72.0109 64.7924 72.3562 65.2352 72.3562C65.6781 72.3569 66.0362 72.0109 66.0362 71.5559C66.0362 71.113 65.6781 70.777 65.2352 70.777ZM68.4172 70.777C67.9743 70.777 67.6162 71.113 67.6162 71.5559C67.6162 72.0109 67.9743 72.3562 68.4172 72.3562C68.8088 72.3569 69.1512 72.0109 69.1512 71.5559C69.1512 71.113 68.8088 70.777 68.4172 70.777ZM182.515 70.8211C182.109 70.8211 181.718 71.1579 181.718 71.6C181.718 72.0429 182.109 72.401 182.515 72.401C182.957 72.401 183.291 72.0429 183.291 71.6C183.291 71.1579 182.957 70.8211 182.515 70.8211ZM185.676 70.8211C185.228 70.8211 184.872 71.1579 184.872 71.6C184.872 72.0429 185.228 72.401 185.676 72.401C186.068 72.401 186.41 72.0429 186.41 71.6C186.41 71.1579 186.068 70.8211 185.676 70.8211ZM66.8365 71.5559C66.8365 71.5559 64.7554 78.4872 64.8565 78.5862C64.9576 78.74 66.2363 78.2302 66.2363 78.2302C66.2363 78.2309 66.6471 80.3662 66.8365 80.3662C67.0395 80.3662 67.4154 78.2302 67.4154 78.2302C67.4154 78.2309 68.6208 78.7393 68.7725 78.5862C68.9113 78.4872 66.8365 71.5559 66.8365 71.5559ZM184.096 71.6C184.096 71.6 182.01 78.5314 182.095 78.631C182.294 78.7841 183.498 78.2971 183.498 78.2971C183.498 78.2971 183.889 80.411 184.096 80.411C184.281 80.411 184.672 78.2971 184.672 78.2971C184.672 78.2971 185.911 78.7841 186.011 78.631C186.161 78.5314 184.096 71.6 184.096 71.6ZM125.285 76.8959C124.847 76.8952 124.487 77.2555 124.487 77.6962C124.487 78.1376 124.847 78.4751 125.285 78.4751C125.726 78.4751 126.068 78.1376 126.068 77.6962C126.068 77.2555 125.726 76.8959 125.285 76.8959ZM123.708 78.4751C123.267 78.4751 122.907 78.8311 122.907 79.2761C122.907 79.6677 123.267 80.055 123.708 80.055C124.153 80.055 124.487 79.6677 124.487 79.2761C124.487 78.8311 124.153 78.4751 123.708 78.4751ZM126.865 78.4751C126.424 78.4751 126.068 78.8311 126.068 79.2761C126.068 79.6677 126.424 80.055 126.865 80.055C127.271 80.055 127.606 79.6677 127.606 79.2761C127.606 78.8311 127.271 78.4751 126.865 78.4751ZM125.285 79.2761C125.285 79.2761 123.205 86.1462 123.308 86.285C123.408 86.4381 124.687 85.9511 124.687 85.9511C124.687 85.9511 125.099 88.0651 125.285 88.0651C125.491 88.0651 125.868 85.9511 125.868 85.9511C125.868 85.9511 127.072 86.4381 127.221 86.285C127.364 86.1996 125.285 79.2761 125.285 79.2761ZM109.268 82.636C108.827 82.636 108.489 82.9735 108.489 83.415C108.489 83.8101 108.827 84.149 109.268 84.149C109.71 84.149 110.069 83.8101 110.069 83.415C110.069 82.9735 109.71 82.6325 109.268 82.636ZM141.397 82.7699C140.956 82.7699 140.593 83.1152 140.593 83.5702C140.593 84.0116 140.956 84.3491 141.397 84.3491C141.839 84.3491 142.173 84.0116 142.173 83.5702C142.173 83.1152 141.839 82.7699 141.397 82.7699ZM107.688 84.216C107.286 84.216 106.954 84.5549 106.954 84.9501C106.954 85.3915 107.286 85.729 107.688 85.729C108.133 85.729 108.489 85.3915 108.489 84.9501C108.489 84.5549 108.133 84.216 107.688 84.216ZM110.87 84.216C110.414 84.216 110.069 84.5549 110.069 84.9501C110.069 85.3915 110.414 85.729 110.87 85.729C111.312 85.729 111.649 85.3915 111.649 84.9501C111.649 84.5549 111.312 84.216 110.87 84.216ZM139.817 84.3491C139.418 84.3491 139.062 84.6944 139.062 85.1501C139.062 85.5916 139.418 85.9511 139.817 85.9511C140.265 85.9511 140.593 85.5916 140.593 85.1501C140.593 84.6944 140.265 84.3491 139.817 84.3491ZM142.978 84.3491C142.529 84.3491 142.173 84.6944 142.173 85.1501C142.173 85.5916 142.529 85.9511 142.978 85.9511C143.419 85.9511 143.754 85.5916 143.754 85.1501C143.754 84.6944 143.419 84.3491 142.978 84.3491ZM109.268 84.9501C109.268 84.9501 107.233 91.8728 107.332 92.0259C107.435 92.164 108.689 91.6699 108.689 91.6699C108.69 91.6699 109.065 93.8059 109.268 93.8059C109.457 93.8052 109.869 91.6699 109.869 91.6699C109.869 91.6699 111.049 92.164 111.248 92.0259C111.401 91.9262 109.268 84.9501 109.268 84.9501ZM141.397 85.1501C141.397 85.1501 139.325 92.0558 139.461 92.1591C139.567 92.3086 140.799 91.8251 140.799 91.8251C140.799 91.8251 141.191 93.9391 141.397 93.9391C141.589 93.9391 141.995 91.8251 141.995 91.8251C141.995 91.8251 143.177 92.3086 143.377 92.1591C143.533 92.0558 141.397 85.1501 141.397 85.1501Z" fill="#231F20"/>
<path d="M55.0322 95.5325H195.453C192.932 147.862 168.276 188.021 125.146 213.233C81.9102 188.071 57.4495 147.914 55.0322 95.5325Z" fill="#1B6E44"/>
<path d="M124.754 102.403C124.427 102.414 124.088 102.464 123.754 102.546C121.44 103.04 120.696 103.681 120.593 105.262L123.263 105.116L123.91 105.173C123.907 105.173 124.298 105.807 124.01 106.262C123.654 106.757 123.063 106.262 123.063 106.262L123.02 105.173L120.593 105.262C120.443 106.892 121.091 109.115 121.493 111.187C121.685 112.433 121.935 113.8 121.785 114.74L119.603 115.537C116.883 114.007 114.37 116.136 112.295 117.666C110.461 118.806 107.791 119.539 106.019 119.197L105.531 119.745C105.328 121.376 106.716 123.199 106.567 124.388C106.567 124.388 104.342 126.068 103.05 124.388C101.821 122.65 98.8452 124.195 97.3642 124.195C95.8334 124.195 94.9043 123.348 94.5625 123.896C94.1567 124.487 96.1431 125.477 96.1431 125.477C94.9007 126.41 94.6479 127.157 94.9505 127.599C95.2425 128.04 96.4315 127.001 97.6205 126.168C98.8487 125.32 100.426 124.487 102.259 126.018C104.132 127.599 105.524 126.36 107.055 126.018C108.977 128.147 112.01 126.659 114.477 126.168C116.296 125.769 117.189 126.816 118.77 126.317C120.35 125.812 120.304 122.408 122.429 121.917C122.429 121.917 122.422 124.822 121.928 127.1C121.575 128.681 120.984 130.012 121.984 139.005C116.787 140.344 111.408 142.266 107.599 146.865C105.474 149.486 104.545 152.604 104.986 156.257C107.112 164.402 116.004 167.072 123.163 169.194C122.12 173.765 123.33 180.016 122.173 184.715C120.201 185.42 117.606 186.232 116.488 188.767C115.2 191.778 116.054 194.84 116.99 196.421C117.926 198.001 120.596 199.788 123.263 200.087C123.465 201.86 122.818 204.374 124.298 205.278C125.727 206.211 127.713 205.071 127.955 204.238C128.162 203.391 127.457 202.209 127.557 201.312C127.948 197.909 131.907 193.857 132.64 192.768C133.338 191.679 135.218 191.835 134.335 190.646C133.495 189.521 130.077 192.184 128.447 194.349C128.169 192.91 128.091 190.817 128.112 188.71C132.106 187.905 138.621 185.762 140.65 183.968C143.57 181.355 144.801 177.745 144.609 173.993C144.559 164.893 133.986 162.487 128.447 158.884C128.475 158.015 128.539 152.113 128.589 147.001C134.89 145.121 144.801 140.635 148.269 136.791C151.928 132.782 153.552 127.983 153.502 124.971C153.452 121.967 152.071 118.806 148.817 115.537C145.556 112.326 137.147 111.387 130.519 112.426C129.885 110.995 129.977 109.172 130.027 107.385C130.276 106.109 129.885 104.917 129.678 104.717C128.632 103.514 126.951 102.442 125.078 102.403C124.968 102.4 124.865 102.396 124.754 102.403ZM127.265 104.215L128.304 105.262L128.803 105.807L128.447 106.152C128.447 106.152 126.966 104.867 126.866 104.628C126.816 104.322 127.265 104.215 127.265 104.215ZM124.943 107.3L127.357 107.527C127.357 107.527 128.055 107.641 128.055 108.033C128.055 108.474 126.574 109.065 125.142 108.417C123.754 107.791 124.943 107.3 124.943 107.3ZM123.273 108.645C124.601 108.617 127.806 109.243 127.955 109.813C128.112 110.546 126.816 111.344 126.866 111.892C126.966 112.483 128.254 112.967 128.254 112.967C126.218 113.209 123.263 114.249 123.263 114.249L122.974 111.087C122.974 111.087 122.479 109.272 122.718 108.773C122.764 108.695 122.967 108.645 123.273 108.645ZM134.499 113.551C137.404 113.494 140.294 113.772 142.63 114.548C145.741 115.587 151.43 120.037 151.523 124.537C151.622 128.98 150.583 131.351 146.98 135.21C143.463 138.962 135.716 142.672 128.603 145.142C128.61 144.274 128.617 143.832 128.625 142.921C132.085 142.23 137.909 139.525 140.209 138.022C142.623 136.392 149.401 133.081 149.351 125.619C149.351 118.207 143.37 115.979 139.269 115.388C136.941 115.046 133.238 114.74 129.038 115.388C125.876 115.929 123.02 117.866 123.02 117.866C125.285 118.257 127.065 117.068 128.845 116.833C130.519 116.527 141.505 115.744 144.958 119.688C148.361 123.647 147.913 127.207 146.19 130.169C141.562 135.794 134.499 138.151 128.639 141.063C128.639 140.97 128.646 140.45 128.646 140.45C128.71 139.781 128.817 139.012 128.945 138.2C130.568 137.859 133.943 136.371 135.759 135.395C138.828 133.679 142.437 131.458 144.21 128.531C145.94 125.627 145.25 122.907 143.377 120.778C141.505 118.656 135.367 118.307 133.63 118.307C128.696 118.257 125.876 119.154 122.373 120.393C118.855 121.582 119.208 124.537 118.325 124.929C117.424 125.32 115.018 124.146 113.829 124.829C113.829 124.829 114.57 123.939 113.975 123.106C113.381 122.209 111.999 122.615 110.761 123.006C108.14 123.839 107.243 124.146 107.055 120.778C108.977 120.087 111.255 120.13 112.783 118.699C112.783 118.699 116.338 116.136 117.478 116.086C118.617 116.086 118.962 116.627 119.215 116.919C122.073 115.829 126.417 114.199 131.608 113.708C132.555 113.622 133.53 113.565 134.499 113.551ZM118.325 118.692C116.904 118.635 112.907 120.073 112.783 120.393C112.683 120.735 115.207 121.112 116.153 120.927C117.089 120.771 118.624 120.037 118.823 118.998C118.852 118.798 118.652 118.699 118.325 118.692ZM130.027 120.279C134.527 120.521 140.85 120.386 142.231 123.006C143.619 125.57 142.181 127.748 141.042 129.122C138.023 132.889 130.846 135.951 129.237 136.598C130.106 131.735 131.401 125.349 130.027 120.279ZM126.368 122.138C126.788 122.116 127.286 122.159 127.898 122.301C124.943 123.491 127.272 126.317 125.834 128.581C126.19 128.88 126.425 129.279 126.866 129.122L128.895 127.898L128.703 129.521C127.955 129.286 125.826 130.71 125.435 131.593C125.092 132.54 125.834 157.837 125.834 157.837C125.834 157.837 124.84 157.588 123.565 157.246C123.512 156.107 123.416 154.178 123.263 153.145C123.024 151.615 124.551 138.229 122.818 131.557C125.435 129.286 122.17 124.231 124.786 122.65C125.192 122.401 125.67 122.173 126.368 122.138ZM111.793 123.782C111.896 123.782 111.996 123.775 112.096 123.782C113.676 123.832 112.295 124.829 112.295 124.829C112.295 124.829 109.728 126.766 108.489 125.028C108.489 125.028 110.269 123.847 111.793 123.782ZM122.073 140.393C122.073 140.393 122.017 143.199 122.017 143.163C117.919 144.338 111.7 147.321 110.458 150.482C109.233 153.594 109.924 155.217 110.871 157.09C112.501 160.308 115.747 162.145 119.215 163.419C120.642 164.018 127.663 166.189 129.835 167.029C132.014 167.877 138.628 170.675 138.97 174.733C139.176 176.656 137.745 179.233 135.524 181.155C133.281 183.113 130.333 184.423 128.212 185.313C128.24 184.73 128.269 184.196 128.304 183.69C128.318 183.683 128.333 183.69 128.347 183.683C134.484 181.355 137.432 176.919 136.791 174.491C136.158 172.127 132.747 170.233 129.351 168.909C125.933 167.563 119.268 166.481 114.477 164.167C109.29 161.639 106.862 157.745 106.809 154.085C106.723 150.482 108.293 148.104 111.405 145.591C114.466 143.17 118.823 141.433 122.073 140.393ZM121.984 144.986L121.828 147.656C121.778 147.656 119.215 148.047 117.734 148.98C116.292 149.984 115.349 151.066 115.655 153.779C115.744 154.42 117.581 156.748 120.048 157.837C122.476 158.977 127.614 160.899 130.568 161.988C136.058 163.961 140.216 167.229 141.797 170.283C143.377 173.395 143.221 176.762 142.032 179.176C141.248 180.806 138.735 183.135 136.165 184.516C133.203 186.161 129.985 186.987 128.148 187.364C128.155 187.044 128.155 186.723 128.169 186.417C129.814 185.89 133.011 184.701 135.524 183.327C137.546 182.238 141.448 178.592 140.75 173.758C140.309 170.938 136.941 168.418 132.348 166.296C129.187 164.851 125.099 163.626 122.429 162.586C116.242 160.208 111.75 157.197 111.651 154.085C111.408 147.812 117.734 146.823 121.984 144.986ZM121.682 149.984L121.283 156.449C120.486 156.157 119.813 155.758 119.268 155.36C117.93 154.37 117.688 152.448 118.079 151.75C119.169 149.927 121.682 149.984 121.682 149.984ZM124.298 169.293C124.843 169.293 125.542 169.201 125.834 169.799C125.05 171.088 125.05 173.252 125.834 174.491C127.222 175.374 124.694 177.602 127.414 177.104L127.065 176.762L127.557 176.214L127.955 176.62C127.315 176.919 127.414 177.595 127.414 178.144C126.916 178.343 126.681 177.902 126.375 177.652C124.658 182.736 125.285 189.699 125.933 195.139C125.933 195.139 124.79 195.922 123.754 195.887C122.714 195.887 122.219 195.246 121.828 194.448C121.436 193.715 122.718 191.18 122.718 191.18C122.768 192.028 122.661 192.725 122.764 193.558C122.764 193.558 122.914 195.096 124.242 194.897C125.584 194.755 124.501 189.813 124.298 187.044C124.298 186.446 124.192 185.755 124.786 185.449L124.298 184.957C125.046 180.03 125.046 174.192 124.298 169.293ZM128.447 170.34C130.974 172.077 135.175 172.953 135.075 176.114C135.033 177.802 130.12 180.977 128.425 182.024C128.461 181.568 128.504 181.013 128.504 181.013C128.311 178.528 131.423 176.114 128.995 173.993L128.447 170.34ZM121.928 185.548C121.265 187.592 120.059 189.279 117.869 190.297C117.449 188.517 120.126 186.965 121.928 185.548ZM122.718 188.076C122.718 188.076 120.144 191.237 119.891 193.174C119.653 195.438 120.792 196.577 122.664 197.218C124.548 197.866 128.546 195.481 130.326 193.95C127.606 198.151 123.96 199.29 121.137 198.001C119.948 197.061 118.275 196.428 118.325 194.064C118.36 190.696 122.718 188.076 122.718 188.076ZM125.335 200.038L125.834 203.697L125.335 203.74L124.786 200.087L125.335 200.038Z" fill="#F1DC07"/>
<path d="M54.7792 95.5324H55.0322M55.0322 95.5324H195.453M55.0322 95.5324C57.4482 147.905 81.9116 188.078 125.146 213.226C168.276 188.028 192.932 147.85 195.453 95.5324M55.0322 95.5324L55.0318 95.5346C54.88 92.6154 54.7788 89.6535 54.7788 86.6453L54.7759 36.7811L195.652 36.7811V86.7841C195.652 89.7567 195.602 92.6652 195.453 95.5324M195.453 95.5324H195.652" stroke="#231F20" stroke-width="2.1881"/>
</g>
<defs>
<clipPath id="clip0_192_21765">
<rect width="142.429" height="178" fill="white" transform="translate(54 36)"/>
</clipPath>
</defs>
</svg>
